G04*
G04 #@! TF.GenerationSoftware,Altium Limited,Altium NEXUS,3.1.14 (81)*
G04*
G04 Layer_Color=0*
%FSLAX25Y25*%
%MOIN*%
G70*
G04*
G04 #@! TF.SameCoordinates,8D934BE8-6637-419B-8715-06A4025A7093*
G04*
G04*
G04 #@! TF.FilePolarity,Positive*
G04*
G01*
G75*
%ADD10C,0.00394*%
%ADD18C,0.00197*%
%ADD21C,0.00500*%
%ADD181C,0.00315*%
D10*
X29528Y94488D02*
X31890D01*
X30709Y93307D02*
Y95669D01*
X24803Y94488D02*
X27165D01*
X25984Y93307D02*
Y95669D01*
X15750Y89552D02*
Y91552D01*
X14750Y90552D02*
X16749D01*
X277520Y37280D02*
X278505D01*
X278013Y36788D02*
Y37772D01*
X272832Y38461D02*
X275194D01*
X274013Y37280D02*
Y39642D01*
X268731Y38461D02*
X271094D01*
X269913Y37280D02*
Y39642D01*
X258233Y5346D02*
X260595D01*
X259414Y4165D02*
Y6527D01*
X250722Y4246D02*
X251706D01*
X251214Y3754D02*
Y4739D01*
X254133Y5346D02*
X256495D01*
X255314Y4165D02*
Y6527D01*
X279134Y6693D02*
X281496D01*
X280315Y5512D02*
Y7874D01*
X274803Y6693D02*
X277165D01*
X275984Y5512D02*
Y7874D01*
X284154Y6693D02*
X285138D01*
X284646Y6201D02*
Y7185D01*
D18*
X28543Y89567D02*
X32874D01*
X28543Y99410D02*
X32874D01*
Y89567D02*
Y99410D01*
X28543Y89567D02*
Y99410D01*
X23819Y89567D02*
X28150D01*
X23819Y99410D02*
X28150D01*
Y89567D02*
Y99410D01*
X23819Y89567D02*
Y99410D01*
X7954Y98347D02*
X23545D01*
X7954Y82757D02*
Y98347D01*
Y82757D02*
X23545D01*
Y98347D01*
X25100Y18017D02*
Y20183D01*
X24017Y19100D02*
X26183D01*
X21360Y17131D02*
X28840D01*
X21360Y21068D02*
X28840D01*
X21360Y17131D02*
Y21068D01*
X28840Y17131D02*
Y21068D01*
X276635Y34130D02*
Y40429D01*
X279391D01*
X276635Y34130D02*
X279391D01*
Y40429D01*
X271847Y33540D02*
X276178D01*
X271847Y43382D02*
X276178D01*
Y33540D02*
Y43382D01*
X271847Y33540D02*
Y43382D01*
X267747Y33540D02*
X272078D01*
X267747Y43382D02*
X272078D01*
Y33540D02*
Y43382D01*
X267747Y33540D02*
Y43382D01*
X248031Y43012D02*
Y45177D01*
X246949Y44094D02*
X249114D01*
X244291Y42126D02*
X251772D01*
X244291Y46063D02*
X251772D01*
X244291Y42126D02*
Y46063D01*
X251772Y42126D02*
Y46063D01*
X251691Y42471D02*
X255628D01*
X251691Y49952D02*
X255628D01*
Y42471D02*
Y49952D01*
X251691Y42471D02*
Y49952D01*
X253660Y45129D02*
Y47294D01*
X252577Y46211D02*
X254743D01*
X257249Y425D02*
X261579D01*
X257249Y10268D02*
X261579D01*
Y425D02*
Y10268D01*
X257249Y425D02*
Y10268D01*
X249836Y1097D02*
Y7396D01*
X252592D01*
X249836Y1097D02*
X252592D01*
Y7396D01*
X253149Y425D02*
X257479D01*
X253149Y10268D02*
X257479D01*
Y425D02*
Y10268D01*
X253149Y425D02*
Y10268D01*
X278150Y1772D02*
X282480D01*
X278150Y11614D02*
X282480D01*
Y1772D02*
Y11614D01*
X278150Y1772D02*
Y11614D01*
X273819Y1772D02*
X278150D01*
X273819Y11614D02*
X278150D01*
Y1772D02*
Y11614D01*
X273819Y1772D02*
Y11614D01*
X283268Y3543D02*
Y9843D01*
X286024D01*
X283268Y3543D02*
X286024D01*
Y9843D01*
D21*
X70500Y107600D02*
Y112600D01*
X68000Y110100D02*
X73000D01*
X8100Y5500D02*
Y10500D01*
X5600Y8000D02*
X10600D01*
X137500Y4800D02*
Y9800D01*
X135000Y7300D02*
X140000D01*
X357540Y108400D02*
Y113400D01*
X355040Y110900D02*
X360040D01*
D181*
X313781Y56299D02*
X324018D01*
Y66535D01*
X313781D02*
X324018D01*
X313781Y56299D02*
Y66535D01*
M02*
