G04*
G04 #@! TF.GenerationSoftware,Altium Limited,Altium NEXUS,3.1.14 (81)*
G04*
G04 Layer_Physical_Order=4*
G04 Layer_Color=6736896*
%FSLAX25Y25*%
%MOIN*%
G70*
G04*
G04 #@! TF.SameCoordinates,8D934BE8-6637-419B-8715-06A4025A7093*
G04*
G04*
G04 #@! TF.FilePolarity,Positive*
G04*
G01*
G75*
%ADD17C,0.00800*%
%ADD21C,0.00500*%
%ADD141C,0.01200*%
%ADD147C,0.04000*%
%ADD156C,0.03200*%
%ADD158C,0.01800*%
%ADD159C,0.02200*%
%ADD160C,0.09000*%
%ADD162C,0.01968*%
%ADD163C,0.10000*%
%ADD164C,0.03000*%
%ADD165R,0.06700X0.06500*%
G36*
X75712Y117169D02*
X76279Y116934D01*
X76789Y116594D01*
X77223Y116159D01*
X77564Y115649D01*
X77799Y115082D01*
X77919Y114480D01*
Y106498D01*
X77997Y106107D01*
X78218Y105777D01*
X78548Y105556D01*
X78939Y105478D01*
X79000D01*
Y77976D01*
X71680D01*
X70078Y79579D01*
Y101822D01*
X70078Y101822D01*
X69969Y102369D01*
X69659Y102832D01*
X69659Y102832D01*
X62427Y110064D01*
X61964Y110374D01*
X61417Y110483D01*
X61417Y110483D01*
X26969D01*
X25145Y112306D01*
X25018Y112946D01*
X24598Y113575D01*
X23970Y113995D01*
X23228Y114142D01*
X22487Y113995D01*
X21858Y113575D01*
X21439Y112946D01*
X21291Y112205D01*
X21439Y111463D01*
X21858Y110835D01*
X22487Y110415D01*
X23127Y110288D01*
X25369Y108046D01*
X25369Y108046D01*
X25832Y107736D01*
X26378Y107628D01*
X26378Y107628D01*
X60826D01*
X67223Y101231D01*
Y78988D01*
X67223Y78988D01*
X67331Y78442D01*
X67641Y77978D01*
X70080Y75539D01*
X70080Y75539D01*
X70543Y75230D01*
X71089Y75121D01*
X71089Y75121D01*
X79000D01*
Y73081D01*
X69489D01*
X64950Y77620D01*
Y100682D01*
X64950Y100682D01*
X64841Y101229D01*
X64531Y101692D01*
X64531Y101692D01*
X60489Y105734D01*
X60026Y106043D01*
X59480Y106152D01*
X59480Y106152D01*
X29236D01*
X28694Y106514D01*
X27953Y106662D01*
X27211Y106514D01*
X26583Y106094D01*
X26163Y105466D01*
X26015Y104724D01*
X26163Y103983D01*
X26583Y103355D01*
X27211Y102935D01*
X27953Y102787D01*
X28694Y102935D01*
X29236Y103297D01*
X58889D01*
X62095Y100091D01*
Y77029D01*
X62095Y77029D01*
X62203Y76483D01*
X62513Y76020D01*
X67888Y70644D01*
X67888Y70644D01*
X68351Y70335D01*
X68898Y70226D01*
X68898Y70226D01*
X79000D01*
Y54911D01*
X37195D01*
Y57332D01*
X55266Y75404D01*
X55905D01*
X56881Y75598D01*
X57708Y76150D01*
X58261Y76977D01*
X58455Y77953D01*
X58261Y78928D01*
X57708Y79755D01*
X56881Y80308D01*
X55905Y80502D01*
X54211D01*
X53235Y80308D01*
X52408Y79755D01*
X32843Y60190D01*
X32291Y59363D01*
X32097Y58388D01*
Y57711D01*
X31597Y57301D01*
X31309Y57358D01*
X30567Y57211D01*
X29939Y56791D01*
X29519Y56162D01*
X29371Y55421D01*
X29452Y55018D01*
X29072Y54518D01*
X5512D01*
X4536Y54324D01*
X3709Y53771D01*
X3157Y52944D01*
X2963Y51968D01*
X3157Y50993D01*
X3709Y50166D01*
X4536Y49613D01*
X5512Y49420D01*
X34252D01*
X35227Y49613D01*
X35526Y49813D01*
X68690D01*
X69027Y49313D01*
X68929Y48819D01*
X69015Y48384D01*
X68650Y47884D01*
X47347D01*
X46804Y48246D01*
X46063Y48394D01*
X45322Y48246D01*
X44693Y47826D01*
X44273Y47198D01*
X44126Y46457D01*
X44183Y46171D01*
X43865Y45784D01*
X21522D01*
X21522Y45784D01*
X20976Y45676D01*
X20513Y45366D01*
X20513Y45366D01*
X8953Y33807D01*
X8314Y33680D01*
X7685Y33260D01*
X7265Y32631D01*
X7118Y31890D01*
X7265Y31148D01*
X7685Y30520D01*
X8314Y30100D01*
X9055Y29952D01*
X9797Y30100D01*
X10425Y30520D01*
X10845Y31148D01*
X10972Y31788D01*
X13028Y33844D01*
X13490Y33653D01*
Y23660D01*
X13171Y23182D01*
X13023Y22441D01*
X13171Y21700D01*
X13288Y21524D01*
X13121Y20874D01*
X12803Y20661D01*
X12383Y20033D01*
X12236Y19291D01*
X12383Y18550D01*
X12803Y17921D01*
X13432Y17502D01*
X14173Y17354D01*
X14915Y17502D01*
X15543Y17921D01*
X15963Y18550D01*
X16111Y19291D01*
X15963Y20033D01*
X15845Y20209D01*
X16013Y20859D01*
X16330Y21071D01*
X16750Y21700D01*
X16898Y22441D01*
X16846Y22704D01*
X16945Y22804D01*
X17284Y23063D01*
X17926Y23191D01*
X18508Y23580D01*
X18681Y23525D01*
X18969Y23332D01*
X18863Y22800D01*
X19010Y22059D01*
X19430Y21430D01*
X20059Y21010D01*
X20800Y20863D01*
X21541Y21010D01*
X22084Y21373D01*
X24099D01*
X24099Y21373D01*
X24645Y21481D01*
X25108Y21791D01*
X28394Y25077D01*
X28855Y24830D01*
X28771Y24409D01*
X28919Y23668D01*
X29339Y23040D01*
X29967Y22620D01*
X30709Y22472D01*
X31450Y22620D01*
X32078Y23040D01*
X32325Y23409D01*
X32552Y23446D01*
X32931Y23369D01*
X33068Y23159D01*
X33035Y22995D01*
X32489Y22630D01*
X32068Y22001D01*
X31921Y21260D01*
X32068Y20518D01*
X32269Y20218D01*
X32208Y19909D01*
X32208Y19909D01*
X31420Y19121D01*
X30780Y18994D01*
X30152Y18574D01*
X29732Y17945D01*
X29585Y17204D01*
X29732Y16463D01*
X30152Y15834D01*
X30780Y15414D01*
X31522Y15267D01*
X32263Y15414D01*
X32891Y15834D01*
X33311Y16463D01*
X33439Y17102D01*
X33809Y17473D01*
X35002D01*
X35320Y17086D01*
X35263Y16800D01*
X35410Y16059D01*
X35830Y15430D01*
X36459Y15010D01*
X37098Y14883D01*
X37636Y14345D01*
X37636Y14345D01*
X38003Y14100D01*
X37922Y13606D01*
X37920Y13600D01*
X26800D01*
Y2000D01*
X22900D01*
Y821D01*
X3630D01*
X3028Y941D01*
X2461Y1176D01*
X1951Y1517D01*
X1517Y1951D01*
X1176Y2461D01*
X941Y3028D01*
X821Y3630D01*
Y3937D01*
Y70133D01*
X1284Y70226D01*
X1377Y70264D01*
X1475Y70284D01*
X2152Y70564D01*
X2236Y70620D01*
X2329Y70658D01*
X2938Y71065D01*
X3009Y71136D01*
X3093Y71192D01*
X3611Y71710D01*
X3667Y71794D01*
X3738Y71865D01*
X4145Y72474D01*
X4183Y72567D01*
X4239Y72651D01*
X4520Y73328D01*
X4539Y73426D01*
X4578Y73519D01*
X4721Y74238D01*
Y74313D01*
X4739Y74387D01*
X4757Y74753D01*
X4750Y74803D01*
X4757Y74853D01*
X4739Y75220D01*
X4721Y75293D01*
Y75368D01*
X4578Y76087D01*
X4539Y76180D01*
X4520Y76279D01*
X4239Y76956D01*
X4183Y77039D01*
X4145Y77132D01*
X3738Y77741D01*
X3667Y77812D01*
X3611Y77896D01*
X3093Y78414D01*
X3009Y78470D01*
X2938Y78541D01*
X2329Y78948D01*
X2236Y78987D01*
X2152Y79042D01*
X1475Y79323D01*
X1377Y79342D01*
X1284Y79381D01*
X821Y79473D01*
Y114173D01*
Y114480D01*
X941Y115082D01*
X1176Y115649D01*
X1517Y116159D01*
X1951Y116594D01*
X2461Y116934D01*
X3028Y117169D01*
X3630Y117289D01*
X34697D01*
X34931Y116416D01*
X34990Y116296D01*
X35033Y116170D01*
X35521Y115324D01*
X35609Y115224D01*
X35683Y115113D01*
X36373Y114423D01*
X36484Y114349D01*
X36584Y114261D01*
X37430Y113773D01*
X37556Y113730D01*
X37675Y113671D01*
X38618Y113419D01*
X38751Y113410D01*
X38882Y113384D01*
X39858D01*
X39989Y113410D01*
X40122Y113419D01*
X41065Y113671D01*
X41184Y113730D01*
X41311Y113773D01*
X42156Y114261D01*
X42256Y114349D01*
X42367Y114423D01*
X43057Y115113D01*
X43131Y115224D01*
X43219Y115324D01*
X43707Y116170D01*
X43750Y116296D01*
X43809Y116416D01*
X44043Y117289D01*
X75110D01*
X75712Y117169D01*
D02*
G37*
G36*
X59609Y39229D02*
X59480Y38583D01*
X59628Y37841D01*
X60048Y37213D01*
X60676Y36793D01*
X61417Y36645D01*
X62159Y36793D01*
X62701Y37155D01*
X79000D01*
Y29001D01*
X67974D01*
X67602Y29501D01*
X67685Y29921D01*
X67538Y30663D01*
X67118Y31291D01*
X66489Y31711D01*
X65748Y31859D01*
X65007Y31711D01*
X64378Y31291D01*
X63958Y30663D01*
X63811Y29921D01*
X63894Y29501D01*
X63522Y29001D01*
X49572D01*
X46068Y32505D01*
X45605Y32815D01*
X45059Y32923D01*
X45059Y32923D01*
X32795D01*
X32795Y32923D01*
X32249Y32815D01*
X31786Y32505D01*
X31786Y32505D01*
X23508Y24227D01*
X22834D01*
X22627Y24614D01*
X22621Y24727D01*
X22761Y25433D01*
X22614Y26174D01*
X22194Y26802D01*
X21565Y27222D01*
X20824Y27370D01*
X20083Y27222D01*
X19454Y26802D01*
X19154Y26353D01*
X19080Y26341D01*
X18612Y26640D01*
Y34641D01*
X23699Y39729D01*
X32395D01*
X32662Y39229D01*
X32462Y38930D01*
X32315Y38189D01*
X32462Y37448D01*
X32882Y36819D01*
X33511Y36399D01*
X34252Y36252D01*
X34993Y36399D01*
X35622Y36819D01*
X36042Y37448D01*
X36189Y38189D01*
X36042Y38930D01*
X35842Y39229D01*
X36109Y39729D01*
X59343D01*
X59609Y39229D01*
D02*
G37*
G36*
X79000Y12632D02*
X78939D01*
X78548Y12555D01*
X78218Y12334D01*
X77997Y12003D01*
X77919Y11613D01*
Y3630D01*
X77799Y3028D01*
X77564Y2461D01*
X77223Y1951D01*
X76789Y1517D01*
X76279Y1176D01*
X75712Y941D01*
X75110Y821D01*
X63216D01*
X63059Y1115D01*
X62995Y1321D01*
X63130Y2000D01*
X62982Y2741D01*
X62563Y3370D01*
X61934Y3790D01*
X61193Y3937D01*
X60451Y3790D01*
X59823Y3370D01*
X59403Y2741D01*
X59255Y2000D01*
X59390Y1321D01*
X59326Y1115D01*
X59169Y821D01*
X55389D01*
X55289Y1321D01*
X55588Y1445D01*
X56204Y1918D01*
X56678Y2534D01*
X56975Y3252D01*
X57076Y4022D01*
X56975Y4793D01*
X56678Y5511D01*
X56204Y6127D01*
X55588Y6600D01*
X54870Y6897D01*
X54100Y6999D01*
X53330Y6897D01*
X52612Y6600D01*
X51995Y6127D01*
X51522Y5511D01*
X51225Y4793D01*
X51124Y4022D01*
X51225Y3252D01*
X51522Y2534D01*
X51995Y1918D01*
X52612Y1445D01*
X52911Y1321D01*
X52811Y821D01*
X49891D01*
Y2000D01*
X46516D01*
Y13596D01*
X46879Y13927D01*
X51285D01*
X51488Y13427D01*
X51225Y12793D01*
X51169Y12364D01*
X50632Y12121D01*
X50632Y12121D01*
X49891Y12268D01*
X49149Y12121D01*
X48521Y11701D01*
X48101Y11072D01*
X47954Y10331D01*
X48101Y9590D01*
X48521Y8961D01*
X49149Y8541D01*
X49891Y8394D01*
X50632Y8541D01*
X51261Y8961D01*
X51665Y9567D01*
X51698Y9595D01*
X52221Y9745D01*
X52612Y9445D01*
X53330Y9148D01*
X54100Y9046D01*
X54870Y9148D01*
X55588Y9445D01*
X56204Y9918D01*
X56678Y10534D01*
X56975Y11252D01*
X57076Y12022D01*
X56975Y12793D01*
X56712Y13427D01*
X56915Y13927D01*
X64631D01*
X64631Y13927D01*
X65177Y14036D01*
X65640Y14345D01*
X67946Y16651D01*
X79000D01*
Y12632D01*
D02*
G37*
G36*
X363114Y117169D02*
X363681Y116934D01*
X364191Y116594D01*
X364625Y116159D01*
X364966Y115649D01*
X365201Y115082D01*
X365320Y114480D01*
Y106498D01*
X365398Y106107D01*
X365619Y105777D01*
X365950Y105556D01*
X366000Y105546D01*
X366000Y27559D01*
X340945D01*
X340945Y11811D01*
X335433D01*
Y5189D01*
X335403Y5101D01*
X335134Y4726D01*
X334158D01*
X334027Y4700D01*
X333894Y4691D01*
X332951Y4439D01*
X332831Y4380D01*
X332705Y4337D01*
X331860Y3849D01*
X331760Y3761D01*
X331649Y3687D01*
X330959Y2997D01*
X330885Y2886D01*
X330797Y2786D01*
X330309Y1940D01*
X330266Y1814D01*
X330207Y1695D01*
X329973Y821D01*
X273763D01*
X273522Y1321D01*
X273814Y1759D01*
X273962Y2500D01*
X273814Y3241D01*
X273394Y3870D01*
X272766Y4290D01*
X272024Y4437D01*
X271283Y4290D01*
X270655Y3870D01*
X270494D01*
X269866Y4290D01*
X269125Y4437D01*
X268383Y4290D01*
X267755Y3870D01*
X267335Y3241D01*
X267187Y2500D01*
X267335Y1759D01*
X267627Y1321D01*
X267386Y821D01*
X265363D01*
X265122Y1321D01*
X265414Y1759D01*
X265562Y2500D01*
X265414Y3241D01*
X264994Y3870D01*
X264366Y4290D01*
X263625Y4437D01*
X262883Y4290D01*
X262255Y3870D01*
X261835Y3241D01*
X261687Y2500D01*
X261835Y1759D01*
X262127Y1321D01*
X261886Y821D01*
X248137D01*
X247870Y1321D01*
X247978Y1865D01*
X251379Y5266D01*
X296850D01*
X296850Y5266D01*
X297397Y5374D01*
X297860Y5684D01*
X299804Y7628D01*
X316535D01*
X316535Y7628D01*
X317082Y7736D01*
X317545Y8046D01*
X318332Y8833D01*
X318332Y8833D01*
X318642Y9296D01*
X318750Y9843D01*
X318750Y9843D01*
Y24218D01*
X320589Y26057D01*
X321229Y26184D01*
X321857Y26604D01*
X322277Y27233D01*
X322425Y27974D01*
X322277Y28715D01*
X321857Y29344D01*
X321229Y29764D01*
X320488Y29911D01*
X319746Y29764D01*
X319118Y29344D01*
X318698Y28715D01*
X318571Y28076D01*
X316314Y25819D01*
X316004Y25356D01*
X315895Y24809D01*
X315895Y24809D01*
Y10483D01*
X299213D01*
X299213Y10483D01*
X298666Y10374D01*
X298203Y10064D01*
X296259Y8120D01*
X293605D01*
X293414Y8582D01*
X294086Y9255D01*
X294366Y9310D01*
X294994Y9730D01*
X295414Y10359D01*
X295562Y11100D01*
X295414Y11841D01*
X294994Y12470D01*
X294366Y12890D01*
X293624Y13037D01*
X292883Y12890D01*
X292255Y12470D01*
X291835Y11841D01*
X291779Y11562D01*
X290510Y10293D01*
X248210D01*
X247585Y10169D01*
X247056Y9815D01*
X241480Y4239D01*
X241200Y4183D01*
X240572Y3763D01*
X240152Y3135D01*
X240005Y2394D01*
X240152Y1652D01*
X240373Y1321D01*
X240106Y821D01*
X164984D01*
X164833Y1321D01*
X164996Y1430D01*
X165416Y2059D01*
X165563Y2800D01*
X165416Y3541D01*
X164996Y4170D01*
X164367Y4590D01*
X163626Y4737D01*
X162885Y4590D01*
X162256Y4170D01*
X161836Y3541D01*
X161689Y2800D01*
X161836Y2059D01*
X162256Y1430D01*
X162419Y1321D01*
X162268Y821D01*
X133551D01*
X132949Y941D01*
X132382Y1176D01*
X131872Y1517D01*
X131438Y1951D01*
X131097Y2461D01*
X130862Y3028D01*
X130743Y3630D01*
Y11613D01*
X130665Y12003D01*
X130444Y12334D01*
X130113Y12555D01*
X129800Y12617D01*
Y16651D01*
X131637D01*
X135518Y12770D01*
X135518Y12770D01*
X135981Y12461D01*
X136527Y12352D01*
X139661D01*
X140203Y11990D01*
X140945Y11842D01*
X141686Y11990D01*
X142315Y12410D01*
X142735Y13038D01*
X142810Y13416D01*
X143352Y13580D01*
X148493Y8439D01*
X148493Y8439D01*
X148956Y8130D01*
X149502Y8021D01*
X149502Y8021D01*
X157770D01*
X157770Y8021D01*
X158316Y8130D01*
X158779Y8439D01*
X162824Y12484D01*
X205806D01*
X205889Y12224D01*
X205889Y11984D01*
X205323Y11606D01*
X204903Y10978D01*
X204756Y10236D01*
X204903Y9495D01*
X205323Y8866D01*
X205952Y8446D01*
X206693Y8299D01*
X207434Y8446D01*
X208063Y8866D01*
X208483Y9495D01*
X208630Y10236D01*
X208483Y10978D01*
X208063Y11606D01*
X207497Y11984D01*
X207497Y12224D01*
X207580Y12484D01*
X221654D01*
X221654Y12484D01*
X222200Y12593D01*
X222663Y12902D01*
X226784Y17023D01*
X227245Y16777D01*
X227197Y16535D01*
X227344Y15794D01*
X227764Y15166D01*
X228393Y14746D01*
X229134Y14598D01*
X229875Y14746D01*
X230504Y15166D01*
X230924Y15794D01*
X231071Y16535D01*
X230975Y17019D01*
X231317Y17519D01*
X232306D01*
X232306Y17519D01*
X232852Y17627D01*
X233315Y17937D01*
X250526Y35148D01*
X251060Y35078D01*
X251739Y35167D01*
X252371Y35429D01*
X252914Y35846D01*
X253331Y36389D01*
X253593Y37021D01*
X253682Y37700D01*
X253593Y38379D01*
X253373Y38910D01*
X253626Y39369D01*
X253660Y39363D01*
X254401Y39510D01*
X255030Y39930D01*
X255450Y40559D01*
X255597Y41300D01*
X255450Y42041D01*
X255030Y42670D01*
X254401Y43090D01*
X253660Y43237D01*
X252919Y43090D01*
X252290Y42670D01*
X251870Y42041D01*
X251723Y41300D01*
X251840Y40708D01*
X251577Y40351D01*
X251462Y40270D01*
X251060Y40322D01*
X250381Y40233D01*
X249749Y39971D01*
X249205Y39554D01*
X248789Y39011D01*
X248730Y38870D01*
X248189D01*
X248131Y39011D01*
X247714Y39554D01*
X247171Y39971D01*
X246539Y40233D01*
X245860Y40322D01*
X245181Y40233D01*
X244549Y39971D01*
X244005Y39554D01*
X243589Y39011D01*
X243327Y38379D01*
X243237Y37700D01*
X243327Y37021D01*
X243589Y36389D01*
X244005Y35846D01*
X244549Y35429D01*
X245181Y35167D01*
X245729Y35095D01*
X245970Y34629D01*
X231715Y20374D01*
X229306D01*
X229060Y20874D01*
X229349Y21306D01*
X229496Y22047D01*
X229349Y22789D01*
X228929Y23417D01*
X228300Y23837D01*
X227978Y24388D01*
X227992Y24445D01*
X228053Y24539D01*
X228300Y24588D01*
X228928Y25008D01*
X229348Y25637D01*
X229496Y26378D01*
X229348Y27119D01*
X228928Y27748D01*
X228300Y28168D01*
X228193Y28189D01*
X227849Y28767D01*
X227922Y29134D01*
X227774Y29875D01*
X227354Y30504D01*
X226726Y30924D01*
X225984Y31071D01*
X225243Y30924D01*
X224701Y30561D01*
X220482D01*
X220482Y30561D01*
X219935Y30453D01*
X219472Y30143D01*
X219472Y30143D01*
X214192Y24863D01*
X181867D01*
X159264Y47466D01*
X158801Y47776D01*
X158255Y47884D01*
X158254Y47884D01*
X129800D01*
Y49813D01*
X177195D01*
X188094Y38915D01*
Y35000D01*
X188171Y34610D01*
X188392Y34279D01*
X188723Y34058D01*
X189113Y33980D01*
X195813D01*
X196204Y34058D01*
X196534Y34279D01*
X196755Y34610D01*
X196833Y35000D01*
Y41500D01*
X196755Y41890D01*
X196534Y42221D01*
X196204Y42442D01*
X195813Y42520D01*
X191699D01*
X180054Y54165D01*
X179227Y54717D01*
X178251Y54911D01*
X129800D01*
Y70226D01*
X135331D01*
X135873Y69864D01*
X136614Y69716D01*
X137355Y69864D01*
X137984Y70284D01*
X138404Y70912D01*
X138551Y71653D01*
X138404Y72395D01*
X137984Y73023D01*
X137355Y73443D01*
X136614Y73591D01*
X135873Y73443D01*
X135331Y73081D01*
X129800D01*
Y75121D01*
X131465D01*
X132008Y74759D01*
X132749Y74612D01*
X133490Y74759D01*
X134119Y75179D01*
X134539Y75807D01*
X134686Y76549D01*
X134539Y77290D01*
X134119Y77919D01*
X133490Y78339D01*
X132749Y78486D01*
X132008Y78339D01*
X131465Y77976D01*
X129800D01*
X129800Y105493D01*
X130113Y105556D01*
X130444Y105777D01*
X130665Y106107D01*
X130743Y106498D01*
Y114480D01*
X130862Y115082D01*
X131097Y115649D01*
X131438Y116159D01*
X131872Y116594D01*
X132382Y116934D01*
X132949Y117169D01*
X133551Y117289D01*
X144271D01*
X144873Y117169D01*
X145440Y116934D01*
X145951Y116594D01*
X146385Y116159D01*
X146726Y115649D01*
X146961Y115082D01*
X147080Y114480D01*
Y114173D01*
X147079Y70598D01*
X147156Y70208D01*
X147377Y69877D01*
X147377Y69877D01*
X147708Y69656D01*
X148098Y69579D01*
X329973D01*
X330207Y68706D01*
X330266Y68586D01*
X330309Y68460D01*
X330797Y67615D01*
X330885Y67515D01*
X330959Y67404D01*
X331649Y66714D01*
X331760Y66640D01*
X331861Y66552D01*
X332706Y66064D01*
X332832Y66022D01*
X332951Y65962D01*
X333894Y65710D01*
X334027Y65701D01*
X334158Y65675D01*
X335134D01*
X335264Y65701D01*
X335397Y65710D01*
X336340Y65962D01*
X336459Y66022D01*
X336586Y66064D01*
X337431Y66552D01*
X337531Y66640D01*
X337642Y66714D01*
X338332Y67404D01*
X338406Y67515D01*
X338494Y67615D01*
X338982Y68460D01*
X339025Y68586D01*
X339084Y68706D01*
X339320Y69584D01*
X348801Y69579D01*
X348801Y69579D01*
X348802Y69579D01*
X349001Y69618D01*
X349191Y69656D01*
X349191Y69656D01*
X349192Y69656D01*
X349358Y69767D01*
X349522Y69877D01*
X349522Y69877D01*
X349523Y69877D01*
X349637Y70048D01*
X349743Y70208D01*
X349743Y70208D01*
X349744Y70208D01*
X349784Y70409D01*
X349821Y70598D01*
X349821Y70598D01*
X349821Y70598D01*
Y114173D01*
Y114480D01*
X349941Y115082D01*
X350176Y115649D01*
X350517Y116159D01*
X350951Y116594D01*
X351461Y116934D01*
X352028Y117169D01*
X352630Y117289D01*
X362512D01*
X363114Y117169D01*
D02*
G37*
G36*
X169773Y24643D02*
X169724Y24145D01*
X169475Y23979D01*
X169055Y23351D01*
X168908Y22609D01*
X169055Y21868D01*
X169475Y21239D01*
X169492Y21228D01*
X169387Y20697D01*
X169337Y20687D01*
X168868Y20374D01*
X163488D01*
X163213Y20874D01*
X163337Y21500D01*
X163190Y22241D01*
X162770Y22870D01*
X162141Y23290D01*
X161400Y23437D01*
X160659Y23290D01*
X160030Y22870D01*
X159610Y22241D01*
X159463Y21500D01*
X159587Y20874D01*
X159312Y20374D01*
X156764D01*
X137908Y39229D01*
X138116Y39729D01*
X154687D01*
X169773Y24643D01*
D02*
G37*
G36*
X225934Y20187D02*
X225924Y20120D01*
X225679Y19956D01*
X225679Y19956D01*
X221062Y15339D01*
X210678D01*
X210479Y15712D01*
X210460Y15839D01*
X210599Y16535D01*
X210542Y16822D01*
X210859Y17208D01*
X219717D01*
X219717Y17208D01*
X220263Y17317D01*
X220726Y17626D01*
X223720Y20620D01*
X225729D01*
X225934Y20187D01*
D02*
G37*
G36*
X155163Y17937D02*
X155163Y17937D01*
X155626Y17627D01*
X156173Y17519D01*
X156173Y17519D01*
X160687D01*
X160894Y17019D01*
X158440Y14565D01*
X157898Y14730D01*
X157858Y14928D01*
X157438Y15557D01*
X156810Y15977D01*
X156069Y16124D01*
X155327Y15977D01*
X154785Y15614D01*
X152982D01*
X140014Y28583D01*
X139550Y28892D01*
X139004Y29001D01*
X139004Y29001D01*
X129800D01*
X129800Y37155D01*
X135945D01*
X155163Y17937D01*
D02*
G37*
%LPC*%
G36*
X56181Y98078D02*
X55252Y97956D01*
X54386Y97597D01*
X53643Y97026D01*
X53072Y96283D01*
X52714Y95417D01*
X52591Y94488D01*
X52714Y93559D01*
X53072Y92693D01*
X53643Y91950D01*
X54386Y91379D01*
X55252Y91021D01*
X56181Y90898D01*
X57110Y91021D01*
X57976Y91379D01*
X58719Y91950D01*
X59290Y92693D01*
X59649Y93559D01*
X59771Y94488D01*
X59649Y95417D01*
X59290Y96283D01*
X58719Y97026D01*
X57976Y97597D01*
X57110Y97956D01*
X56181Y98078D01*
D02*
G37*
G36*
X46181D02*
X45252Y97956D01*
X44386Y97597D01*
X43643Y97026D01*
X43072Y96283D01*
X42714Y95417D01*
X42591Y94488D01*
X42714Y93559D01*
X43072Y92693D01*
X43643Y91950D01*
X44386Y91379D01*
X45252Y91021D01*
X46181Y90898D01*
X47110Y91021D01*
X47976Y91379D01*
X48719Y91950D01*
X49290Y92693D01*
X49648Y93559D01*
X49771Y94488D01*
X49648Y95417D01*
X49290Y96283D01*
X48719Y97026D01*
X47976Y97597D01*
X47110Y97956D01*
X46181Y98078D01*
D02*
G37*
G36*
X37995Y94457D02*
X37253Y94310D01*
X36625Y93889D01*
X36205Y93261D01*
X36057Y92520D01*
X36205Y91778D01*
X36625Y91150D01*
X37253Y90730D01*
X37995Y90583D01*
X38736Y90730D01*
X39364Y91150D01*
X39784Y91778D01*
X39932Y92520D01*
X39784Y93261D01*
X39364Y93889D01*
X38736Y94310D01*
X37995Y94457D01*
D02*
G37*
G36*
X25197Y89339D02*
X24455Y89191D01*
X23827Y88771D01*
X23407Y88143D01*
X23260Y87402D01*
X23407Y86660D01*
X23827Y86032D01*
X24455Y85612D01*
X25197Y85464D01*
X25938Y85612D01*
X26567Y86032D01*
X26987Y86660D01*
X27134Y87402D01*
X26987Y88143D01*
X26567Y88771D01*
X25938Y89191D01*
X25197Y89339D01*
D02*
G37*
G36*
X48726Y83827D02*
X47984Y83679D01*
X47356Y83260D01*
X46936Y82631D01*
X46788Y81890D01*
X46936Y81148D01*
X47356Y80520D01*
X47984Y80100D01*
X48726Y79953D01*
X49467Y80100D01*
X50095Y80520D01*
X50515Y81148D01*
X50663Y81890D01*
X50515Y82631D01*
X50095Y83260D01*
X49467Y83679D01*
X48726Y83827D01*
D02*
G37*
G36*
X15748D02*
X15007Y83679D01*
X14378Y83260D01*
X13958Y82631D01*
X13811Y81890D01*
X13958Y81148D01*
X14378Y80520D01*
X15007Y80100D01*
X15748Y79953D01*
X16489Y80100D01*
X17118Y80520D01*
X17538Y81148D01*
X17685Y81890D01*
X17538Y82631D01*
X17118Y83260D01*
X16489Y83679D01*
X15748Y83827D01*
D02*
G37*
G36*
X25403Y74751D02*
X24662Y74603D01*
X24033Y74183D01*
X23613Y73555D01*
X23466Y72813D01*
X23613Y72072D01*
X24033Y71444D01*
X24662Y71024D01*
X25403Y70876D01*
X26144Y71024D01*
X26773Y71444D01*
X27193Y72072D01*
X27340Y72813D01*
X27193Y73555D01*
X26773Y74183D01*
X26144Y74603D01*
X25403Y74751D01*
D02*
G37*
G36*
X57020Y71947D02*
X56279Y71800D01*
X55650Y71380D01*
X55230Y70751D01*
X55083Y70010D01*
X55230Y69269D01*
X55650Y68640D01*
X56279Y68220D01*
X57020Y68073D01*
X57762Y68220D01*
X58390Y68640D01*
X58810Y69269D01*
X58957Y70010D01*
X58810Y70751D01*
X58390Y71380D01*
X57762Y71800D01*
X57020Y71947D01*
D02*
G37*
G36*
X72047Y69654D02*
X71306Y69506D01*
X70677Y69086D01*
X70258Y68458D01*
X70110Y67716D01*
X70258Y66975D01*
X70677Y66347D01*
X71306Y65927D01*
X72047Y65779D01*
X72789Y65927D01*
X73417Y66347D01*
X73837Y66975D01*
X73984Y67716D01*
X73837Y68458D01*
X73417Y69086D01*
X72789Y69506D01*
X72047Y69654D01*
D02*
G37*
G36*
X61417D02*
X60676Y69506D01*
X60048Y69086D01*
X59628Y68458D01*
X59480Y67716D01*
X59628Y66975D01*
X60048Y66347D01*
X60676Y65927D01*
X61417Y65779D01*
X62159Y65927D01*
X62787Y66347D01*
X63207Y66975D01*
X63354Y67716D01*
X63207Y68458D01*
X62787Y69086D01*
X62159Y69506D01*
X61417Y69654D01*
D02*
G37*
G36*
X19672Y66207D02*
X18930Y66060D01*
X18302Y65640D01*
X17882Y65011D01*
X17734Y64270D01*
X17882Y63529D01*
X18162Y63110D01*
X18261Y62751D01*
X18162Y62392D01*
X17882Y61973D01*
X17734Y61232D01*
X17882Y60491D01*
X18302Y59862D01*
X18930Y59442D01*
X19672Y59295D01*
X20413Y59442D01*
X21042Y59862D01*
X21461Y60491D01*
X21609Y61232D01*
X21461Y61973D01*
X21181Y62392D01*
X21083Y62751D01*
X21181Y63110D01*
X21461Y63529D01*
X21609Y64270D01*
X21461Y65011D01*
X21042Y65640D01*
X20413Y66060D01*
X19672Y66207D01*
D02*
G37*
G36*
X20095Y17728D02*
X19353Y17580D01*
X18725Y17161D01*
X18305Y16532D01*
X18157Y15791D01*
X18305Y15049D01*
X18725Y14421D01*
X19353Y14001D01*
X20095Y13853D01*
X20836Y14001D01*
X21464Y14421D01*
X21884Y15049D01*
X22032Y15791D01*
X21884Y16532D01*
X21464Y17161D01*
X20836Y17580D01*
X20095Y17728D01*
D02*
G37*
G36*
X14173Y14536D02*
X13432Y14388D01*
X12803Y13968D01*
X12383Y13340D01*
X12236Y12598D01*
X12383Y11857D01*
X12803Y11229D01*
X13432Y10809D01*
X14173Y10661D01*
X14915Y10809D01*
X15543Y11229D01*
X15963Y11857D01*
X16111Y12598D01*
X15963Y13340D01*
X15543Y13968D01*
X14915Y14388D01*
X14173Y14536D01*
D02*
G37*
G36*
X50000Y38945D02*
X49259Y38798D01*
X48630Y38378D01*
X48210Y37749D01*
X48063Y37008D01*
X48210Y36266D01*
X48630Y35638D01*
X49259Y35218D01*
X50000Y35071D01*
X50741Y35218D01*
X51370Y35638D01*
X51790Y36266D01*
X51937Y37008D01*
X51790Y37749D01*
X51370Y38378D01*
X50741Y38798D01*
X50000Y38945D01*
D02*
G37*
G36*
X55905Y37764D02*
X55164Y37617D01*
X54536Y37197D01*
X54116Y36568D01*
X53968Y35827D01*
X54116Y35085D01*
X54536Y34457D01*
X55164Y34037D01*
X55905Y33889D01*
X56647Y34037D01*
X57275Y34457D01*
X57695Y35085D01*
X57843Y35827D01*
X57695Y36568D01*
X57275Y37197D01*
X56647Y37617D01*
X55905Y37764D01*
D02*
G37*
G36*
X74100Y10999D02*
X73330Y10897D01*
X72612Y10600D01*
X71996Y10127D01*
X71522Y9511D01*
X71225Y8793D01*
X71124Y8022D01*
X71225Y7252D01*
X71522Y6534D01*
X71996Y5918D01*
X72612Y5445D01*
X73330Y5148D01*
X74100Y5046D01*
X74870Y5148D01*
X75588Y5445D01*
X76205Y5918D01*
X76678Y6534D01*
X76975Y7252D01*
X77076Y8022D01*
X76975Y8793D01*
X76678Y9511D01*
X76205Y10127D01*
X75588Y10600D01*
X74870Y10897D01*
X74100Y10999D01*
D02*
G37*
G36*
X138779Y116110D02*
X138038Y115963D01*
X137410Y115543D01*
X136990Y114915D01*
X136842Y114173D01*
X136990Y113432D01*
X137410Y112803D01*
X138038Y112383D01*
X138779Y112236D01*
X139521Y112383D01*
X140149Y112803D01*
X140569Y113432D01*
X140717Y114173D01*
X140569Y114915D01*
X140149Y115543D01*
X139521Y115963D01*
X138779Y116110D01*
D02*
G37*
G36*
X143701D02*
X142959Y115963D01*
X142331Y115543D01*
X141911Y114915D01*
X141764Y114173D01*
X141911Y113432D01*
X142331Y112803D01*
X142811Y112483D01*
X142829Y112429D01*
Y111980D01*
X142811Y111927D01*
X142331Y111606D01*
X141911Y110978D01*
X141764Y110236D01*
X141911Y109495D01*
X142331Y108866D01*
X142811Y108545D01*
X142829Y108492D01*
Y108043D01*
X142811Y107990D01*
X142331Y107669D01*
X141911Y107041D01*
X141764Y106299D01*
X141911Y105558D01*
X142331Y104929D01*
X142959Y104509D01*
X143701Y104362D01*
X144442Y104509D01*
X145071Y104929D01*
X145491Y105558D01*
X145638Y106299D01*
X145491Y107041D01*
X145071Y107669D01*
X144590Y107990D01*
X144573Y108043D01*
Y108492D01*
X144590Y108545D01*
X145071Y108866D01*
X145491Y109495D01*
X145638Y110236D01*
X145491Y110978D01*
X145071Y111606D01*
X144590Y111927D01*
X144573Y111980D01*
Y112429D01*
X144590Y112483D01*
X145071Y112803D01*
X145491Y113432D01*
X145638Y114173D01*
X145491Y114915D01*
X145071Y115543D01*
X144442Y115963D01*
X143701Y116110D01*
D02*
G37*
G36*
X133858D02*
X133117Y115963D01*
X132488Y115543D01*
X132069Y114915D01*
X131921Y114173D01*
X132069Y113432D01*
X132488Y112803D01*
X132969Y112483D01*
X132986Y112429D01*
Y111980D01*
X132969Y111927D01*
X132488Y111606D01*
X132069Y110978D01*
X131921Y110236D01*
X132069Y109495D01*
X132488Y108866D01*
X132969Y108545D01*
X132986Y108492D01*
Y108043D01*
X132969Y107990D01*
X132488Y107669D01*
X132069Y107041D01*
X131921Y106299D01*
X132069Y105558D01*
X132488Y104929D01*
X133117Y104509D01*
X133858Y104362D01*
X134600Y104509D01*
X135228Y104929D01*
X135648Y105558D01*
X135795Y106299D01*
X135648Y107041D01*
X135228Y107669D01*
X134748Y107990D01*
X134731Y108043D01*
Y108492D01*
X134748Y108545D01*
X135228Y108866D01*
X135648Y109495D01*
X135795Y110236D01*
X135648Y110978D01*
X135228Y111606D01*
X134748Y111927D01*
X134731Y111980D01*
Y112429D01*
X134748Y112483D01*
X135228Y112803D01*
X135648Y113432D01*
X135795Y114173D01*
X135648Y114915D01*
X135228Y115543D01*
X134600Y115963D01*
X133858Y116110D01*
D02*
G37*
G36*
X138877Y108105D02*
X138136Y107957D01*
X137508Y107537D01*
X137088Y106909D01*
X136940Y106167D01*
X137088Y105426D01*
X137508Y104798D01*
X138136Y104378D01*
X138877Y104230D01*
X139619Y104378D01*
X140247Y104798D01*
X140667Y105426D01*
X140815Y106167D01*
X140667Y106909D01*
X140247Y107537D01*
X139619Y107957D01*
X138877Y108105D01*
D02*
G37*
G36*
X142583Y84221D02*
X141841Y84073D01*
X141213Y83653D01*
X140793Y83025D01*
X140646Y82284D01*
X140793Y81542D01*
X141213Y80914D01*
X141841Y80494D01*
X142583Y80346D01*
X143324Y80494D01*
X143953Y80914D01*
X144372Y81542D01*
X144520Y82284D01*
X144372Y83025D01*
X143953Y83653D01*
X143324Y84073D01*
X142583Y84221D01*
D02*
G37*
G36*
X309449Y63354D02*
X308707Y63207D01*
X308079Y62787D01*
X307659Y62159D01*
X307512Y61417D01*
X307659Y60676D01*
X308079Y60048D01*
X308707Y59628D01*
X309449Y59480D01*
X310190Y59628D01*
X310819Y60048D01*
X311239Y60676D01*
X311386Y61417D01*
X311239Y62159D01*
X310819Y62787D01*
X310190Y63207D01*
X309449Y63354D01*
D02*
G37*
G36*
X263386Y61780D02*
X262645Y61632D01*
X262016Y61212D01*
X261596Y60584D01*
X261449Y59842D01*
X261596Y59101D01*
X262016Y58473D01*
X262645Y58053D01*
X263386Y57905D01*
X264127Y58053D01*
X264756Y58473D01*
X265176Y59101D01*
X265323Y59842D01*
X265176Y60584D01*
X264756Y61212D01*
X264127Y61632D01*
X263386Y61780D01*
D02*
G37*
G36*
X243274Y58637D02*
X242533Y58490D01*
X241904Y58070D01*
X241484Y57441D01*
X241337Y56700D01*
X241484Y55959D01*
X241904Y55330D01*
X242533Y54910D01*
X243274Y54763D01*
X244016Y54910D01*
X244644Y55330D01*
X245064Y55959D01*
X245212Y56700D01*
X245064Y57441D01*
X244644Y58070D01*
X244016Y58490D01*
X243274Y58637D01*
D02*
G37*
G36*
X198399Y58424D02*
X197657Y58277D01*
X197029Y57857D01*
X196609Y57228D01*
X196462Y56487D01*
X196609Y55746D01*
X197029Y55117D01*
X197657Y54697D01*
X198399Y54550D01*
X199140Y54697D01*
X199769Y55117D01*
X200189Y55746D01*
X200336Y56487D01*
X200189Y57228D01*
X199769Y57857D01*
X199140Y58277D01*
X198399Y58424D01*
D02*
G37*
G36*
X257480Y57055D02*
X256739Y56908D01*
X256111Y56488D01*
X255691Y55860D01*
X255543Y55118D01*
X255691Y54377D01*
X256111Y53748D01*
X256739Y53328D01*
X257480Y53181D01*
X258222Y53328D01*
X258850Y53748D01*
X259270Y54377D01*
X259418Y55118D01*
X259270Y55860D01*
X258850Y56488D01*
X258222Y56908D01*
X257480Y57055D01*
D02*
G37*
G36*
X281496Y54937D02*
X280755Y54790D01*
X280126Y54370D01*
X279706Y53741D01*
X279559Y53000D01*
X279706Y52259D01*
X280126Y51630D01*
X280755Y51210D01*
X281496Y51063D01*
X282237Y51210D01*
X282866Y51630D01*
X283286Y52259D01*
X283433Y53000D01*
X283286Y53741D01*
X282866Y54370D01*
X282237Y54790D01*
X281496Y54937D01*
D02*
G37*
G36*
X240158Y55378D02*
X239479Y55289D01*
X238846Y55027D01*
X238303Y54610D01*
X237886Y54067D01*
X237624Y53435D01*
X237535Y52756D01*
X237624Y52077D01*
X237886Y51445D01*
X238303Y50902D01*
X238846Y50485D01*
X239479Y50223D01*
X240158Y50134D01*
X240836Y50223D01*
X241469Y50485D01*
X241865Y50789D01*
X242331Y50992D01*
X242959Y50572D01*
X243701Y50425D01*
X244442Y50572D01*
X245071Y50992D01*
X245491Y51621D01*
X245638Y52362D01*
X245491Y53104D01*
X245071Y53732D01*
X244442Y54152D01*
X243701Y54299D01*
X242959Y54152D01*
X242706Y53983D01*
X242429Y54067D01*
X242012Y54610D01*
X241469Y55027D01*
X240836Y55289D01*
X240158Y55378D01*
D02*
G37*
G36*
X190945Y53512D02*
X190203Y53365D01*
X189575Y52945D01*
X189155Y52316D01*
X189008Y51575D01*
X189155Y50833D01*
X189575Y50205D01*
X190203Y49785D01*
X190945Y49638D01*
X191686Y49785D01*
X192315Y50205D01*
X192735Y50833D01*
X192882Y51575D01*
X192735Y52316D01*
X192315Y52945D01*
X191686Y53365D01*
X190945Y53512D01*
D02*
G37*
G36*
X318322Y45720D02*
X317581Y45572D01*
X316953Y45152D01*
X316533Y44524D01*
X316385Y43782D01*
X316533Y43041D01*
X316953Y42413D01*
X317581Y41993D01*
X318322Y41845D01*
X319064Y41993D01*
X319692Y42413D01*
X320112Y43041D01*
X320260Y43782D01*
X320112Y44524D01*
X319692Y45152D01*
X319064Y45572D01*
X318322Y45720D01*
D02*
G37*
G36*
X212205Y43670D02*
X211463Y43522D01*
X210835Y43102D01*
X210415Y42474D01*
X210267Y41732D01*
X210415Y40991D01*
X210835Y40363D01*
X211463Y39942D01*
X212205Y39795D01*
X212946Y39942D01*
X213575Y40363D01*
X213995Y40991D01*
X214142Y41732D01*
X213995Y42474D01*
X213575Y43102D01*
X212946Y43522D01*
X212205Y43670D01*
D02*
G37*
G36*
X230094Y43904D02*
X229415Y43814D01*
X228783Y43552D01*
X228240Y43136D01*
X227823Y42592D01*
X227561Y41960D01*
X227472Y41281D01*
X227561Y40602D01*
X227823Y39970D01*
X228240Y39427D01*
X228783Y39010D01*
X229415Y38748D01*
X230094Y38659D01*
X230773Y38748D01*
X231405Y39010D01*
X231948Y39427D01*
X232365Y39970D01*
X232627Y40602D01*
X232716Y41281D01*
X232627Y41960D01*
X232365Y42592D01*
X231948Y43136D01*
X231405Y43552D01*
X230773Y43814D01*
X230094Y43904D01*
D02*
G37*
G36*
X224410Y38945D02*
X223668Y38798D01*
X223040Y38378D01*
X222620Y37749D01*
X222472Y37008D01*
X222509Y36823D01*
X222078Y36425D01*
X221654Y36481D01*
X220975Y36391D01*
X220342Y36129D01*
X219799Y35713D01*
X219382Y35170D01*
X219121Y34537D01*
X219031Y33858D01*
X219121Y33180D01*
X219382Y32547D01*
X219799Y32004D01*
X220342Y31587D01*
X220975Y31325D01*
X221654Y31236D01*
X222332Y31325D01*
X222965Y31587D01*
X223508Y32004D01*
X223925Y32547D01*
X224187Y33180D01*
X224276Y33858D01*
X224187Y34537D01*
X224138Y34654D01*
X224499Y35089D01*
X225151Y35218D01*
X225779Y35638D01*
X226199Y36266D01*
X226347Y37008D01*
X226199Y37749D01*
X225779Y38378D01*
X225151Y38798D01*
X224410Y38945D01*
D02*
G37*
G36*
X326960Y41644D02*
X326282Y41554D01*
X325649Y41293D01*
X325106Y40876D01*
X324689Y40333D01*
X324427Y39700D01*
X324338Y39021D01*
X324427Y38343D01*
X324689Y37710D01*
X325106Y37167D01*
X325649Y36750D01*
X326282Y36488D01*
X326960Y36399D01*
X327639Y36488D01*
X328272Y36750D01*
X328815Y37167D01*
X329232Y37710D01*
X329493Y38343D01*
X329583Y39021D01*
X329493Y39700D01*
X329232Y40333D01*
X328815Y40876D01*
X328272Y41293D01*
X327639Y41554D01*
X326960Y41644D01*
D02*
G37*
G36*
X238041Y38940D02*
X237300Y38792D01*
X236671Y38372D01*
X236251Y37744D01*
X236104Y37002D01*
X236251Y36261D01*
X236671Y35633D01*
X237300Y35213D01*
X238041Y35065D01*
X238782Y35213D01*
X239411Y35633D01*
X239831Y36261D01*
X239978Y37002D01*
X239831Y37744D01*
X239411Y38372D01*
X238782Y38792D01*
X238041Y38940D01*
D02*
G37*
G36*
X178013Y38402D02*
X177272Y38254D01*
X176644Y37835D01*
X176224Y37206D01*
X176076Y36465D01*
X176224Y35723D01*
X176644Y35095D01*
X177272Y34675D01*
X178013Y34527D01*
X178755Y34675D01*
X179383Y35095D01*
X179803Y35723D01*
X179951Y36465D01*
X179803Y37206D01*
X179383Y37835D01*
X178755Y38254D01*
X178013Y38402D01*
D02*
G37*
G36*
X206112Y35928D02*
X205371Y35780D01*
X204742Y35360D01*
X204322Y34732D01*
X204175Y33991D01*
X204322Y33249D01*
X204742Y32621D01*
X205371Y32201D01*
X206112Y32053D01*
X206853Y32201D01*
X207482Y32621D01*
X207902Y33249D01*
X208049Y33991D01*
X207902Y34732D01*
X207482Y35360D01*
X206853Y35780D01*
X206112Y35928D01*
D02*
G37*
G36*
X277824Y34137D02*
X277083Y33990D01*
X276455Y33570D01*
X276035Y32941D01*
X275887Y32200D01*
X276035Y31459D01*
X276343Y30997D01*
X276417Y30650D01*
X276343Y30303D01*
X276035Y29841D01*
X275887Y29100D01*
X276035Y28359D01*
X276455Y27730D01*
X277083Y27310D01*
X277824Y27163D01*
X278566Y27310D01*
X279194Y27730D01*
X279614Y28359D01*
X279762Y29100D01*
X279614Y29841D01*
X279306Y30303D01*
X279232Y30650D01*
X279306Y30997D01*
X279614Y31459D01*
X279762Y32200D01*
X279614Y32941D01*
X279194Y33570D01*
X278566Y33990D01*
X277824Y34137D01*
D02*
G37*
G36*
X278124Y24337D02*
X277383Y24190D01*
X276755Y23770D01*
X276335Y23141D01*
X276187Y22400D01*
X276335Y21659D01*
X276755Y21030D01*
X277383Y20610D01*
X278124Y20463D01*
X278866Y20610D01*
X279494Y21030D01*
X279914Y21659D01*
X280062Y22400D01*
X279914Y23141D01*
X279494Y23770D01*
X278866Y24190D01*
X278124Y24337D01*
D02*
G37*
G36*
X243701Y20048D02*
X242959Y19900D01*
X242331Y19480D01*
X241911Y18852D01*
X241764Y18110D01*
X241911Y17369D01*
X242331Y16740D01*
X242959Y16320D01*
X243701Y16173D01*
X244442Y16320D01*
X245071Y16740D01*
X245491Y17369D01*
X245638Y18110D01*
X245491Y18852D01*
X245071Y19480D01*
X244442Y19900D01*
X243701Y20048D01*
D02*
G37*
G36*
X308268Y22803D02*
X307526Y22656D01*
X306898Y22236D01*
X306478Y21608D01*
X306330Y20866D01*
X306478Y20125D01*
X306774Y19682D01*
X306872Y19432D01*
X306706Y19024D01*
X306413Y18799D01*
X305997Y18256D01*
X305735Y17624D01*
X305645Y16945D01*
X305735Y16266D01*
X305997Y15634D01*
X306413Y15090D01*
X306957Y14674D01*
X307589Y14412D01*
X308268Y14322D01*
X308946Y14412D01*
X309579Y14674D01*
X310122Y15090D01*
X310539Y15634D01*
X310801Y16266D01*
X310890Y16945D01*
X310801Y17624D01*
X310539Y18256D01*
X310122Y18799D01*
X309830Y19024D01*
X309664Y19432D01*
X309761Y19682D01*
X310057Y20125D01*
X310205Y20866D01*
X310057Y21608D01*
X309637Y22236D01*
X309009Y22656D01*
X308268Y22803D01*
D02*
G37*
G36*
X229921Y11780D02*
X229180Y11632D01*
X228551Y11212D01*
X228132Y10584D01*
X227984Y9843D01*
X228132Y9101D01*
X228551Y8473D01*
X229180Y8053D01*
X229921Y7905D01*
X230663Y8053D01*
X231291Y8473D01*
X231711Y9101D01*
X231858Y9843D01*
X231711Y10584D01*
X231291Y11212D01*
X230663Y11632D01*
X229921Y11780D01*
D02*
G37*
G36*
X235039Y11386D02*
X234298Y11239D01*
X233669Y10819D01*
X233250Y10190D01*
X233102Y9449D01*
X233250Y8708D01*
X233669Y8079D01*
X234298Y7659D01*
X235039Y7512D01*
X235781Y7659D01*
X236409Y8079D01*
X236829Y8708D01*
X236977Y9449D01*
X236829Y10190D01*
X236409Y10819D01*
X235781Y11239D01*
X235039Y11386D01*
D02*
G37*
G36*
X179213Y9037D02*
X178472Y8890D01*
X177844Y8470D01*
X177424Y7841D01*
X177276Y7100D01*
X177424Y6359D01*
X177844Y5730D01*
X178472Y5310D01*
X179213Y5163D01*
X179955Y5310D01*
X180583Y5730D01*
X181003Y6359D01*
X181151Y7100D01*
X181003Y7841D01*
X180583Y8470D01*
X179955Y8890D01*
X179213Y9037D01*
D02*
G37*
G36*
X307087Y6953D02*
X306408Y6864D01*
X305775Y6602D01*
X305232Y6185D01*
X304816Y5642D01*
X304554Y5009D01*
X304464Y4331D01*
X304554Y3652D01*
X304816Y3019D01*
X305232Y2476D01*
X305775Y2060D01*
X306408Y1798D01*
X307087Y1708D01*
X307765Y1798D01*
X308398Y2060D01*
X308941Y2476D01*
X309358Y3019D01*
X309620Y3652D01*
X309709Y4331D01*
X309620Y5009D01*
X309358Y5642D01*
X308941Y6185D01*
X308398Y6602D01*
X307765Y6864D01*
X307087Y6953D01*
D02*
G37*
%LPD*%
D17*
X296850Y6693D02*
X299213Y9055D01*
X316535D02*
X317323Y9843D01*
X299213Y9055D02*
X316535D01*
X317323Y9843D02*
Y24809D01*
X320488Y27974D01*
X250787Y6693D02*
X296850D01*
X246061Y1967D02*
X250787Y6693D01*
X20800Y22800D02*
X24099D01*
X31522Y17204D02*
X33217Y18900D01*
X30709Y26166D02*
X33677Y29134D01*
X38391Y20809D02*
Y21366D01*
X39600Y18900D02*
X41918Y21218D01*
X38391Y21366D02*
X40278Y23253D01*
X38200Y21000D02*
X38391Y20809D01*
X45059Y31496D02*
X48981Y27574D01*
X44366Y29134D02*
X47909Y25591D01*
X68650Y78988D02*
X71089Y76549D01*
X133506Y21218D02*
X135827Y18898D01*
X219717Y18635D02*
X223129Y22047D01*
X220482Y29134D02*
X225984D01*
X227427Y26509D02*
X227559Y26378D01*
X30709Y24409D02*
Y26166D01*
X37200Y16800D02*
X38646Y15354D01*
X59480Y104724D02*
X63522Y100682D01*
X132229Y18078D02*
X136527Y13780D01*
X171045Y16320D02*
X173622Y18898D01*
X222408Y24409D02*
X225591D01*
X14918Y22410D02*
Y35465D01*
X17184Y24980D02*
Y35233D01*
X63522Y77029D02*
Y100682D01*
X68650Y78988D02*
Y101822D01*
X33217Y18900D02*
X39600D01*
X33677Y29134D02*
X44366D01*
X32795Y31496D02*
X45059D01*
X23228Y112205D02*
X26378Y109055D01*
X136527Y13780D02*
X140945D01*
X157770Y9449D02*
X162233Y13912D01*
X149502Y9449D02*
X157770D01*
X151265Y11728D02*
X157622D01*
X152391Y14187D02*
X156069D01*
X156173Y18946D02*
X170079D01*
X226688D02*
X232306D01*
X223129Y22047D02*
X227559D01*
X221217Y26509D02*
X227427D01*
X14918Y35465D02*
X22209Y42757D01*
X17184Y35233D02*
X23108Y41157D01*
X64631Y15354D02*
X67355Y18078D01*
X63522Y77029D02*
X68898Y71653D01*
X61417Y109055D02*
X68650Y101822D01*
X162215Y16320D02*
X171045D01*
X157622Y11728D02*
X162215Y16320D01*
X221654Y13912D02*
X226688Y18946D01*
X218234Y20235D02*
X222408Y24409D01*
X216543Y21835D02*
X221217Y26509D01*
X24099Y22800D02*
X32795Y31496D01*
X214783Y23435D02*
X220482Y29134D01*
X38646Y15354D02*
X64631D01*
X26378Y109055D02*
X61417D01*
X162233Y13912D02*
X221654D01*
X178591Y20235D02*
X218234D01*
X179855Y21835D02*
X216543D01*
X177799Y18635D02*
X219717D01*
X181276Y23435D02*
X214783D01*
X9055Y31890D02*
X21522Y44357D01*
X27953Y104724D02*
X59480D01*
X139004Y27574D02*
X152391Y14187D01*
X135698Y23253D02*
X149502Y9449D01*
X137402Y25591D02*
X151265Y11728D01*
X157334Y44357D02*
X179855Y21835D01*
X156070Y42757D02*
X178591Y20235D01*
X155278Y41157D02*
X177799Y18635D01*
X158255Y46457D02*
X181276Y23435D01*
X136536Y38583D02*
X156173Y18946D01*
X232306D02*
X251060Y37700D01*
X67355Y18078D02*
X132229D01*
X41918Y21218D02*
X133506D01*
X40278Y23253D02*
X135698D01*
X48981Y27574D02*
X139004D01*
X47909Y25591D02*
X137402D01*
X61417Y38583D02*
X136536D01*
X46063Y46457D02*
X158255D01*
X21522Y44357D02*
X157334D01*
X22209Y42757D02*
X156070D01*
X23108Y41157D02*
X155278D01*
X68898Y71653D02*
X136614D01*
X71089Y76549D02*
X132749D01*
D21*
X131370Y74899D02*
G03*
X134467Y75256I1378J1650D01*
G01*
X133901Y74734D02*
X134467Y74167D01*
X133610Y73304D02*
X134467Y74161D01*
Y73304D02*
Y75256D01*
X132362Y74434D02*
X133492Y73304D01*
X133115Y70003D02*
X134467Y68652D01*
X131771Y73304D02*
X132870Y74402D01*
X131277Y70003D02*
X134467Y66813D01*
X130059Y74899D02*
X131654Y73304D01*
X129933D02*
X131458Y74829D01*
X128220Y74899D02*
X129815Y73304D01*
X128094D02*
X129690Y74899D01*
X129438Y70003D02*
X134467Y64975D01*
X126256Y73304D02*
X127851Y74899D01*
X126382D02*
X127977Y73304D01*
X127600Y70003D02*
X134467Y63136D01*
X123923Y70003D02*
X134467Y59459D01*
X125761Y70003D02*
X134467Y61298D01*
X111742Y55112D02*
X126633Y70003D01*
X112892D02*
X127783Y55112D01*
X134467D02*
Y70003D01*
X130126Y55112D02*
X134467Y59453D01*
X133803Y55112D02*
X134467Y55776D01*
X122084Y70003D02*
X134467Y57621D01*
X131965Y55112D02*
X134467Y57614D01*
X128288Y55112D02*
X134467Y61291D01*
X126449Y55112D02*
X134467Y63130D01*
X133094Y36933D02*
X134467Y35559D01*
X122773Y55112D02*
X134467Y66807D01*
X124611Y55112D02*
X134467Y64968D01*
X120246Y70003D02*
X134467Y55783D01*
X119096Y55112D02*
X133987Y70003D01*
X120934Y55112D02*
X134467Y68645D01*
X117257Y55112D02*
X132148Y70003D01*
X118407D02*
X133299Y55112D01*
X116569Y70003D02*
X131460Y55112D01*
X115419D02*
X130310Y70003D01*
X117257Y55112D02*
X132148Y70003D01*
X113580Y55112D02*
X128471Y70003D01*
X114731D02*
X129622Y55112D01*
X119028Y74899D02*
X120623Y73304D01*
X118902D02*
X120497Y74899D01*
X120740Y73304D02*
X122336Y74899D01*
X117064Y73304D02*
X118659Y74899D01*
X117189D02*
X118784Y73304D01*
X124417D02*
X126013Y74899D01*
X122705D02*
X124300Y73304D01*
X124543Y74899D02*
X126138Y73304D01*
X120866Y74899D02*
X122461Y73304D01*
X122579D02*
X124174Y74899D01*
X104320D02*
X105915Y73304D01*
X104194D02*
X105789Y74899D01*
X106033Y73304D02*
X107628Y74899D01*
X100643D02*
X102238Y73304D01*
X102356D02*
X103951Y74899D01*
X115225Y73304D02*
X116820Y74899D01*
X113512D02*
X115107Y73304D01*
X115351Y74899D02*
X116946Y73304D01*
X106158Y74899D02*
X107754Y73304D01*
X113387D02*
X114982Y74899D01*
X111548Y73304D02*
X113143Y74899D01*
X109835D02*
X111431Y73304D01*
X111674Y74899D02*
X113269Y73304D01*
X107997Y74899D02*
X109592Y73304D01*
X109710D02*
X111305Y74899D01*
X109903Y55112D02*
X124794Y70003D01*
X109215D02*
X124106Y55112D01*
X111054Y70003D02*
X125945Y55112D01*
X107871Y73304D02*
X109466Y74899D01*
X108065Y55112D02*
X122956Y70003D01*
X106226Y55112D02*
X121117Y70003D01*
X105538D02*
X120429Y55112D01*
X107377Y70003D02*
X122268Y55112D01*
X102481Y74899D02*
X104077Y73304D01*
X104388Y55112D02*
X119279Y70003D01*
X102549Y55112D02*
X117440Y70003D01*
X103700D02*
X118591Y55112D01*
X100711D02*
X115602Y70003D01*
X101861D02*
X116753Y55112D01*
X131815Y29224D02*
X134467Y31876D01*
X127578Y36933D02*
X134467Y30044D01*
X133654Y29224D02*
X134467Y30037D01*
X131255Y36933D02*
X134467Y33721D01*
X129417Y36933D02*
X134467Y31882D01*
Y29224D02*
Y36933D01*
X128138Y29224D02*
X134467Y35553D01*
X129977Y29224D02*
X134467Y33714D01*
X126300Y29224D02*
X134009Y36933D01*
X131536Y16428D02*
X134467Y13497D01*
X120224Y36933D02*
X127933Y29224D01*
X118946D02*
X126655Y36933D01*
X120784Y29224D02*
X128493Y36933D01*
X117107Y29224D02*
X124816Y36933D01*
X118386D02*
X126095Y29224D01*
X124461D02*
X132170Y36933D01*
X123901D02*
X131610Y29224D01*
X125740Y36933D02*
X133449Y29224D01*
X122063Y36933D02*
X129772Y29224D01*
X122623D02*
X130332Y36933D01*
X131545Y16428D02*
X134467Y13506D01*
X130194Y12895D02*
X132636Y15337D01*
X130696Y12586D02*
X130994Y12139D01*
X129723Y12989D02*
X130250Y12884D01*
X130696Y12586D01*
X134467Y12022D02*
Y13506D01*
X132999Y12022D02*
X134467Y13491D01*
X131018Y12022D02*
X134467D01*
X129698Y16428D02*
X134104Y12022D01*
X131160D02*
X133555Y14418D01*
X126611Y12989D02*
X130051Y16428D01*
X126021D02*
X129460Y12989D01*
X128450D02*
X131717Y16256D01*
X122344Y16428D02*
X125783Y12989D01*
X124773D02*
X128212Y16428D01*
X124182D02*
X127621Y12989D01*
X127859Y16428D02*
X132265Y12022D01*
X121096Y12989D02*
X124535Y16428D01*
X122934Y12989D02*
X126374Y16428D01*
X115269Y29224D02*
X122978Y36933D01*
X114709D02*
X122418Y29224D01*
X116547Y36933D02*
X124256Y29224D01*
X111592D02*
X119301Y36933D01*
X113430Y29224D02*
X121139Y36933D01*
X119257Y12989D02*
X122697Y16428D01*
X112870Y36933D02*
X120579Y29224D01*
X120505Y16428D02*
X123944Y12989D01*
X111032Y36933D02*
X118741Y29224D01*
X114990Y16428D02*
X118429Y12989D01*
X104238Y29224D02*
X111947Y36933D01*
X103678D02*
X111387Y29224D01*
X105516Y36933D02*
X113225Y29224D01*
X101839Y36933D02*
X109548Y29224D01*
X102399D02*
X110108Y36933D01*
X109193D02*
X116902Y29224D01*
X107915D02*
X115624Y36933D01*
X109753Y29224D02*
X117462Y36933D01*
X106076Y29224D02*
X113785Y36933D01*
X107355D02*
X115064Y29224D01*
X111904Y12989D02*
X115343Y16428D01*
X111313D02*
X114752Y12989D01*
X113151Y16428D02*
X116591Y12989D01*
X109475Y16428D02*
X112914Y12989D01*
X110065D02*
X113504Y16428D01*
X117419Y12989D02*
X120858Y16428D01*
X116828D02*
X120268Y12989D01*
X118667Y16428D02*
X122106Y12989D01*
X113742D02*
X117181Y16428D01*
X115580Y12989D02*
X119020Y16428D01*
X103959D02*
X107398Y12989D01*
X102711D02*
X106150Y16428D01*
X104550Y12989D02*
X107989Y16428D01*
X100873Y12989D02*
X104312Y16428D01*
X102121D02*
X105560Y12989D01*
X107636Y16428D02*
X111075Y12989D01*
X108227D02*
X111666Y16428D01*
X105798D02*
X109237Y12989D01*
X106388D02*
X109827Y16428D01*
X98804Y74899D02*
X100400Y73304D01*
X98679D02*
X100274Y74899D01*
X100517Y73304D02*
X102112Y74899D01*
X95127D02*
X96723Y73304D01*
X96966Y74899D02*
X98561Y73304D01*
X98872Y55112D02*
X113764Y70003D01*
X95195Y55112D02*
X110087Y70003D01*
X100023D02*
X114914Y55112D01*
X95002Y73304D02*
X96597Y74899D01*
X96840Y73304D02*
X98436Y74899D01*
X93289D02*
X94884Y73304D01*
X75726Y74899D02*
X131370D01*
X75722Y73304D02*
X134467D01*
X91450Y74899D02*
X93046Y73304D01*
X93163D02*
X94759Y74899D01*
X93357Y55112D02*
X108248Y70003D01*
X92669D02*
X107560Y55112D01*
X94507Y70003D02*
X109398Y55112D01*
X91325Y73304D02*
X92920Y74899D01*
X91518Y55112D02*
X106410Y70003D01*
X87841Y55112D02*
X102733Y70003D01*
X87153D02*
X102045Y55112D01*
X88992Y70003D02*
X103883Y55112D01*
X85315Y70003D02*
X100206Y55112D01*
X86003D02*
X100894Y70003D01*
X97034Y55112D02*
X111925Y70003D01*
X96346D02*
X111237Y55112D01*
X98184Y70003D02*
X113075Y55112D01*
X89680D02*
X104571Y70003D01*
X90830D02*
X105722Y55112D01*
X84164D02*
X99056Y70003D01*
X83476D02*
X98368Y55112D01*
X75712Y70003D02*
X134467D01*
X81638D02*
X96529Y55112D01*
X82326D02*
X97217Y70003D01*
X80487Y55112D02*
X95379Y70003D01*
X75669Y55112D02*
X134467D01*
X75617Y36933D02*
X134467D01*
X78649Y55112D02*
X93540Y70003D01*
X79799D02*
X94691Y55112D01*
X84096Y74899D02*
X85692Y73304D01*
X83971D02*
X85566Y74899D01*
X85809Y73304D02*
X87405Y74899D01*
X82132Y73304D02*
X83728Y74899D01*
X82258D02*
X83853Y73304D01*
X89486D02*
X91082Y74899D01*
X87774D02*
X89369Y73304D01*
X89612Y74899D02*
X91207Y73304D01*
X85935Y74899D02*
X87530Y73304D01*
X87648D02*
X89243Y74899D01*
X80294Y73304D02*
X81889Y74899D01*
X78581D02*
X80176Y73304D01*
X80419Y74899D02*
X82015Y73304D01*
X75724Y74249D02*
X76374Y74899D01*
X78456Y73304D02*
X80051Y74899D01*
X76743D02*
X78338Y73304D01*
X76617D02*
X78212Y74899D01*
X75671Y55811D02*
X89863Y70003D01*
X75722Y73304D02*
X75726Y74899D01*
X75724Y74079D02*
X76499Y73304D01*
X75698Y65030D02*
X80671Y70003D01*
X75692Y63187D02*
X82509Y70003D01*
X76122D02*
X91014Y55112D01*
X75708Y68718D02*
X76994Y70003D01*
X75703Y66874D02*
X78832Y70003D01*
X77961D02*
X92852Y55112D01*
X76810D02*
X91702Y70003D01*
X75708Y68580D02*
X89175Y55112D01*
X75703Y66746D02*
X87337Y55112D01*
X75697Y64913D02*
X85498Y55112D01*
X75687Y61343D02*
X84348Y70003D01*
X75682Y59499D02*
X86186Y70003D01*
X75677Y57655D02*
X88025Y70003D01*
X75692Y63080D02*
X83660Y55112D01*
X75687Y61247D02*
X81821Y55112D01*
X75682Y59414D02*
X79983Y55112D01*
X75676Y57580D02*
X78144Y55112D01*
X75669D02*
X75712Y70003D01*
X75671Y55747D02*
X76306Y55112D01*
X95046Y29224D02*
X102754Y36933D01*
X94485D02*
X102194Y29224D01*
X96324Y36933D02*
X104033Y29224D01*
X92647Y36933D02*
X100356Y29224D01*
X93207D02*
X100916Y36933D01*
X100001D02*
X107710Y29224D01*
X98722D02*
X106431Y36933D01*
X100561Y29224D02*
X108270Y36933D01*
X96884Y29224D02*
X104593Y36933D01*
X98163D02*
X105871Y29224D01*
X85853D02*
X93562Y36933D01*
X85293D02*
X93002Y29224D01*
X87132Y36933D02*
X94841Y29224D01*
X83455Y36933D02*
X91164Y29224D01*
X84015D02*
X91724Y36933D01*
X91369Y29224D02*
X99077Y36933D01*
X90808D02*
X98518Y29224D01*
X91369D02*
X99077Y36933D01*
X87692Y29224D02*
X95401Y36933D01*
X89530Y29224D02*
X97239Y36933D01*
X94767Y16428D02*
X98206Y12989D01*
X93519D02*
X96958Y16428D01*
X95357Y12989D02*
X98796Y16428D01*
X91680Y12989D02*
X95119Y16428D01*
X92928D02*
X96367Y12989D01*
X99034D02*
X102473Y16428D01*
X98444D02*
X101883Y12989D01*
X100282Y16428D02*
X103721Y12989D01*
X96605Y16428D02*
X100044Y12989D01*
X97196D02*
X100635Y16428D01*
X88970Y36933D02*
X96679Y29224D01*
X75595D02*
X134467D01*
X75558Y16428D02*
X131545D01*
X89251D02*
X92690Y12989D01*
X91090Y16428D02*
X94529Y12989D01*
X89842D02*
X93281Y16428D01*
X78939Y12989D02*
X129723D01*
X87413Y16428D02*
X90852Y12989D01*
X88003D02*
X91442Y16428D01*
X81616Y36933D02*
X89325Y29224D01*
X80338D02*
X88047Y36933D01*
X82176Y29224D02*
X89885Y36933D01*
X77939D02*
X85648Y29224D01*
X79778Y36933D02*
X87487Y29224D01*
X84326Y12989D02*
X87766Y16428D01*
X78499Y29224D02*
X86208Y36933D01*
X82488Y12989D02*
X85927Y16428D01*
X76661Y29224D02*
X84370Y36933D01*
X80649Y12989D02*
X84088Y16428D01*
X75608Y33686D02*
X78854Y36933D01*
X75602Y31842D02*
X80693Y36933D01*
X75597Y29998D02*
X82531Y36933D01*
X75595Y29224D02*
X75617Y36933D01*
X75613Y35530D02*
X77016Y36933D01*
X76101D02*
X83810Y29224D01*
X75613Y35582D02*
X81971Y29224D01*
X75608Y33749D02*
X80133Y29224D01*
X75603Y31915D02*
X78294Y29224D01*
X75597Y30082D02*
X76456Y29224D01*
X85574Y16428D02*
X89013Y12989D01*
X83736Y16428D02*
X87175Y12989D01*
X86165D02*
X89604Y16428D01*
X80059D02*
X83498Y12989D01*
X81897Y16428D02*
X85337Y12989D01*
X78779Y12957D02*
X82250Y16428D01*
X78220D02*
X81660Y12989D01*
X78412Y12884D02*
X78939Y12989D01*
X77965Y12586D02*
X78412Y12884D01*
X77667Y12139D02*
X77965Y12586D01*
X75549Y13405D02*
X78573Y16428D01*
X75549Y13405D02*
X78573Y16428D01*
X76382D02*
X79821Y12989D01*
X75555Y15248D02*
X76735Y16428D01*
X75555Y15416D02*
X78217Y12754D01*
X76006Y12022D02*
X80412Y16428D01*
X75545Y12022D02*
X77644D01*
X75545D02*
X75558Y16428D01*
X75550Y13583D02*
X77111Y12022D01*
D141*
X248210Y8661D02*
X291186D01*
X293624Y11100D02*
Y11100D01*
X291186Y8661D02*
X293624Y11100D01*
X241942Y2394D02*
X248210Y8661D01*
D147*
X191113Y39100D02*
X192113Y38100D01*
D156*
X251060Y37700D02*
D03*
D158*
X311014Y11802D02*
D03*
X307087Y11811D02*
D03*
X303150D02*
D03*
X315748Y34252D02*
D03*
X330709Y39376D02*
D03*
X320488Y27974D02*
D03*
X323275Y27159D02*
D03*
X246061Y1967D02*
D03*
X322441Y49213D02*
D03*
X319291Y51575D02*
D03*
X330797Y46850D02*
D03*
X331496Y43701D02*
D03*
X322835Y9843D02*
D03*
X314961Y3966D02*
D03*
X297244Y66929D02*
D03*
X280709Y43667D02*
D03*
X284252Y48031D02*
D03*
X336612Y33465D02*
D03*
X329921Y29528D02*
D03*
X330315Y3937D02*
D03*
X354331Y33071D02*
D03*
X336614Y29528D02*
D03*
X352362Y60039D02*
D03*
X4581Y18428D02*
D03*
X5512Y51968D02*
D03*
X7480Y85355D02*
D03*
X16863Y5793D02*
D03*
X14961Y22441D02*
D03*
X13811Y45276D02*
D03*
X13386Y98819D02*
D03*
X20800Y5793D02*
D03*
X20800Y22800D02*
D03*
X24409Y55512D02*
D03*
X23262Y84646D02*
D03*
X25197Y100394D02*
D03*
X28740Y77165D02*
D03*
X30315Y100394D02*
D03*
X28740Y111417D02*
D03*
X38200Y21000D02*
D03*
X38976Y77165D02*
D03*
X36650Y111376D02*
D03*
X46063Y46457D02*
D03*
X47244Y62552D02*
D03*
X46443Y111376D02*
D03*
X52362Y35433D02*
D03*
X55905Y77953D02*
D03*
X56235Y111376D02*
D03*
X65099Y2000D02*
D03*
X61417Y38583D02*
D03*
X62992Y114915D02*
D03*
X67546Y2000D02*
D03*
X68504Y30100D02*
D03*
X72835Y81896D02*
D03*
X75984Y2756D02*
D03*
Y11811D02*
D03*
X135827Y18898D02*
D03*
X132749Y30383D02*
D03*
X132677Y36220D02*
D03*
X136614Y71653D02*
D03*
X133590Y65748D02*
D03*
X132749Y76549D02*
D03*
X134252Y74016D02*
D03*
X143800Y2398D02*
D03*
X140945Y13780D02*
D03*
X143800Y11340D02*
D03*
X148900Y21400D02*
D03*
X156069Y3346D02*
D03*
X156900Y6954D02*
D03*
X156069Y14187D02*
D03*
X156200Y68300D02*
D03*
X163933D02*
D03*
X172113Y6841D02*
D03*
X174900Y11143D02*
D03*
X173622Y18898D02*
D03*
X175197Y44882D02*
D03*
Y42520D02*
D03*
X171667Y68300D02*
D03*
X179400D02*
D03*
X192132Y6727D02*
D03*
Y10417D02*
D03*
X191013Y36817D02*
D03*
Y39565D02*
D03*
X191732Y54331D02*
D03*
X198541Y44062D02*
D03*
X206537Y6299D02*
D03*
X208681Y27954D02*
D03*
X208339Y44610D02*
D03*
X213468Y27954D02*
D03*
X212139Y31573D02*
D03*
X222441Y6299D02*
D03*
X224016Y53150D02*
D03*
X227559Y22047D02*
D03*
X227559Y26378D02*
D03*
X229970Y53150D02*
D03*
X238583Y2362D02*
D03*
X278124Y12221D02*
D03*
X281496Y22047D02*
D03*
Y30512D02*
D03*
Y37402D02*
D03*
X289370Y2997D02*
D03*
X287402Y22047D02*
D03*
X287795Y48031D02*
D03*
X285433Y53150D02*
D03*
X287795Y55118D02*
D03*
X283465Y57087D02*
D03*
X285556Y62992D02*
D03*
X287795Y59055D02*
D03*
X293307Y2997D02*
D03*
X297244D02*
D03*
X293624Y11100D02*
D03*
X296035Y25591D02*
D03*
Y29559D02*
D03*
X297244Y62992D02*
D03*
X301181Y2997D02*
D03*
X300004Y25591D02*
D03*
Y29528D02*
D03*
X305112Y62992D02*
D03*
X301181Y66929D02*
D03*
X312992Y23634D02*
D03*
Y19701D02*
D03*
X311014Y25591D02*
D03*
X311811Y29528D02*
D03*
X309842Y31573D02*
D03*
X312992Y66929D02*
D03*
X309055D02*
D03*
X328740D02*
D03*
X340551Y29528D02*
D03*
X329921Y19685D02*
D03*
X340551Y33465D02*
D03*
X322835Y15813D02*
D03*
X364173Y29348D02*
D03*
X326772Y7924D02*
D03*
X329921Y35433D02*
D03*
X327393Y31830D02*
D03*
X328740Y62992D02*
D03*
X324803Y66929D02*
D03*
X351575Y47638D02*
D03*
X324803Y61024D02*
D03*
X336614Y62992D02*
D03*
X332677Y61024D02*
D03*
X357087Y42520D02*
D03*
X351575D02*
D03*
X348425Y61024D02*
D03*
X344488Y62992D02*
D03*
X340551Y61024D02*
D03*
Y66929D02*
D03*
X348425D02*
D03*
X352362Y70866D02*
D03*
Y78740D02*
D03*
Y82677D02*
D03*
X360236Y70866D02*
D03*
X356299Y66929D02*
D03*
X360236Y78740D02*
D03*
X356270D02*
D03*
X356424Y74803D02*
D03*
X360236Y82677D02*
D03*
X356344D02*
D03*
X364173Y66929D02*
D03*
Y78740D02*
D03*
Y74803D02*
D03*
Y82677D02*
D03*
X9055Y31890D02*
D03*
X17184Y24980D02*
D03*
X23228Y112205D02*
D03*
X30709Y24409D02*
D03*
X31522Y17204D02*
D03*
X29851Y48031D02*
D03*
X29528Y72441D02*
D03*
X27953Y104724D02*
D03*
X37200Y16800D02*
D03*
X41339Y49053D02*
D03*
X35433Y48425D02*
D03*
X55445Y88583D02*
D03*
X72835Y56299D02*
D03*
X133858D02*
D03*
X159055Y16535D02*
D03*
X248425Y40462D02*
D03*
X256693Y40551D02*
D03*
X281500D02*
D03*
X281496Y34449D02*
D03*
X287795Y50787D02*
D03*
X296035Y33465D02*
D03*
X300004D02*
D03*
X312992Y15767D02*
D03*
X311811Y33465D02*
D03*
X357087Y29577D02*
D03*
X322835Y21654D02*
D03*
X326772Y24485D02*
D03*
X364173Y37795D02*
D03*
X329921Y49213D02*
D03*
X357087Y50475D02*
D03*
X330709Y11811D02*
D03*
X364173Y47638D02*
D03*
X352349Y105291D02*
D03*
X2709Y3150D02*
D03*
X1969Y21260D02*
D03*
Y31102D02*
D03*
Y46850D02*
D03*
Y51968D02*
D03*
X2362Y98819D02*
D03*
X2756Y108661D02*
D03*
X27165Y55421D02*
D03*
X34646Y52362D02*
D03*
X42520Y87008D02*
D03*
X18863Y116142D02*
D03*
X49707Y4050D02*
D03*
Y6924D02*
D03*
X57800Y1971D02*
D03*
X59055Y35071D02*
D03*
X58450Y39005D02*
D03*
X74803Y52362D02*
D03*
X66114Y94882D02*
D03*
X74100Y102756D02*
D03*
X171191Y11143D02*
D03*
X170079Y18898D02*
D03*
X201969Y6299D02*
D03*
X193913Y36817D02*
D03*
Y39565D02*
D03*
X226772Y6299D02*
D03*
X226378Y10630D02*
D03*
X234646Y31102D02*
D03*
X217717Y30406D02*
D03*
X225984Y29134D02*
D03*
X226772Y53150D02*
D03*
X241942Y2394D02*
D03*
X242520Y15354D02*
D03*
X266929Y46457D02*
D03*
X266655Y51691D02*
D03*
X299213Y11811D02*
D03*
X298031Y31459D02*
D03*
X322822Y3870D02*
D03*
X307087Y25591D02*
D03*
X307874Y29559D02*
D03*
X351575Y37795D02*
D03*
X26030Y48425D02*
D03*
X66535Y48819D02*
D03*
X203150Y56299D02*
D03*
X225591Y24409D02*
D03*
X219291Y16142D02*
D03*
X307874Y33465D02*
D03*
X364173Y60039D02*
D03*
X357087Y55709D02*
D03*
X363176Y105291D02*
D03*
X268618Y11631D02*
D03*
X264680D02*
D03*
X260743D02*
D03*
X256806D02*
D03*
X252869D02*
D03*
X268618Y15568D02*
D03*
X264680D02*
D03*
X260743D02*
D03*
X256806D02*
D03*
X252869D02*
D03*
X268618Y19505D02*
D03*
X264680D02*
D03*
X260743D02*
D03*
X256806D02*
D03*
X252869D02*
D03*
X268618Y23442D02*
D03*
X264680D02*
D03*
X260743D02*
D03*
X256806D02*
D03*
X252869D02*
D03*
X268618Y27380D02*
D03*
X264680D02*
D03*
X260743D02*
D03*
X256806D02*
D03*
X252869D02*
D03*
X28356Y63286D02*
D03*
X182000Y26025D02*
D03*
Y29962D02*
D03*
X185937Y26025D02*
D03*
Y29962D02*
D03*
X189874Y26025D02*
D03*
Y29962D02*
D03*
D159*
X299600Y53723D02*
D03*
X302356D02*
D03*
X299600Y50967D02*
D03*
X302356D02*
D03*
X299600Y42700D02*
D03*
Y45456D02*
D03*
X302356Y42700D02*
D03*
Y45456D02*
D03*
X310624Y42700D02*
D03*
X307868D02*
D03*
X310624Y45456D02*
D03*
X307868D02*
D03*
X310624Y53723D02*
D03*
X307868D02*
D03*
X310624Y50967D02*
D03*
X307868D02*
D03*
X310624Y48212D02*
D03*
X307868D02*
D03*
X299600D02*
D03*
X302356D02*
D03*
X305112Y53723D02*
D03*
Y50967D02*
D03*
Y42700D02*
D03*
Y45456D02*
D03*
Y48212D02*
D03*
D160*
X360236Y19685D02*
D03*
X423228Y19685D02*
D03*
D162*
X164459Y11728D02*
D03*
X152766Y33280D02*
D03*
Y29343D02*
D03*
D163*
X360236Y19685D02*
X423228D01*
D164*
X54211Y77953D02*
X55905D01*
X191113Y39100D02*
Y39500D01*
X34252Y51968D02*
X34646Y52362D01*
Y58388D01*
X178251Y52362D02*
X191113Y39500D01*
X34904Y52362D02*
X74803D01*
X5512Y51968D02*
X34252D01*
X34646Y58388D02*
X54211Y77953D01*
X74803Y52362D02*
X178251D01*
D165*
X192463Y38250D02*
D03*
M02*
