G04*
G04 #@! TF.GenerationSoftware,Altium Limited,Altium NEXUS,3.1.14 (81)*
G04*
G04 Layer_Color=65535*
%FSLAX25Y25*%
%MOIN*%
G70*
G04*
G04 #@! TF.SameCoordinates,8D934BE8-6637-419B-8715-06A4025A7093*
G04*
G04*
G04 #@! TF.FilePolarity,Positive*
G04*
G01*
G75*
%ADD10C,0.00394*%
D10*
X417323Y3937D02*
G03*
X421260Y0I3937J0D01*
G01*
Y118110D02*
G03*
X429134Y118110I3937J0D01*
G01*
X421260D02*
G03*
X417323Y114173I0J-3937D01*
G01*
X492126Y0D02*
G03*
X496063Y3937I0J3937D01*
G01*
Y114173D02*
G03*
X492126Y118110I-3937J0D01*
G01*
X78740Y114173D02*
G03*
X74803Y118110I-3937J0D01*
G01*
X352937D02*
G03*
X349000Y114173I0J-3937D01*
G01*
X74803Y0D02*
G03*
X78740Y3937I0J3937D01*
G01*
X3937Y118110D02*
G03*
X0Y114173I0J-3937D01*
G01*
X35433Y118110D02*
G03*
X43307Y118110I3937J0D01*
G01*
X133858D02*
G03*
X129921Y114173I0J-3937D01*
G01*
X147902D02*
G03*
X143965Y118110I-3937J0D01*
G01*
X366142Y114173D02*
G03*
X362205Y118110I-3937J0D01*
G01*
X0Y3937D02*
G03*
X3937Y0I3937J0D01*
G01*
X0Y70866D02*
G03*
X0Y78740I0J3937D01*
G01*
X129921Y3937D02*
G03*
X133858Y0I3937J0D01*
G01*
X362205D02*
G03*
X366142Y3937I0J3937D01*
G01*
X330709Y70402D02*
G03*
X338583Y70402I3937J0D01*
G01*
Y0D02*
G03*
X330709Y0I-3937J0D01*
G01*
X366142Y106299D02*
X417323D01*
X366142Y11800D02*
X417323D01*
X429134Y118110D02*
X452756D01*
X492126D01*
X460630Y0D02*
X492126D01*
X421260D02*
X460630D01*
X496063Y3937D02*
Y114173D01*
X417323Y11811D02*
Y106299D01*
Y114173D01*
Y3937D02*
Y11800D01*
X78740Y3937D02*
Y11811D01*
Y106299D02*
Y114173D01*
X129921Y3937D02*
Y11811D01*
Y106299D02*
Y114173D01*
X366142Y3937D02*
Y11811D01*
Y106299D02*
Y114173D01*
X0Y3937D02*
Y70866D01*
X78740Y11811D02*
Y106299D01*
X129921Y11811D02*
Y106299D01*
X366142Y11800D02*
Y106299D01*
X0Y78740D02*
Y114173D01*
X147900Y70400D02*
Y114173D01*
X349000Y70400D02*
Y114173D01*
X338583Y0D02*
X362205D01*
X338583Y70400D02*
X349000D01*
X352937Y118110D02*
X362205D01*
X3937Y0D02*
X74803D01*
X3937Y118110D02*
X35433D01*
X43307D02*
X74803D01*
X133858D02*
X143965D01*
X133858Y0D02*
X330709D01*
X78740Y11811D02*
X129921D01*
X147900Y70400D02*
X330709D01*
X78740Y106299D02*
X129921D01*
M02*
