G04*
G04 #@! TF.GenerationSoftware,Altium Limited,Altium NEXUS,3.1.14 (81)*
G04*
G04 Layer_Color=128*
%FSLAX25Y25*%
%MOIN*%
G70*
G04*
G04 #@! TF.SameCoordinates,8D934BE8-6637-419B-8715-06A4025A7093*
G04*
G04*
G04 #@! TF.FilePolarity,Positive*
G04*
G01*
G75*
%ADD27R,0.02165X0.02559*%
%ADD29R,0.02559X0.02165*%
%ADD31R,0.08661X0.04134*%
%ADD32R,0.04134X0.03937*%
%ADD38R,0.02362X0.03150*%
%ADD44R,0.01968X0.01968*%
%ADD167R,0.04724X0.04724*%
%ADD168R,0.01772X0.02480*%
%ADD169R,0.02480X0.01772*%
D27*
X23132Y19100D02*
D03*
X27068D02*
D03*
X246063Y44094D02*
D03*
X250000D02*
D03*
D29*
X253660Y44243D02*
D03*
Y48180D02*
D03*
D31*
X318900Y55610D02*
D03*
Y67224D02*
D03*
D32*
X312896Y61417D02*
D03*
D38*
X30709Y96850D02*
D03*
Y92126D02*
D03*
X25984Y96850D02*
D03*
Y92126D02*
D03*
X274013Y40823D02*
D03*
Y36099D02*
D03*
X269913Y40823D02*
D03*
Y36099D02*
D03*
X259414Y7709D02*
D03*
Y2984D02*
D03*
X255314Y7709D02*
D03*
Y2984D02*
D03*
X280315Y9055D02*
D03*
Y4331D02*
D03*
X275984Y9055D02*
D03*
Y4331D02*
D03*
D44*
X278013Y35508D02*
D03*
Y39051D02*
D03*
X251214Y2475D02*
D03*
Y6018D02*
D03*
X284646Y4921D02*
D03*
Y8465D02*
D03*
D167*
X15750Y90552D02*
D03*
D168*
X18112Y95749D02*
D03*
X15750D02*
D03*
X13387D02*
D03*
Y85355D02*
D03*
X15750D02*
D03*
X18112D02*
D03*
D169*
X10553Y91733D02*
D03*
Y89371D02*
D03*
X20946D02*
D03*
Y91733D02*
D03*
M02*
