G04*
G04 #@! TF.GenerationSoftware,Altium Limited,Altium NEXUS,3.1.14 (81)*
G04*
G04 Layer_Color=32896*
%FSLAX25Y25*%
%MOIN*%
G70*
G04*
G04 #@! TF.SameCoordinates,8D934BE8-6637-419B-8715-06A4025A7093*
G04*
G04*
G04 #@! TF.FilePolarity,Positive*
G04*
G01*
G75*
%ADD18C,0.00197*%
%ADD174C,0.00100*%
%ADD177C,0.00300*%
%ADD178C,0.00200*%
D18*
X28543Y89567D02*
X32874D01*
X28543Y99410D02*
X32874D01*
Y89567D02*
Y99410D01*
X28543Y89567D02*
Y99410D01*
X23819Y89567D02*
X28150D01*
X23819Y99410D02*
X28150D01*
Y89567D02*
Y99410D01*
X23819Y89567D02*
Y99410D01*
X7954Y98347D02*
X23545D01*
X7954Y82757D02*
Y98347D01*
Y82757D02*
X23545D01*
Y98347D01*
X29100Y17100D02*
Y21100D01*
X21100D02*
X29100D01*
X21100Y17100D02*
Y21100D01*
Y17100D02*
X29100D01*
X279391Y34130D02*
Y40429D01*
X276635Y34130D02*
X279391D01*
X276635Y40429D02*
X279391D01*
X276635Y34130D02*
Y40429D01*
X271847Y33540D02*
X276178D01*
X271847Y43382D02*
X276178D01*
Y33540D02*
Y43382D01*
X271847Y33540D02*
Y43382D01*
X267747Y33540D02*
X272078D01*
X267747Y43382D02*
X272078D01*
Y33540D02*
Y43382D01*
X267747Y33540D02*
Y43382D01*
X252031Y42094D02*
Y46095D01*
X244032D02*
X252031D01*
X244032Y42094D02*
Y46095D01*
Y42094D02*
X252031D01*
X251660Y42211D02*
Y50212D01*
X255660D01*
Y42211D02*
Y50212D01*
X251660Y42211D02*
X255660D01*
X257249Y425D02*
X261579D01*
X257249Y10268D02*
X261579D01*
Y425D02*
Y10268D01*
X257249Y425D02*
Y10268D01*
X252592Y1097D02*
Y7396D01*
X249836Y1097D02*
X252592D01*
X249836Y7396D02*
X252592D01*
X249836Y1097D02*
Y7396D01*
X253149Y425D02*
X257479D01*
X253149Y10268D02*
X257479D01*
Y425D02*
Y10268D01*
X253149Y425D02*
Y10268D01*
X278150Y1772D02*
X282480D01*
X278150Y11614D02*
X282480D01*
Y1772D02*
Y11614D01*
X278150Y1772D02*
Y11614D01*
X273819Y1772D02*
X278150D01*
X273819Y11614D02*
X278150D01*
Y1772D02*
Y11614D01*
X273819Y1772D02*
Y11614D01*
X286024Y3543D02*
Y9843D01*
X283268Y3543D02*
X286024D01*
X283268Y9843D02*
X286024D01*
X283268Y3543D02*
Y9843D01*
D174*
X253660Y44212D02*
X254060D01*
Y44412D01*
X253993Y44478D01*
X253860D01*
X253793Y44412D01*
Y44212D01*
Y44345D02*
X253660Y44478D01*
X254060Y44878D02*
X253993Y44745D01*
X253860Y44611D01*
X253727D01*
X253660Y44678D01*
Y44811D01*
X253727Y44878D01*
X253793D01*
X253860Y44811D01*
Y44611D01*
X254060Y45011D02*
Y45278D01*
X253993D01*
X253727Y45011D01*
X253660D01*
D177*
X31208Y91488D02*
X31508Y91188D01*
Y90588D01*
X31208Y90288D01*
X30009D01*
X29709Y90588D01*
Y91188D01*
X30009Y91488D01*
X29709Y92088D02*
Y92687D01*
Y92387D01*
X31508D01*
X31208Y92088D01*
Y93587D02*
X31508Y93887D01*
Y94487D01*
X31208Y94787D01*
X30908D01*
X30608Y94487D01*
X30308Y94787D01*
X30009D01*
X29709Y94487D01*
Y93887D01*
X30009Y93587D01*
X30308D01*
X30608Y93887D01*
X30908Y93587D01*
X31208D01*
X30608Y93887D02*
Y94487D01*
X26484Y91488D02*
X26784Y91188D01*
Y90588D01*
X26484Y90288D01*
X25284D01*
X24984Y90588D01*
Y91188D01*
X25284Y91488D01*
X24984Y92088D02*
Y92687D01*
Y92387D01*
X26784D01*
X26484Y92088D01*
X25284Y93587D02*
X24984Y93887D01*
Y94487D01*
X25284Y94787D01*
X26484D01*
X26784Y94487D01*
Y93887D01*
X26484Y93587D01*
X26184D01*
X25884Y93887D01*
Y94787D01*
X274512Y35460D02*
X274812Y35160D01*
Y34561D01*
X274512Y34261D01*
X273312D01*
X273013Y34561D01*
Y35160D01*
X273312Y35460D01*
X274812Y37260D02*
X274512Y36660D01*
X273912Y36060D01*
X273312D01*
X273013Y36360D01*
Y36960D01*
X273312Y37260D01*
X273612D01*
X273912Y36960D01*
Y36060D01*
X273013Y37860D02*
Y38460D01*
Y38160D01*
X274812D01*
X274512Y37860D01*
X270412Y35460D02*
X270712Y35160D01*
Y34561D01*
X270412Y34261D01*
X269213D01*
X268913Y34561D01*
Y35160D01*
X269213Y35460D01*
X270712Y37260D02*
X270412Y36660D01*
X269812Y36060D01*
X269213D01*
X268913Y36360D01*
Y36960D01*
X269213Y37260D01*
X269512D01*
X269812Y36960D01*
Y36060D01*
X268913Y39059D02*
Y37860D01*
X270112Y39059D01*
X270412D01*
X270712Y38759D01*
Y38160D01*
X270412Y37860D01*
X259913Y2346D02*
X260213Y2046D01*
Y1446D01*
X259913Y1146D01*
X258714D01*
X258414Y1446D01*
Y2046D01*
X258714Y2346D01*
X259913Y2946D02*
X260213Y3246D01*
Y3846D01*
X259913Y4146D01*
X259614D01*
X259314Y3846D01*
X259014Y4146D01*
X258714D01*
X258414Y3846D01*
Y3246D01*
X258714Y2946D01*
X259014D01*
X259314Y3246D01*
X259614Y2946D01*
X259913D01*
X259314Y3246D02*
Y3846D01*
X255814Y2346D02*
X256113Y2046D01*
Y1446D01*
X255814Y1146D01*
X254614D01*
X254314Y1446D01*
Y2046D01*
X254614Y2346D01*
Y2946D02*
X254314Y3246D01*
Y3846D01*
X254614Y4146D01*
X255814D01*
X256113Y3846D01*
Y3246D01*
X255814Y2946D01*
X255514D01*
X255214Y3246D01*
Y4146D01*
X280815Y3692D02*
X281114Y3393D01*
Y2793D01*
X280815Y2493D01*
X279615D01*
X279315Y2793D01*
Y3393D01*
X279615Y3692D01*
X279315Y4292D02*
Y4892D01*
Y4592D01*
X281114D01*
X280815Y4292D01*
X279315Y5792D02*
Y6392D01*
Y6092D01*
X281114D01*
X280815Y5792D01*
X276484Y3692D02*
X276784Y3393D01*
Y2793D01*
X276484Y2493D01*
X275284D01*
X274984Y2793D01*
Y3393D01*
X275284Y3692D01*
X274984Y4292D02*
Y4892D01*
Y4592D01*
X276784D01*
X276484Y4292D01*
Y5792D02*
X276784Y6092D01*
Y6692D01*
X276484Y6991D01*
X275284D01*
X274984Y6692D01*
Y6092D01*
X275284Y5792D01*
X276484D01*
D178*
X15750Y91552D02*
Y90719D01*
X15583Y90552D01*
X15250D01*
X15083Y90719D01*
Y91552D01*
X14750Y90552D02*
X14417D01*
X14583D01*
Y91552D01*
X14750Y91385D01*
X13917Y90552D02*
X13584D01*
X13750D01*
Y91552D01*
X13917Y91385D01*
X28600Y18600D02*
Y19999D01*
X27900D01*
X27667Y19766D01*
Y19300D01*
X27900Y19067D01*
X28600D01*
X28133D02*
X27667Y18600D01*
X26501D02*
Y19999D01*
X27200Y19300D01*
X26267D01*
X25801Y19766D02*
X25568Y19999D01*
X25101D01*
X24868Y19766D01*
Y19533D01*
X25101Y19300D01*
X24868Y19067D01*
Y18833D01*
X25101Y18600D01*
X25568D01*
X25801Y18833D01*
Y19067D01*
X25568Y19300D01*
X25801Y19533D01*
Y19766D01*
X25568Y19300D02*
X25101D01*
X277013Y36613D02*
Y37280D01*
X277513D01*
Y36946D01*
Y37280D01*
X278013D01*
X277013Y36280D02*
X278013D01*
Y35780D01*
X277846Y35614D01*
X277679D01*
X277513Y35780D01*
Y36280D01*
Y35780D01*
X277346Y35614D01*
X277180D01*
X277013Y35780D01*
Y36280D01*
X278013Y35280D02*
Y34947D01*
Y35114D01*
X277013D01*
X277180Y35280D01*
Y34447D02*
X277013Y34281D01*
Y33948D01*
X277180Y33781D01*
X277846D01*
X278013Y33948D01*
Y34281D01*
X277846Y34447D01*
X277180D01*
X251532Y43595D02*
Y44994D01*
X250832D01*
X250599Y44761D01*
Y44294D01*
X250832Y44061D01*
X251532D01*
X251065D02*
X250599Y43595D01*
X249199D02*
X250132D01*
X249199Y44528D01*
Y44761D01*
X249432Y44994D01*
X249899D01*
X250132Y44761D01*
X250214Y3580D02*
Y4246D01*
X250714D01*
Y3913D01*
Y4246D01*
X251214D01*
X250214Y3247D02*
X251214D01*
Y2747D01*
X251047Y2580D01*
X250881D01*
X250714Y2747D01*
Y3247D01*
Y2747D01*
X250548Y2580D01*
X250381D01*
X250214Y2747D01*
Y3247D01*
X251214Y1747D02*
X250214D01*
X250714Y2247D01*
Y1581D01*
X283646Y6027D02*
Y6693D01*
X284146D01*
Y6360D01*
Y6693D01*
X284646D01*
X283646Y5693D02*
X284646D01*
Y5193D01*
X284479Y5027D01*
X284312D01*
X284146Y5193D01*
Y5693D01*
Y5193D01*
X283979Y5027D01*
X283813D01*
X283646Y5193D01*
Y5693D01*
X284479Y4693D02*
X284646Y4527D01*
Y4194D01*
X284479Y4027D01*
X283813D01*
X283646Y4194D01*
Y4527D01*
X283813Y4693D01*
X283979D01*
X284146Y4527D01*
Y4027D01*
M02*
