G04*
G04 #@! TF.GenerationSoftware,Altium Limited,Altium NEXUS,3.1.14 (81)*
G04*
G04 Layer_Color=32768*
%FSLAX25Y25*%
%MOIN*%
G70*
G04*
G04 #@! TF.SameCoordinates,8D934BE8-6637-419B-8715-06A4025A7093*
G04*
G04*
G04 #@! TF.FilePolarity,Positive*
G04*
G01*
G75*
%ADD10C,0.00394*%
%ADD17C,0.00800*%
%ADD18C,0.00197*%
%ADD21C,0.00500*%
%ADD181C,0.00315*%
D10*
X325984Y42520D02*
Y44882D01*
X324803Y43701D02*
X327165D01*
X303143Y48212D02*
X307080D01*
X305112Y46243D02*
Y50180D01*
X352362Y5529D02*
Y9466D01*
X350394Y7498D02*
X354331D01*
X349311Y19505D02*
X351673D01*
X350492Y18324D02*
Y20687D01*
X341220Y4498D02*
Y10498D01*
X331221D02*
X341220D01*
X331221Y4498D02*
Y10498D01*
Y4498D02*
X341220D01*
X336221Y6498D02*
Y8498D01*
X335221Y7498D02*
X337221D01*
X325984Y50492D02*
Y54232D01*
X324114Y52362D02*
X327854D01*
X352854Y26379D02*
Y28379D01*
X351854Y27380D02*
X353854D01*
X349854Y22379D02*
Y32379D01*
X355854D01*
Y22379D02*
Y32379D01*
X349854Y22379D02*
X355854D01*
X347736Y55905D02*
X351476D01*
X349606Y54035D02*
Y57776D01*
X347638Y50394D02*
X350000D01*
X348819Y49213D02*
Y51575D01*
X334547Y49252D02*
X343209D01*
X334547Y36654D02*
Y49252D01*
Y36654D02*
X343209D01*
Y49252D01*
X337878Y42953D02*
X339878D01*
X338878Y41953D02*
Y43953D01*
X333957Y55905D02*
X337697D01*
X335827Y54035D02*
Y57776D01*
X283465Y26326D02*
X285827D01*
X284646Y25145D02*
Y27507D01*
X300394Y8268D02*
X302756D01*
X301575Y7087D02*
Y9449D01*
X290256Y12130D02*
Y15870D01*
X288386Y14000D02*
X292126D01*
X287303Y7898D02*
Y20102D01*
X293209Y7898D02*
Y20102D01*
X287303Y7898D02*
X293209D01*
X287303Y20102D02*
X293209D01*
X301500Y15764D02*
Y18126D01*
X300319Y16945D02*
X302681D01*
X301500Y20272D02*
Y22634D01*
X300319Y21453D02*
X302681D01*
X38189Y44094D02*
Y46457D01*
X37008Y45276D02*
X39370D01*
X22047D02*
X24409D01*
X23228Y44094D02*
Y46457D01*
X348819Y33858D02*
Y36220D01*
X347638Y35039D02*
X350000D01*
X346457Y41582D02*
Y43944D01*
X345276Y42763D02*
X347638D01*
X260743Y17537D02*
Y21474D01*
X258775Y19505D02*
X262712D01*
X294956Y15870D02*
Y16854D01*
X294464Y16362D02*
X295448D01*
X285039Y14173D02*
Y16535D01*
X283858Y15354D02*
X286221D01*
X280709Y14173D02*
Y16535D01*
X279528Y15354D02*
X281890D01*
X242126Y6693D02*
Y9055D01*
X240945Y7874D02*
X243307D01*
X237795Y6693D02*
Y9055D01*
X236614Y7874D02*
X238976D01*
X232677Y6988D02*
Y7972D01*
X232185Y7480D02*
X233169D01*
X235433Y15748D02*
Y18110D01*
X234252Y16929D02*
X236614D01*
X239764Y15748D02*
Y18110D01*
X238583Y16929D02*
X240945D01*
X231496Y17618D02*
Y18602D01*
X231004Y18110D02*
X231988D01*
X263386Y53051D02*
Y54035D01*
X262894Y53543D02*
X263878D01*
X259842Y43307D02*
X262205D01*
X261024Y42126D02*
Y44488D01*
X259842Y48425D02*
X262205D01*
X261024Y47244D02*
Y49606D01*
X271850Y60236D02*
X274213D01*
X273031Y59055D02*
Y61417D01*
X271943Y43153D02*
X274306D01*
X273125Y41972D02*
Y44334D01*
X264912Y35494D02*
Y41399D01*
X277116Y35494D02*
Y41399D01*
X264912D02*
X277116D01*
X264912Y35494D02*
X277116D01*
X271014Y36576D02*
Y40317D01*
X269144Y38446D02*
X272884D01*
X248727Y50954D02*
Y57954D01*
X252727D01*
X250727Y53954D02*
Y54954D01*
X250227Y54454D02*
X251227D01*
X248727Y50954D02*
X252727D01*
Y57954D01*
X65507Y77885D02*
X67869D01*
X66688Y76704D02*
Y79066D01*
X65507Y81985D02*
X67869D01*
X66688Y80804D02*
Y83166D01*
X73450Y72894D02*
Y75256D01*
X72269Y74075D02*
X74631D01*
X64569Y70866D02*
X68506D01*
X66537Y68898D02*
Y72835D01*
X49966Y76421D02*
Y83421D01*
X53966D01*
X51966Y79421D02*
Y80421D01*
X51466Y79921D02*
X52466D01*
X49966Y76421D02*
X53966D01*
Y83421D01*
X18898Y37402D02*
Y39764D01*
X17717Y38583D02*
X20079D01*
X14567Y37402D02*
Y39764D01*
X13386Y38583D02*
X15748D01*
X10236Y37402D02*
Y39764D01*
X9055Y38583D02*
X11417D01*
X2165Y44685D02*
X8071D01*
X2165Y32480D02*
X8071D01*
Y44685D01*
X2165Y32480D02*
Y44685D01*
X3248Y38583D02*
X6988D01*
X5118Y36713D02*
Y40453D01*
X60181Y88488D02*
Y100381D01*
X42681D02*
X60181D01*
X42681Y88488D02*
Y100381D01*
Y88488D02*
X60181D01*
X48681Y94488D02*
X53681D01*
X51181Y91988D02*
Y96988D01*
X42913Y104035D02*
Y107776D01*
X41043Y105905D02*
X44783D01*
X39059Y52413D02*
X41421D01*
X40240Y51232D02*
Y53594D01*
X39113Y56586D02*
X41475D01*
X40294Y55405D02*
Y57767D01*
X17772Y71245D02*
Y75182D01*
X15803Y73213D02*
X19740D01*
X13835Y66324D02*
Y80103D01*
X21709Y66324D02*
Y80103D01*
X13835Y66324D02*
X21709D01*
X13835Y80103D02*
X21709D01*
X39075Y60786D02*
X41437D01*
X40256Y59605D02*
Y61967D01*
X28356Y61317D02*
Y65254D01*
X26387Y63286D02*
X30324D01*
X139298Y32451D02*
Y36191D01*
X137428Y34321D02*
X141169D01*
X136346Y28219D02*
Y40423D01*
X142251Y28219D02*
Y40423D01*
X136346Y28219D02*
X142251D01*
X136346Y40423D02*
X142251D01*
X221654Y12205D02*
Y14567D01*
X220472Y13386D02*
X222835D01*
X221260Y20866D02*
X223622D01*
X222441Y19685D02*
Y22047D01*
X210134Y12719D02*
Y17519D01*
X215534D01*
Y12719D02*
Y17519D01*
X210134Y12719D02*
X215534D01*
X212334Y15119D02*
X213334D01*
X212834Y14619D02*
Y15619D01*
X208268Y7874D02*
X210630D01*
X209449Y6693D02*
Y9055D01*
X224429Y39313D02*
Y43250D01*
X222461Y41281D02*
X226398D01*
X235294Y42558D02*
Y46299D01*
X233424Y44428D02*
X237164D01*
X232341Y38326D02*
Y50531D01*
X238247Y38326D02*
Y50531D01*
X232341Y38326D02*
X238247D01*
X232341Y50531D02*
X238247D01*
X240594Y42558D02*
Y46299D01*
X238724Y44429D02*
X242464D01*
X216139Y36830D02*
Y40570D01*
X214269Y38700D02*
X218009D01*
X213187Y32598D02*
Y44802D01*
X219092Y32598D02*
Y44802D01*
X213187Y32598D02*
X219092D01*
X213187Y44802D02*
X219092D01*
X164459Y9759D02*
Y13696D01*
X162491Y11728D02*
X166428D01*
X169532Y32510D02*
X171895D01*
X170713Y31329D02*
Y33691D01*
X173632Y32456D02*
X175995D01*
X174813Y31274D02*
Y33637D01*
X198643Y29155D02*
X202383D01*
X200513Y27285D02*
Y31026D01*
X194411Y26203D02*
X206616D01*
X194411Y32108D02*
X206616D01*
Y26203D02*
Y32108D01*
X194411Y26203D02*
Y32108D01*
X198643Y23855D02*
X202383D01*
X200513Y21985D02*
Y25726D01*
X194411Y20903D02*
X206616D01*
X194411Y26808D02*
X206616D01*
Y20903D02*
Y26808D01*
X194411Y20903D02*
Y26808D01*
X177213Y38474D02*
Y40837D01*
X176032Y39656D02*
X178394D01*
X181343Y44465D02*
X185083D01*
X183213Y42595D02*
Y46335D01*
X177111Y47417D02*
X189316D01*
X177111Y41512D02*
X189316D01*
X177111D02*
Y47417D01*
X189316Y41512D02*
Y47417D01*
X185937Y26025D02*
Y29962D01*
X183969Y27993D02*
X187906D01*
X181343Y49765D02*
X185083D01*
X183213Y47895D02*
Y51635D01*
X177111Y52717D02*
X189316D01*
X177111Y46812D02*
X189316D01*
X177111D02*
Y52717D01*
X189316Y46812D02*
Y52717D01*
X200213Y32763D02*
Y35126D01*
X199032Y33944D02*
X201395D01*
X139405Y20427D02*
Y24168D01*
X137535Y22297D02*
X141275D01*
X160143Y26490D02*
Y30230D01*
X158273Y28360D02*
X162013D01*
X163096Y22258D02*
Y34463D01*
X157191Y22258D02*
Y34463D01*
X163096D01*
X157191Y22258D02*
X163096D01*
X165443Y26490D02*
Y30230D01*
X163573Y28360D02*
X167313D01*
X168396Y22258D02*
Y34463D01*
X162491Y22258D02*
Y34463D01*
X168396D01*
X162491Y22258D02*
X168396D01*
X144664Y20425D02*
Y24165D01*
X142794Y22295D02*
X146534D01*
X147600Y5730D02*
Y9470D01*
X145730Y7600D02*
X149470D01*
X144657Y32458D02*
Y36198D01*
X142787Y34328D02*
X146527D01*
X141704Y28225D02*
Y40430D01*
X147610Y28225D02*
Y40430D01*
X141704Y28225D02*
X147610D01*
X141704Y40430D02*
X147610D01*
X152766Y29343D02*
Y33280D01*
X150797Y31312D02*
X154734D01*
X200413Y51450D02*
X207413D01*
X200413D02*
Y55450D01*
X203913Y52950D02*
Y53950D01*
X203413Y53450D02*
X204413D01*
X207413Y51450D02*
Y55450D01*
X200413D02*
X207413D01*
X207613Y48165D02*
Y55165D01*
X211613D01*
X209113Y51665D02*
X210113D01*
X209613Y51165D02*
Y52165D01*
X207613Y48165D02*
X211613D01*
Y55165D01*
X9843Y108268D02*
X13780D01*
X11811Y106299D02*
Y110236D01*
X26421Y99244D02*
X33421D01*
Y95244D02*
Y99244D01*
X29921Y96744D02*
Y97744D01*
X29421Y97244D02*
X30421D01*
X26421Y95244D02*
Y99244D01*
Y95244D02*
X33421D01*
X33169Y87008D02*
X36909D01*
X35039Y85138D02*
Y88878D01*
X28937Y84055D02*
X41142D01*
X28937Y89961D02*
X41142D01*
Y84055D02*
Y89961D01*
X28937Y84055D02*
Y89961D01*
X33169Y81102D02*
X36909D01*
X35039Y79232D02*
Y82972D01*
X139100Y78200D02*
X146100D01*
X139100D02*
Y82200D01*
X142600Y79700D02*
Y80700D01*
X142100Y80200D02*
X143100D01*
X146100Y78200D02*
Y82200D01*
X139100D02*
X146100D01*
D17*
X273125Y50253D02*
Y52253D01*
X272125Y51253D02*
X274125D01*
X278625Y44753D02*
Y57753D01*
X267624Y44753D02*
X278625D01*
X267624D02*
Y57753D01*
X278625D01*
D18*
X172887Y15100D02*
G03*
X172887Y15100I-487J0D01*
G01*
X167506Y3000D02*
G03*
X167506Y3000I-487J0D01*
G01*
X21353Y111024D02*
G03*
X21353Y111024I-487J0D01*
G01*
X321063Y41535D02*
Y45866D01*
X330906Y41535D02*
Y45866D01*
X321063D02*
X330906D01*
X321063Y41535D02*
X330906D01*
X317907Y35416D02*
Y61007D01*
X292317Y35416D02*
Y61007D01*
Y35416D02*
X317907D01*
X292317Y61007D02*
X317907D01*
X292717Y29207D02*
Y33144D01*
X285236Y29207D02*
Y33144D01*
Y29207D02*
X292717D01*
X285236Y33144D02*
X292717D01*
X287894Y31176D02*
X290059D01*
X288976Y30093D02*
Y32258D01*
X340748Y214D02*
X363976D01*
X340748Y14781D02*
X363976D01*
Y214D02*
Y14781D01*
X340748Y214D02*
Y14781D01*
X345571Y17340D02*
X355413D01*
X345571Y21671D02*
X355413D01*
Y17340D02*
Y21671D01*
X345571Y17340D02*
Y21671D01*
X344390Y31299D02*
X348327D01*
X344390Y23819D02*
X348327D01*
Y31299D01*
X344390Y23819D02*
Y31299D01*
X346358Y26476D02*
Y28642D01*
X345276Y27559D02*
X347441D01*
X323031Y45866D02*
X328937D01*
X323031Y58858D02*
X328937D01*
X323031Y45866D02*
Y58858D01*
X328937Y45866D02*
Y58858D01*
X285925Y37500D02*
X288090D01*
X287008Y36417D02*
Y38583D01*
X288976Y33760D02*
Y41240D01*
X285039Y33760D02*
Y41240D01*
X288976D01*
X285039Y33760D02*
X288976D01*
X356102Y52953D02*
Y58858D01*
X343110Y52953D02*
Y58858D01*
Y52953D02*
X356102D01*
X343110Y58858D02*
X356102D01*
X343898Y48228D02*
X353740D01*
X343898Y52559D02*
X353740D01*
Y48228D02*
Y52559D01*
X343898Y48228D02*
Y52559D01*
X329331Y52953D02*
Y58858D01*
X342323Y52953D02*
Y58858D01*
X329331D02*
X342323D01*
X329331Y52953D02*
X342323D01*
X279724Y24161D02*
X289567D01*
X279724Y28491D02*
X289567D01*
Y24161D02*
Y28491D01*
X279724Y24161D02*
Y28491D01*
X296654Y6102D02*
X306496D01*
X296654Y10433D02*
X306496D01*
Y6102D02*
Y10433D01*
X296654Y6102D02*
Y10433D01*
X285039Y42618D02*
Y44783D01*
X283957Y43701D02*
X286122D01*
X281299Y41732D02*
X288779D01*
X281299Y45669D02*
X288779D01*
Y41732D02*
Y45669D01*
X281299Y41732D02*
Y45669D01*
X306421Y14780D02*
Y19110D01*
X296579Y14780D02*
Y19110D01*
Y14780D02*
X306421D01*
X296579Y19110D02*
X306421D01*
Y19287D02*
Y23618D01*
X296579Y19287D02*
Y23618D01*
Y19287D02*
X306421D01*
X296579Y23618D02*
X306421D01*
X40354Y40354D02*
Y50197D01*
X36024Y40354D02*
Y50197D01*
X40354D01*
X36024Y40354D02*
X40354D01*
X25709Y39413D02*
Y46413D01*
Y39413D02*
X35709D01*
Y46413D01*
X25709D02*
X35709D01*
X196343Y48574D02*
Y50739D01*
X195260Y49656D02*
X197426D01*
X192603Y47688D02*
X200083D01*
X192603Y51625D02*
X200083D01*
Y47688D02*
Y51625D01*
X192603Y47688D02*
Y51625D01*
X21063Y40354D02*
X25394D01*
X21063Y50197D02*
X25394D01*
X21063Y40354D02*
Y50197D01*
X25394Y40354D02*
Y50197D01*
X343898Y32874D02*
Y37205D01*
X353740Y32874D02*
Y37205D01*
X343898D02*
X353740D01*
X343898Y32874D02*
X353740D01*
X344291Y37842D02*
Y47685D01*
X348622Y37842D02*
Y47685D01*
X344291Y37842D02*
X348622D01*
X344291Y47685D02*
X348622D01*
X15436Y59213D02*
X17601D01*
X16518Y58131D02*
Y60296D01*
X14550Y55473D02*
Y62954D01*
X18487Y55473D02*
Y62954D01*
X14550Y55473D02*
X18487D01*
X14550Y62954D02*
X18487D01*
X11772Y59229D02*
X13937D01*
X12854Y58146D02*
Y60312D01*
X10886Y55489D02*
Y62969D01*
X14823Y55489D02*
Y62969D01*
X10886Y55489D02*
X14823D01*
X10886Y62969D02*
X14823D01*
X244995Y3757D02*
Y35254D01*
X276491Y3757D02*
Y35254D01*
X244995D02*
X276491D01*
X244995Y3757D02*
X276491D01*
X243504Y32283D02*
Y36220D01*
X236024Y32283D02*
Y36220D01*
Y32283D02*
X243504D01*
X236024Y36220D02*
X243504D01*
X238681Y34252D02*
X240846D01*
X239764Y33169D02*
Y35335D01*
X296334Y13213D02*
Y19512D01*
X293578D02*
X296334D01*
X293578Y13213D02*
X296334D01*
X293578D02*
Y19512D01*
X282874Y10433D02*
Y20276D01*
X287205Y10433D02*
Y20276D01*
X282874Y10433D02*
X287205D01*
X282874Y20276D02*
X287205D01*
X278543Y10433D02*
Y20276D01*
X282874Y10433D02*
Y20276D01*
X278543Y10433D02*
X282874D01*
X278543Y20276D02*
X282874D01*
X239961Y2953D02*
Y12795D01*
X244291Y2953D02*
Y12795D01*
X239961Y2953D02*
X244291D01*
X239961Y12795D02*
X244291D01*
X235630Y2953D02*
Y12795D01*
X239961Y2953D02*
Y12795D01*
X235630Y2953D02*
X239961D01*
X235630Y12795D02*
X239961D01*
X234055Y4331D02*
Y10630D01*
X231299D02*
X234055D01*
X231299Y4331D02*
X234055D01*
X231299D02*
Y10630D01*
X233268Y12008D02*
Y21850D01*
X237598Y12008D02*
Y21850D01*
X233268Y12008D02*
X237598D01*
X233268Y21850D02*
X237598D01*
X237598Y12008D02*
Y21850D01*
X241929Y12008D02*
Y21850D01*
X237598Y12008D02*
X241929D01*
X237598Y21850D02*
X241929D01*
X232874Y14961D02*
Y21260D01*
X230118D02*
X232874D01*
X230118Y14961D02*
X232874D01*
X230118D02*
Y21260D01*
X262008Y50394D02*
Y56693D01*
Y50394D02*
X264764D01*
X262008Y56693D02*
X264764D01*
Y50394D02*
Y56693D01*
X256102Y45472D02*
X265945D01*
X256102Y41142D02*
X265945D01*
X256102D02*
Y45472D01*
X265945Y41142D02*
Y45472D01*
X256102Y50591D02*
X265945D01*
X256102Y46260D02*
X265945D01*
X256102D02*
Y50591D01*
X265945Y46260D02*
Y50591D01*
X254684Y35684D02*
Y39621D01*
X262165Y35684D02*
Y39621D01*
X254684D02*
X262165D01*
X254684Y35684D02*
X262165D01*
X257342Y37653D02*
X259507D01*
X258424Y36570D02*
Y38735D01*
X268110Y58071D02*
X277953D01*
X268110Y62402D02*
X277953D01*
Y58071D02*
Y62402D01*
X268110Y58071D02*
Y62402D01*
X268203Y45318D02*
X278046D01*
X268203Y40987D02*
X278046D01*
X268203D02*
Y45318D01*
X278046Y40987D02*
Y45318D01*
X244559Y58194D02*
X248496D01*
X244559Y50714D02*
X248496D01*
Y58194D01*
X244559Y50714D02*
Y58194D01*
X246527Y53371D02*
Y55537D01*
X245444Y54454D02*
X247610D01*
X66929Y58465D02*
X70866D01*
X66929Y65945D02*
X70866D01*
X66929Y58465D02*
Y65945D01*
X70866Y58465D02*
Y65945D01*
X68898Y61122D02*
Y63287D01*
X67815Y62205D02*
X69980D01*
X62992Y58465D02*
X66929D01*
X62992Y65945D02*
X66929D01*
X62992Y58465D02*
Y65945D01*
X66929Y58465D02*
Y65945D01*
X64961Y61122D02*
Y63287D01*
X63878Y62205D02*
X66043D01*
X61766Y75720D02*
X71609D01*
X61766Y80050D02*
X71609D01*
Y75720D02*
Y80050D01*
X61766Y75720D02*
Y80050D01*
Y79820D02*
X71609D01*
X61766Y84150D02*
X71609D01*
Y79820D02*
Y84150D01*
X61766Y79820D02*
Y84150D01*
X75615Y69154D02*
Y78996D01*
X71285Y69154D02*
Y78996D01*
X75615D01*
X71285Y69154D02*
X75615D01*
X62128Y66457D02*
Y75276D01*
X70947D01*
Y66457D02*
Y75276D01*
X62128Y66457D02*
X70947D01*
X57677Y71886D02*
Y75823D01*
X50197Y71886D02*
Y75823D01*
Y71886D02*
X57677D01*
X50197Y75823D02*
X57677D01*
X52854Y73854D02*
X55020D01*
X53937Y72771D02*
Y74937D01*
X50197Y29921D02*
Y33858D01*
X57677Y29921D02*
Y33858D01*
X50197D02*
X57677D01*
X50197Y29921D02*
X57677D01*
X52854Y31890D02*
X55020D01*
X53937Y30807D02*
Y32972D01*
X60039Y24803D02*
Y28740D01*
X67520Y24803D02*
Y28740D01*
X60039D02*
X67520D01*
X60039Y24803D02*
X67520D01*
X62697Y26772D02*
X64862D01*
X63779Y25689D02*
Y27854D01*
X22572Y30208D02*
Y34145D01*
X15091Y30208D02*
Y34145D01*
Y30208D02*
X22572D01*
X15091Y34145D02*
X22572D01*
X17749Y32177D02*
X19914D01*
X18832Y31094D02*
Y33259D01*
X22572Y26508D02*
Y30445D01*
X15091Y26508D02*
Y30445D01*
Y26508D02*
X22572D01*
X15091Y30445D02*
X22572D01*
X17749Y28477D02*
X19914D01*
X18832Y27394D02*
Y29559D01*
X15091Y17108D02*
Y21045D01*
X22572Y17108D02*
Y21045D01*
X15091D02*
X22572D01*
X15091Y17108D02*
X22572D01*
X17749Y19077D02*
X19914D01*
X18832Y17994D02*
Y20159D01*
X15091Y10508D02*
Y14445D01*
X22572Y10508D02*
Y14445D01*
X15091D02*
X22572D01*
X15091Y10508D02*
X22572D01*
X17749Y12477D02*
X19914D01*
X18832Y11394D02*
Y13559D01*
X16732Y33661D02*
Y43504D01*
X21063Y33661D02*
Y43504D01*
X16732Y33661D02*
X21063D01*
X16732Y43504D02*
X21063D01*
X12402Y33661D02*
Y43504D01*
X16732Y33661D02*
Y43504D01*
X12402Y33661D02*
X16732D01*
X12402Y43504D02*
X16732D01*
X8071Y33661D02*
Y43504D01*
X12402Y33661D02*
Y43504D01*
X8071Y33661D02*
X12402D01*
X8071Y43504D02*
X12402D01*
X36417Y102953D02*
X49409D01*
X36417Y108858D02*
X49409D01*
Y102953D02*
Y108858D01*
X36417Y102953D02*
Y108858D01*
X49961Y506D02*
Y36333D01*
X22795Y506D02*
Y36333D01*
X22795D02*
X49961D01*
X22795Y506D02*
X49961D01*
X35319Y50248D02*
X45161D01*
X35319Y54579D02*
X45161D01*
Y50248D02*
Y54579D01*
X35319Y50248D02*
Y54579D01*
X35372Y54421D02*
X45215D01*
X35372Y58751D02*
X45215D01*
Y54421D02*
Y58751D01*
X35372Y54421D02*
Y58751D01*
X35335Y58621D02*
X45177D01*
X35335Y62951D02*
X45177D01*
Y58621D02*
Y62951D01*
X35335Y58621D02*
Y62951D01*
X35556Y73186D02*
X42556D01*
X35556Y63186D02*
Y73186D01*
Y63186D02*
X42556D01*
Y73186D01*
X20482Y71160D02*
X36230D01*
X20482Y55412D02*
X36230D01*
Y71160D01*
X20482Y55412D02*
Y71160D01*
X212697Y8268D02*
X214862D01*
X213779Y7185D02*
Y9350D01*
X215748Y4528D02*
Y12008D01*
X211811Y4528D02*
Y12008D01*
X215748D01*
X211811Y4528D02*
X215748D01*
X216732Y11220D02*
Y15551D01*
X226575Y11220D02*
Y15551D01*
X216732D02*
X226575D01*
X216732Y11220D02*
X226575D01*
X221260Y7972D02*
Y10138D01*
X220177Y9055D02*
X222342D01*
X217520Y11024D02*
X225000D01*
X217520Y7087D02*
X225000D01*
X217520D02*
Y11024D01*
X225000Y7087D02*
Y11024D01*
X220276Y25787D02*
X224606D01*
X220276Y15945D02*
X224606D01*
Y25787D01*
X220276Y15945D02*
Y25787D01*
X217051Y21623D02*
X219216D01*
X218134Y20540D02*
Y22705D01*
X220102Y17883D02*
Y25363D01*
X216165Y17883D02*
Y25363D01*
X220102D01*
X216165Y17883D02*
X220102D01*
X211851Y21613D02*
X214017D01*
X212934Y20530D02*
Y22695D01*
X214902Y17873D02*
Y25353D01*
X210965Y17873D02*
Y25353D01*
X214902D01*
X210965Y17873D02*
X214902D01*
X207579Y21654D02*
X209744D01*
X208661Y20571D02*
Y22736D01*
X206693Y17913D02*
Y25394D01*
X210630Y17913D02*
Y25394D01*
X206693Y17913D02*
X210630D01*
X206693Y25394D02*
X210630D01*
X207283Y12795D02*
X211614D01*
X207283Y2953D02*
X211614D01*
Y12795D01*
X207283Y2953D02*
Y12795D01*
X220829Y37281D02*
Y45281D01*
X228029Y37281D02*
Y45281D01*
X220829D02*
X228029D01*
X220829Y37281D02*
X228029D01*
X220829D02*
Y45281D01*
X228029Y37281D02*
Y45281D01*
X220829D02*
X228029D01*
X220829Y37281D02*
X228029D01*
X237641Y37932D02*
X243547D01*
X237641Y50924D02*
X243547D01*
X237641Y37932D02*
Y50924D01*
X243547Y37932D02*
Y50924D01*
X232063Y35646D02*
Y37811D01*
X230980Y36729D02*
X233145D01*
X228322Y38697D02*
X235803D01*
X228322Y34760D02*
X235803D01*
X228322D02*
Y38697D01*
X235803Y34760D02*
Y38697D01*
X172400Y14450D02*
Y15750D01*
X171101Y12738D02*
Y17462D01*
Y12738D02*
X173699D01*
X171101Y17462D02*
X173699D01*
Y12738D02*
Y17462D01*
X171750Y15100D02*
X173050D01*
X167018Y2350D02*
Y3650D01*
X168317Y638D02*
Y5362D01*
X165719D02*
X168317D01*
X165719Y638D02*
X168317D01*
X165719D02*
Y5362D01*
X166368Y3000D02*
X167668D01*
X158947Y5035D02*
X169971D01*
Y18420D01*
X158947D02*
X169971D01*
X158947Y5035D02*
Y18420D01*
X168548Y37431D02*
X172879D01*
X168548Y27589D02*
X172879D01*
Y37431D01*
X168548Y27589D02*
Y37431D01*
X172813Y25126D02*
Y27291D01*
X171731Y26209D02*
X173896D01*
X169073Y24240D02*
X176553D01*
X169073Y28177D02*
X176553D01*
Y24240D02*
Y28177D01*
X169073Y24240D02*
Y28177D01*
X172648Y37377D02*
X176979D01*
X172648Y27534D02*
X176979D01*
Y37377D01*
X172648Y27534D02*
Y37377D01*
X178131Y16156D02*
X180296D01*
X179213Y15073D02*
Y17238D01*
X181182Y12415D02*
Y19896D01*
X177245Y12415D02*
Y19896D01*
X181182D01*
X177245Y12415D02*
X181182D01*
X204213Y40917D02*
Y43083D01*
X203131Y42000D02*
X205296D01*
X200473Y43968D02*
X207954D01*
X200473Y40031D02*
X207954D01*
X200473D02*
Y43968D01*
X207954Y40031D02*
Y43968D01*
X182135Y37490D02*
Y41821D01*
X172292Y37490D02*
Y41821D01*
Y37490D02*
X182135D01*
X172292Y41821D02*
X182135D01*
X177473Y20513D02*
X194402D01*
X177473Y35474D02*
X194402D01*
X177473Y20513D02*
Y35474D01*
X194402Y20513D02*
Y35474D01*
X185313Y38573D02*
Y40738D01*
X184231Y39656D02*
X186396D01*
X181573Y37687D02*
X189053D01*
X181573Y41624D02*
X189053D01*
Y37687D02*
Y41624D01*
X181573Y37687D02*
Y41624D01*
X200213Y37082D02*
Y39247D01*
X199131Y38165D02*
X201296D01*
X196473Y40133D02*
X203954D01*
X196473Y36196D02*
X203954D01*
X196473D02*
Y40133D01*
X203954Y36196D02*
Y40133D01*
X195292Y31779D02*
Y36110D01*
X205135Y31779D02*
Y36110D01*
X195292D02*
X205135D01*
X195292Y31779D02*
X205135D01*
X136452Y28793D02*
X142358D01*
X136452Y15801D02*
X142358D01*
Y28793D01*
X136452Y15801D02*
Y28793D01*
X141711Y15799D02*
X147617D01*
X141711Y28791D02*
X147617D01*
X141711Y15799D02*
Y28791D01*
X147617Y15799D02*
Y28791D01*
X144647Y14096D02*
X150553D01*
X144647Y1104D02*
X150553D01*
Y14096D01*
X144647Y1104D02*
Y14096D01*
X154100Y20317D02*
Y22483D01*
X153017Y21400D02*
X155183D01*
X150360Y19432D02*
X157840D01*
X150360Y23369D02*
X157840D01*
Y19432D02*
Y23369D01*
X150360Y19432D02*
Y23369D01*
X154100Y16417D02*
Y18583D01*
X153017Y17500D02*
X155183D01*
X150360Y19468D02*
X157840D01*
X150360Y15531D02*
X157840D01*
X150360D02*
Y19468D01*
X157840Y15531D02*
Y19468D01*
X148238Y24028D02*
Y38595D01*
X157293Y24028D02*
Y38595D01*
X148238Y24028D02*
X157293D01*
X148238Y38595D02*
X157293D01*
X196345Y52282D02*
Y54447D01*
X195262Y53365D02*
X197428D01*
X192605Y55333D02*
X200085D01*
X192605Y51396D02*
X200085D01*
X192605D02*
Y55333D01*
X200085Y51396D02*
Y55333D01*
X210236Y56398D02*
Y58563D01*
X209154Y57480D02*
X211319D01*
X206496Y59449D02*
X213976D01*
X206496Y55512D02*
X213976D01*
X206496D02*
Y59449D01*
X213976Y55512D02*
Y59449D01*
X203913Y48574D02*
Y50739D01*
X202831Y49656D02*
X204996D01*
X200173Y47688D02*
X207653D01*
X200173Y51625D02*
X207653D01*
Y47688D02*
Y51625D01*
X200173Y47688D02*
Y51625D01*
X36614Y90520D02*
Y94520D01*
X30315Y90520D02*
Y94520D01*
Y90520D02*
X36614D01*
X30315Y94520D02*
X36614D01*
X32382Y92520D02*
X34547D01*
X33465Y91437D02*
Y93602D01*
X20866Y110374D02*
Y111673D01*
X19567Y108661D02*
Y113386D01*
Y108661D02*
X22165D01*
X19567Y113386D02*
X22165D01*
Y108661D02*
Y113386D01*
X20216Y111024D02*
X21516D01*
X4823Y101772D02*
X18799D01*
X4823Y114764D02*
X18799D01*
Y101772D02*
Y114764D01*
X4823Y101772D02*
Y114764D01*
X41535Y78150D02*
Y84055D01*
X28543Y78150D02*
Y84055D01*
Y78150D02*
X41535D01*
X28543Y84055D02*
X41535D01*
X134800Y79117D02*
Y81283D01*
X133717Y80200D02*
X135883D01*
X131060Y82169D02*
X138540D01*
X131060Y78232D02*
X138540D01*
X131060D02*
Y82169D01*
X138540Y78232D02*
Y82169D01*
D21*
X68000Y110100D02*
X73000D01*
X70500Y107600D02*
Y112600D01*
X134700Y7081D02*
X139700D01*
X137200Y4581D02*
Y9581D01*
X5715Y8100D02*
X10715D01*
X8215Y5600D02*
Y10600D01*
X355100Y110900D02*
X360100D01*
X357600Y108400D02*
Y113400D01*
X30709Y40945D02*
Y44882D01*
X28740Y42913D02*
X32677D01*
X37087Y68186D02*
X41024D01*
X39056Y66217D02*
Y70154D01*
X215594Y50485D02*
X220594D01*
X218094Y47985D02*
Y52985D01*
X223094Y45485D02*
Y55485D01*
X213094D02*
X223094D01*
X213094Y45485D02*
Y55485D01*
Y45485D02*
X223094D01*
X184113Y10356D02*
X199613D01*
X192113Y2355D02*
Y17855D01*
X182613Y19855D02*
X192113D01*
X182613Y855D02*
Y19855D01*
Y855D02*
X201613D01*
Y19855D01*
X182613D02*
X201613D01*
X145256Y53850D02*
X160256D01*
Y39850D02*
Y53850D01*
X145256Y39850D02*
X160256D01*
X145256D02*
Y53850D01*
X152756Y44350D02*
Y49350D01*
X150256Y46850D02*
X155256D01*
D181*
X331494Y14567D02*
X341730D01*
X331494D02*
Y24803D01*
X341730D01*
Y14567D02*
Y24803D01*
M02*
