G04*
G04 #@! TF.GenerationSoftware,Altium Limited,Altium NEXUS,3.1.14 (81)*
G04*
G04 Layer_Physical_Order=6*
G04 Layer_Color=16711680*
%FSLAX25Y25*%
%MOIN*%
G70*
G04*
G04 #@! TF.SameCoordinates,8D934BE8-6637-419B-8715-06A4025A7093*
G04*
G04*
G04 #@! TF.FilePolarity,Positive*
G04*
G01*
G75*
%ADD15C,0.01000*%
%ADD17C,0.00800*%
%ADD21C,0.00500*%
%ADD27R,0.02165X0.02559*%
%ADD29R,0.02559X0.02165*%
%ADD31R,0.08661X0.04134*%
%ADD32R,0.04134X0.03937*%
%ADD38R,0.02362X0.03150*%
%ADD44R,0.01968X0.01968*%
%ADD127C,0.04000*%
%ADD138C,0.03098*%
%ADD140C,0.01800*%
%ADD141C,0.01200*%
%ADD144C,0.09843*%
%ADD156C,0.03200*%
%ADD157C,0.05118*%
%ADD158C,0.01800*%
%ADD159C,0.02200*%
%ADD160C,0.09000*%
%ADD161C,0.09843*%
%ADD162C,0.01968*%
%ADD167R,0.04724X0.04724*%
%ADD168R,0.01772X0.02480*%
%ADD169R,0.02480X0.01772*%
%ADD170R,0.07874X0.09843*%
G36*
X75712Y117169D02*
X76279Y116934D01*
X76789Y116594D01*
X77223Y116159D01*
X77564Y115649D01*
X77799Y115082D01*
X77919Y114480D01*
Y106574D01*
X77904Y106500D01*
X77672Y2722D01*
X77564Y2461D01*
X77223Y1951D01*
X76789Y1517D01*
X76279Y1176D01*
X75712Y941D01*
X75110Y821D01*
X63216D01*
X63059Y1115D01*
X62995Y1321D01*
X63130Y2000D01*
X62982Y2741D01*
X62563Y3370D01*
X61934Y3790D01*
X61294Y3917D01*
X56179Y9032D01*
X56015Y9142D01*
X55994Y9757D01*
X56204Y9918D01*
X56678Y10534D01*
X56975Y11252D01*
X57076Y12022D01*
X56975Y12793D01*
X56678Y13511D01*
X56204Y14127D01*
X55588Y14600D01*
X54870Y14897D01*
X54100Y14999D01*
X53330Y14897D01*
X52612Y14600D01*
X51995Y14127D01*
X51522Y13511D01*
X51225Y12793D01*
X51169Y12364D01*
X50632Y12121D01*
X50632Y12121D01*
X49891Y12268D01*
X49149Y12121D01*
X48521Y11701D01*
X48101Y11072D01*
X47954Y10331D01*
X48101Y9590D01*
X48521Y8961D01*
X49149Y8541D01*
X49637Y8444D01*
X51068Y7013D01*
X51531Y6704D01*
X51845Y6641D01*
X51995Y6127D01*
X51522Y5511D01*
X51225Y4793D01*
X51124Y4022D01*
X51225Y3252D01*
X51522Y2534D01*
X51995Y1918D01*
X52612Y1445D01*
X52911Y1321D01*
X52811Y821D01*
X49891D01*
Y2000D01*
X46516D01*
Y13596D01*
X46500D01*
Y13600D01*
X26800D01*
Y2000D01*
X22900D01*
Y821D01*
X3630D01*
X3028Y941D01*
X2461Y1176D01*
X1951Y1517D01*
X1517Y1951D01*
X1176Y2461D01*
X941Y3028D01*
X821Y3630D01*
Y3937D01*
Y70133D01*
X1284Y70226D01*
X1377Y70264D01*
X1475Y70284D01*
X2152Y70564D01*
X2236Y70620D01*
X2329Y70658D01*
X2938Y71065D01*
X3009Y71136D01*
X3093Y71192D01*
X3611Y71710D01*
X3667Y71794D01*
X3738Y71865D01*
X4145Y72474D01*
X4183Y72567D01*
X4239Y72651D01*
X4520Y73328D01*
X4539Y73426D01*
X4578Y73519D01*
X4721Y74238D01*
Y74313D01*
X4739Y74387D01*
X4757Y74753D01*
X4750Y74803D01*
X4757Y74853D01*
X4739Y75220D01*
X4721Y75293D01*
Y75368D01*
X4578Y76087D01*
X4539Y76180D01*
X4520Y76279D01*
X4239Y76956D01*
X4183Y77039D01*
X4145Y77132D01*
X3738Y77741D01*
X3667Y77812D01*
X3611Y77896D01*
X3093Y78414D01*
X3009Y78470D01*
X2938Y78541D01*
X2329Y78948D01*
X2236Y78987D01*
X2152Y79042D01*
X1475Y79323D01*
X1377Y79342D01*
X1284Y79381D01*
X821Y79473D01*
Y114173D01*
Y114480D01*
X941Y115082D01*
X1176Y115649D01*
X1517Y116159D01*
X1951Y116594D01*
X2461Y116934D01*
X3028Y117169D01*
X3630Y117289D01*
X34697D01*
X34931Y116416D01*
X34990Y116296D01*
X35033Y116170D01*
X35521Y115324D01*
X35609Y115224D01*
X35683Y115113D01*
X36373Y114423D01*
X36484Y114349D01*
X36584Y114261D01*
X37430Y113773D01*
X37556Y113730D01*
X37675Y113671D01*
X38618Y113419D01*
X38751Y113410D01*
X38882Y113384D01*
X39858D01*
X39989Y113410D01*
X40122Y113419D01*
X41065Y113671D01*
X41184Y113730D01*
X41311Y113773D01*
X42156Y114261D01*
X42256Y114349D01*
X42367Y114423D01*
X43057Y115113D01*
X43131Y115224D01*
X43219Y115324D01*
X43707Y116170D01*
X43750Y116296D01*
X43809Y116416D01*
X44043Y117289D01*
X75110D01*
X75712Y117169D01*
D02*
G37*
G36*
X363114D02*
X363681Y116934D01*
X364191Y116594D01*
X364625Y116159D01*
X364966Y115649D01*
X365050Y115446D01*
X365054Y113410D01*
X365143Y70598D01*
X365234Y26570D01*
X364881Y26216D01*
X360236D01*
X358961Y26091D01*
X357736Y25719D01*
X356607Y25116D01*
X355617Y24303D01*
X354805Y23314D01*
X354201Y22185D01*
X353830Y20959D01*
X353704Y19685D01*
X353830Y18411D01*
X354201Y17186D01*
X354805Y16056D01*
X355617Y15067D01*
X356607Y14254D01*
X357736Y13651D01*
X358961Y13279D01*
X360236Y13154D01*
X365262D01*
X365266Y10983D01*
X365286Y10885D01*
X365285Y10874D01*
X365298Y10828D01*
X365320Y10714D01*
Y3630D01*
X365201Y3028D01*
X364966Y2461D01*
X364625Y1951D01*
X364191Y1517D01*
X363681Y1176D01*
X363114Y941D01*
X362512Y821D01*
X339319D01*
X339085Y1695D01*
X339026Y1814D01*
X338983Y1940D01*
X338495Y2786D01*
X338407Y2886D01*
X338333Y2997D01*
X337643Y3687D01*
X337532Y3761D01*
X337431Y3849D01*
X336586Y4337D01*
X336460Y4380D01*
X336340Y4439D01*
X335398Y4691D01*
X335264Y4700D01*
X335134Y4726D01*
X334158D01*
X334027Y4700D01*
X333894Y4691D01*
X332951Y4439D01*
X332831Y4380D01*
X332705Y4337D01*
X331860Y3849D01*
X331760Y3761D01*
X331649Y3687D01*
X330959Y2997D01*
X330885Y2886D01*
X330797Y2786D01*
X330309Y1940D01*
X330266Y1814D01*
X330207Y1695D01*
X329973Y821D01*
X273763D01*
X273522Y1321D01*
X273812Y1756D01*
X282496D01*
Y2506D01*
X282661Y2937D01*
X286630D01*
Y6480D01*
Y10449D01*
X285883D01*
Y43328D01*
X285883Y43328D01*
X285759Y43953D01*
X285405Y44482D01*
X283127Y46760D01*
Y52022D01*
X283286Y52259D01*
X283433Y53000D01*
X283286Y53741D01*
X282866Y54370D01*
X282237Y54790D01*
X281496Y54937D01*
X280755Y54790D01*
X280126Y54370D01*
X279706Y53741D01*
X279559Y53000D01*
X279706Y52259D01*
X279865Y52022D01*
Y47716D01*
X279215D01*
X278591Y47591D01*
X278061Y47238D01*
X276859Y46035D01*
X276505Y45506D01*
X276381Y44882D01*
Y41036D01*
X276028D01*
Y38673D01*
X267731D01*
Y33524D01*
X275823D01*
X276090Y33024D01*
X276035Y32941D01*
X275887Y32200D01*
X276035Y31459D01*
X276343Y30997D01*
X276417Y30650D01*
X276343Y30303D01*
X276035Y29841D01*
X275887Y29100D01*
X276035Y28359D01*
X276193Y28122D01*
Y22862D01*
X276236Y22646D01*
X276187Y22400D01*
X276335Y21659D01*
X276755Y21030D01*
X277383Y20610D01*
X278124Y20463D01*
X278866Y20610D01*
X279494Y21030D01*
X279914Y21659D01*
X280062Y22400D01*
X279914Y23141D01*
X279494Y23770D01*
X279456Y23796D01*
Y28122D01*
X279614Y28359D01*
X279762Y29100D01*
X279614Y29841D01*
X279306Y30303D01*
X279232Y30650D01*
X279306Y30997D01*
X279614Y31459D01*
X279762Y32200D01*
X279614Y32941D01*
X279559Y33024D01*
X279780Y33524D01*
X279997D01*
Y37067D01*
Y41036D01*
X279644D01*
Y44206D01*
X279891Y44453D01*
X280820D01*
X282621Y42653D01*
Y9552D01*
X282630Y9504D01*
Y8849D01*
X282661Y8691D01*
Y7337D01*
X282496Y6905D01*
X273803D01*
Y6678D01*
X270114D01*
X269490Y6554D01*
X268960Y6200D01*
X268124Y5364D01*
X267770Y4834D01*
X267646Y4210D01*
Y3708D01*
X267335Y3241D01*
X267187Y2500D01*
X267335Y1759D01*
X267627Y1321D01*
X267386Y821D01*
X265363D01*
X265122Y1321D01*
X265414Y1759D01*
X265562Y2500D01*
X265414Y3241D01*
X264994Y3870D01*
X264366Y4290D01*
X263625Y4437D01*
X262883Y4290D01*
X262777Y4219D01*
X261595D01*
Y5559D01*
X253198D01*
Y8002D01*
X249230D01*
Y7649D01*
X236666D01*
X236536Y7867D01*
X236456Y8149D01*
X236829Y8708D01*
X236885Y8987D01*
X239194Y11297D01*
X239548Y11826D01*
X239672Y12450D01*
X239672Y12450D01*
Y36024D01*
X239831Y36261D01*
X239978Y37002D01*
X239831Y37744D01*
X239672Y37981D01*
Y42690D01*
X243431Y46449D01*
X247448D01*
X247917Y46374D01*
Y41815D01*
X251431D01*
X251748Y41429D01*
X251723Y41300D01*
X251840Y40708D01*
X251577Y40351D01*
X251462Y40270D01*
X251060Y40322D01*
X250381Y40233D01*
X249749Y39971D01*
X249205Y39554D01*
X248789Y39011D01*
X248730Y38870D01*
X248189D01*
X248131Y39011D01*
X247714Y39554D01*
X247171Y39971D01*
X246539Y40233D01*
X245860Y40322D01*
X245181Y40233D01*
X244549Y39971D01*
X244005Y39554D01*
X243589Y39011D01*
X243327Y38379D01*
X243237Y37700D01*
X243327Y37021D01*
X243589Y36389D01*
X244005Y35846D01*
X244549Y35429D01*
X245181Y35167D01*
X245860Y35078D01*
X246539Y35167D01*
X247171Y35429D01*
X247714Y35846D01*
X248131Y36389D01*
X248189Y36529D01*
X248730D01*
X248789Y36389D01*
X249205Y35846D01*
X249749Y35429D01*
X250381Y35167D01*
X251060Y35078D01*
X251739Y35167D01*
X252371Y35429D01*
X252914Y35846D01*
X253331Y36389D01*
X253593Y37021D01*
X253682Y37700D01*
X253593Y38379D01*
X253373Y38910D01*
X253626Y39369D01*
X253660Y39363D01*
X254401Y39510D01*
X255030Y39930D01*
X255450Y40559D01*
X255597Y41300D01*
X255525Y41660D01*
X255926Y42160D01*
X255939D01*
Y46097D01*
Y50263D01*
X251380D01*
Y49712D01*
X242755D01*
X242131Y49588D01*
X241602Y49234D01*
X236887Y44519D01*
X236534Y43990D01*
X236410Y43366D01*
Y37981D01*
X236251Y37744D01*
X236104Y37002D01*
X236251Y36261D01*
X236410Y36024D01*
Y13126D01*
X234578Y11294D01*
X234415Y11262D01*
X233915Y11538D01*
Y13386D01*
X233791Y14010D01*
X233437Y14539D01*
X230979Y16997D01*
X230924Y17277D01*
X230504Y17905D01*
X229875Y18325D01*
X229134Y18473D01*
X228393Y18325D01*
X227764Y17905D01*
X227344Y17277D01*
X227197Y16535D01*
X227344Y15794D01*
X227764Y15166D01*
X228393Y14746D01*
X228672Y14690D01*
X230652Y12710D01*
Y12028D01*
X230266Y11711D01*
X229921Y11780D01*
X229180Y11632D01*
X228551Y11212D01*
X228132Y10584D01*
X227984Y9843D01*
X228132Y9101D01*
X228551Y8473D01*
X229180Y8053D01*
X229921Y7905D01*
X230663Y8053D01*
X230891Y8007D01*
X231130Y7650D01*
X233916Y4865D01*
X234445Y4511D01*
X235069Y4387D01*
X240310D01*
Y3372D01*
X240152Y3135D01*
X240005Y2394D01*
X240152Y1652D01*
X240373Y1321D01*
X240106Y821D01*
X164984D01*
X164833Y1321D01*
X164996Y1430D01*
X165416Y2059D01*
X165563Y2800D01*
X165416Y3541D01*
X164996Y4170D01*
X164367Y4590D01*
X163626Y4737D01*
X162885Y4590D01*
X162256Y4170D01*
X161836Y3541D01*
X161689Y2800D01*
X161836Y2059D01*
X162256Y1430D01*
X162419Y1321D01*
X162268Y821D01*
X138034D01*
X138010Y1321D01*
X138676Y1387D01*
X139807Y1730D01*
X140849Y2287D01*
X141763Y3037D01*
X142513Y3951D01*
X143070Y4993D01*
X143413Y6124D01*
X143529Y7300D01*
X143413Y8476D01*
X143070Y9607D01*
X142513Y10650D01*
X141804Y11513D01*
X141783Y11600D01*
X141782Y11655D01*
X141876Y12117D01*
X142315Y12410D01*
X142735Y13038D01*
X142882Y13780D01*
X142735Y14521D01*
X142315Y15149D01*
X141686Y15569D01*
X140945Y15717D01*
X140203Y15569D01*
X139575Y15149D01*
X139155Y14521D01*
X139008Y13780D01*
X139054Y13547D01*
X138981Y13481D01*
X138609Y13220D01*
X137500Y13329D01*
X136324Y13213D01*
X135193Y12870D01*
X134151Y12313D01*
X133237Y11563D01*
X132487Y10650D01*
X131930Y9607D01*
X131587Y8476D01*
X131471Y7300D01*
X131587Y6124D01*
X131930Y4993D01*
X132487Y3951D01*
X133237Y3037D01*
X134151Y2287D01*
X135193Y1730D01*
X136324Y1387D01*
X136990Y1321D01*
X136966Y821D01*
X133551D01*
X132949Y941D01*
X132382Y1176D01*
X131872Y1517D01*
X131438Y1951D01*
X131097Y2461D01*
X130862Y3028D01*
X130743Y3630D01*
Y10487D01*
X130755Y10549D01*
X130766Y10602D01*
X130778Y10647D01*
X130777Y10657D01*
X130797Y10756D01*
X130797Y10756D01*
X130797Y10756D01*
X130805Y14690D01*
X130929Y74952D01*
X131197Y75087D01*
X131430Y75145D01*
X132008Y74759D01*
X132749Y74612D01*
X133490Y74759D01*
X134119Y75179D01*
X134539Y75807D01*
X134686Y76549D01*
X134539Y77290D01*
X134119Y77919D01*
X133490Y78339D01*
X132749Y78486D01*
X132008Y78339D01*
X131436Y77956D01*
X131187Y78021D01*
X130936Y78156D01*
X130982Y100547D01*
X131483Y100949D01*
X131486Y100949D01*
X146063D01*
X146453Y101026D01*
X146580Y101111D01*
X147080Y100859D01*
X147079Y70598D01*
X147156Y70208D01*
X147377Y69877D01*
X147377Y69877D01*
X147708Y69656D01*
X148098Y69579D01*
X329973D01*
X330207Y68706D01*
X330266Y68586D01*
X330309Y68460D01*
X330797Y67615D01*
X330885Y67515D01*
X330959Y67404D01*
X331649Y66714D01*
X331760Y66640D01*
X331861Y66552D01*
X332706Y66064D01*
X332832Y66022D01*
X332951Y65962D01*
X333894Y65710D01*
X334027Y65701D01*
X334158Y65675D01*
X335134D01*
X335264Y65701D01*
X335397Y65710D01*
X336340Y65962D01*
X336459Y66022D01*
X336586Y66064D01*
X337431Y66552D01*
X337531Y66640D01*
X337642Y66714D01*
X338332Y67404D01*
X338406Y67515D01*
X338494Y67615D01*
X338982Y68460D01*
X339025Y68586D01*
X339084Y68706D01*
X339320Y69584D01*
X348801Y69579D01*
X348801Y69579D01*
X348802Y69579D01*
X349001Y69618D01*
X349191Y69656D01*
X349191Y69656D01*
X349192Y69656D01*
X349358Y69767D01*
X349522Y69877D01*
X349522Y69877D01*
X349523Y69877D01*
X349637Y70048D01*
X349743Y70208D01*
X349743Y70208D01*
X349744Y70208D01*
X349784Y70409D01*
X349821Y70598D01*
X349821Y70598D01*
X349821Y70598D01*
Y114173D01*
Y114480D01*
X349941Y115082D01*
X350176Y115649D01*
X350517Y116159D01*
X350951Y116594D01*
X351461Y116934D01*
X352028Y117169D01*
X352630Y117289D01*
X356210D01*
X356284Y116789D01*
X355233Y116470D01*
X354191Y115913D01*
X353277Y115163D01*
X352527Y114250D01*
X351970Y113207D01*
X351627Y112076D01*
X351511Y110900D01*
X351627Y109724D01*
X351970Y108593D01*
X352527Y107551D01*
X353277Y106637D01*
X354191Y105887D01*
X355233Y105330D01*
X356364Y104987D01*
X357540Y104871D01*
X358716Y104987D01*
X359847Y105330D01*
X360890Y105887D01*
X361803Y106637D01*
X362553Y107551D01*
X363110Y108593D01*
X363453Y109724D01*
X363569Y110900D01*
X363453Y112076D01*
X363110Y113207D01*
X362553Y114250D01*
X361803Y115163D01*
X360890Y115913D01*
X359847Y116470D01*
X358796Y116789D01*
X358870Y117289D01*
X362512D01*
X363114Y117169D01*
D02*
G37*
G36*
X144873D02*
X145440Y116934D01*
X145951Y116594D01*
X146385Y116159D01*
X146726Y115649D01*
X146961Y115082D01*
X147080Y114480D01*
Y114173D01*
X147080Y102986D01*
X146063Y101969D01*
X131486D01*
X130986Y102468D01*
X131013Y115446D01*
X131097Y115649D01*
X131438Y116159D01*
X131872Y116594D01*
X132382Y116934D01*
X132949Y117169D01*
X133551Y117289D01*
X144271D01*
X144873Y117169D01*
D02*
G37*
%LPC*%
G36*
X23228Y114142D02*
X22487Y113995D01*
X21858Y113575D01*
X21439Y112946D01*
X21291Y112205D01*
X21439Y111463D01*
X21858Y110835D01*
X22487Y110415D01*
X23228Y110267D01*
X23970Y110415D01*
X24598Y110835D01*
X25018Y111463D01*
X25166Y112205D01*
X25018Y112946D01*
X24598Y113575D01*
X23970Y113995D01*
X23228Y114142D01*
D02*
G37*
G36*
X70500Y116129D02*
X69324Y116013D01*
X68193Y115670D01*
X67150Y115113D01*
X66237Y114363D01*
X65487Y113450D01*
X64930Y112407D01*
X64587Y111276D01*
X64471Y110100D01*
X64587Y108924D01*
X64930Y107793D01*
X65487Y106751D01*
X66237Y105837D01*
X67150Y105087D01*
X68193Y104530D01*
X69324Y104187D01*
X70500Y104071D01*
X71676Y104187D01*
X72807Y104530D01*
X73849Y105087D01*
X74763Y105837D01*
X75513Y106751D01*
X76070Y107793D01*
X76413Y108924D01*
X76529Y110100D01*
X76413Y111276D01*
X76070Y112407D01*
X75513Y113450D01*
X74763Y114363D01*
X73849Y115113D01*
X72807Y115670D01*
X71676Y116013D01*
X70500Y116129D01*
D02*
G37*
G36*
X16330Y103002D02*
X16330Y103002D01*
X9449D01*
X9449Y103002D01*
X8903Y102894D01*
X8439Y102584D01*
X8439Y102584D01*
X5621Y99766D01*
X5312Y99303D01*
X5203Y98757D01*
X5203Y98756D01*
Y91053D01*
X5203Y91053D01*
X5312Y90507D01*
X5621Y90043D01*
X7303Y88362D01*
X7303Y88361D01*
X7766Y88052D01*
X8313Y87943D01*
Y87485D01*
X12793D01*
Y89847D01*
Y93619D01*
X8313D01*
X8058Y94013D01*
Y98165D01*
X10040Y100147D01*
X15739D01*
X16684Y99202D01*
Y97989D01*
X16226D01*
Y93509D01*
X18706D01*
Y89847D01*
Y87485D01*
X23095D01*
X23280Y87300D01*
X23407Y86660D01*
X23827Y86032D01*
X24455Y85612D01*
X25095Y85485D01*
X26801Y83779D01*
X26609Y83317D01*
X17635D01*
Y87595D01*
X13864D01*
Y83115D01*
X13864D01*
X13991Y82878D01*
X13955Y82615D01*
X13811Y81890D01*
X13958Y81148D01*
X14378Y80520D01*
X15007Y80100D01*
X15748Y79953D01*
X16489Y80100D01*
X17032Y80462D01*
X27362D01*
X43872Y63951D01*
X43872Y63951D01*
X44336Y63642D01*
X44882Y63533D01*
X44882Y63533D01*
X69291D01*
X69291Y63533D01*
X69838Y63642D01*
X70301Y63951D01*
X72149Y65799D01*
X72789Y65927D01*
X73417Y66347D01*
X73837Y66975D01*
X73984Y67716D01*
X73837Y68458D01*
X73417Y69086D01*
X72789Y69506D01*
X72047Y69654D01*
X71306Y69506D01*
X70677Y69086D01*
X70258Y68458D01*
X70130Y67818D01*
X68700Y66388D01*
X63345D01*
X63109Y66829D01*
X63207Y66975D01*
X63354Y67716D01*
X63207Y68458D01*
X62787Y69086D01*
X62159Y69506D01*
X61417Y69654D01*
X60676Y69506D01*
X60134Y69144D01*
X59282D01*
X58885Y69644D01*
X58957Y70010D01*
X58810Y70751D01*
X58390Y71380D01*
X57762Y71800D01*
X57020Y71947D01*
X56279Y71800D01*
X55650Y71380D01*
X55230Y70751D01*
X55083Y70010D01*
X55156Y69644D01*
X54758Y69144D01*
X45473D01*
X27114Y87503D01*
X26987Y88143D01*
X26567Y88771D01*
X26148Y89051D01*
X26300Y89551D01*
X28165D01*
Y89551D01*
X28528D01*
Y89551D01*
X30189D01*
X39004Y80736D01*
X39533Y80383D01*
X40157Y80258D01*
X47747D01*
X47984Y80100D01*
X48726Y79953D01*
X49467Y80100D01*
X50095Y80520D01*
X50515Y81148D01*
X50663Y81890D01*
X50515Y82631D01*
X50095Y83260D01*
X49467Y83679D01*
X48726Y83827D01*
X47984Y83679D01*
X47747Y83521D01*
X40833D01*
X32890Y91465D01*
Y94701D01*
X28528D01*
Y94701D01*
X28165D01*
Y94701D01*
X23803D01*
Y93364D01*
X23187D01*
Y93619D01*
X22578D01*
Y94800D01*
X22454Y95424D01*
X22100Y95953D01*
X21151Y96902D01*
X20622Y97256D01*
X19998Y97380D01*
Y97989D01*
X19539D01*
Y99793D01*
X19539Y99793D01*
X19431Y100340D01*
X19121Y100803D01*
X17340Y102584D01*
X16877Y102894D01*
X16330Y103002D01*
D02*
G37*
G36*
X27953Y106662D02*
X27211Y106514D01*
X26583Y106094D01*
X26163Y105466D01*
X26015Y104724D01*
X26163Y103983D01*
X26583Y103355D01*
X27211Y102935D01*
X27953Y102787D01*
X28694Y102935D01*
X29323Y103355D01*
X29743Y103983D01*
X29890Y104724D01*
X29743Y105466D01*
X29323Y106094D01*
X28694Y106514D01*
X27953Y106662D01*
D02*
G37*
G36*
X56181Y98078D02*
X55252Y97956D01*
X54386Y97597D01*
X53643Y97026D01*
X53072Y96283D01*
X52714Y95417D01*
X52591Y94488D01*
X52714Y93559D01*
X53072Y92693D01*
X53643Y91950D01*
X54386Y91379D01*
X55252Y91021D01*
X56181Y90898D01*
X57110Y91021D01*
X57976Y91379D01*
X58719Y91950D01*
X59290Y92693D01*
X59649Y93559D01*
X59771Y94488D01*
X59649Y95417D01*
X59290Y96283D01*
X58719Y97026D01*
X57976Y97597D01*
X57110Y97956D01*
X56181Y98078D01*
D02*
G37*
G36*
X46181D02*
X45252Y97956D01*
X44386Y97597D01*
X43643Y97026D01*
X43072Y96283D01*
X42714Y95417D01*
X42591Y94488D01*
X42714Y93559D01*
X43072Y92693D01*
X43643Y91950D01*
X44386Y91379D01*
X45252Y91021D01*
X46181Y90898D01*
X47110Y91021D01*
X47976Y91379D01*
X48719Y91950D01*
X49290Y92693D01*
X49648Y93559D01*
X49771Y94488D01*
X49648Y95417D01*
X49290Y96283D01*
X48719Y97026D01*
X47976Y97597D01*
X47110Y97956D01*
X46181Y98078D01*
D02*
G37*
G36*
X37995Y94457D02*
X37253Y94310D01*
X36625Y93889D01*
X36205Y93261D01*
X36057Y92520D01*
X36205Y91778D01*
X36625Y91150D01*
X37253Y90730D01*
X37995Y90583D01*
X38736Y90730D01*
X39364Y91150D01*
X39784Y91778D01*
X39932Y92520D01*
X39784Y93261D01*
X39364Y93889D01*
X38736Y94310D01*
X37995Y94457D01*
D02*
G37*
G36*
X55905Y79890D02*
X55164Y79742D01*
X54536Y79323D01*
X54116Y78694D01*
X53968Y77953D01*
X54116Y77211D01*
X54536Y76583D01*
X55164Y76163D01*
X55905Y76016D01*
X56647Y76163D01*
X57275Y76583D01*
X57695Y77211D01*
X57843Y77953D01*
X57695Y78694D01*
X57275Y79323D01*
X56647Y79742D01*
X55905Y79890D01*
D02*
G37*
G36*
X25403Y74751D02*
X24662Y74603D01*
X24033Y74183D01*
X23613Y73555D01*
X23466Y72813D01*
X23613Y72072D01*
X24033Y71444D01*
X24662Y71024D01*
X25403Y70876D01*
X26144Y71024D01*
X26773Y71444D01*
X27193Y72072D01*
X27340Y72813D01*
X27193Y73555D01*
X26773Y74183D01*
X26144Y74603D01*
X25403Y74751D01*
D02*
G37*
G36*
X31309Y57358D02*
X30567Y57211D01*
X29939Y56791D01*
X29519Y56162D01*
X29371Y55421D01*
X29519Y54680D01*
X29939Y54051D01*
X30034Y53987D01*
Y49954D01*
X30131Y49466D01*
X30408Y49053D01*
X31703Y47757D01*
Y39463D01*
X31800Y38976D01*
X32076Y38562D01*
X32337Y38301D01*
X32315Y38189D01*
X32462Y37448D01*
X32882Y36819D01*
X33511Y36399D01*
X34252Y36252D01*
X34993Y36399D01*
X35622Y36819D01*
X36042Y37448D01*
X36189Y38189D01*
X36042Y38930D01*
X35622Y39559D01*
X34993Y39979D01*
X34252Y40126D01*
Y48285D01*
X34155Y48773D01*
X33879Y49186D01*
X32583Y50482D01*
Y51129D01*
X33083Y51281D01*
X33276Y50992D01*
X33904Y50572D01*
X34646Y50425D01*
X35387Y50572D01*
X36015Y50992D01*
X36435Y51621D01*
X36583Y52362D01*
X36435Y53104D01*
X36015Y53732D01*
X35387Y54152D01*
X34646Y54299D01*
X33904Y54152D01*
X33276Y53732D01*
X33230Y53663D01*
X32711Y53787D01*
X32678Y54051D01*
X33098Y54680D01*
X33246Y55421D01*
X33098Y56162D01*
X32678Y56791D01*
X32050Y57211D01*
X31309Y57358D01*
D02*
G37*
G36*
X74803Y54299D02*
X74062Y54152D01*
X73433Y53732D01*
X73013Y53104D01*
X72866Y52362D01*
X73013Y51621D01*
X73433Y50992D01*
X74062Y50572D01*
X74803Y50425D01*
X75545Y50572D01*
X76173Y50992D01*
X76593Y51621D01*
X76740Y52362D01*
X76593Y53104D01*
X76173Y53732D01*
X75545Y54152D01*
X74803Y54299D01*
D02*
G37*
G36*
X5512Y53906D02*
X4770Y53758D01*
X4142Y53338D01*
X3722Y52710D01*
X3575Y51968D01*
X3722Y51227D01*
X4142Y50599D01*
X4770Y50179D01*
X5512Y50031D01*
X6253Y50179D01*
X6882Y50599D01*
X7302Y51227D01*
X7449Y51968D01*
X7302Y52710D01*
X6882Y53338D01*
X6253Y53758D01*
X5512Y53906D01*
D02*
G37*
G36*
X70866Y50756D02*
X70125Y50609D01*
X69496Y50189D01*
X69076Y49560D01*
X68929Y48819D01*
X69076Y48078D01*
X69496Y47449D01*
X70125Y47029D01*
X70866Y46882D01*
X71608Y47029D01*
X72236Y47449D01*
X72656Y48078D01*
X72803Y48819D01*
X72656Y49560D01*
X72236Y50189D01*
X71608Y50609D01*
X70866Y50756D01*
D02*
G37*
G36*
X46063Y48394D02*
X45322Y48246D01*
X44693Y47826D01*
X44273Y47198D01*
X44126Y46457D01*
X44273Y45715D01*
X44693Y45087D01*
X45322Y44667D01*
X46063Y44519D01*
X46804Y44667D01*
X47433Y45087D01*
X47853Y45715D01*
X48000Y46457D01*
X47853Y47198D01*
X47433Y47826D01*
X46804Y48246D01*
X46063Y48394D01*
D02*
G37*
G36*
X61417Y40520D02*
X60676Y40372D01*
X60048Y39952D01*
X59628Y39324D01*
X59480Y38583D01*
X59628Y37841D01*
X60048Y37213D01*
X60676Y36793D01*
X61417Y36645D01*
X62159Y36793D01*
X62787Y37213D01*
X63207Y37841D01*
X63354Y38583D01*
X63207Y39324D01*
X62787Y39952D01*
X62159Y40372D01*
X61417Y40520D01*
D02*
G37*
G36*
X50000Y38945D02*
X49259Y38798D01*
X48630Y38378D01*
X48210Y37749D01*
X48063Y37008D01*
X48210Y36266D01*
X48630Y35638D01*
X49259Y35218D01*
X50000Y35071D01*
X50741Y35218D01*
X51370Y35638D01*
X51790Y36266D01*
X51937Y37008D01*
X51790Y37749D01*
X51370Y38378D01*
X50741Y38798D01*
X50000Y38945D01*
D02*
G37*
G36*
X9055Y33827D02*
X8314Y33680D01*
X7685Y33260D01*
X7265Y32631D01*
X7118Y31890D01*
X7265Y31148D01*
X7685Y30520D01*
X8314Y30100D01*
X9055Y29952D01*
X9797Y30100D01*
X10425Y30520D01*
X10845Y31148D01*
X10992Y31890D01*
X10845Y32631D01*
X10425Y33260D01*
X9797Y33680D01*
X9055Y33827D01*
D02*
G37*
G36*
X19672Y66207D02*
X18930Y66060D01*
X18302Y65640D01*
X17882Y65011D01*
X17734Y64270D01*
X17882Y63529D01*
X18162Y63110D01*
X18261Y62751D01*
X18162Y62392D01*
X17882Y61973D01*
X17734Y61232D01*
X17882Y60491D01*
X18244Y59948D01*
Y45864D01*
X18244Y45864D01*
X18353Y45318D01*
X18662Y44854D01*
X21835Y41682D01*
Y38698D01*
X21835Y38698D01*
X21943Y38151D01*
X22253Y37688D01*
X31029Y28912D01*
X31029Y28912D01*
X31492Y28602D01*
X32039Y28494D01*
X32039Y28494D01*
X64464D01*
X65007Y28131D01*
X65748Y27984D01*
X66489Y28131D01*
X67118Y28551D01*
X67538Y29180D01*
X67685Y29921D01*
X67538Y30663D01*
X67118Y31291D01*
X66489Y31711D01*
X65748Y31859D01*
X65007Y31711D01*
X64464Y31349D01*
X54099D01*
X53908Y31811D01*
X56007Y33910D01*
X56647Y34037D01*
X57275Y34457D01*
X57695Y35085D01*
X57843Y35827D01*
X57695Y36568D01*
X57275Y37197D01*
X56647Y37617D01*
X55905Y37764D01*
X55164Y37617D01*
X54536Y37197D01*
X54116Y36568D01*
X53988Y35928D01*
X51771Y33711D01*
X33268D01*
X26831Y40149D01*
Y42800D01*
X26722Y43346D01*
X26412Y43809D01*
X26412Y43809D01*
X23475Y46747D01*
Y61894D01*
X23475Y61895D01*
X23366Y62441D01*
X23057Y62904D01*
X23057Y62904D01*
X21589Y64372D01*
X21461Y65011D01*
X21042Y65640D01*
X20413Y66060D01*
X19672Y66207D01*
D02*
G37*
G36*
X20824Y27370D02*
X20083Y27222D01*
X19454Y26802D01*
X19154Y26353D01*
X18588Y26299D01*
X18554Y26350D01*
X17926Y26770D01*
X17184Y26918D01*
X16443Y26770D01*
X15814Y26350D01*
X15394Y25722D01*
X15247Y24980D01*
X15299Y24717D01*
X15200Y24617D01*
X14861Y24358D01*
X14219Y24231D01*
X13591Y23811D01*
X13171Y23182D01*
X13023Y22441D01*
X13171Y21700D01*
X13288Y21524D01*
X13121Y20874D01*
X12803Y20661D01*
X12383Y20033D01*
X12236Y19291D01*
X12383Y18550D01*
X12803Y17921D01*
X13432Y17502D01*
X14173Y17354D01*
X14915Y17502D01*
X15543Y17921D01*
X15963Y18550D01*
X16004Y18755D01*
X16482Y18901D01*
X17292Y18091D01*
X17292Y18091D01*
X17755Y17781D01*
X18302Y17673D01*
X18302Y17673D01*
X18591D01*
X18743Y17173D01*
X18725Y17161D01*
X18305Y16532D01*
X18157Y15791D01*
X18305Y15049D01*
X18725Y14421D01*
X19353Y14001D01*
X20095Y13853D01*
X20836Y14001D01*
X21464Y14421D01*
X21884Y15049D01*
X22032Y15791D01*
X21926Y16320D01*
X22247Y16820D01*
X29151D01*
Y16820D01*
X29651Y16869D01*
X29732Y16463D01*
X30152Y15834D01*
X30780Y15414D01*
X31522Y15267D01*
X32263Y15414D01*
X32891Y15834D01*
X33311Y16463D01*
X33459Y17204D01*
X33311Y17945D01*
X32891Y18574D01*
X32263Y18994D01*
X31854Y19075D01*
X31702Y19578D01*
X32026Y19936D01*
X32489Y19890D01*
X33117Y19470D01*
X33858Y19323D01*
X34600Y19470D01*
X35228Y19890D01*
X35648Y20518D01*
X35796Y21260D01*
X35648Y22001D01*
X35264Y22576D01*
X35083Y23011D01*
X35392Y23474D01*
X35468Y23855D01*
X35863Y24447D01*
X36011Y25188D01*
X35863Y25929D01*
X35443Y26558D01*
X34815Y26978D01*
X34074Y27125D01*
X33332Y26978D01*
X32704Y26558D01*
X32408Y26115D01*
X32231Y25934D01*
X31784Y25976D01*
X31450Y26199D01*
X30709Y26347D01*
X29967Y26199D01*
X29339Y25779D01*
X28919Y25151D01*
X28771Y24409D01*
X28919Y23668D01*
X29339Y23040D01*
X29955Y22628D01*
X30028Y22574D01*
X30120Y22086D01*
X29590Y21556D01*
X29151Y21380D01*
Y21380D01*
X29151Y21380D01*
X22737D01*
X22470Y21880D01*
X22590Y22059D01*
X22737Y22800D01*
X22590Y23541D01*
X22218Y24098D01*
X22614Y24691D01*
X22761Y25433D01*
X22614Y26174D01*
X22194Y26802D01*
X21565Y27222D01*
X20824Y27370D01*
D02*
G37*
G36*
X41339Y27528D02*
X40597Y27380D01*
X39969Y26960D01*
X39549Y26332D01*
X39401Y25591D01*
X39549Y24849D01*
X39969Y24221D01*
X40597Y23801D01*
X41339Y23653D01*
X42080Y23801D01*
X42708Y24221D01*
X43128Y24849D01*
X43276Y25591D01*
X43128Y26332D01*
X42708Y26960D01*
X42080Y27380D01*
X41339Y27528D01*
D02*
G37*
G36*
X38200Y22937D02*
X37459Y22790D01*
X36830Y22370D01*
X36410Y21741D01*
X36263Y21000D01*
X36410Y20259D01*
X36830Y19630D01*
X37459Y19210D01*
X38200Y19063D01*
X38941Y19210D01*
X39570Y19630D01*
X39990Y20259D01*
X40137Y21000D01*
X39990Y21741D01*
X39570Y22370D01*
X38941Y22790D01*
X38200Y22937D01*
D02*
G37*
G36*
X50787Y19654D02*
X50046Y19506D01*
X49418Y19086D01*
X48998Y18458D01*
X48850Y17717D01*
X48998Y16975D01*
X49418Y16347D01*
X50046Y15927D01*
X50787Y15779D01*
X51529Y15927D01*
X52157Y16347D01*
X52577Y16975D01*
X52725Y17717D01*
X52577Y18458D01*
X52157Y19086D01*
X51529Y19506D01*
X50787Y19654D01*
D02*
G37*
G36*
X37200Y18737D02*
X36459Y18590D01*
X35830Y18170D01*
X35410Y17541D01*
X35263Y16800D01*
X35410Y16059D01*
X35830Y15430D01*
X36459Y15010D01*
X37200Y14863D01*
X37941Y15010D01*
X38570Y15430D01*
X38990Y16059D01*
X39137Y16800D01*
X38990Y17541D01*
X38570Y18170D01*
X37941Y18590D01*
X37200Y18737D01*
D02*
G37*
G36*
X14173Y14536D02*
X13432Y14388D01*
X12803Y13968D01*
X12383Y13340D01*
X12307Y12956D01*
X11758Y12760D01*
X11450Y13013D01*
X10407Y13570D01*
X9276Y13913D01*
X8100Y14029D01*
X6924Y13913D01*
X5793Y13570D01*
X4750Y13013D01*
X3837Y12263D01*
X3087Y11350D01*
X2530Y10307D01*
X2187Y9176D01*
X2071Y8000D01*
X2187Y6824D01*
X2530Y5693D01*
X3087Y4651D01*
X3837Y3737D01*
X4750Y2987D01*
X5793Y2430D01*
X6924Y2087D01*
X8100Y1971D01*
X9276Y2087D01*
X10407Y2430D01*
X11450Y2987D01*
X12363Y3737D01*
X13113Y4651D01*
X13670Y5693D01*
X14013Y6824D01*
X14129Y8000D01*
X14013Y9176D01*
X13688Y10248D01*
X13788Y10432D01*
X14033Y10689D01*
X14173Y10661D01*
X14915Y10809D01*
X15543Y11229D01*
X15963Y11857D01*
X16111Y12598D01*
X15963Y13340D01*
X15543Y13968D01*
X14915Y14388D01*
X14173Y14536D01*
D02*
G37*
G36*
X74100Y10999D02*
X73330Y10897D01*
X72612Y10600D01*
X71996Y10127D01*
X71522Y9511D01*
X71225Y8793D01*
X71124Y8022D01*
X71225Y7252D01*
X71522Y6534D01*
X71996Y5918D01*
X72612Y5445D01*
X73330Y5148D01*
X74100Y5046D01*
X74870Y5148D01*
X75588Y5445D01*
X76205Y5918D01*
X76678Y6534D01*
X76975Y7252D01*
X77076Y8022D01*
X76975Y8793D01*
X76678Y9511D01*
X76205Y10127D01*
X75588Y10600D01*
X74870Y10897D01*
X74100Y10999D01*
D02*
G37*
G36*
X142583Y84221D02*
X141841Y84073D01*
X141213Y83653D01*
X140793Y83025D01*
X140646Y82284D01*
X140793Y81542D01*
X141213Y80914D01*
X141841Y80494D01*
X142583Y80346D01*
X143324Y80494D01*
X143953Y80914D01*
X144372Y81542D01*
X144520Y82284D01*
X144372Y83025D01*
X143953Y83653D01*
X143324Y84073D01*
X142583Y84221D01*
D02*
G37*
G36*
X136614Y73591D02*
X135873Y73443D01*
X135244Y73023D01*
X134824Y72395D01*
X134677Y71653D01*
X134824Y70912D01*
X135244Y70284D01*
X135873Y69864D01*
X136614Y69716D01*
X137355Y69864D01*
X137984Y70284D01*
X138404Y70912D01*
X138551Y71653D01*
X138404Y72395D01*
X137984Y73023D01*
X137355Y73443D01*
X136614Y73591D01*
D02*
G37*
G36*
X263386Y61780D02*
X262645Y61632D01*
X262016Y61212D01*
X261596Y60584D01*
X261449Y59842D01*
X261596Y59101D01*
X262016Y58473D01*
X262645Y58053D01*
X263386Y57905D01*
X264127Y58053D01*
X264756Y58473D01*
X265176Y59101D01*
X265323Y59842D01*
X265176Y60584D01*
X264756Y61212D01*
X264127Y61632D01*
X263386Y61780D01*
D02*
G37*
G36*
X314961Y65361D02*
X314961Y64739D01*
X314607Y64386D01*
X309829D01*
Y63354D01*
X309449D01*
X308707Y63207D01*
X308079Y62787D01*
X307659Y62159D01*
X307512Y61417D01*
X307659Y60676D01*
X308079Y60048D01*
X308707Y59628D01*
X309449Y59480D01*
X309829D01*
Y58449D01*
X314961D01*
X314961Y57480D01*
X323228Y57480D01*
X323228Y65343D01*
X314961Y65361D01*
D02*
G37*
G36*
X243274Y58637D02*
X242533Y58490D01*
X241904Y58070D01*
X241484Y57441D01*
X241337Y56700D01*
X241484Y55959D01*
X241904Y55330D01*
X242533Y54910D01*
X243274Y54763D01*
X244016Y54910D01*
X244644Y55330D01*
X245064Y55959D01*
X245212Y56700D01*
X245064Y57441D01*
X244644Y58070D01*
X244016Y58490D01*
X243274Y58637D01*
D02*
G37*
G36*
X198399Y58424D02*
X197657Y58277D01*
X197029Y57857D01*
X196609Y57228D01*
X196462Y56487D01*
X196609Y55746D01*
X197029Y55117D01*
X197657Y54697D01*
X198399Y54550D01*
X199140Y54697D01*
X199769Y55117D01*
X200189Y55746D01*
X200336Y56487D01*
X200189Y57228D01*
X199769Y57857D01*
X199140Y58277D01*
X198399Y58424D01*
D02*
G37*
G36*
X257480Y57055D02*
X256739Y56908D01*
X256111Y56488D01*
X255691Y55860D01*
X255543Y55118D01*
X255691Y54377D01*
X256111Y53748D01*
X256739Y53328D01*
X257480Y53181D01*
X258222Y53328D01*
X258850Y53748D01*
X259270Y54377D01*
X259418Y55118D01*
X259270Y55860D01*
X258850Y56488D01*
X258222Y56908D01*
X257480Y57055D01*
D02*
G37*
G36*
X240158Y55378D02*
X239479Y55289D01*
X238846Y55027D01*
X238303Y54610D01*
X237886Y54067D01*
X237624Y53435D01*
X237535Y52756D01*
X237624Y52077D01*
X237886Y51445D01*
X238303Y50902D01*
X238846Y50485D01*
X239479Y50223D01*
X240158Y50134D01*
X240836Y50223D01*
X241469Y50485D01*
X241865Y50789D01*
X242331Y50992D01*
X242959Y50572D01*
X243701Y50425D01*
X244442Y50572D01*
X245071Y50992D01*
X245491Y51621D01*
X245638Y52362D01*
X245491Y53104D01*
X245071Y53732D01*
X244442Y54152D01*
X243701Y54299D01*
X242959Y54152D01*
X242706Y53983D01*
X242429Y54067D01*
X242012Y54610D01*
X241469Y55027D01*
X240836Y55289D01*
X240158Y55378D01*
D02*
G37*
G36*
X190945Y53512D02*
X190203Y53365D01*
X189575Y52945D01*
X189155Y52316D01*
X189008Y51575D01*
X189155Y50833D01*
X189575Y50205D01*
X190203Y49785D01*
X190945Y49638D01*
X191686Y49785D01*
X192315Y50205D01*
X192735Y50833D01*
X192882Y51575D01*
X192735Y52316D01*
X192315Y52945D01*
X191686Y53365D01*
X190945Y53512D01*
D02*
G37*
G36*
X318322Y45720D02*
X317581Y45572D01*
X316953Y45152D01*
X316533Y44524D01*
X316385Y43782D01*
X316533Y43041D01*
X316953Y42413D01*
X317581Y41993D01*
X318322Y41845D01*
X319064Y41993D01*
X319692Y42413D01*
X320112Y43041D01*
X320260Y43782D01*
X320112Y44524D01*
X319692Y45152D01*
X319064Y45572D01*
X318322Y45720D01*
D02*
G37*
G36*
X193913Y41502D02*
X193172Y41354D01*
X192848Y41138D01*
X192463Y40970D01*
X192078Y41138D01*
X191755Y41354D01*
X191013Y41502D01*
X190272Y41354D01*
X189644Y40935D01*
X189224Y40306D01*
X189076Y39565D01*
X189224Y38823D01*
X189644Y38195D01*
Y38187D01*
X189224Y37559D01*
X189076Y36817D01*
X189224Y36076D01*
X189329Y35918D01*
X189062Y35418D01*
X181079D01*
X179930Y36566D01*
X179803Y37206D01*
X179383Y37835D01*
X178755Y38254D01*
X178013Y38402D01*
X177272Y38254D01*
X176644Y37835D01*
X176224Y37206D01*
X176096Y36566D01*
X169835Y30305D01*
X169526Y29842D01*
X169418Y29296D01*
X169418Y29296D01*
Y23893D01*
X169055Y23351D01*
X168908Y22609D01*
X169055Y21868D01*
X169475Y21239D01*
X169492Y21228D01*
X169387Y20697D01*
X169337Y20687D01*
X168709Y20267D01*
X168289Y19639D01*
X168141Y18898D01*
X168289Y18156D01*
X168709Y17528D01*
X169337Y17108D01*
X170079Y16960D01*
X170820Y17108D01*
X171449Y17528D01*
X171600Y17755D01*
X172100D01*
X172252Y17528D01*
X172881Y17108D01*
X173622Y16960D01*
X174363Y17108D01*
X174992Y17528D01*
X175412Y18156D01*
X175559Y18898D01*
X175412Y19639D01*
X174992Y20267D01*
X174363Y20687D01*
X173622Y20835D01*
X172881Y20687D01*
X172252Y20267D01*
X172246Y20258D01*
X171669Y20240D01*
X171601Y20326D01*
X171598Y20419D01*
X171695Y20892D01*
X172215Y21239D01*
X172635Y21868D01*
X172782Y22609D01*
X172635Y23351D01*
X172272Y23893D01*
Y28705D01*
X178013Y34446D01*
X179478Y32981D01*
X179941Y32672D01*
X180488Y32563D01*
X180488Y32563D01*
X204828D01*
X205371Y32201D01*
X206112Y32053D01*
X206853Y32201D01*
X207482Y32621D01*
X207902Y33249D01*
X208049Y33991D01*
X207902Y34732D01*
X207482Y35360D01*
X206853Y35780D01*
X206112Y35928D01*
X205371Y35780D01*
X204828Y35418D01*
X195865D01*
X195598Y35918D01*
X195703Y36076D01*
X195851Y36817D01*
X195703Y37559D01*
X195283Y38187D01*
Y38195D01*
X195703Y38823D01*
X195851Y39565D01*
X195703Y40306D01*
X195283Y40935D01*
X194655Y41354D01*
X193913Y41502D01*
D02*
G37*
G36*
X212205Y43670D02*
X211463Y43522D01*
X210835Y43102D01*
X210415Y42474D01*
X210267Y41732D01*
X210415Y40991D01*
X210835Y40363D01*
X211463Y39942D01*
X212205Y39795D01*
X212946Y39942D01*
X213575Y40363D01*
X213995Y40991D01*
X214142Y41732D01*
X213995Y42474D01*
X213575Y43102D01*
X212946Y43522D01*
X212205Y43670D01*
D02*
G37*
G36*
X230094Y43904D02*
X229415Y43814D01*
X228783Y43552D01*
X228240Y43136D01*
X227823Y42592D01*
X227561Y41960D01*
X227472Y41281D01*
X227561Y40602D01*
X227823Y39970D01*
X228240Y39427D01*
X228783Y39010D01*
X229415Y38748D01*
X230094Y38659D01*
X230773Y38748D01*
X231405Y39010D01*
X231948Y39427D01*
X232365Y39970D01*
X232627Y40602D01*
X232716Y41281D01*
X232627Y41960D01*
X232365Y42592D01*
X231948Y43136D01*
X231405Y43552D01*
X230773Y43814D01*
X230094Y43904D01*
D02*
G37*
G36*
X224410Y38945D02*
X223668Y38798D01*
X223040Y38378D01*
X222620Y37749D01*
X222472Y37008D01*
X222509Y36823D01*
X222078Y36425D01*
X221654Y36481D01*
X220975Y36391D01*
X220342Y36129D01*
X219799Y35713D01*
X219382Y35170D01*
X219121Y34537D01*
X219031Y33858D01*
X219121Y33180D01*
X219382Y32547D01*
X219799Y32004D01*
X220342Y31587D01*
X220975Y31325D01*
X221654Y31236D01*
X222332Y31325D01*
X222965Y31587D01*
X223508Y32004D01*
X223925Y32547D01*
X224187Y33180D01*
X224276Y33858D01*
X224187Y34537D01*
X224138Y34654D01*
X224499Y35089D01*
X225151Y35218D01*
X225779Y35638D01*
X226199Y36266D01*
X226347Y37008D01*
X226199Y37749D01*
X225779Y38378D01*
X225151Y38798D01*
X224410Y38945D01*
D02*
G37*
G36*
X326960Y41644D02*
X326282Y41554D01*
X325649Y41293D01*
X325106Y40876D01*
X324689Y40333D01*
X324427Y39700D01*
X324338Y39021D01*
X324427Y38343D01*
X324689Y37710D01*
X325106Y37167D01*
X325649Y36750D01*
X326282Y36488D01*
X326960Y36399D01*
X327639Y36488D01*
X328272Y36750D01*
X328815Y37167D01*
X329232Y37710D01*
X329493Y38343D01*
X329583Y39021D01*
X329493Y39700D01*
X329232Y40333D01*
X328815Y40876D01*
X328272Y41293D01*
X327639Y41554D01*
X326960Y41644D01*
D02*
G37*
G36*
X320488Y29911D02*
X319746Y29764D01*
X319118Y29344D01*
X318698Y28715D01*
X318550Y27974D01*
X318698Y27233D01*
X319118Y26604D01*
X319746Y26184D01*
X320488Y26037D01*
X321229Y26184D01*
X321857Y26604D01*
X322277Y27233D01*
X322425Y27974D01*
X322277Y28715D01*
X321857Y29344D01*
X321229Y29764D01*
X320488Y29911D01*
D02*
G37*
G36*
X225984Y31071D02*
X225243Y30924D01*
X224614Y30504D01*
X224195Y29875D01*
X224047Y29134D01*
X224195Y28392D01*
X224614Y27764D01*
X225243Y27344D01*
X225349Y27323D01*
X225659Y26804D01*
X225487Y26326D01*
X224849Y26199D01*
X224221Y25779D01*
X223801Y25151D01*
X223653Y24409D01*
X223801Y23668D01*
X224221Y23040D01*
X224849Y22620D01*
X225590Y22472D01*
X225626Y22068D01*
X225622Y22047D01*
X225769Y21306D01*
X226189Y20677D01*
X226818Y20257D01*
X227559Y20110D01*
X228300Y20257D01*
X228929Y20677D01*
X229349Y21306D01*
X229496Y22047D01*
X229349Y22789D01*
X228929Y23417D01*
X228300Y23837D01*
X227694Y23958D01*
Y24467D01*
X228300Y24588D01*
X228928Y25008D01*
X229348Y25637D01*
X229496Y26378D01*
X229348Y27119D01*
X228928Y27748D01*
X228300Y28168D01*
X228193Y28189D01*
X227849Y28767D01*
X227922Y29134D01*
X227774Y29875D01*
X227354Y30504D01*
X226726Y30924D01*
X225984Y31071D01*
D02*
G37*
G36*
X161400Y23437D02*
X160659Y23290D01*
X160030Y22870D01*
X159610Y22241D01*
X159463Y21500D01*
X159610Y20759D01*
X160030Y20130D01*
X160659Y19710D01*
X161400Y19563D01*
X162141Y19710D01*
X162770Y20130D01*
X163190Y20759D01*
X163337Y21500D01*
X163190Y22241D01*
X162770Y22870D01*
X162141Y23290D01*
X161400Y23437D01*
D02*
G37*
G36*
X135827Y20835D02*
X135085Y20687D01*
X134457Y20267D01*
X134037Y19639D01*
X133890Y18898D01*
X134037Y18156D01*
X134457Y17528D01*
X135085Y17108D01*
X135827Y16960D01*
X136568Y17108D01*
X137197Y17528D01*
X137617Y18156D01*
X137764Y18898D01*
X137617Y19639D01*
X137197Y20267D01*
X136568Y20687D01*
X135827Y20835D01*
D02*
G37*
G36*
X243701Y20048D02*
X242959Y19900D01*
X242331Y19480D01*
X241911Y18852D01*
X241764Y18110D01*
X241911Y17369D01*
X242331Y16740D01*
X242959Y16320D01*
X243701Y16173D01*
X244442Y16320D01*
X245071Y16740D01*
X245491Y17369D01*
X245638Y18110D01*
X245491Y18852D01*
X245071Y19480D01*
X244442Y19900D01*
X243701Y20048D01*
D02*
G37*
G36*
X208661Y18473D02*
X207920Y18325D01*
X207292Y17905D01*
X206872Y17277D01*
X206724Y16535D01*
X206872Y15794D01*
X207292Y15166D01*
X207920Y14746D01*
X208661Y14598D01*
X209403Y14746D01*
X210031Y15166D01*
X210451Y15794D01*
X210599Y16535D01*
X210451Y17277D01*
X210031Y17905D01*
X209403Y18325D01*
X208661Y18473D01*
D02*
G37*
G36*
X308268Y22803D02*
X307526Y22656D01*
X306898Y22236D01*
X306478Y21608D01*
X306330Y20866D01*
X306478Y20125D01*
X306774Y19682D01*
X306872Y19432D01*
X306706Y19024D01*
X306413Y18799D01*
X305997Y18256D01*
X305735Y17624D01*
X305645Y16945D01*
X305735Y16266D01*
X305997Y15634D01*
X306413Y15090D01*
X306957Y14674D01*
X307589Y14412D01*
X308268Y14322D01*
X308946Y14412D01*
X309579Y14674D01*
X310122Y15090D01*
X310539Y15634D01*
X310801Y16266D01*
X310890Y16945D01*
X310801Y17624D01*
X310539Y18256D01*
X310122Y18799D01*
X309830Y19024D01*
X309664Y19432D01*
X309761Y19682D01*
X310057Y20125D01*
X310205Y20866D01*
X310057Y21608D01*
X309637Y22236D01*
X309009Y22656D01*
X308268Y22803D01*
D02*
G37*
G36*
X156069Y16124D02*
X155327Y15977D01*
X154699Y15557D01*
X154279Y14928D01*
X154131Y14187D01*
X154279Y13446D01*
X154699Y12817D01*
X155327Y12397D01*
X156069Y12250D01*
X156810Y12397D01*
X157438Y12817D01*
X157858Y13446D01*
X158006Y14187D01*
X157858Y14928D01*
X157438Y15557D01*
X156810Y15977D01*
X156069Y16124D01*
D02*
G37*
G36*
X293624Y13037D02*
X292883Y12890D01*
X292255Y12470D01*
X291835Y11841D01*
X291687Y11100D01*
X291835Y10359D01*
X292255Y9730D01*
X292883Y9310D01*
X293624Y9163D01*
X294366Y9310D01*
X294994Y9730D01*
X295414Y10359D01*
X295562Y11100D01*
X295414Y11841D01*
X294994Y12470D01*
X294366Y12890D01*
X293624Y13037D01*
D02*
G37*
G36*
X206693Y12173D02*
X205952Y12026D01*
X205323Y11606D01*
X204903Y10978D01*
X204756Y10236D01*
X204903Y9495D01*
X205323Y8866D01*
X205952Y8446D01*
X206693Y8299D01*
X207434Y8446D01*
X208063Y8866D01*
X208483Y9495D01*
X208630Y10236D01*
X208483Y10978D01*
X208063Y11606D01*
X207434Y12026D01*
X206693Y12173D01*
D02*
G37*
G36*
X179213Y9037D02*
X178472Y8890D01*
X177844Y8470D01*
X177424Y7841D01*
X177276Y7100D01*
X177424Y6359D01*
X177844Y5730D01*
X178472Y5310D01*
X179213Y5163D01*
X179955Y5310D01*
X180583Y5730D01*
X181003Y6359D01*
X181151Y7100D01*
X181003Y7841D01*
X180583Y8470D01*
X179955Y8890D01*
X179213Y9037D01*
D02*
G37*
G36*
X307087Y6953D02*
X306408Y6864D01*
X305775Y6602D01*
X305232Y6185D01*
X304816Y5642D01*
X304554Y5009D01*
X304464Y4331D01*
X304554Y3652D01*
X304816Y3019D01*
X305232Y2476D01*
X305775Y2060D01*
X306408Y1798D01*
X307087Y1708D01*
X307765Y1798D01*
X308398Y2060D01*
X308941Y2476D01*
X309358Y3019D01*
X309620Y3652D01*
X309709Y4331D01*
X309620Y5009D01*
X309358Y5642D01*
X308941Y6185D01*
X308398Y6602D01*
X307765Y6864D01*
X307087Y6953D01*
D02*
G37*
%LPD*%
D15*
X269913Y36099D02*
X270503Y35508D01*
X277919Y35414D02*
X278013Y35508D01*
X277824Y32200D02*
X277919Y32294D01*
Y35414D01*
X270503Y35508D02*
X278013D01*
D17*
X6631Y91053D02*
X8313Y89371D01*
X6631Y98757D02*
X9449Y101575D01*
X15748Y81890D02*
X15750Y81891D01*
Y85355D01*
X19672Y45864D02*
X23262Y42273D01*
X22047Y46156D02*
X25403Y42800D01*
X20946Y89371D02*
X23228D01*
X27068Y19100D02*
X29153D01*
X27068Y19100D02*
X27068Y19100D01*
X49891Y10209D02*
Y10331D01*
X52078Y8022D02*
X55170D01*
X252097Y44243D02*
X253660D01*
X253660Y41300D02*
Y44243D01*
X253660Y44243D01*
X253610Y48130D02*
X253660Y48180D01*
X23262Y38698D02*
Y42273D01*
X25403Y39557D02*
Y42800D01*
X19672Y64270D02*
X22047Y61895D01*
X23228Y89371D02*
X25197Y87402D01*
X52362Y32283D02*
X55905Y35827D01*
X69291Y64961D02*
X72047Y67716D01*
X6631Y91053D02*
Y98757D01*
X19672Y45864D02*
Y61232D01*
X22047Y46156D02*
Y61895D01*
X170845Y22465D02*
Y29296D01*
X8313Y89371D02*
X10553D01*
X29153Y19100D02*
X34074Y24021D01*
X18302Y19100D02*
X23132D01*
X14961Y22441D02*
X18302Y19100D01*
X15748Y81890D02*
X27953D01*
X25984Y92126D02*
X26019Y92091D01*
X16330Y101575D02*
X18112Y99793D01*
X55170Y8022D02*
X61193Y2000D01*
X178013Y36465D02*
X180488Y33991D01*
X250260Y44243D02*
X252097D01*
X250128Y44112D02*
X250260Y44243D01*
X34074Y24021D02*
Y25188D01*
X25403Y39557D02*
X32677Y32283D01*
X23262Y38698D02*
X32039Y29921D01*
X27953Y81890D02*
X44882Y64961D01*
X25197Y87402D02*
X44882Y67716D01*
X18112Y95749D02*
Y99793D01*
X49891Y10209D02*
X52078Y8022D01*
X32039Y29921D02*
X65748D01*
X44882Y67716D02*
X61417D01*
X9449Y101575D02*
X16330D01*
X180488Y33991D02*
X206112D01*
X32677Y32283D02*
X52362D01*
X44882Y64961D02*
X69291D01*
X170845Y29296D02*
X178013Y36465D01*
D21*
X31309Y49954D02*
Y55421D01*
X32978Y39463D02*
Y48285D01*
X31309Y49954D02*
X32978Y48285D01*
Y39463D02*
X34252Y38189D01*
D27*
X23132Y19100D02*
D03*
X27068D02*
D03*
X246063Y44094D02*
D03*
X250000D02*
D03*
D29*
X253660Y44243D02*
D03*
Y48180D02*
D03*
D31*
X318900Y55610D02*
D03*
Y67224D02*
D03*
D32*
X312896Y61417D02*
D03*
D38*
X30709Y96850D02*
D03*
Y92126D02*
D03*
X25984Y96850D02*
D03*
Y92126D02*
D03*
X274013Y40823D02*
D03*
Y36099D02*
D03*
X269913Y40823D02*
D03*
Y36099D02*
D03*
X259414Y7709D02*
D03*
Y2984D02*
D03*
X255314Y7709D02*
D03*
Y2984D02*
D03*
X280315Y9055D02*
D03*
Y4331D02*
D03*
X275984Y9055D02*
D03*
Y4331D02*
D03*
D44*
X278013Y35508D02*
D03*
Y39051D02*
D03*
X251214Y2475D02*
D03*
Y6018D02*
D03*
X284646Y4921D02*
D03*
Y8465D02*
D03*
D127*
X70500Y110100D02*
D03*
X8100Y8000D02*
D03*
X137500Y7300D02*
D03*
X357540Y110900D02*
D03*
D138*
X74100Y8022D02*
D03*
X54100Y4022D02*
D03*
Y12022D02*
D03*
D140*
X309449Y61417D02*
X312896D01*
D141*
X281496Y46084D02*
X284252Y43328D01*
X284261Y8849D02*
X284646Y8465D01*
X284261Y8849D02*
Y9542D01*
X284252Y9552D02*
X284261Y9542D01*
X284252Y9552D02*
Y43328D01*
X278013Y39051D02*
Y44882D01*
X279215Y46084D01*
X281496D01*
Y53000D01*
X20946Y91733D02*
X25197D01*
X20946D02*
Y94800D01*
X19998Y95749D02*
X20946Y94800D01*
X30502Y91151D02*
X30896D01*
X29921Y91732D02*
X30502Y91151D01*
X29921Y91732D02*
Y92126D01*
X29528Y91733D02*
X29921Y92126D01*
X235039Y9449D02*
X238041Y12450D01*
X251214Y2675D02*
X251301Y2587D01*
X259414D02*
X263537D01*
X263625Y2500D01*
X269278Y4210D02*
X270114Y5046D01*
X269278Y2653D02*
Y4210D01*
X269125Y2500D02*
X269278Y2653D01*
X276029Y3900D02*
X276351Y3578D01*
X278124Y22400D02*
Y22562D01*
X277824Y22862D02*
X278124Y22562D01*
X229528Y16142D02*
X232283Y13386D01*
Y8804D02*
Y13386D01*
X238041Y37002D02*
Y43366D01*
X253560Y48080D02*
X253610Y48130D01*
X238041Y12450D02*
Y37002D01*
X277824Y22862D02*
Y29100D01*
X25197Y91733D02*
X29528D01*
X18112Y95749D02*
X19998D01*
X241942Y6018D02*
X251214D01*
X241942Y2394D02*
Y6018D01*
X251301Y2587D02*
X259414D01*
X30896Y91151D02*
X40157Y81890D01*
X232283Y8804D02*
X235069Y6018D01*
X242755Y48080D02*
X253560D01*
X40157Y81890D02*
X48726D01*
X235069Y6018D02*
X241942D01*
X270114Y5046D02*
X284505D01*
X238041Y43366D02*
X242755Y48080D01*
D144*
X489173Y6890D02*
Y107283D01*
X435039Y6890D02*
X489173D01*
X433071Y107283D02*
X489173D01*
X435039Y6890D02*
Y66929D01*
D156*
X326960Y39021D02*
D03*
X308268Y16945D02*
D03*
X245860Y37700D02*
D03*
X251060D02*
D03*
X307087Y4331D02*
D03*
X230094Y41281D02*
D03*
X221654Y33858D02*
D03*
X240158Y52756D02*
D03*
D157*
X56181Y94488D02*
D03*
X46181D02*
D03*
D158*
X311014Y11802D02*
D03*
X307087Y11811D02*
D03*
X303150D02*
D03*
X315748Y34252D02*
D03*
X330709Y39376D02*
D03*
X320488Y27974D02*
D03*
X323275Y27159D02*
D03*
X246061Y1967D02*
D03*
X322441Y49213D02*
D03*
X319291Y51575D02*
D03*
X330797Y46850D02*
D03*
X331496Y43701D02*
D03*
X322835Y9843D02*
D03*
X314961Y3966D02*
D03*
X309449Y61417D02*
D03*
X297244Y66929D02*
D03*
X280709Y43667D02*
D03*
X284252Y48031D02*
D03*
X336612Y33465D02*
D03*
X329921Y29528D02*
D03*
X330315Y3937D02*
D03*
X354331Y33071D02*
D03*
X336614Y29528D02*
D03*
X352362Y60039D02*
D03*
X4581Y18428D02*
D03*
X5512Y51968D02*
D03*
X7480Y85355D02*
D03*
X16863Y5793D02*
D03*
X14173Y12598D02*
D03*
Y19291D02*
D03*
X14961Y22441D02*
D03*
X13811Y45276D02*
D03*
X15748Y81890D02*
D03*
X13386Y98819D02*
D03*
X20800Y5793D02*
D03*
X20800Y22800D02*
D03*
X24409Y55512D02*
D03*
X19672Y61232D02*
D03*
X25197Y87402D02*
D03*
X23262Y84646D02*
D03*
X25197Y100394D02*
D03*
X31309Y55421D02*
D03*
X28740Y77165D02*
D03*
X30315Y100394D02*
D03*
X28740Y111417D02*
D03*
X38200Y21000D02*
D03*
X41339Y25591D02*
D03*
X37008D02*
D03*
X38976Y77165D02*
D03*
X37995Y92520D02*
D03*
X36650Y111376D02*
D03*
X46063Y46457D02*
D03*
X47244Y62552D02*
D03*
X48726Y81890D02*
D03*
X46443Y111376D02*
D03*
X55905Y35827D02*
D03*
X52362Y35433D02*
D03*
X57020Y70010D02*
D03*
X55905Y77953D02*
D03*
X56235Y111376D02*
D03*
X61193Y2000D02*
D03*
X65099D02*
D03*
X61417Y38583D02*
D03*
Y67716D02*
D03*
X62992Y114915D02*
D03*
X67546Y2000D02*
D03*
X68504Y30100D02*
D03*
X72047Y67716D02*
D03*
X72835Y81896D02*
D03*
X75984Y2756D02*
D03*
Y11811D02*
D03*
X135827Y18898D02*
D03*
X132749Y30383D02*
D03*
X132677Y36220D02*
D03*
X136614Y71653D02*
D03*
X133590Y65748D02*
D03*
X132749Y76549D02*
D03*
X134252Y74016D02*
D03*
X133858Y106299D02*
D03*
Y110236D02*
D03*
Y114173D02*
D03*
X143800Y2398D02*
D03*
X140945Y13780D02*
D03*
X143800Y11340D02*
D03*
X142583Y82284D02*
D03*
X143701Y106299D02*
D03*
Y110236D02*
D03*
Y114173D02*
D03*
X148900Y21400D02*
D03*
X156069Y3346D02*
D03*
X156900Y6954D02*
D03*
X156069Y14187D02*
D03*
X161400Y21500D02*
D03*
X156200Y68300D02*
D03*
X163626Y2800D02*
D03*
X163933Y68300D02*
D03*
X172113Y6841D02*
D03*
X174900Y11143D02*
D03*
X173622Y18898D02*
D03*
X175197Y44882D02*
D03*
Y42520D02*
D03*
X171667Y68300D02*
D03*
X179400D02*
D03*
X192132Y6727D02*
D03*
Y10417D02*
D03*
X191013Y36817D02*
D03*
Y39565D02*
D03*
X191732Y54331D02*
D03*
X190945Y51575D02*
D03*
X198541Y44062D02*
D03*
X206537Y6299D02*
D03*
X206693Y10236D02*
D03*
X208681Y27954D02*
D03*
X206112Y33991D02*
D03*
X208339Y44610D02*
D03*
X213468Y27954D02*
D03*
X212139Y31573D02*
D03*
X222441Y6299D02*
D03*
X224410Y37008D02*
D03*
X224016Y53150D02*
D03*
X229921Y9843D02*
D03*
X227559Y22047D02*
D03*
X227559Y26378D02*
D03*
X229970Y53150D02*
D03*
X238583Y2362D02*
D03*
X238041Y37002D02*
D03*
X243701Y18110D02*
D03*
X243701Y52362D02*
D03*
X257480Y55118D02*
D03*
X263625Y2500D02*
D03*
X263386Y59842D02*
D03*
X269125Y2500D02*
D03*
X272024D02*
D03*
X278124Y12221D02*
D03*
X281496Y22047D02*
D03*
X278124Y22400D02*
D03*
X281496Y30512D02*
D03*
X277824Y29100D02*
D03*
X281496Y37402D02*
D03*
Y53000D02*
D03*
X289370Y2997D02*
D03*
X287402Y22047D02*
D03*
X287795Y48031D02*
D03*
X285433Y53150D02*
D03*
X287795Y55118D02*
D03*
X283465Y57087D02*
D03*
X285556Y62992D02*
D03*
X287795Y59055D02*
D03*
X293307Y2997D02*
D03*
X297244D02*
D03*
X293624Y11100D02*
D03*
X296035Y25591D02*
D03*
Y29559D02*
D03*
X297244Y62992D02*
D03*
X301181Y2997D02*
D03*
X300004Y25591D02*
D03*
Y29528D02*
D03*
X305112Y62992D02*
D03*
X301181Y66929D02*
D03*
X312992Y23634D02*
D03*
Y19701D02*
D03*
X308268Y20866D02*
D03*
X311014Y25591D02*
D03*
X311811Y29528D02*
D03*
X309842Y31573D02*
D03*
X312992Y66929D02*
D03*
X309055D02*
D03*
X318322Y43782D02*
D03*
X328740Y66929D02*
D03*
X340551Y29528D02*
D03*
X329921Y19685D02*
D03*
X340551Y33465D02*
D03*
X322835Y15813D02*
D03*
X364173Y29348D02*
D03*
X326772Y7924D02*
D03*
X329921Y35433D02*
D03*
X327393Y31830D02*
D03*
X363779Y11631D02*
D03*
X328740Y62992D02*
D03*
X324803Y66929D02*
D03*
X351575Y47638D02*
D03*
X324803Y61024D02*
D03*
X336614Y62992D02*
D03*
X332677Y61024D02*
D03*
X357087Y42520D02*
D03*
X351575D02*
D03*
X348425Y61024D02*
D03*
X344488Y62992D02*
D03*
X340551Y61024D02*
D03*
Y66929D02*
D03*
X348425D02*
D03*
X352362Y70866D02*
D03*
Y78740D02*
D03*
Y82677D02*
D03*
X360236Y70866D02*
D03*
X356299Y66929D02*
D03*
X360236Y78740D02*
D03*
X356270D02*
D03*
X356424Y74803D02*
D03*
X360236Y82677D02*
D03*
X356344D02*
D03*
X364173Y66929D02*
D03*
Y78740D02*
D03*
Y74803D02*
D03*
Y82677D02*
D03*
X9055Y31890D02*
D03*
X17184Y24980D02*
D03*
X20095Y15791D02*
D03*
X20824Y25433D02*
D03*
X25403Y72813D02*
D03*
X19672Y64270D02*
D03*
X23228Y112205D02*
D03*
X30709Y24409D02*
D03*
X31522Y17204D02*
D03*
X29851Y48031D02*
D03*
X29528Y72441D02*
D03*
X27953Y104724D02*
D03*
X37200Y16800D02*
D03*
X41339Y49053D02*
D03*
X35433Y48425D02*
D03*
X55445Y88583D02*
D03*
X72835Y56299D02*
D03*
X70866Y48819D02*
D03*
X133858Y56299D02*
D03*
X159055Y16535D02*
D03*
X198399Y56487D02*
D03*
X208661Y16535D02*
D03*
X212205Y41732D02*
D03*
X229134Y16535D02*
D03*
X248425Y40462D02*
D03*
X256693Y40551D02*
D03*
X253660Y41300D02*
D03*
X281500Y40551D02*
D03*
X281496Y34449D02*
D03*
X277824Y32200D02*
D03*
X287795Y50787D02*
D03*
X296035Y33465D02*
D03*
X300004D02*
D03*
X312992Y15767D02*
D03*
X311811Y33465D02*
D03*
X357087Y29577D02*
D03*
X322835Y21654D02*
D03*
X326772Y24485D02*
D03*
X364173Y37795D02*
D03*
X329921Y49213D02*
D03*
X357087Y50475D02*
D03*
X330709Y11811D02*
D03*
X364173Y47638D02*
D03*
X363779Y2662D02*
D03*
X352349Y105291D02*
D03*
X340945Y2662D02*
D03*
X2709Y3150D02*
D03*
X1969Y21260D02*
D03*
Y31102D02*
D03*
Y46850D02*
D03*
Y51968D02*
D03*
X2362Y98819D02*
D03*
X2756Y108661D02*
D03*
X33858Y21260D02*
D03*
X41732Y17717D02*
D03*
X34252Y38189D02*
D03*
X27165Y55421D02*
D03*
X34646Y52362D02*
D03*
X42520Y87008D02*
D03*
X18863Y116142D02*
D03*
X49707Y4050D02*
D03*
Y6924D02*
D03*
X57800Y1971D02*
D03*
X49891Y10331D02*
D03*
X50787Y17717D02*
D03*
X65748Y29921D02*
D03*
X59055Y35071D02*
D03*
X58450Y39005D02*
D03*
X50000Y37008D02*
D03*
X74803Y52362D02*
D03*
X66114Y94882D02*
D03*
X74100Y102756D02*
D03*
X138877Y106167D02*
D03*
X138779Y114173D02*
D03*
X171191Y11143D02*
D03*
X170079Y18898D02*
D03*
X170845Y22609D02*
D03*
X201969Y6299D02*
D03*
X179213Y7100D02*
D03*
X193913Y36817D02*
D03*
Y39565D02*
D03*
X178013Y36465D02*
D03*
X226772Y6299D02*
D03*
X226378Y10630D02*
D03*
X234646Y31102D02*
D03*
X217717Y30406D02*
D03*
X225984Y29134D02*
D03*
X226772Y53150D02*
D03*
X241942Y2394D02*
D03*
X242520Y15354D02*
D03*
X266929Y46457D02*
D03*
X266655Y51691D02*
D03*
X299213Y11811D02*
D03*
X298031Y31459D02*
D03*
X322822Y3870D02*
D03*
X307087Y25591D02*
D03*
X307874Y29559D02*
D03*
X351575Y37795D02*
D03*
X34074Y25188D02*
D03*
X26030Y48425D02*
D03*
X66535Y48819D02*
D03*
X203150Y56299D02*
D03*
X235039Y9449D02*
D03*
X225591Y24409D02*
D03*
X219291Y16142D02*
D03*
X243274Y56700D02*
D03*
X307874Y33465D02*
D03*
X364173Y60039D02*
D03*
X357087Y55709D02*
D03*
X363176Y105291D02*
D03*
X268618Y11631D02*
D03*
X264680D02*
D03*
X260743D02*
D03*
X256806D02*
D03*
X252869D02*
D03*
X268618Y15568D02*
D03*
X264680D02*
D03*
X260743D02*
D03*
X256806D02*
D03*
X252869D02*
D03*
X268618Y19505D02*
D03*
X264680D02*
D03*
X260743D02*
D03*
X256806D02*
D03*
X252869D02*
D03*
X268618Y23442D02*
D03*
X264680D02*
D03*
X260743D02*
D03*
X256806D02*
D03*
X252869D02*
D03*
X268618Y27380D02*
D03*
X264680D02*
D03*
X260743D02*
D03*
X256806D02*
D03*
X252869D02*
D03*
X28356Y63286D02*
D03*
X182000Y26025D02*
D03*
Y29962D02*
D03*
X185937Y26025D02*
D03*
Y29962D02*
D03*
X189874Y26025D02*
D03*
Y29962D02*
D03*
D159*
X299600Y53723D02*
D03*
X302356D02*
D03*
X299600Y50967D02*
D03*
X302356D02*
D03*
X299600Y42700D02*
D03*
Y45456D02*
D03*
X302356Y42700D02*
D03*
Y45456D02*
D03*
X310624Y42700D02*
D03*
X307868D02*
D03*
X310624Y45456D02*
D03*
X307868D02*
D03*
X310624Y53723D02*
D03*
X307868D02*
D03*
X310624Y50967D02*
D03*
X307868D02*
D03*
X310624Y48212D02*
D03*
X307868D02*
D03*
X299600D02*
D03*
X302356D02*
D03*
X305112Y53723D02*
D03*
Y50967D02*
D03*
Y42700D02*
D03*
Y45456D02*
D03*
Y48212D02*
D03*
D160*
X360236Y19685D02*
D03*
X423228Y19685D02*
D03*
D161*
X435039Y66929D02*
D03*
D162*
X164459Y11728D02*
D03*
X152766Y33280D02*
D03*
Y29343D02*
D03*
D167*
X15750Y90552D02*
D03*
D168*
X18112Y95749D02*
D03*
X15750D02*
D03*
X13387D02*
D03*
Y85355D02*
D03*
X15750D02*
D03*
X18112D02*
D03*
D169*
X10553Y91733D02*
D03*
Y89371D02*
D03*
X20946D02*
D03*
Y91733D02*
D03*
D170*
X429134Y107283D02*
D03*
M02*
