G04*
G04 #@! TF.GenerationSoftware,Altium Limited,Altium NEXUS,3.1.14 (81)*
G04*
G04 Layer_Color=16711935*
%FSLAX25Y25*%
%MOIN*%
G70*
G04*
G04 #@! TF.SameCoordinates,8D934BE8-6637-419B-8715-06A4025A7093*
G04*
G04*
G04 #@! TF.FilePolarity,Negative*
G04*
G01*
G75*
%ADD79R,0.02965X0.03359*%
%ADD81R,0.03359X0.02965*%
%ADD83R,0.09449X0.04921*%
%ADD84R,0.04921X0.04724*%
%ADD87C,0.11874*%
%ADD91R,0.03162X0.03950*%
%ADD98C,0.03898*%
%ADD99R,0.02769X0.02769*%
%ADD127C,0.04000*%
%ADD128C,0.05918*%
%ADD129C,0.01600*%
%ADD130C,0.09800*%
%ADD131C,0.02600*%
%ADD132C,0.10642*%
%ADD133C,0.02769*%
%ADD171R,0.05124X0.05124*%
%ADD172R,0.02012X0.02720*%
%ADD173R,0.02720X0.02012*%
D79*
X23132Y19100D02*
D03*
X27068D02*
D03*
X246063Y44094D02*
D03*
X250000D02*
D03*
D81*
X253660Y44243D02*
D03*
Y48180D02*
D03*
D83*
X318900Y55610D02*
D03*
Y67224D02*
D03*
D84*
X312896Y61417D02*
D03*
D87*
X70500Y110100D02*
D03*
X8100Y8000D02*
D03*
X137500Y7300D02*
D03*
X357540Y110900D02*
D03*
D91*
X30709Y96850D02*
D03*
Y92126D02*
D03*
X25984Y96850D02*
D03*
Y92126D02*
D03*
X274013Y40823D02*
D03*
Y36099D02*
D03*
X269913Y40823D02*
D03*
Y36099D02*
D03*
X259414Y7709D02*
D03*
Y2984D02*
D03*
X255314Y7709D02*
D03*
Y2984D02*
D03*
X280315Y9055D02*
D03*
Y4331D02*
D03*
X275984Y9055D02*
D03*
Y4331D02*
D03*
D98*
X74100Y8022D02*
D03*
X54100Y4022D02*
D03*
Y12022D02*
D03*
D99*
X278013Y35508D02*
D03*
Y39051D02*
D03*
X251214Y2475D02*
D03*
Y6018D02*
D03*
X284646Y4921D02*
D03*
Y8465D02*
D03*
D127*
X326960Y39021D02*
D03*
X308268Y16945D02*
D03*
X245860Y37700D02*
D03*
X251060D02*
D03*
X307087Y4331D02*
D03*
X230094Y41281D02*
D03*
X221654Y33858D02*
D03*
X240158Y52756D02*
D03*
D128*
X56181Y94488D02*
D03*
X46181D02*
D03*
D129*
X299600Y53723D02*
D03*
X302356D02*
D03*
X299600Y50967D02*
D03*
X302356D02*
D03*
X299600Y42700D02*
D03*
Y45456D02*
D03*
X302356Y42700D02*
D03*
Y45456D02*
D03*
X310624Y42700D02*
D03*
X307868D02*
D03*
X310624Y45456D02*
D03*
X307868D02*
D03*
X310624Y53723D02*
D03*
X307868D02*
D03*
X310624Y50967D02*
D03*
X307868D02*
D03*
X310624Y48212D02*
D03*
X307868D02*
D03*
X299600D02*
D03*
X302356D02*
D03*
X305112Y53723D02*
D03*
Y50967D02*
D03*
Y42700D02*
D03*
Y45456D02*
D03*
Y48212D02*
D03*
D130*
X360236Y19685D02*
D03*
X423228Y19685D02*
D03*
D131*
X212205Y41732D02*
D03*
X268618Y11631D02*
D03*
X264680D02*
D03*
X260743D02*
D03*
X256806D02*
D03*
X252869D02*
D03*
X268618Y15568D02*
D03*
X264680D02*
D03*
X260743D02*
D03*
X256806D02*
D03*
X252869D02*
D03*
X268618Y19505D02*
D03*
X264680D02*
D03*
X260743D02*
D03*
X256806D02*
D03*
X252869D02*
D03*
X268618Y23442D02*
D03*
X264680D02*
D03*
X260743D02*
D03*
X256806D02*
D03*
X252869D02*
D03*
X268618Y27380D02*
D03*
X264680D02*
D03*
X260743D02*
D03*
X256806D02*
D03*
X252869D02*
D03*
X28356Y63286D02*
D03*
X182000Y26025D02*
D03*
Y29962D02*
D03*
X185937Y26025D02*
D03*
Y29962D02*
D03*
X189874Y26025D02*
D03*
Y29962D02*
D03*
D132*
X435039Y66929D02*
D03*
D133*
X164459Y11728D02*
D03*
X152766Y33280D02*
D03*
Y29343D02*
D03*
D171*
X15750Y90552D02*
D03*
D172*
X18112Y95749D02*
D03*
X15750D02*
D03*
X13387D02*
D03*
Y85355D02*
D03*
X15750D02*
D03*
X18112D02*
D03*
D173*
X10553Y91733D02*
D03*
Y89371D02*
D03*
X20946D02*
D03*
Y91733D02*
D03*
M02*
