G04*
G04 #@! TF.GenerationSoftware,Altium Limited,Altium NEXUS,3.1.14 (81)*
G04*
G04 Layer_Color=2752767*
%FSLAX25Y25*%
%MOIN*%
G70*
G04*
G04 #@! TF.SameCoordinates,8D934BE8-6637-419B-8715-06A4025A7093*
G04*
G04*
G04 #@! TF.FilePolarity,Positive*
G04*
G01*
G75*
%ADD15C,0.01000*%
%ADD139C,0.01500*%
%ADD142C,0.01600*%
%ADD178C,0.00200*%
D15*
X13252Y-106580D02*
G03*
X13252Y-106580I-3097J0D01*
G01*
X7058Y-53937D02*
X10155Y-52389D01*
X13252Y-53937D01*
X11703Y-50840D02*
X13252Y-53937D01*
X11703Y-50840D02*
X13252Y-47744D01*
X10155Y-49292D02*
X13252Y-47744D01*
X7058D02*
X10155Y-49292D01*
X7058Y-47744D02*
X8607Y-50840D01*
X7058Y-53937D02*
X8607Y-50840D01*
Y-66324D02*
X10155Y-67872D01*
X7058Y-66324D02*
X8607D01*
X7058D02*
X8607Y-64775D01*
X7058Y-63227D02*
X8607Y-64775D01*
X7058Y-63227D02*
X8607D01*
X10155Y-61679D01*
X11703Y-63227D01*
X13252D01*
X11703Y-64775D02*
X13252Y-63227D01*
X11703Y-64775D02*
X13252Y-66324D01*
X11703D02*
X13252D01*
X10155Y-67872D02*
X11703Y-66324D01*
X8297Y-80568D02*
X12013D01*
Y-76852D01*
X8297D02*
X12013D01*
X8297Y-80568D02*
Y-76852D01*
X7058Y-81807D02*
X13252D01*
Y-75614D01*
X7058D02*
X13252D01*
X7058Y-81807D02*
Y-75614D01*
Y-95742D02*
X13252D01*
Y-89549D01*
X7058D02*
X13252D01*
X7058Y-95742D02*
Y-89549D01*
X10155Y-123612D02*
X13252Y-117419D01*
X7058D02*
X13252D01*
X7058D02*
X10155Y-123612D01*
X7058Y-137547D02*
Y-135999D01*
X8607Y-134450D01*
X7058Y-132902D02*
X8607Y-134450D01*
X7058Y-132902D02*
Y-131354D01*
X8607D01*
X10155Y-132902D01*
X11703Y-131354D01*
X13252D01*
Y-132902D02*
Y-131354D01*
X11703Y-134450D02*
X13252Y-132902D01*
X11703Y-134450D02*
X13252Y-135999D01*
Y-137547D02*
Y-135999D01*
X11703Y-137547D02*
X13252D01*
X10155Y-135999D02*
X11703Y-137547D01*
X8607D02*
X10155Y-135999D01*
X7058Y-137547D02*
X8607D01*
X261530Y-48365D02*
Y-52080D01*
X263387Y-53937D01*
X265244Y-52080D01*
Y-48365D01*
X267102Y-53937D02*
X268959D01*
X268031D01*
Y-50222D01*
X267102D01*
X272674D02*
X274531D01*
X275460Y-51151D01*
Y-53937D01*
X272674D01*
X271745Y-53008D01*
X272674Y-52080D01*
X275460D01*
X261530Y-62300D02*
Y-66015D01*
X263387Y-67872D01*
X265244Y-66015D01*
Y-62300D01*
X267102Y-67872D02*
X268959D01*
X268031D01*
Y-64157D01*
X267102D01*
X272674D02*
X274531D01*
X275460Y-65086D01*
Y-67872D01*
X272674D01*
X271745Y-66943D01*
X272674Y-66015D01*
X275460D01*
X261530Y-76235D02*
Y-79950D01*
X263387Y-81807D01*
X265244Y-79950D01*
Y-76235D01*
X267102Y-81807D02*
X268959D01*
X268031D01*
Y-78092D01*
X267102D01*
X272674D02*
X274531D01*
X275460Y-79021D01*
Y-81807D01*
X272674D01*
X271745Y-80878D01*
X272674Y-79950D01*
X275460D01*
X261530Y-95742D02*
Y-90170D01*
X264316D01*
X265244Y-91098D01*
Y-92956D01*
X264316Y-93885D01*
X261530D01*
X268031Y-92027D02*
X269888D01*
X270817Y-92956D01*
Y-95742D01*
X268031D01*
X267102Y-94813D01*
X268031Y-93885D01*
X270817D01*
X276389Y-90170D02*
Y-95742D01*
X273603D01*
X272674Y-94813D01*
Y-92956D01*
X273603Y-92027D01*
X276389D01*
X261530Y-109677D02*
Y-104105D01*
X264316D01*
X265244Y-105034D01*
Y-106891D01*
X264316Y-107820D01*
X261530D01*
X268031Y-105962D02*
X269888D01*
X270817Y-106891D01*
Y-109677D01*
X268031D01*
X267102Y-108748D01*
X268031Y-107820D01*
X270817D01*
X276389Y-104105D02*
Y-109677D01*
X273603D01*
X272674Y-108748D01*
Y-106891D01*
X273603Y-105962D01*
X276389D01*
X261530Y-123612D02*
Y-118040D01*
X264316D01*
X265244Y-118968D01*
Y-120826D01*
X264316Y-121755D01*
X261530D01*
X268031Y-119897D02*
X269888D01*
X270817Y-120826D01*
Y-123612D01*
X268031D01*
X267102Y-122683D01*
X268031Y-121755D01*
X270817D01*
X276389Y-118040D02*
Y-123612D01*
X273603D01*
X272674Y-122683D01*
Y-120826D01*
X273603Y-119897D01*
X276389D01*
X261530Y-131975D02*
Y-135690D01*
X263387Y-137547D01*
X265244Y-135690D01*
Y-131975D01*
X267102Y-137547D02*
X268959D01*
X268031D01*
Y-133832D01*
X267102D01*
X272674D02*
X274531D01*
X275460Y-134761D01*
Y-137547D01*
X272674D01*
X271745Y-136618D01*
X272674Y-135690D01*
X275460D01*
X214306Y-53937D02*
Y-48365D01*
X217093D01*
X218021Y-49294D01*
Y-51151D01*
X217093Y-52080D01*
X214306D01*
X219879Y-48365D02*
X223593D01*
X221736D01*
Y-53937D01*
X225451Y-48365D02*
Y-53937D01*
Y-51151D01*
X229166D01*
Y-48365D01*
Y-53937D01*
X214306Y-67872D02*
Y-62300D01*
X217093D01*
X218021Y-63228D01*
Y-65086D01*
X217093Y-66015D01*
X214306D01*
X219879Y-62300D02*
X223593D01*
X221736D01*
Y-67872D01*
X225451Y-62300D02*
Y-67872D01*
Y-65086D01*
X229166D01*
Y-62300D01*
Y-67872D01*
X214306Y-81807D02*
Y-76235D01*
X217093D01*
X218021Y-77163D01*
Y-79021D01*
X217093Y-79950D01*
X214306D01*
X219879Y-76235D02*
X223593D01*
X221736D01*
Y-81807D01*
X225451Y-76235D02*
Y-81807D01*
Y-79021D01*
X229166D01*
Y-76235D01*
Y-81807D01*
X214306Y-95742D02*
Y-90170D01*
X217093D01*
X218021Y-91098D01*
Y-92956D01*
X217093Y-93885D01*
X214306D01*
X219879Y-90170D02*
X223593D01*
X221736D01*
Y-95742D01*
X225451Y-90170D02*
Y-95742D01*
Y-92956D01*
X229166D01*
Y-90170D01*
Y-95742D01*
X214306Y-109677D02*
Y-104105D01*
X217093D01*
X218021Y-105034D01*
Y-106891D01*
X217093Y-107820D01*
X214306D01*
X219879Y-104105D02*
X223593D01*
X221736D01*
Y-109677D01*
X225451Y-104105D02*
Y-109677D01*
Y-106891D01*
X229166D01*
Y-104105D01*
Y-109677D01*
X214306Y-123612D02*
Y-118040D01*
X217093D01*
X218021Y-118968D01*
Y-120826D01*
X217093Y-121755D01*
X214306D01*
X219879Y-118040D02*
X223593D01*
X221736D01*
Y-123612D01*
X225451Y-118040D02*
Y-123612D01*
Y-120826D01*
X229166D01*
Y-118040D01*
Y-123612D01*
X214306Y-137547D02*
Y-131975D01*
X217093D01*
X218021Y-132904D01*
Y-134761D01*
X217093Y-135690D01*
X214306D01*
X219879Y-131975D02*
X223593D01*
X221736D01*
Y-137547D01*
X225451Y-131975D02*
Y-137547D01*
Y-134761D01*
X229166D01*
Y-131975D01*
Y-137547D01*
X112004Y-48365D02*
X115719D01*
Y-49294D01*
X112004Y-53008D01*
Y-53937D01*
X117576D02*
Y-53008D01*
X118505D01*
Y-53937D01*
X117576D01*
X122220Y-49294D02*
X123149Y-48365D01*
X125006D01*
X125935Y-49294D01*
Y-50222D01*
X125006Y-51151D01*
X125935Y-52080D01*
Y-53008D01*
X125006Y-53937D01*
X123149D01*
X122220Y-53008D01*
Y-52080D01*
X123149Y-51151D01*
X122220Y-50222D01*
Y-49294D01*
X123149Y-51151D02*
X125006D01*
X127792Y-48365D02*
X131507D01*
Y-49294D01*
X127792Y-53008D01*
Y-53937D01*
X133364D02*
Y-50222D01*
X134293D01*
X135222Y-51151D01*
Y-53937D01*
Y-51151D01*
X136150Y-50222D01*
X137079Y-51151D01*
Y-53937D01*
X138936D02*
X140794D01*
X139865D01*
Y-50222D01*
X138936D01*
X143580Y-53937D02*
X145437D01*
X144509D01*
Y-48365D01*
X143580D01*
X155653Y-53937D02*
X153796Y-52080D01*
Y-50222D01*
X155653Y-48365D01*
X158439Y-49294D02*
X159368Y-48365D01*
X161225D01*
X162154Y-49294D01*
Y-53008D01*
X161225Y-53937D01*
X159368D01*
X158439Y-53008D01*
Y-49294D01*
X164011Y-53937D02*
Y-53008D01*
X164940D01*
Y-53937D01*
X164011D01*
X172370D02*
X168655D01*
X172370Y-50222D01*
Y-49294D01*
X171441Y-48365D01*
X169584D01*
X168655Y-49294D01*
X174227D02*
X175156Y-48365D01*
X177013D01*
X177942Y-49294D01*
Y-53008D01*
X177013Y-53937D01*
X175156D01*
X174227Y-53008D01*
Y-49294D01*
X179799D02*
X180728Y-48365D01*
X182585D01*
X183514Y-49294D01*
Y-53008D01*
X182585Y-53937D01*
X180728D01*
X179799Y-53008D01*
Y-49294D01*
X185371Y-53937D02*
Y-50222D01*
X186300D01*
X187229Y-51151D01*
Y-53937D01*
Y-51151D01*
X188158Y-50222D01*
X189086Y-51151D01*
Y-53937D01*
X190944D02*
Y-50222D01*
X191872D01*
X192801Y-51151D01*
Y-53937D01*
Y-51151D01*
X193730Y-50222D01*
X194659Y-51151D01*
Y-53937D01*
X196516D02*
X198373Y-52080D01*
Y-50222D01*
X196516Y-48365D01*
X112004Y-63228D02*
X112933Y-62300D01*
X114790D01*
X115719Y-63228D01*
Y-64157D01*
X114790Y-65086D01*
X115719Y-66015D01*
Y-66943D01*
X114790Y-67872D01*
X112933D01*
X112004Y-66943D01*
Y-66015D01*
X112933Y-65086D01*
X112004Y-64157D01*
Y-63228D01*
X112933Y-65086D02*
X114790D01*
X117576Y-67872D02*
Y-66943D01*
X118505D01*
Y-67872D01*
X117576D01*
X122220Y-63228D02*
X123149Y-62300D01*
X125006D01*
X125935Y-63228D01*
Y-66943D01*
X125006Y-67872D01*
X123149D01*
X122220Y-66943D01*
Y-63228D01*
X127792D02*
X128721Y-62300D01*
X130578D01*
X131507Y-63228D01*
Y-66943D01*
X130578Y-67872D01*
X128721D01*
X127792Y-66943D01*
Y-63228D01*
X133364Y-67872D02*
Y-64157D01*
X134293D01*
X135222Y-65086D01*
Y-67872D01*
Y-65086D01*
X136150Y-64157D01*
X137079Y-65086D01*
Y-67872D01*
X138936D02*
X140794D01*
X139865D01*
Y-64157D01*
X138936D01*
X143580Y-67872D02*
X145437D01*
X144509D01*
Y-62300D01*
X143580D01*
X155653Y-67872D02*
X153796Y-66015D01*
Y-64157D01*
X155653Y-62300D01*
X158439Y-63228D02*
X159368Y-62300D01*
X161225D01*
X162154Y-63228D01*
Y-66943D01*
X161225Y-67872D01*
X159368D01*
X158439Y-66943D01*
Y-63228D01*
X164011Y-67872D02*
Y-66943D01*
X164940D01*
Y-67872D01*
X164011D01*
X172370D02*
X168655D01*
X172370Y-64157D01*
Y-63228D01*
X171441Y-62300D01*
X169584D01*
X168655Y-63228D01*
X174227D02*
X175156Y-62300D01*
X177013D01*
X177942Y-63228D01*
Y-66943D01*
X177013Y-67872D01*
X175156D01*
X174227Y-66943D01*
Y-63228D01*
X179799D02*
X180728Y-62300D01*
X182585D01*
X183514Y-63228D01*
Y-64157D01*
X182585Y-65086D01*
X181657D01*
X182585D01*
X183514Y-66015D01*
Y-66943D01*
X182585Y-67872D01*
X180728D01*
X179799Y-66943D01*
X185371Y-67872D02*
Y-64157D01*
X186300D01*
X187229Y-65086D01*
Y-67872D01*
Y-65086D01*
X188158Y-64157D01*
X189086Y-65086D01*
Y-67872D01*
X190944D02*
Y-64157D01*
X191872D01*
X192801Y-65086D01*
Y-67872D01*
Y-65086D01*
X193730Y-64157D01*
X194659Y-65086D01*
Y-67872D01*
X196516D02*
X198373Y-66015D01*
Y-64157D01*
X196516Y-62300D01*
X112004Y-81807D02*
X113862D01*
X112933D01*
Y-76235D01*
X112004Y-77163D01*
X120362Y-81807D02*
X116648D01*
X120362Y-78092D01*
Y-77163D01*
X119434Y-76235D01*
X117576D01*
X116648Y-77163D01*
X122220Y-81807D02*
Y-80878D01*
X123149D01*
Y-81807D01*
X122220D01*
X126863Y-77163D02*
X127792Y-76235D01*
X129649D01*
X130578Y-77163D01*
Y-80878D01*
X129649Y-81807D01*
X127792D01*
X126863Y-80878D01*
Y-77163D01*
X132436D02*
X133364Y-76235D01*
X135222D01*
X136150Y-77163D01*
Y-80878D01*
X135222Y-81807D01*
X133364D01*
X132436Y-80878D01*
Y-77163D01*
X138008Y-81807D02*
Y-78092D01*
X138936D01*
X139865Y-79021D01*
Y-81807D01*
Y-79021D01*
X140794Y-78092D01*
X141723Y-79021D01*
Y-81807D01*
X143580D02*
X145437D01*
X144509D01*
Y-78092D01*
X143580D01*
X148223Y-81807D02*
X150081D01*
X149152D01*
Y-76235D01*
X148223D01*
X160297Y-81807D02*
X158439Y-79950D01*
Y-78092D01*
X160297Y-76235D01*
X163083Y-77163D02*
X164011Y-76235D01*
X165869D01*
X166797Y-77163D01*
Y-80878D01*
X165869Y-81807D01*
X164011D01*
X163083Y-80878D01*
Y-77163D01*
X168655Y-81807D02*
Y-80878D01*
X169584D01*
Y-81807D01*
X168655D01*
X173298Y-77163D02*
X174227Y-76235D01*
X176084D01*
X177013Y-77163D01*
Y-78092D01*
X176084Y-79021D01*
X175156D01*
X176084D01*
X177013Y-79950D01*
Y-80878D01*
X176084Y-81807D01*
X174227D01*
X173298Y-80878D01*
X178871Y-77163D02*
X179799Y-76235D01*
X181657D01*
X182585Y-77163D01*
Y-80878D01*
X181657Y-81807D01*
X179799D01*
X178871Y-80878D01*
Y-77163D01*
X188158Y-76235D02*
X184443D01*
Y-79021D01*
X186300Y-78092D01*
X187229D01*
X188158Y-79021D01*
Y-80878D01*
X187229Y-81807D01*
X185371D01*
X184443Y-80878D01*
X190015Y-81807D02*
Y-78092D01*
X190944D01*
X191872Y-79021D01*
Y-81807D01*
Y-79021D01*
X192801Y-78092D01*
X193730Y-79021D01*
Y-81807D01*
X195587D02*
Y-78092D01*
X196516D01*
X197445Y-79021D01*
Y-81807D01*
Y-79021D01*
X198373Y-78092D01*
X199302Y-79021D01*
Y-81807D01*
X201159D02*
X203017Y-79950D01*
Y-78092D01*
X201159Y-76235D01*
X112004Y-95742D02*
X113862D01*
X112933D01*
Y-90170D01*
X112004Y-91098D01*
X120362Y-90170D02*
X118505Y-91098D01*
X116648Y-92956D01*
Y-94813D01*
X117576Y-95742D01*
X119434D01*
X120362Y-94813D01*
Y-93885D01*
X119434Y-92956D01*
X116648D01*
X122220Y-95742D02*
Y-94813D01*
X123149D01*
Y-95742D01*
X122220D01*
X126863Y-91098D02*
X127792Y-90170D01*
X129649D01*
X130578Y-91098D01*
Y-94813D01*
X129649Y-95742D01*
X127792D01*
X126863Y-94813D01*
Y-91098D01*
X132436D02*
X133364Y-90170D01*
X135222D01*
X136150Y-91098D01*
Y-94813D01*
X135222Y-95742D01*
X133364D01*
X132436Y-94813D01*
Y-91098D01*
X138008Y-95742D02*
Y-92027D01*
X138936D01*
X139865Y-92956D01*
Y-95742D01*
Y-92956D01*
X140794Y-92027D01*
X141723Y-92956D01*
Y-95742D01*
X143580D02*
X145437D01*
X144509D01*
Y-92027D01*
X143580D01*
X148223Y-95742D02*
X150081D01*
X149152D01*
Y-90170D01*
X148223D01*
X160297Y-95742D02*
X158439Y-93885D01*
Y-92027D01*
X160297Y-90170D01*
X163083Y-91098D02*
X164011Y-90170D01*
X165869D01*
X166797Y-91098D01*
Y-94813D01*
X165869Y-95742D01*
X164011D01*
X163083Y-94813D01*
Y-91098D01*
X168655Y-95742D02*
Y-94813D01*
X169584D01*
Y-95742D01*
X168655D01*
X176084D02*
Y-90170D01*
X173298Y-92956D01*
X177013D01*
X178871Y-91098D02*
X179799Y-90170D01*
X181657D01*
X182585Y-91098D01*
Y-94813D01*
X181657Y-95742D01*
X179799D01*
X178871Y-94813D01*
Y-91098D01*
X188158Y-90170D02*
X186300Y-91098D01*
X184443Y-92956D01*
Y-94813D01*
X185371Y-95742D01*
X187229D01*
X188158Y-94813D01*
Y-93885D01*
X187229Y-92956D01*
X184443D01*
X190015Y-95742D02*
Y-92027D01*
X190944D01*
X191872Y-92956D01*
Y-95742D01*
Y-92956D01*
X192801Y-92027D01*
X193730Y-92956D01*
Y-95742D01*
X195587D02*
Y-92027D01*
X196516D01*
X197445Y-92956D01*
Y-95742D01*
Y-92956D01*
X198373Y-92027D01*
X199302Y-92956D01*
Y-95742D01*
X201159D02*
X203017Y-93885D01*
Y-92027D01*
X201159Y-90170D01*
X112004Y-105034D02*
X112933Y-104105D01*
X114790D01*
X115719Y-105034D01*
Y-105962D01*
X114790Y-106891D01*
X113862D01*
X114790D01*
X115719Y-107820D01*
Y-108748D01*
X114790Y-109677D01*
X112933D01*
X112004Y-108748D01*
X121291Y-104105D02*
X117576D01*
Y-106891D01*
X119434Y-105962D01*
X120362D01*
X121291Y-106891D01*
Y-108748D01*
X120362Y-109677D01*
X118505D01*
X117576Y-108748D01*
X123149Y-109677D02*
Y-108748D01*
X124077D01*
Y-109677D01*
X123149D01*
X130578D02*
Y-104105D01*
X127792Y-106891D01*
X131507D01*
X133364Y-105034D02*
X134293Y-104105D01*
X136150D01*
X137079Y-105034D01*
Y-105962D01*
X136150Y-106891D01*
X135222D01*
X136150D01*
X137079Y-107820D01*
Y-108748D01*
X136150Y-109677D01*
X134293D01*
X133364Y-108748D01*
X138936Y-109677D02*
Y-105962D01*
X139865D01*
X140794Y-106891D01*
Y-109677D01*
Y-106891D01*
X141723Y-105962D01*
X142651Y-106891D01*
Y-109677D01*
X144509D02*
X146366D01*
X145437D01*
Y-105962D01*
X144509D01*
X149152Y-109677D02*
X151010D01*
X150081D01*
Y-104105D01*
X149152D01*
X161225Y-109677D02*
X159368Y-107820D01*
Y-105962D01*
X161225Y-104105D01*
X164011Y-105034D02*
X164940Y-104105D01*
X166797D01*
X167726Y-105034D01*
Y-108748D01*
X166797Y-109677D01*
X164940D01*
X164011Y-108748D01*
Y-105034D01*
X169584Y-109677D02*
Y-108748D01*
X170512D01*
Y-109677D01*
X169584D01*
X174227Y-108748D02*
X175156Y-109677D01*
X177013D01*
X177942Y-108748D01*
Y-105034D01*
X177013Y-104105D01*
X175156D01*
X174227Y-105034D01*
Y-105962D01*
X175156Y-106891D01*
X177942D01*
X179799Y-105034D02*
X180728Y-104105D01*
X182585D01*
X183514Y-105034D01*
Y-108748D01*
X182585Y-109677D01*
X180728D01*
X179799Y-108748D01*
Y-105034D01*
X185371D02*
X186300Y-104105D01*
X188158D01*
X189086Y-105034D01*
Y-108748D01*
X188158Y-109677D01*
X186300D01*
X185371Y-108748D01*
Y-105034D01*
X190944Y-109677D02*
Y-105962D01*
X191872D01*
X192801Y-106891D01*
Y-109677D01*
Y-106891D01*
X193730Y-105962D01*
X194659Y-106891D01*
Y-109677D01*
X196516D02*
Y-105962D01*
X197445D01*
X198373Y-106891D01*
Y-109677D01*
Y-106891D01*
X199302Y-105962D01*
X200231Y-106891D01*
Y-109677D01*
X202088D02*
X203945Y-107820D01*
Y-105962D01*
X202088Y-104105D01*
X112004Y-118968D02*
X112933Y-118040D01*
X114790D01*
X115719Y-118968D01*
Y-119897D01*
X114790Y-120826D01*
X113862D01*
X114790D01*
X115719Y-121755D01*
Y-122683D01*
X114790Y-123612D01*
X112933D01*
X112004Y-122683D01*
X117576D02*
X118505Y-123612D01*
X120362D01*
X121291Y-122683D01*
Y-118968D01*
X120362Y-118040D01*
X118505D01*
X117576Y-118968D01*
Y-119897D01*
X118505Y-120826D01*
X121291D01*
X123149Y-123612D02*
Y-122683D01*
X124077D01*
Y-123612D01*
X123149D01*
X127792Y-118968D02*
X128721Y-118040D01*
X130578D01*
X131507Y-118968D01*
Y-122683D01*
X130578Y-123612D01*
X128721D01*
X127792Y-122683D01*
Y-118968D01*
X137079Y-123612D02*
X133364D01*
X137079Y-119897D01*
Y-118968D01*
X136150Y-118040D01*
X134293D01*
X133364Y-118968D01*
X138936Y-123612D02*
Y-119897D01*
X139865D01*
X140794Y-120826D01*
Y-123612D01*
Y-120826D01*
X141723Y-119897D01*
X142651Y-120826D01*
Y-123612D01*
X144509D02*
X146366D01*
X145437D01*
Y-119897D01*
X144509D01*
X149152Y-123612D02*
X151010D01*
X150081D01*
Y-118040D01*
X149152D01*
X161225Y-123612D02*
X159368Y-121755D01*
Y-119897D01*
X161225Y-118040D01*
X164011Y-118968D02*
X164940Y-118040D01*
X166797D01*
X167726Y-118968D01*
Y-122683D01*
X166797Y-123612D01*
X164940D01*
X164011Y-122683D01*
Y-118968D01*
X169584Y-123612D02*
Y-122683D01*
X170512D01*
Y-123612D01*
X169584D01*
X174227Y-122683D02*
X175156Y-123612D01*
X177013D01*
X177942Y-122683D01*
Y-118968D01*
X177013Y-118040D01*
X175156D01*
X174227Y-118968D01*
Y-119897D01*
X175156Y-120826D01*
X177942D01*
X179799Y-122683D02*
X180728Y-123612D01*
X182585D01*
X183514Y-122683D01*
Y-118968D01*
X182585Y-118040D01*
X180728D01*
X179799Y-118968D01*
Y-119897D01*
X180728Y-120826D01*
X183514D01*
X185371Y-123612D02*
X187229D01*
X186300D01*
Y-118040D01*
X185371Y-118968D01*
X190015Y-123612D02*
Y-119897D01*
X190944D01*
X191872Y-120826D01*
Y-123612D01*
Y-120826D01*
X192801Y-119897D01*
X193730Y-120826D01*
Y-123612D01*
X195587D02*
Y-119897D01*
X196516D01*
X197445Y-120826D01*
Y-123612D01*
Y-120826D01*
X198373Y-119897D01*
X199302Y-120826D01*
Y-123612D01*
X201159D02*
X203017Y-121755D01*
Y-119897D01*
X201159Y-118040D01*
X112004Y-131975D02*
X115719D01*
Y-132904D01*
X112004Y-136618D01*
Y-137547D01*
X117576Y-132904D02*
X118505Y-131975D01*
X120362D01*
X121291Y-132904D01*
Y-136618D01*
X120362Y-137547D01*
X118505D01*
X117576Y-136618D01*
Y-132904D01*
X123149Y-137547D02*
Y-136618D01*
X124077D01*
Y-137547D01*
X123149D01*
X127792Y-132904D02*
X128721Y-131975D01*
X130578D01*
X131507Y-132904D01*
Y-136618D01*
X130578Y-137547D01*
X128721D01*
X127792Y-136618D01*
Y-132904D01*
X133364D02*
X134293Y-131975D01*
X136150D01*
X137079Y-132904D01*
Y-136618D01*
X136150Y-137547D01*
X134293D01*
X133364Y-136618D01*
Y-132904D01*
X138936Y-137547D02*
Y-133832D01*
X139865D01*
X140794Y-134761D01*
Y-137547D01*
Y-134761D01*
X141723Y-133832D01*
X142651Y-134761D01*
Y-137547D01*
X144509D02*
X146366D01*
X145437D01*
Y-133832D01*
X144509D01*
X149152Y-137547D02*
X151010D01*
X150081D01*
Y-131975D01*
X149152D01*
X161225Y-137547D02*
X159368Y-135690D01*
Y-133832D01*
X161225Y-131975D01*
X164011Y-137547D02*
X165869D01*
X164940D01*
Y-131975D01*
X164011Y-132904D01*
X168655Y-137547D02*
Y-136618D01*
X169584D01*
Y-137547D01*
X168655D01*
X173298Y-131975D02*
X177013D01*
Y-132904D01*
X173298Y-136618D01*
Y-137547D01*
X178871Y-131975D02*
X182585D01*
Y-132904D01*
X178871Y-136618D01*
Y-137547D01*
X184443Y-132904D02*
X185371Y-131975D01*
X187229D01*
X188158Y-132904D01*
Y-133832D01*
X187229Y-134761D01*
X188158Y-135690D01*
Y-136618D01*
X187229Y-137547D01*
X185371D01*
X184443Y-136618D01*
Y-135690D01*
X185371Y-134761D01*
X184443Y-133832D01*
Y-132904D01*
X185371Y-134761D02*
X187229D01*
X190015Y-137547D02*
Y-133832D01*
X190944D01*
X191872Y-134761D01*
Y-137547D01*
Y-134761D01*
X192801Y-133832D01*
X193730Y-134761D01*
Y-137547D01*
X195587D02*
Y-133832D01*
X196516D01*
X197445Y-134761D01*
Y-137547D01*
Y-134761D01*
X198373Y-133832D01*
X199302Y-134761D01*
Y-137547D01*
X201159D02*
X203017Y-135690D01*
Y-133832D01*
X201159Y-131975D01*
X57066Y-146838D02*
X57994Y-145910D01*
X59852D01*
X60780Y-146838D01*
Y-147767D01*
X59852Y-148696D01*
X58923D01*
X59852D01*
X60780Y-149625D01*
Y-150553D01*
X59852Y-151482D01*
X57994D01*
X57066Y-150553D01*
X62638D02*
X63566Y-151482D01*
X65424D01*
X66353Y-150553D01*
Y-146838D01*
X65424Y-145910D01*
X63566D01*
X62638Y-146838D01*
Y-147767D01*
X63566Y-148696D01*
X66353D01*
X68210Y-151482D02*
X70067D01*
X69139D01*
Y-145910D01*
X68210Y-146838D01*
X78426Y-145910D02*
X82140D01*
X80283D01*
Y-151482D01*
X84927D02*
X86784D01*
X87713Y-150553D01*
Y-148696D01*
X86784Y-147767D01*
X84927D01*
X83998Y-148696D01*
Y-150553D01*
X84927Y-151482D01*
X90499Y-146838D02*
Y-147767D01*
X89570D01*
X91427D01*
X90499D01*
Y-150553D01*
X91427Y-151482D01*
X95142Y-147767D02*
X97000D01*
X97928Y-148696D01*
Y-151482D01*
X95142D01*
X94214Y-150553D01*
X95142Y-149625D01*
X97928D01*
X99786Y-151482D02*
X101643D01*
X100715D01*
Y-145910D01*
X99786D01*
X57066Y-49294D02*
X57994Y-48365D01*
X59852D01*
X60780Y-49294D01*
Y-50222D01*
X59852Y-51151D01*
X58923D01*
X59852D01*
X60780Y-52080D01*
Y-53008D01*
X59852Y-53937D01*
X57994D01*
X57066Y-53008D01*
Y-63228D02*
X57994Y-62300D01*
X59852D01*
X60780Y-63228D01*
Y-64157D01*
X59852Y-65086D01*
X58923D01*
X59852D01*
X60780Y-66015D01*
Y-66943D01*
X59852Y-67872D01*
X57994D01*
X57066Y-66943D01*
X65424Y-67872D02*
Y-62300D01*
X62638Y-65086D01*
X66353D01*
X68210Y-62300D02*
X71925D01*
Y-63228D01*
X68210Y-66943D01*
Y-67872D01*
X60780Y-81807D02*
X57066D01*
X60780Y-78092D01*
Y-77163D01*
X59852Y-76235D01*
X57994D01*
X57066Y-77163D01*
X66353Y-76235D02*
X62638D01*
Y-79021D01*
X64495Y-78092D01*
X65424D01*
X66353Y-79021D01*
Y-80878D01*
X65424Y-81807D01*
X63566D01*
X62638Y-80878D01*
X57066Y-91098D02*
X57994Y-90170D01*
X59852D01*
X60780Y-91098D01*
Y-92027D01*
X59852Y-92956D01*
X60780Y-93885D01*
Y-94813D01*
X59852Y-95742D01*
X57994D01*
X57066Y-94813D01*
Y-93885D01*
X57994Y-92956D01*
X57066Y-92027D01*
Y-91098D01*
X57994Y-92956D02*
X59852D01*
X60780Y-109677D02*
X57066D01*
X60780Y-105962D01*
Y-105034D01*
X59852Y-104105D01*
X57994D01*
X57066Y-105034D01*
Y-118968D02*
X57994Y-118040D01*
X59852D01*
X60780Y-118968D01*
Y-119897D01*
X59852Y-120826D01*
X58923D01*
X59852D01*
X60780Y-121755D01*
Y-122683D01*
X59852Y-123612D01*
X57994D01*
X57066Y-122683D01*
Y-132904D02*
X57994Y-131975D01*
X59852D01*
X60780Y-132904D01*
Y-133832D01*
X59852Y-134761D01*
X58923D01*
X59852D01*
X60780Y-135690D01*
Y-136618D01*
X59852Y-137547D01*
X57994D01*
X57066Y-136618D01*
D139*
X1481Y-44183D02*
X316554D01*
X1481Y-141727D02*
X316554D01*
X1481Y-155663D02*
X316554D01*
Y-30248D01*
X1481D02*
X316554D01*
X1481Y-155663D02*
Y-30248D01*
X257349Y-155663D02*
Y-30248D01*
X210126Y-155663D02*
Y-30248D01*
X107824Y-155663D02*
Y-30248D01*
X52885Y-155663D02*
Y-30248D01*
D142*
X261530Y-33315D02*
Y-37773D01*
X263758Y-40002D01*
X265987Y-37773D01*
Y-33315D01*
X268216Y-40002D02*
X270445D01*
X269331D01*
Y-35544D01*
X268216D01*
X274903D02*
X277132D01*
X278246Y-36659D01*
Y-40002D01*
X274903D01*
X273788Y-38888D01*
X274903Y-37773D01*
X278246D01*
X280475Y-40002D02*
X284933Y-35544D01*
X287162Y-40002D02*
Y-33315D01*
X290505D01*
X291619Y-34430D01*
Y-36659D01*
X290505Y-37773D01*
X287162D01*
X294963Y-35544D02*
X297192D01*
X298306Y-36659D01*
Y-40002D01*
X294963D01*
X293848Y-38888D01*
X294963Y-37773D01*
X298306D01*
X304993Y-33315D02*
Y-40002D01*
X301649D01*
X300535Y-38888D01*
Y-36659D01*
X301649Y-35544D01*
X304993D01*
X214306Y-40002D02*
Y-33315D01*
X217650D01*
X218764Y-34430D01*
Y-36659D01*
X217650Y-37773D01*
X214306D01*
X220993Y-40002D02*
X223222D01*
X222108D01*
Y-33315D01*
X220993D01*
X227680Y-35544D02*
X229909D01*
X231023Y-36659D01*
Y-40002D01*
X227680D01*
X226565Y-38888D01*
X227680Y-37773D01*
X231023D01*
X234366Y-34430D02*
Y-35544D01*
X233252D01*
X235481D01*
X234366D01*
Y-38888D01*
X235481Y-40002D01*
X242167D02*
X239939D01*
X238824Y-38888D01*
Y-36659D01*
X239939Y-35544D01*
X242167D01*
X243282Y-36659D01*
Y-37773D01*
X238824D01*
X249969Y-33315D02*
Y-40002D01*
X246625D01*
X245511Y-38888D01*
Y-36659D01*
X246625Y-35544D01*
X249969D01*
X112004Y-33315D02*
Y-40002D01*
Y-36659D01*
X116462D01*
Y-33315D01*
Y-40002D01*
X119805D02*
X122034D01*
X123149Y-38888D01*
Y-36659D01*
X122034Y-35544D01*
X119805D01*
X118691Y-36659D01*
Y-38888D01*
X119805Y-40002D01*
X125378D02*
X127606D01*
X126492D01*
Y-33315D01*
X125378D01*
X134293Y-40002D02*
X132064D01*
X130950Y-38888D01*
Y-36659D01*
X132064Y-35544D01*
X134293D01*
X135407Y-36659D01*
Y-37773D01*
X130950D01*
X148781Y-34430D02*
X147666Y-33315D01*
X145437D01*
X144323Y-34430D01*
Y-35544D01*
X145437Y-36659D01*
X147666D01*
X148781Y-37773D01*
Y-38888D01*
X147666Y-40002D01*
X145437D01*
X144323Y-38888D01*
X151010Y-40002D02*
X153238D01*
X152124D01*
Y-35544D01*
X151010D01*
X156582D02*
X161040D01*
X156582Y-40002D01*
X161040D01*
X166612D02*
X164383D01*
X163268Y-38888D01*
Y-36659D01*
X164383Y-35544D01*
X166612D01*
X167726Y-36659D01*
Y-37773D01*
X163268D01*
X61523Y-34430D02*
X60409Y-33315D01*
X58180D01*
X57066Y-34430D01*
Y-38888D01*
X58180Y-40002D01*
X60409D01*
X61523Y-38888D01*
X64867Y-40002D02*
X67096D01*
X68210Y-38888D01*
Y-36659D01*
X67096Y-35544D01*
X64867D01*
X63752Y-36659D01*
Y-38888D01*
X64867Y-40002D01*
X70439Y-35544D02*
Y-38888D01*
X71553Y-40002D01*
X74897D01*
Y-35544D01*
X77126Y-40002D02*
Y-35544D01*
X80469D01*
X81583Y-36659D01*
Y-40002D01*
X84927Y-34430D02*
Y-35544D01*
X83812D01*
X86041D01*
X84927D01*
Y-38888D01*
X86041Y-40002D01*
X14300Y-34430D02*
X13186Y-33315D01*
X10957D01*
X9843Y-34430D01*
Y-35544D01*
X10957Y-36659D01*
X13186D01*
X14300Y-37773D01*
Y-38888D01*
X13186Y-40002D01*
X10957D01*
X9843Y-38888D01*
X16529Y-35544D02*
Y-38888D01*
X17644Y-40002D01*
X20987D01*
Y-41116D01*
X19873Y-42231D01*
X18758D01*
X20987Y-40002D02*
Y-35544D01*
X23216Y-40002D02*
Y-35544D01*
X24330D01*
X25445Y-36659D01*
Y-40002D01*
Y-36659D01*
X26559Y-35544D01*
X27674Y-36659D01*
Y-40002D01*
X29902Y-33315D02*
Y-40002D01*
X33246D01*
X34360Y-38888D01*
Y-37773D01*
Y-36659D01*
X33246Y-35544D01*
X29902D01*
X37703Y-40002D02*
X39932D01*
X41047Y-38888D01*
Y-36659D01*
X39932Y-35544D01*
X37703D01*
X36589Y-36659D01*
Y-38888D01*
X37703Y-40002D01*
X43276D02*
X45505D01*
X44390D01*
Y-33315D01*
X43276D01*
D178*
X47181Y94488D02*
G03*
X47181Y94488I-1000J0D01*
G01*
X57181D02*
G03*
X57181Y94488I-1000J0D01*
G01*
X151766Y28343D02*
X152766Y28843D01*
X153766Y28343D01*
X153266Y29343D02*
X153766Y28343D01*
X153266Y29343D02*
X153766Y30343D01*
X152766Y29843D02*
X153766Y30343D01*
X151766D02*
X152766Y29843D01*
X151766Y30343D02*
X152266Y29343D01*
X151766Y28343D02*
X152266Y29343D01*
X151766Y32280D02*
X152766Y32780D01*
X153766Y32280D01*
X153266Y33280D02*
X153766Y32280D01*
X153266Y33280D02*
X153766Y34280D01*
X152766Y33780D02*
X153766Y34280D01*
X151766D02*
X152766Y33780D01*
X151766Y34280D02*
X152266Y33280D01*
X151766Y32280D02*
X152266Y33280D01*
X189374Y29462D02*
X189874Y28962D01*
X188874Y29462D02*
X189374D01*
X188874D02*
X189374Y29962D01*
X188874Y30462D02*
X189374Y29962D01*
X188874Y30462D02*
X189374D01*
X189874Y30962D01*
X190375Y30462D01*
X190875D01*
X190375Y29962D02*
X190875Y30462D01*
X190375Y29962D02*
X190875Y29462D01*
X190375D02*
X190875D01*
X189874Y28962D02*
X190375Y29462D01*
X189374Y25525D02*
X189874Y25025D01*
X188874Y25525D02*
X189374D01*
X188874D02*
X189374Y26025D01*
X188874Y26525D02*
X189374Y26025D01*
X188874Y26525D02*
X189374D01*
X189874Y27025D01*
X190375Y26525D01*
X190875D01*
X190375Y26025D02*
X190875Y26525D01*
X190375Y26025D02*
X190875Y25525D01*
X190375D02*
X190875D01*
X189874Y25025D02*
X190375Y25525D01*
X185437Y29462D02*
X185937Y28962D01*
X184937Y29462D02*
X185437D01*
X184937D02*
X185437Y29962D01*
X184937Y30462D02*
X185437Y29962D01*
X184937Y30462D02*
X185437D01*
X185937Y30962D01*
X186437Y30462D01*
X186937D01*
X186437Y29962D02*
X186937Y30462D01*
X186437Y29962D02*
X186937Y29462D01*
X186437D02*
X186937D01*
X185937Y28962D02*
X186437Y29462D01*
X185437Y25525D02*
X185937Y25025D01*
X184937Y25525D02*
X185437D01*
X184937D02*
X185437Y26025D01*
X184937Y26525D02*
X185437Y26025D01*
X184937Y26525D02*
X185437D01*
X185937Y27025D01*
X186437Y26525D01*
X186937D01*
X186437Y26025D02*
X186937Y26525D01*
X186437Y26025D02*
X186937Y25525D01*
X186437D02*
X186937D01*
X185937Y25025D02*
X186437Y25525D01*
X181500Y29462D02*
X182000Y28962D01*
X181000Y29462D02*
X181500D01*
X181000D02*
X181500Y29962D01*
X181000Y30462D02*
X181500Y29962D01*
X181000Y30462D02*
X181500D01*
X182000Y30962D01*
X182500Y30462D01*
X183000D01*
X182500Y29962D02*
X183000Y30462D01*
X182500Y29962D02*
X183000Y29462D01*
X182500D02*
X183000D01*
X182000Y28962D02*
X182500Y29462D01*
X181500Y25525D02*
X182000Y25025D01*
X181000Y25525D02*
X181500D01*
X181000D02*
X181500Y26025D01*
X181000Y26525D02*
X181500Y26025D01*
X181000Y26525D02*
X181500D01*
X182000Y27025D01*
X182500Y26525D01*
X183000D01*
X182500Y26025D02*
X183000Y26525D01*
X182500Y26025D02*
X183000Y25525D01*
X182500D02*
X183000D01*
X182000Y25025D02*
X182500Y25525D01*
X163459Y10728D02*
X164459Y11228D01*
X165459Y10728D01*
X164959Y11728D02*
X165459Y10728D01*
X164959Y11728D02*
X165459Y12728D01*
X164459Y12228D02*
X165459Y12728D01*
X163459D02*
X164459Y12228D01*
X163459Y12728D02*
X163959Y11728D01*
X163459Y10728D02*
X163959Y11728D01*
X27856Y62786D02*
X28356Y62286D01*
X27356Y62786D02*
X27856D01*
X27356D02*
X27856Y63286D01*
X27356Y63786D02*
X27856Y63286D01*
X27356Y63786D02*
X27856D01*
X28356Y64286D01*
X28856Y63786D01*
X29356D01*
X28856Y63286D02*
X29356Y63786D01*
X28856Y63286D02*
X29356Y62786D01*
X28856D02*
X29356D01*
X28356Y62286D02*
X28856Y62786D01*
X252369Y26880D02*
X252869Y26379D01*
X251869Y26880D02*
X252369D01*
X251869D02*
X252369Y27380D01*
X251869Y27880D02*
X252369Y27380D01*
X251869Y27880D02*
X252369D01*
X252869Y28379D01*
X253369Y27880D01*
X253869D01*
X253369Y27380D02*
X253869Y27880D01*
X253369Y27380D02*
X253869Y26880D01*
X253369D02*
X253869D01*
X252869Y26379D02*
X253369Y26880D01*
X256306D02*
X256806Y26379D01*
X255806Y26880D02*
X256306D01*
X255806D02*
X256306Y27380D01*
X255806Y27880D02*
X256306Y27380D01*
X255806Y27880D02*
X256306D01*
X256806Y28379D01*
X257306Y27880D01*
X257806D01*
X257306Y27380D02*
X257806Y27880D01*
X257306Y27380D02*
X257806Y26880D01*
X257306D02*
X257806D01*
X256806Y26379D02*
X257306Y26880D01*
X260243D02*
X260743Y26379D01*
X259743Y26880D02*
X260243D01*
X259743D02*
X260243Y27380D01*
X259743Y27880D02*
X260243Y27380D01*
X259743Y27880D02*
X260243D01*
X260743Y28379D01*
X261243Y27880D01*
X261743D01*
X261243Y27380D02*
X261743Y27880D01*
X261243Y27380D02*
X261743Y26880D01*
X261243D02*
X261743D01*
X260743Y26379D02*
X261243Y26880D01*
X264180D02*
X264680Y26379D01*
X263680Y26880D02*
X264180D01*
X263680D02*
X264180Y27380D01*
X263680Y27880D02*
X264180Y27380D01*
X263680Y27880D02*
X264180D01*
X264680Y28379D01*
X265180Y27880D01*
X265680D01*
X265180Y27380D02*
X265680Y27880D01*
X265180Y27380D02*
X265680Y26880D01*
X265180D02*
X265680D01*
X264680Y26379D02*
X265180Y26880D01*
X268117D02*
X268618Y26379D01*
X267618Y26880D02*
X268117D01*
X267618D02*
X268117Y27380D01*
X267618Y27880D02*
X268117Y27380D01*
X267618Y27880D02*
X268117D01*
X268618Y28379D01*
X269117Y27880D01*
X269618D01*
X269117Y27380D02*
X269618Y27880D01*
X269117Y27380D02*
X269618Y26880D01*
X269117D02*
X269618D01*
X268618Y26379D02*
X269117Y26880D01*
X252369Y22942D02*
X252869Y22443D01*
X251869Y22942D02*
X252369D01*
X251869D02*
X252369Y23442D01*
X251869Y23943D02*
X252369Y23442D01*
X251869Y23943D02*
X252369D01*
X252869Y24442D01*
X253369Y23943D01*
X253869D01*
X253369Y23442D02*
X253869Y23943D01*
X253369Y23442D02*
X253869Y22942D01*
X253369D02*
X253869D01*
X252869Y22443D02*
X253369Y22942D01*
X256306D02*
X256806Y22443D01*
X255806Y22942D02*
X256306D01*
X255806D02*
X256306Y23442D01*
X255806Y23943D02*
X256306Y23442D01*
X255806Y23943D02*
X256306D01*
X256806Y24442D01*
X257306Y23943D01*
X257806D01*
X257306Y23442D02*
X257806Y23943D01*
X257306Y23442D02*
X257806Y22942D01*
X257306D02*
X257806D01*
X256806Y22443D02*
X257306Y22942D01*
X260243D02*
X260743Y22443D01*
X259743Y22942D02*
X260243D01*
X259743D02*
X260243Y23442D01*
X259743Y23943D02*
X260243Y23442D01*
X259743Y23943D02*
X260243D01*
X260743Y24442D01*
X261243Y23943D01*
X261743D01*
X261243Y23442D02*
X261743Y23943D01*
X261243Y23442D02*
X261743Y22942D01*
X261243D02*
X261743D01*
X260743Y22443D02*
X261243Y22942D01*
X264180D02*
X264680Y22443D01*
X263680Y22942D02*
X264180D01*
X263680D02*
X264180Y23442D01*
X263680Y23943D02*
X264180Y23442D01*
X263680Y23943D02*
X264180D01*
X264680Y24442D01*
X265180Y23943D01*
X265680D01*
X265180Y23442D02*
X265680Y23943D01*
X265180Y23442D02*
X265680Y22942D01*
X265180D02*
X265680D01*
X264680Y22443D02*
X265180Y22942D01*
X268117D02*
X268618Y22443D01*
X267618Y22942D02*
X268117D01*
X267618D02*
X268117Y23442D01*
X267618Y23943D02*
X268117Y23442D01*
X267618Y23943D02*
X268117D01*
X268618Y24442D01*
X269117Y23943D01*
X269618D01*
X269117Y23442D02*
X269618Y23943D01*
X269117Y23442D02*
X269618Y22942D01*
X269117D02*
X269618D01*
X268618Y22443D02*
X269117Y22942D01*
X252369Y19005D02*
X252869Y18506D01*
X251869Y19005D02*
X252369D01*
X251869D02*
X252369Y19505D01*
X251869Y20006D02*
X252369Y19505D01*
X251869Y20006D02*
X252369D01*
X252869Y20505D01*
X253369Y20006D01*
X253869D01*
X253369Y19505D02*
X253869Y20006D01*
X253369Y19505D02*
X253869Y19005D01*
X253369D02*
X253869D01*
X252869Y18506D02*
X253369Y19005D01*
X256306D02*
X256806Y18506D01*
X255806Y19005D02*
X256306D01*
X255806D02*
X256306Y19505D01*
X255806Y20006D02*
X256306Y19505D01*
X255806Y20006D02*
X256306D01*
X256806Y20505D01*
X257306Y20006D01*
X257806D01*
X257306Y19505D02*
X257806Y20006D01*
X257306Y19505D02*
X257806Y19005D01*
X257306D02*
X257806D01*
X256806Y18506D02*
X257306Y19005D01*
X260243D02*
X260743Y18506D01*
X259743Y19005D02*
X260243D01*
X259743D02*
X260243Y19505D01*
X259743Y20006D02*
X260243Y19505D01*
X259743Y20006D02*
X260243D01*
X260743Y20505D01*
X261243Y20006D01*
X261743D01*
X261243Y19505D02*
X261743Y20006D01*
X261243Y19505D02*
X261743Y19005D01*
X261243D02*
X261743D01*
X260743Y18506D02*
X261243Y19005D01*
X264180D02*
X264680Y18506D01*
X263680Y19005D02*
X264180D01*
X263680D02*
X264180Y19505D01*
X263680Y20006D02*
X264180Y19505D01*
X263680Y20006D02*
X264180D01*
X264680Y20505D01*
X265180Y20006D01*
X265680D01*
X265180Y19505D02*
X265680Y20006D01*
X265180Y19505D02*
X265680Y19005D01*
X265180D02*
X265680D01*
X264680Y18506D02*
X265180Y19005D01*
X268117D02*
X268618Y18506D01*
X267618Y19005D02*
X268117D01*
X267618D02*
X268117Y19505D01*
X267618Y20006D02*
X268117Y19505D01*
X267618Y20006D02*
X268117D01*
X268618Y20505D01*
X269117Y20006D01*
X269618D01*
X269117Y19505D02*
X269618Y20006D01*
X269117Y19505D02*
X269618Y19005D01*
X269117D02*
X269618D01*
X268618Y18506D02*
X269117Y19005D01*
X252369Y15068D02*
X252869Y14569D01*
X251869Y15068D02*
X252369D01*
X251869D02*
X252369Y15568D01*
X251869Y16069D02*
X252369Y15568D01*
X251869Y16069D02*
X252369D01*
X252869Y16568D01*
X253369Y16069D01*
X253869D01*
X253369Y15568D02*
X253869Y16069D01*
X253369Y15568D02*
X253869Y15068D01*
X253369D02*
X253869D01*
X252869Y14569D02*
X253369Y15068D01*
X256306D02*
X256806Y14569D01*
X255806Y15068D02*
X256306D01*
X255806D02*
X256306Y15568D01*
X255806Y16069D02*
X256306Y15568D01*
X255806Y16069D02*
X256306D01*
X256806Y16568D01*
X257306Y16069D01*
X257806D01*
X257306Y15568D02*
X257806Y16069D01*
X257306Y15568D02*
X257806Y15068D01*
X257306D02*
X257806D01*
X256806Y14569D02*
X257306Y15068D01*
X260243D02*
X260743Y14569D01*
X259743Y15068D02*
X260243D01*
X259743D02*
X260243Y15568D01*
X259743Y16069D02*
X260243Y15568D01*
X259743Y16069D02*
X260243D01*
X260743Y16568D01*
X261243Y16069D01*
X261743D01*
X261243Y15568D02*
X261743Y16069D01*
X261243Y15568D02*
X261743Y15068D01*
X261243D02*
X261743D01*
X260743Y14569D02*
X261243Y15068D01*
X264180D02*
X264680Y14569D01*
X263680Y15068D02*
X264180D01*
X263680D02*
X264180Y15568D01*
X263680Y16069D02*
X264180Y15568D01*
X263680Y16069D02*
X264180D01*
X264680Y16568D01*
X265180Y16069D01*
X265680D01*
X265180Y15568D02*
X265680Y16069D01*
X265180Y15568D02*
X265680Y15068D01*
X265180D02*
X265680D01*
X264680Y14569D02*
X265180Y15068D01*
X268117D02*
X268618Y14569D01*
X267618Y15068D02*
X268117D01*
X267618D02*
X268117Y15568D01*
X267618Y16069D02*
X268117Y15568D01*
X267618Y16069D02*
X268117D01*
X268618Y16568D01*
X269117Y16069D01*
X269618D01*
X269117Y15568D02*
X269618Y16069D01*
X269117Y15568D02*
X269618Y15068D01*
X269117D02*
X269618D01*
X268618Y14569D02*
X269117Y15068D01*
X252369Y11131D02*
X252869Y10632D01*
X251869Y11131D02*
X252369D01*
X251869D02*
X252369Y11631D01*
X251869Y12132D02*
X252369Y11631D01*
X251869Y12132D02*
X252369D01*
X252869Y12631D01*
X253369Y12132D01*
X253869D01*
X253369Y11631D02*
X253869Y12132D01*
X253369Y11631D02*
X253869Y11131D01*
X253369D02*
X253869D01*
X252869Y10632D02*
X253369Y11131D01*
X256306D02*
X256806Y10632D01*
X255806Y11131D02*
X256306D01*
X255806D02*
X256306Y11631D01*
X255806Y12132D02*
X256306Y11631D01*
X255806Y12132D02*
X256306D01*
X256806Y12631D01*
X257306Y12132D01*
X257806D01*
X257306Y11631D02*
X257806Y12132D01*
X257306Y11631D02*
X257806Y11131D01*
X257306D02*
X257806D01*
X256806Y10632D02*
X257306Y11131D01*
X260243D02*
X260743Y10632D01*
X259743Y11131D02*
X260243D01*
X259743D02*
X260243Y11631D01*
X259743Y12132D02*
X260243Y11631D01*
X259743Y12132D02*
X260243D01*
X260743Y12631D01*
X261243Y12132D01*
X261743D01*
X261243Y11631D02*
X261743Y12132D01*
X261243Y11631D02*
X261743Y11131D01*
X261243D02*
X261743D01*
X260743Y10632D02*
X261243Y11131D01*
X264180D02*
X264680Y10632D01*
X263680Y11131D02*
X264180D01*
X263680D02*
X264180Y11631D01*
X263680Y12132D02*
X264180Y11631D01*
X263680Y12132D02*
X264180D01*
X264680Y12631D01*
X265180Y12132D01*
X265680D01*
X265180Y11631D02*
X265680Y12132D01*
X265180Y11631D02*
X265680Y11131D01*
X265180D02*
X265680D01*
X264680Y10632D02*
X265180Y11131D01*
X268117D02*
X268618Y10632D01*
X267618Y11131D02*
X268117D01*
X267618D02*
X268117Y11631D01*
X267618Y12132D02*
X268117Y11631D01*
X267618Y12132D02*
X268117D01*
X268618Y12631D01*
X269117Y12132D01*
X269618D01*
X269117Y11631D02*
X269618Y12132D01*
X269117Y11631D02*
X269618Y11131D01*
X269117D02*
X269618D01*
X268618Y10632D02*
X269117Y11131D01*
X434039Y65929D02*
Y66429D01*
X434539Y66929D01*
X434039Y67429D02*
X434539Y66929D01*
X434039Y67429D02*
Y67929D01*
X434539D01*
X435039Y67429D01*
X435539Y67929D01*
X436039D01*
Y67429D02*
Y67929D01*
X435539Y66929D02*
X436039Y67429D01*
X435539Y66929D02*
X436039Y66429D01*
Y65929D02*
Y66429D01*
X435539Y65929D02*
X436039D01*
X435039Y66429D02*
X435539Y65929D01*
X434539D02*
X435039Y66429D01*
X434039Y65929D02*
X434539D01*
X422228Y18685D02*
Y19185D01*
X422728Y19685D01*
X422228Y20185D02*
X422728Y19685D01*
X422228Y20185D02*
Y20685D01*
X422728D01*
X423228Y20185D01*
X423728Y20685D01*
X424228D01*
Y20185D02*
Y20685D01*
X423728Y19685D02*
X424228Y20185D01*
X423728Y19685D02*
X424228Y19185D01*
Y18685D02*
Y19185D01*
X423728Y18685D02*
X424228D01*
X423228Y19185D02*
X423728Y18685D01*
X422728D02*
X423228Y19185D01*
X422228Y18685D02*
X422728D01*
X362676Y104791D02*
X363176Y104291D01*
X362176Y104791D02*
X362676D01*
X362176D02*
X362676Y105291D01*
X362176Y105791D02*
X362676Y105291D01*
X362176Y105791D02*
X362676D01*
X363176Y106291D01*
X363676Y105791D01*
X364176D01*
X363676Y105291D02*
X364176Y105791D01*
X363676Y105291D02*
X364176Y104791D01*
X363676D02*
X364176D01*
X363176Y104291D02*
X363676Y104791D01*
X356587Y55209D02*
X357087Y54709D01*
X356087Y55209D02*
X356587D01*
X356087D02*
X356587Y55709D01*
X356087Y56209D02*
X356587Y55709D01*
X356087Y56209D02*
X356587D01*
X357087Y56709D01*
X357587Y56209D01*
X358087D01*
X357587Y55709D02*
X358087Y56209D01*
X357587Y55709D02*
X358087Y55209D01*
X357587D02*
X358087D01*
X357087Y54709D02*
X357587Y55209D01*
X363673Y59539D02*
X364173Y59039D01*
X363173Y59539D02*
X363673D01*
X363173D02*
X363673Y60039D01*
X363173Y60539D02*
X363673Y60039D01*
X363173Y60539D02*
X363673D01*
X364173Y61039D01*
X364673Y60539D01*
X365173D01*
X364673Y60039D02*
X365173Y60539D01*
X364673Y60039D02*
X365173Y59539D01*
X364673D02*
X365173D01*
X364173Y59039D02*
X364673Y59539D01*
X307374Y32965D02*
X307874Y32465D01*
X306874Y32965D02*
X307374D01*
X306874D02*
X307374Y33465D01*
X306874Y33965D02*
X307374Y33465D01*
X306874Y33965D02*
X307374D01*
X307874Y34465D01*
X308374Y33965D01*
X308874D01*
X308374Y33465D02*
X308874Y33965D01*
X308374Y33465D02*
X308874Y32965D01*
X308374D02*
X308874D01*
X307874Y32465D02*
X308374Y32965D01*
X242774Y56200D02*
X243274Y55700D01*
X242274Y56200D02*
X242774D01*
X242274D02*
X242774Y56700D01*
X242274Y57200D02*
X242774Y56700D01*
X242274Y57200D02*
X242774D01*
X243274Y57700D01*
X243774Y57200D01*
X244274D01*
X243774Y56700D02*
X244274Y57200D01*
X243774Y56700D02*
X244274Y56200D01*
X243774D02*
X244274D01*
X243274Y55700D02*
X243774Y56200D01*
X218791Y15642D02*
X219291Y15142D01*
X218291Y15642D02*
X218791D01*
X218291D02*
X218791Y16142D01*
X218291Y16642D02*
X218791Y16142D01*
X218291Y16642D02*
X218791D01*
X219291Y17142D01*
X219791Y16642D01*
X220291D01*
X219791Y16142D02*
X220291Y16642D01*
X219791Y16142D02*
X220291Y15642D01*
X219791D02*
X220291D01*
X219291Y15142D02*
X219791Y15642D01*
X225091Y23910D02*
X225591Y23410D01*
X224591Y23910D02*
X225091D01*
X224591D02*
X225091Y24409D01*
X224591Y24909D02*
X225091Y24409D01*
X224591Y24909D02*
X225091D01*
X225591Y25409D01*
X226091Y24909D01*
X226591D01*
X226091Y24409D02*
X226591Y24909D01*
X226091Y24409D02*
X226591Y23910D01*
X226091D02*
X226591D01*
X225591Y23410D02*
X226091Y23910D01*
X234539Y8949D02*
X235039Y8449D01*
X234039Y8949D02*
X234539D01*
X234039D02*
X234539Y9449D01*
X234039Y9949D02*
X234539Y9449D01*
X234039Y9949D02*
X234539D01*
X235039Y10449D01*
X235539Y9949D01*
X236039D01*
X235539Y9449D02*
X236039Y9949D01*
X235539Y9449D02*
X236039Y8949D01*
X235539D02*
X236039D01*
X235039Y8449D02*
X235539Y8949D01*
X202650Y55799D02*
X203150Y55299D01*
X202150Y55799D02*
X202650D01*
X202150D02*
X202650Y56299D01*
X202150Y56799D02*
X202650Y56299D01*
X202150Y56799D02*
X202650D01*
X203150Y57299D01*
X203650Y56799D01*
X204150D01*
X203650Y56299D02*
X204150Y56799D01*
X203650Y56299D02*
X204150Y55799D01*
X203650D02*
X204150D01*
X203150Y55299D02*
X203650Y55799D01*
X66035Y48319D02*
X66535Y47819D01*
X65535Y48319D02*
X66035D01*
X65535D02*
X66035Y48819D01*
X65535Y49319D02*
X66035Y48819D01*
X65535Y49319D02*
X66035D01*
X66535Y49819D01*
X67035Y49319D01*
X67535D01*
X67035Y48819D02*
X67535Y49319D01*
X67035Y48819D02*
X67535Y48319D01*
X67035D02*
X67535D01*
X66535Y47819D02*
X67035Y48319D01*
X25530Y47925D02*
X26030Y47425D01*
X25030Y47925D02*
X25530D01*
X25030D02*
X25530Y48425D01*
X25030Y48925D02*
X25530Y48425D01*
X25030Y48925D02*
X25530D01*
X26030Y49425D01*
X26530Y48925D01*
X27030D01*
X26530Y48425D02*
X27030Y48925D01*
X26530Y48425D02*
X27030Y47925D01*
X26530D02*
X27030D01*
X26030Y47425D02*
X26530Y47925D01*
X33574Y24688D02*
X34074Y24188D01*
X33074Y24688D02*
X33574D01*
X33074D02*
X33574Y25188D01*
X33074Y25688D02*
X33574Y25188D01*
X33074Y25688D02*
X33574D01*
X34074Y26188D01*
X34574Y25688D01*
X35074D01*
X34574Y25188D02*
X35074Y25688D01*
X34574Y25188D02*
X35074Y24688D01*
X34574D02*
X35074D01*
X34074Y24188D02*
X34574Y24688D01*
X351075Y37295D02*
X351575Y36795D01*
X350575Y37295D02*
X351075D01*
X350575D02*
X351075Y37795D01*
X350575Y38295D02*
X351075Y37795D01*
X350575Y38295D02*
X351075D01*
X351575Y38795D01*
X352075Y38295D01*
X352575D01*
X352075Y37795D02*
X352575Y38295D01*
X352075Y37795D02*
X352575Y37295D01*
X352075D02*
X352575D01*
X351575Y36795D02*
X352075Y37295D01*
X307374Y29059D02*
X307874Y28559D01*
X306874Y29059D02*
X307374D01*
X306874D02*
X307374Y29559D01*
X306874Y30059D02*
X307374Y29559D01*
X306874Y30059D02*
X307374D01*
X307874Y30559D01*
X308374Y30059D01*
X308874D01*
X308374Y29559D02*
X308874Y30059D01*
X308374Y29559D02*
X308874Y29059D01*
X308374D02*
X308874D01*
X307874Y28559D02*
X308374Y29059D01*
X306587Y25091D02*
X307087Y24590D01*
X306087Y25091D02*
X306587D01*
X306087D02*
X306587Y25591D01*
X306087Y26091D02*
X306587Y25591D01*
X306087Y26091D02*
X306587D01*
X307087Y26591D01*
X307587Y26091D01*
X308087D01*
X307587Y25591D02*
X308087Y26091D01*
X307587Y25591D02*
X308087Y25091D01*
X307587D02*
X308087D01*
X307087Y24590D02*
X307587Y25091D01*
X322322Y3370D02*
X322822Y2870D01*
X321822Y3370D02*
X322322D01*
X321822D02*
X322322Y3870D01*
X321822Y4370D02*
X322322Y3870D01*
X321822Y4370D02*
X322322D01*
X322822Y4870D01*
X323322Y4370D01*
X323822D01*
X323322Y3870D02*
X323822Y4370D01*
X323322Y3870D02*
X323822Y3370D01*
X323322D02*
X323822D01*
X322822Y2870D02*
X323322Y3370D01*
X297532Y30959D02*
X298031Y30459D01*
X297031Y30959D02*
X297532D01*
X297031D02*
X297532Y31459D01*
X297031Y31959D02*
X297532Y31459D01*
X297031Y31959D02*
X297532D01*
X298031Y32459D01*
X298532Y31959D01*
X299031D01*
X298532Y31459D02*
X299031Y31959D01*
X298532Y31459D02*
X299031Y30959D01*
X298532D02*
X299031D01*
X298031Y30459D02*
X298532Y30959D01*
X298713Y11311D02*
X299213Y10811D01*
X298213Y11311D02*
X298713D01*
X298213D02*
X298713Y11811D01*
X298213Y12311D02*
X298713Y11811D01*
X298213Y12311D02*
X298713D01*
X299213Y12811D01*
X299713Y12311D01*
X300213D01*
X299713Y11811D02*
X300213Y12311D01*
X299713Y11811D02*
X300213Y11311D01*
X299713D02*
X300213D01*
X299213Y10811D02*
X299713Y11311D01*
X266155Y51191D02*
X266655Y50691D01*
X265655Y51191D02*
X266155D01*
X265655D02*
X266155Y51691D01*
X265655Y52191D02*
X266155Y51691D01*
X265655Y52191D02*
X266155D01*
X266655Y52691D01*
X267155Y52191D01*
X267655D01*
X267155Y51691D02*
X267655Y52191D01*
X267155Y51691D02*
X267655Y51191D01*
X267155D02*
X267655D01*
X266655Y50691D02*
X267155Y51191D01*
X266429Y45957D02*
X266929Y45457D01*
X265929Y45957D02*
X266429D01*
X265929D02*
X266429Y46457D01*
X265929Y46957D02*
X266429Y46457D01*
X265929Y46957D02*
X266429D01*
X266929Y47457D01*
X267429Y46957D01*
X267929D01*
X267429Y46457D02*
X267929Y46957D01*
X267429Y46457D02*
X267929Y45957D01*
X267429D02*
X267929D01*
X266929Y45457D02*
X267429Y45957D01*
X242020Y14854D02*
X242520Y14354D01*
X241520Y14854D02*
X242020D01*
X241520D02*
X242020Y15354D01*
X241520Y15854D02*
X242020Y15354D01*
X241520Y15854D02*
X242020D01*
X242520Y16354D01*
X243020Y15854D01*
X243520D01*
X243020Y15354D02*
X243520Y15854D01*
X243020Y15354D02*
X243520Y14854D01*
X243020D02*
X243520D01*
X242520Y14354D02*
X243020Y14854D01*
X241442Y1894D02*
X241942Y1394D01*
X240942Y1894D02*
X241442D01*
X240942D02*
X241442Y2394D01*
X240942Y2894D02*
X241442Y2394D01*
X240942Y2894D02*
X241442D01*
X241942Y3394D01*
X242442Y2894D01*
X242942D01*
X242442Y2394D02*
X242942Y2894D01*
X242442Y2394D02*
X242942Y1894D01*
X242442D02*
X242942D01*
X241942Y1394D02*
X242442Y1894D01*
X226272Y52650D02*
X226772Y52150D01*
X225772Y52650D02*
X226272D01*
X225772D02*
X226272Y53150D01*
X225772Y53650D02*
X226272Y53150D01*
X225772Y53650D02*
X226272D01*
X226772Y54150D01*
X227272Y53650D01*
X227772D01*
X227272Y53150D02*
X227772Y53650D01*
X227272Y53150D02*
X227772Y52650D01*
X227272D02*
X227772D01*
X226772Y52150D02*
X227272Y52650D01*
X225484Y28634D02*
X225984Y28134D01*
X224984Y28634D02*
X225484D01*
X224984D02*
X225484Y29134D01*
X224984Y29634D02*
X225484Y29134D01*
X224984Y29634D02*
X225484D01*
X225984Y30134D01*
X226484Y29634D01*
X226984D01*
X226484Y29134D02*
X226984Y29634D01*
X226484Y29134D02*
X226984Y28634D01*
X226484D02*
X226984D01*
X225984Y28134D02*
X226484Y28634D01*
X217217Y29906D02*
X217717Y29406D01*
X216717Y29906D02*
X217217D01*
X216717D02*
X217217Y30406D01*
X216717Y30907D02*
X217217Y30406D01*
X216717Y30907D02*
X217217D01*
X217717Y31407D01*
X218217Y30907D01*
X218717D01*
X218217Y30406D02*
X218717Y30907D01*
X218217Y30406D02*
X218717Y29906D01*
X218217D02*
X218717D01*
X217717Y29406D02*
X218217Y29906D01*
X234146Y30602D02*
X234646Y30102D01*
X233646Y30602D02*
X234146D01*
X233646D02*
X234146Y31102D01*
X233646Y31602D02*
X234146Y31102D01*
X233646Y31602D02*
X234146D01*
X234646Y32102D01*
X235146Y31602D01*
X235646D01*
X235146Y31102D02*
X235646Y31602D01*
X235146Y31102D02*
X235646Y30602D01*
X235146D02*
X235646D01*
X234646Y30102D02*
X235146Y30602D01*
X225878Y10130D02*
X226378Y9630D01*
X225378Y10130D02*
X225878D01*
X225378D02*
X225878Y10630D01*
X225378Y11130D02*
X225878Y10630D01*
X225378Y11130D02*
X225878D01*
X226378Y11630D01*
X226878Y11130D01*
X227378D01*
X226878Y10630D02*
X227378Y11130D01*
X226878Y10630D02*
X227378Y10130D01*
X226878D02*
X227378D01*
X226378Y9630D02*
X226878Y10130D01*
X226272Y5799D02*
X226772Y5299D01*
X225772Y5799D02*
X226272D01*
X225772D02*
X226272Y6299D01*
X225772Y6799D02*
X226272Y6299D01*
X225772Y6799D02*
X226272D01*
X226772Y7299D01*
X227272Y6799D01*
X227772D01*
X227272Y6299D02*
X227772Y6799D01*
X227272Y6299D02*
X227772Y5799D01*
X227272D02*
X227772D01*
X226772Y5299D02*
X227272Y5799D01*
X177513Y35965D02*
X178013Y35465D01*
X177013Y35965D02*
X177513D01*
X177013D02*
X177513Y36465D01*
X177013Y36965D02*
X177513Y36465D01*
X177013Y36965D02*
X177513D01*
X178013Y37465D01*
X178513Y36965D01*
X179013D01*
X178513Y36465D02*
X179013Y36965D01*
X178513Y36465D02*
X179013Y35965D01*
X178513D02*
X179013D01*
X178013Y35465D02*
X178513Y35965D01*
X193413Y39065D02*
X193913Y38565D01*
X192913Y39065D02*
X193413D01*
X192913D02*
X193413Y39565D01*
X192913Y40065D02*
X193413Y39565D01*
X192913Y40065D02*
X193413D01*
X193913Y40565D01*
X194413Y40065D01*
X194913D01*
X194413Y39565D02*
X194913Y40065D01*
X194413Y39565D02*
X194913Y39065D01*
X194413D02*
X194913D01*
X193913Y38565D02*
X194413Y39065D01*
X193413Y36317D02*
X193913Y35817D01*
X192913Y36317D02*
X193413D01*
X192913D02*
X193413Y36817D01*
X192913Y37317D02*
X193413Y36817D01*
X192913Y37317D02*
X193413D01*
X193913Y37817D01*
X194413Y37317D01*
X194913D01*
X194413Y36817D02*
X194913Y37317D01*
X194413Y36817D02*
X194913Y36317D01*
X194413D02*
X194913D01*
X193913Y35817D02*
X194413Y36317D01*
X178713Y6600D02*
X179213Y6100D01*
X178213Y6600D02*
X178713D01*
X178213D02*
X178713Y7100D01*
X178213Y7600D02*
X178713Y7100D01*
X178213Y7600D02*
X178713D01*
X179213Y8100D01*
X179713Y7600D01*
X180213D01*
X179713Y7100D02*
X180213Y7600D01*
X179713Y7100D02*
X180213Y6600D01*
X179713D02*
X180213D01*
X179213Y6100D02*
X179713Y6600D01*
X201468Y5799D02*
X201969Y5299D01*
X200969Y5799D02*
X201468D01*
X200969D02*
X201468Y6299D01*
X200969Y6799D02*
X201468Y6299D01*
X200969Y6799D02*
X201468D01*
X201969Y7299D01*
X202468Y6799D01*
X202969D01*
X202468Y6299D02*
X202969Y6799D01*
X202468Y6299D02*
X202969Y5799D01*
X202468D02*
X202969D01*
X201969Y5299D02*
X202468Y5799D01*
X170345Y22109D02*
X170845Y21609D01*
X169845Y22109D02*
X170345D01*
X169845D02*
X170345Y22609D01*
X169845Y23109D02*
X170345Y22609D01*
X169845Y23109D02*
X170345D01*
X170845Y23609D01*
X171345Y23109D01*
X171845D01*
X171345Y22609D02*
X171845Y23109D01*
X171345Y22609D02*
X171845Y22109D01*
X171345D02*
X171845D01*
X170845Y21609D02*
X171345Y22109D01*
X169579Y18398D02*
X170079Y17898D01*
X169079Y18398D02*
X169579D01*
X169079D02*
X169579Y18898D01*
X169079Y19398D02*
X169579Y18898D01*
X169079Y19398D02*
X169579D01*
X170079Y19898D01*
X170579Y19398D01*
X171079D01*
X170579Y18898D02*
X171079Y19398D01*
X170579Y18898D02*
X171079Y18398D01*
X170579D02*
X171079D01*
X170079Y17898D02*
X170579Y18398D01*
X170691Y10643D02*
X171191Y10143D01*
X170191Y10643D02*
X170691D01*
X170191D02*
X170691Y11143D01*
X170191Y11643D02*
X170691Y11143D01*
X170191Y11643D02*
X170691D01*
X171191Y12143D01*
X171691Y11643D01*
X172191D01*
X171691Y11143D02*
X172191Y11643D01*
X171691Y11143D02*
X172191Y10643D01*
X171691D02*
X172191D01*
X171191Y10143D02*
X171691Y10643D01*
X138279Y113673D02*
X138779Y113173D01*
X137779Y113673D02*
X138279D01*
X137779D02*
X138279Y114173D01*
X137779Y114673D02*
X138279Y114173D01*
X137779Y114673D02*
X138279D01*
X138779Y115173D01*
X139279Y114673D01*
X139779D01*
X139279Y114173D02*
X139779Y114673D01*
X139279Y114173D02*
X139779Y113673D01*
X139279D02*
X139779D01*
X138779Y113173D02*
X139279Y113673D01*
X138377Y105667D02*
X138877Y105167D01*
X137877Y105667D02*
X138377D01*
X137877D02*
X138377Y106167D01*
X137877Y106667D02*
X138377Y106167D01*
X137877Y106667D02*
X138377D01*
X138877Y107167D01*
X139377Y106667D01*
X139877D01*
X139377Y106167D02*
X139877Y106667D01*
X139377Y106167D02*
X139877Y105667D01*
X139377D02*
X139877D01*
X138877Y105167D02*
X139377Y105667D01*
X73600Y102256D02*
X74100Y101756D01*
X73100Y102256D02*
X73600D01*
X73100D02*
X73600Y102756D01*
X73100Y103256D02*
X73600Y102756D01*
X73100Y103256D02*
X73600D01*
X74100Y103756D01*
X74600Y103256D01*
X75100D01*
X74600Y102756D02*
X75100Y103256D01*
X74600Y102756D02*
X75100Y102256D01*
X74600D02*
X75100D01*
X74100Y101756D02*
X74600Y102256D01*
X65614Y94382D02*
X66114Y93882D01*
X65114Y94382D02*
X65614D01*
X65114D02*
X65614Y94882D01*
X65114Y95382D02*
X65614Y94882D01*
X65114Y95382D02*
X65614D01*
X66114Y95882D01*
X66614Y95382D01*
X67114D01*
X66614Y94882D02*
X67114Y95382D01*
X66614Y94882D02*
X67114Y94382D01*
X66614D02*
X67114D01*
X66114Y93882D02*
X66614Y94382D01*
X74303Y51862D02*
X74803Y51362D01*
X73803Y51862D02*
X74303D01*
X73803D02*
X74303Y52362D01*
X73803Y52862D02*
X74303Y52362D01*
X73803Y52862D02*
X74303D01*
X74803Y53362D01*
X75303Y52862D01*
X75803D01*
X75303Y52362D02*
X75803Y52862D01*
X75303Y52362D02*
X75803Y51862D01*
X75303D02*
X75803D01*
X74803Y51362D02*
X75303Y51862D01*
X49500Y36508D02*
X50000Y36008D01*
X49000Y36508D02*
X49500D01*
X49000D02*
X49500Y37008D01*
X49000Y37508D02*
X49500Y37008D01*
X49000Y37508D02*
X49500D01*
X50000Y38008D01*
X50500Y37508D01*
X51000D01*
X50500Y37008D02*
X51000Y37508D01*
X50500Y37008D02*
X51000Y36508D01*
X50500D02*
X51000D01*
X50000Y36008D02*
X50500Y36508D01*
X57950Y38505D02*
X58450Y38005D01*
X57450Y38505D02*
X57950D01*
X57450D02*
X57950Y39005D01*
X57450Y39505D02*
X57950Y39005D01*
X57450Y39505D02*
X57950D01*
X58450Y40005D01*
X58950Y39505D01*
X59450D01*
X58950Y39005D02*
X59450Y39505D01*
X58950Y39005D02*
X59450Y38505D01*
X58950D02*
X59450D01*
X58450Y38005D02*
X58950Y38505D01*
X58555Y34571D02*
X59055Y34071D01*
X58055Y34571D02*
X58555D01*
X58055D02*
X58555Y35071D01*
X58055Y35571D02*
X58555Y35071D01*
X58055Y35571D02*
X58555D01*
X59055Y36071D01*
X59555Y35571D01*
X60055D01*
X59555Y35071D02*
X60055Y35571D01*
X59555Y35071D02*
X60055Y34571D01*
X59555D02*
X60055D01*
X59055Y34071D02*
X59555Y34571D01*
X65248Y29421D02*
X65748Y28921D01*
X64748Y29421D02*
X65248D01*
X64748D02*
X65248Y29921D01*
X64748Y30421D02*
X65248Y29921D01*
X64748Y30421D02*
X65248D01*
X65748Y30921D01*
X66248Y30421D01*
X66748D01*
X66248Y29921D02*
X66748Y30421D01*
X66248Y29921D02*
X66748Y29421D01*
X66248D02*
X66748D01*
X65748Y28921D02*
X66248Y29421D01*
X50287Y17217D02*
X50787Y16716D01*
X49787Y17217D02*
X50287D01*
X49787D02*
X50287Y17717D01*
X49787Y18216D02*
X50287Y17717D01*
X49787Y18216D02*
X50287D01*
X50787Y18717D01*
X51287Y18216D01*
X51787D01*
X51287Y17717D02*
X51787Y18216D01*
X51287Y17717D02*
X51787Y17217D01*
X51287D02*
X51787D01*
X50787Y16716D02*
X51287Y17217D01*
X49391Y9831D02*
X49891Y9331D01*
X48891Y9831D02*
X49391D01*
X48891D02*
X49391Y10331D01*
X48891Y10831D02*
X49391Y10331D01*
X48891Y10831D02*
X49391D01*
X49891Y11331D01*
X50391Y10831D01*
X50891D01*
X50391Y10331D02*
X50891Y10831D01*
X50391Y10331D02*
X50891Y9831D01*
X50391D02*
X50891D01*
X49891Y9331D02*
X50391Y9831D01*
X57300Y1471D02*
X57800Y971D01*
X56800Y1471D02*
X57300D01*
X56800D02*
X57300Y1971D01*
X56800Y2471D02*
X57300Y1971D01*
X56800Y2471D02*
X57300D01*
X57800Y2971D01*
X58300Y2471D01*
X58800D01*
X58300Y1971D02*
X58800Y2471D01*
X58300Y1971D02*
X58800Y1471D01*
X58300D02*
X58800D01*
X57800Y971D02*
X58300Y1471D01*
X49207Y6424D02*
X49707Y5924D01*
X48707Y6424D02*
X49207D01*
X48707D02*
X49207Y6924D01*
X48707Y7424D02*
X49207Y6924D01*
X48707Y7424D02*
X49207D01*
X49707Y7924D01*
X50207Y7424D01*
X50707D01*
X50207Y6924D02*
X50707Y7424D01*
X50207Y6924D02*
X50707Y6424D01*
X50207D02*
X50707D01*
X49707Y5924D02*
X50207Y6424D01*
X49207Y3551D02*
X49707Y3050D01*
X48707Y3551D02*
X49207D01*
X48707D02*
X49207Y4050D01*
X48707Y4550D02*
X49207Y4050D01*
X48707Y4550D02*
X49207D01*
X49707Y5051D01*
X50207Y4550D01*
X50707D01*
X50207Y4050D02*
X50707Y4550D01*
X50207Y4050D02*
X50707Y3551D01*
X50207D02*
X50707D01*
X49707Y3050D02*
X50207Y3551D01*
X18363Y115642D02*
X18863Y115142D01*
X17863Y115642D02*
X18363D01*
X17863D02*
X18363Y116142D01*
X17863Y116642D02*
X18363Y116142D01*
X17863Y116642D02*
X18363D01*
X18863Y117142D01*
X19363Y116642D01*
X19863D01*
X19363Y116142D02*
X19863Y116642D01*
X19363Y116142D02*
X19863Y115642D01*
X19363D02*
X19863D01*
X18863Y115142D02*
X19363Y115642D01*
X42020Y86508D02*
X42520Y86008D01*
X41520Y86508D02*
X42020D01*
X41520D02*
X42020Y87008D01*
X41520Y87508D02*
X42020Y87008D01*
X41520Y87508D02*
X42020D01*
X42520Y88008D01*
X43020Y87508D01*
X43520D01*
X43020Y87008D02*
X43520Y87508D01*
X43020Y87008D02*
X43520Y86508D01*
X43020D02*
X43520D01*
X42520Y86008D02*
X43020Y86508D01*
X34146Y51862D02*
X34646Y51362D01*
X33646Y51862D02*
X34146D01*
X33646D02*
X34146Y52362D01*
X33646Y52862D02*
X34146Y52362D01*
X33646Y52862D02*
X34146D01*
X34646Y53362D01*
X35146Y52862D01*
X35646D01*
X35146Y52362D02*
X35646Y52862D01*
X35146Y52362D02*
X35646Y51862D01*
X35146D02*
X35646D01*
X34646Y51362D02*
X35146Y51862D01*
X26665Y54921D02*
X27165Y54421D01*
X26165Y54921D02*
X26665D01*
X26165D02*
X26665Y55421D01*
X26165Y55921D02*
X26665Y55421D01*
X26165Y55921D02*
X26665D01*
X27165Y56421D01*
X27665Y55921D01*
X28165D01*
X27665Y55421D02*
X28165Y55921D01*
X27665Y55421D02*
X28165Y54921D01*
X27665D02*
X28165D01*
X27165Y54421D02*
X27665Y54921D01*
X33752Y37689D02*
X34252Y37189D01*
X33252Y37689D02*
X33752D01*
X33252D02*
X33752Y38189D01*
X33252Y38689D02*
X33752Y38189D01*
X33252Y38689D02*
X33752D01*
X34252Y39189D01*
X34752Y38689D01*
X35252D01*
X34752Y38189D02*
X35252Y38689D01*
X34752Y38189D02*
X35252Y37689D01*
X34752D02*
X35252D01*
X34252Y37189D02*
X34752Y37689D01*
X41232Y17217D02*
X41732Y16716D01*
X40732Y17217D02*
X41232D01*
X40732D02*
X41232Y17717D01*
X40732Y18216D02*
X41232Y17717D01*
X40732Y18216D02*
X41232D01*
X41732Y18717D01*
X42232Y18216D01*
X42732D01*
X42232Y17717D02*
X42732Y18216D01*
X42232Y17717D02*
X42732Y17217D01*
X42232D02*
X42732D01*
X41732Y16716D02*
X42232Y17217D01*
X33358Y20760D02*
X33858Y20260D01*
X32858Y20760D02*
X33358D01*
X32858D02*
X33358Y21260D01*
X32858Y21760D02*
X33358Y21260D01*
X32858Y21760D02*
X33358D01*
X33858Y22260D01*
X34358Y21760D01*
X34858D01*
X34358Y21260D02*
X34858Y21760D01*
X34358Y21260D02*
X34858Y20760D01*
X34358D02*
X34858D01*
X33858Y20260D02*
X34358Y20760D01*
X2256Y108161D02*
X2756Y107661D01*
X1756Y108161D02*
X2256D01*
X1756D02*
X2256Y108661D01*
X1756Y109161D02*
X2256Y108661D01*
X1756Y109161D02*
X2256D01*
X2756Y109661D01*
X3256Y109161D01*
X3756D01*
X3256Y108661D02*
X3756Y109161D01*
X3256Y108661D02*
X3756Y108161D01*
X3256D02*
X3756D01*
X2756Y107661D02*
X3256Y108161D01*
X1862Y98319D02*
X2362Y97819D01*
X1362Y98319D02*
X1862D01*
X1362D02*
X1862Y98819D01*
X1362Y99319D02*
X1862Y98819D01*
X1362Y99319D02*
X1862D01*
X2362Y99819D01*
X2862Y99319D01*
X3362D01*
X2862Y98819D02*
X3362Y99319D01*
X2862Y98819D02*
X3362Y98319D01*
X2862D02*
X3362D01*
X2362Y97819D02*
X2862Y98319D01*
X1469Y51468D02*
X1969Y50968D01*
X969Y51468D02*
X1469D01*
X969D02*
X1469Y51968D01*
X969Y52469D02*
X1469Y51968D01*
X969Y52469D02*
X1469D01*
X1969Y52969D01*
X2468Y52469D01*
X2968D01*
X2468Y51968D02*
X2968Y52469D01*
X2468Y51968D02*
X2968Y51468D01*
X2468D02*
X2968D01*
X1969Y50968D02*
X2468Y51468D01*
X1469Y46350D02*
X1969Y45850D01*
X969Y46350D02*
X1469D01*
X969D02*
X1469Y46850D01*
X969Y47350D02*
X1469Y46850D01*
X969Y47350D02*
X1469D01*
X1969Y47850D01*
X2468Y47350D01*
X2968D01*
X2468Y46850D02*
X2968Y47350D01*
X2468Y46850D02*
X2968Y46350D01*
X2468D02*
X2968D01*
X1969Y45850D02*
X2468Y46350D01*
X1469Y30602D02*
X1969Y30102D01*
X969Y30602D02*
X1469D01*
X969D02*
X1469Y31102D01*
X969Y31602D02*
X1469Y31102D01*
X969Y31602D02*
X1469D01*
X1969Y32102D01*
X2468Y31602D01*
X2968D01*
X2468Y31102D02*
X2968Y31602D01*
X2468Y31102D02*
X2968Y30602D01*
X2468D02*
X2968D01*
X1969Y30102D02*
X2468Y30602D01*
X1469Y20760D02*
X1969Y20260D01*
X969Y20760D02*
X1469D01*
X969D02*
X1469Y21260D01*
X969Y21760D02*
X1469Y21260D01*
X969Y21760D02*
X1469D01*
X1969Y22260D01*
X2468Y21760D01*
X2968D01*
X2468Y21260D02*
X2968Y21760D01*
X2468Y21260D02*
X2968Y20760D01*
X2468D02*
X2968D01*
X1969Y20260D02*
X2468Y20760D01*
X2209Y2650D02*
X2709Y2150D01*
X1709Y2650D02*
X2209D01*
X1709D02*
X2209Y3150D01*
X1709Y3650D02*
X2209Y3150D01*
X1709Y3650D02*
X2209D01*
X2709Y4150D01*
X3209Y3650D01*
X3709D01*
X3209Y3150D02*
X3709Y3650D01*
X3209Y3150D02*
X3709Y2650D01*
X3209D02*
X3709D01*
X2709Y2150D02*
X3209Y2650D01*
X340445Y2162D02*
X340945Y1662D01*
X339945Y2162D02*
X340445D01*
X339945D02*
X340445Y2662D01*
X339945Y3162D02*
X340445Y2662D01*
X339945Y3162D02*
X340445D01*
X340945Y3662D01*
X341445Y3162D01*
X341945D01*
X341445Y2662D02*
X341945Y3162D01*
X341445Y2662D02*
X341945Y2162D01*
X341445D02*
X341945D01*
X340945Y1662D02*
X341445Y2162D01*
X351849Y104791D02*
X352349Y104291D01*
X351349Y104791D02*
X351849D01*
X351349D02*
X351849Y105291D01*
X351349Y105791D02*
X351849Y105291D01*
X351349Y105791D02*
X351849D01*
X352349Y106291D01*
X352849Y105791D01*
X353349D01*
X352849Y105291D02*
X353349Y105791D01*
X352849Y105291D02*
X353349Y104791D01*
X352849D02*
X353349D01*
X352349Y104291D02*
X352849Y104791D01*
X363280Y2162D02*
X363779Y1662D01*
X362779Y2162D02*
X363280D01*
X362779D02*
X363280Y2662D01*
X362779Y3162D02*
X363280Y2662D01*
X362779Y3162D02*
X363280D01*
X363779Y3662D01*
X364280Y3162D01*
X364779D01*
X364280Y2662D02*
X364779Y3162D01*
X364280Y2662D02*
X364779Y2162D01*
X364280D02*
X364779D01*
X363779Y1662D02*
X364280Y2162D01*
X363673Y47138D02*
X364173Y46638D01*
X363173Y47138D02*
X363673D01*
X363173D02*
X363673Y47638D01*
X363173Y48138D02*
X363673Y47638D01*
X363173Y48138D02*
X363673D01*
X364173Y48638D01*
X364673Y48138D01*
X365173D01*
X364673Y47638D02*
X365173Y48138D01*
X364673Y47638D02*
X365173Y47138D01*
X364673D02*
X365173D01*
X364173Y46638D02*
X364673Y47138D01*
X330209Y11311D02*
X330709Y10811D01*
X329709Y11311D02*
X330209D01*
X329709D02*
X330209Y11811D01*
X329709Y12311D02*
X330209Y11811D01*
X329709Y12311D02*
X330209D01*
X330709Y12811D01*
X331209Y12311D01*
X331709D01*
X331209Y11811D02*
X331709Y12311D01*
X331209Y11811D02*
X331709Y11311D01*
X331209D02*
X331709D01*
X330709Y10811D02*
X331209Y11311D01*
X356587Y49975D02*
X357087Y49475D01*
X356087Y49975D02*
X356587D01*
X356087D02*
X356587Y50475D01*
X356087Y50975D02*
X356587Y50475D01*
X356087Y50975D02*
X356587D01*
X357087Y51475D01*
X357587Y50975D01*
X358087D01*
X357587Y50475D02*
X358087Y50975D01*
X357587Y50475D02*
X358087Y49975D01*
X357587D02*
X358087D01*
X357087Y49475D02*
X357587Y49975D01*
X329421Y48713D02*
X329921Y48213D01*
X328921Y48713D02*
X329421D01*
X328921D02*
X329421Y49213D01*
X328921Y49713D02*
X329421Y49213D01*
X328921Y49713D02*
X329421D01*
X329921Y50213D01*
X330421Y49713D01*
X330921D01*
X330421Y49213D02*
X330921Y49713D01*
X330421Y49213D02*
X330921Y48713D01*
X330421D02*
X330921D01*
X329921Y48213D02*
X330421Y48713D01*
X363673Y37295D02*
X364173Y36795D01*
X363173Y37295D02*
X363673D01*
X363173D02*
X363673Y37795D01*
X363173Y38295D02*
X363673Y37795D01*
X363173Y38295D02*
X363673D01*
X364173Y38795D01*
X364673Y38295D01*
X365173D01*
X364673Y37795D02*
X365173Y38295D01*
X364673Y37795D02*
X365173Y37295D01*
X364673D02*
X365173D01*
X364173Y36795D02*
X364673Y37295D01*
X326272Y23985D02*
X326772Y23485D01*
X325772Y23985D02*
X326272D01*
X325772D02*
X326272Y24485D01*
X325772Y24985D02*
X326272Y24485D01*
X325772Y24985D02*
X326272D01*
X326772Y25485D01*
X327272Y24985D01*
X327772D01*
X327272Y24485D02*
X327772Y24985D01*
X327272Y24485D02*
X327772Y23985D01*
X327272D02*
X327772D01*
X326772Y23485D02*
X327272Y23985D01*
X322335Y21154D02*
X322835Y20654D01*
X321835Y21154D02*
X322335D01*
X321835D02*
X322335Y21654D01*
X321835Y22154D02*
X322335Y21654D01*
X321835Y22154D02*
X322335D01*
X322835Y22654D01*
X323335Y22154D01*
X323835D01*
X323335Y21654D02*
X323835Y22154D01*
X323335Y21654D02*
X323835Y21154D01*
X323335D02*
X323835D01*
X322835Y20654D02*
X323335Y21154D01*
X356587Y29077D02*
X357087Y28577D01*
X356087Y29077D02*
X356587D01*
X356087D02*
X356587Y29577D01*
X356087Y30077D02*
X356587Y29577D01*
X356087Y30077D02*
X356587D01*
X357087Y30577D01*
X357587Y30077D01*
X358087D01*
X357587Y29577D02*
X358087Y30077D01*
X357587Y29577D02*
X358087Y29077D01*
X357587D02*
X358087D01*
X357087Y28577D02*
X357587Y29077D01*
X311311Y32965D02*
X311811Y32465D01*
X310811Y32965D02*
X311311D01*
X310811D02*
X311311Y33465D01*
X310811Y33965D02*
X311311Y33465D01*
X310811Y33965D02*
X311311D01*
X311811Y34465D01*
X312311Y33965D01*
X312811D01*
X312311Y33465D02*
X312811Y33965D01*
X312311Y33465D02*
X312811Y32965D01*
X312311D02*
X312811D01*
X311811Y32465D02*
X312311Y32965D01*
X312492Y15268D02*
X312992Y14767D01*
X311992Y15268D02*
X312492D01*
X311992D02*
X312492Y15767D01*
X311992Y16267D02*
X312492Y15767D01*
X311992Y16267D02*
X312492D01*
X312992Y16768D01*
X313492Y16267D01*
X313992D01*
X313492Y15767D02*
X313992Y16267D01*
X313492Y15767D02*
X313992Y15268D01*
X313492D02*
X313992D01*
X312992Y14767D02*
X313492Y15268D01*
X299504Y32965D02*
X300004Y32465D01*
X299004Y32965D02*
X299504D01*
X299004D02*
X299504Y33465D01*
X299004Y33965D02*
X299504Y33465D01*
X299004Y33965D02*
X299504D01*
X300004Y34465D01*
X300504Y33965D01*
X301004D01*
X300504Y33465D02*
X301004Y33965D01*
X300504Y33465D02*
X301004Y32965D01*
X300504D02*
X301004D01*
X300004Y32465D02*
X300504Y32965D01*
X295535D02*
X296035Y32465D01*
X295035Y32965D02*
X295535D01*
X295035D02*
X295535Y33465D01*
X295035Y33965D02*
X295535Y33465D01*
X295035Y33965D02*
X295535D01*
X296035Y34465D01*
X296535Y33965D01*
X297035D01*
X296535Y33465D02*
X297035Y33965D01*
X296535Y33465D02*
X297035Y32965D01*
X296535D02*
X297035D01*
X296035Y32465D02*
X296535Y32965D01*
X287295Y50287D02*
X287795Y49787D01*
X286795Y50287D02*
X287295D01*
X286795D02*
X287295Y50787D01*
X286795Y51287D02*
X287295Y50787D01*
X286795Y51287D02*
X287295D01*
X287795Y51787D01*
X288295Y51287D01*
X288795D01*
X288295Y50787D02*
X288795Y51287D01*
X288295Y50787D02*
X288795Y50287D01*
X288295D02*
X288795D01*
X287795Y49787D02*
X288295Y50287D01*
X277325Y31700D02*
X277824Y31200D01*
X276824Y31700D02*
X277325D01*
X276824D02*
X277325Y32200D01*
X276824Y32700D02*
X277325Y32200D01*
X276824Y32700D02*
X277325D01*
X277824Y33200D01*
X278325Y32700D01*
X278824D01*
X278325Y32200D02*
X278824Y32700D01*
X278325Y32200D02*
X278824Y31700D01*
X278325D02*
X278824D01*
X277824Y31200D02*
X278325Y31700D01*
X280996Y33949D02*
X281496Y33449D01*
X280496Y33949D02*
X280996D01*
X280496D02*
X280996Y34449D01*
X280496Y34949D02*
X280996Y34449D01*
X280496Y34949D02*
X280996D01*
X281496Y35449D01*
X281996Y34949D01*
X282496D01*
X281996Y34449D02*
X282496Y34949D01*
X281996Y34449D02*
X282496Y33949D01*
X281996D02*
X282496D01*
X281496Y33449D02*
X281996Y33949D01*
X281000Y40051D02*
X281500Y39551D01*
X280500Y40051D02*
X281000D01*
X280500D02*
X281000Y40551D01*
X280500Y41051D02*
X281000Y40551D01*
X280500Y41051D02*
X281000D01*
X281500Y41551D01*
X282000Y41051D01*
X282500D01*
X282000Y40551D02*
X282500Y41051D01*
X282000Y40551D02*
X282500Y40051D01*
X282000D02*
X282500D01*
X281500Y39551D02*
X282000Y40051D01*
X253160Y40800D02*
X253660Y40300D01*
X252660Y40800D02*
X253160D01*
X252660D02*
X253160Y41300D01*
X252660Y41800D02*
X253160Y41300D01*
X252660Y41800D02*
X253160D01*
X253660Y42300D01*
X254160Y41800D01*
X254660D01*
X254160Y41300D02*
X254660Y41800D01*
X254160Y41300D02*
X254660Y40800D01*
X254160D02*
X254660D01*
X253660Y40300D02*
X254160Y40800D01*
X256193Y40051D02*
X256693Y39551D01*
X255693Y40051D02*
X256193D01*
X255693D02*
X256193Y40551D01*
X255693Y41051D02*
X256193Y40551D01*
X255693Y41051D02*
X256193D01*
X256693Y41551D01*
X257193Y41051D01*
X257693D01*
X257193Y40551D02*
X257693Y41051D01*
X257193Y40551D02*
X257693Y40051D01*
X257193D02*
X257693D01*
X256693Y39551D02*
X257193Y40051D01*
X247925Y39962D02*
X248425Y39462D01*
X247425Y39962D02*
X247925D01*
X247425D02*
X247925Y40462D01*
X247425Y40962D02*
X247925Y40462D01*
X247425Y40962D02*
X247925D01*
X248425Y41462D01*
X248925Y40962D01*
X249425D01*
X248925Y40462D02*
X249425Y40962D01*
X248925Y40462D02*
X249425Y39962D01*
X248925D02*
X249425D01*
X248425Y39462D02*
X248925Y39962D01*
X228634Y16035D02*
X229134Y15535D01*
X228134Y16035D02*
X228634D01*
X228134D02*
X228634Y16535D01*
X228134Y17035D02*
X228634Y16535D01*
X228134Y17035D02*
X228634D01*
X229134Y17535D01*
X229634Y17035D01*
X230134D01*
X229634Y16535D02*
X230134Y17035D01*
X229634Y16535D02*
X230134Y16035D01*
X229634D02*
X230134D01*
X229134Y15535D02*
X229634Y16035D01*
X211705Y41232D02*
X212205Y40732D01*
X211205Y41232D02*
X211705D01*
X211205D02*
X211705Y41732D01*
X211205Y42232D02*
X211705Y41732D01*
X211205Y42232D02*
X211705D01*
X212205Y42732D01*
X212705Y42232D01*
X213205D01*
X212705Y41732D02*
X213205Y42232D01*
X212705Y41732D02*
X213205Y41232D01*
X212705D02*
X213205D01*
X212205Y40732D02*
X212705Y41232D01*
X208161Y16035D02*
X208661Y15535D01*
X207661Y16035D02*
X208161D01*
X207661D02*
X208161Y16535D01*
X207661Y17035D02*
X208161Y16535D01*
X207661Y17035D02*
X208161D01*
X208661Y17535D01*
X209161Y17035D01*
X209661D01*
X209161Y16535D02*
X209661Y17035D01*
X209161Y16535D02*
X209661Y16035D01*
X209161D02*
X209661D01*
X208661Y15535D02*
X209161Y16035D01*
X197899Y55987D02*
X198399Y55487D01*
X197399Y55987D02*
X197899D01*
X197399D02*
X197899Y56487D01*
X197399Y56987D02*
X197899Y56487D01*
X197399Y56987D02*
X197899D01*
X198399Y57487D01*
X198899Y56987D01*
X199399D01*
X198899Y56487D02*
X199399Y56987D01*
X198899Y56487D02*
X199399Y55987D01*
X198899D02*
X199399D01*
X198399Y55487D02*
X198899Y55987D01*
X158555Y16035D02*
X159055Y15535D01*
X158055Y16035D02*
X158555D01*
X158055D02*
X158555Y16535D01*
X158055Y17035D02*
X158555Y16535D01*
X158055Y17035D02*
X158555D01*
X159055Y17535D01*
X159555Y17035D01*
X160055D01*
X159555Y16535D02*
X160055Y17035D01*
X159555Y16535D02*
X160055Y16035D01*
X159555D02*
X160055D01*
X159055Y15535D02*
X159555Y16035D01*
X133358Y55799D02*
X133858Y55299D01*
X132858Y55799D02*
X133358D01*
X132858D02*
X133358Y56299D01*
X132858Y56799D02*
X133358Y56299D01*
X132858Y56799D02*
X133358D01*
X133858Y57299D01*
X134358Y56799D01*
X134858D01*
X134358Y56299D02*
X134858Y56799D01*
X134358Y56299D02*
X134858Y55799D01*
X134358D02*
X134858D01*
X133858Y55299D02*
X134358Y55799D01*
X70366Y48319D02*
X70866Y47819D01*
X69866Y48319D02*
X70366D01*
X69866D02*
X70366Y48819D01*
X69866Y49319D02*
X70366Y48819D01*
X69866Y49319D02*
X70366D01*
X70866Y49819D01*
X71366Y49319D01*
X71866D01*
X71366Y48819D02*
X71866Y49319D01*
X71366Y48819D02*
X71866Y48319D01*
X71366D02*
X71866D01*
X70866Y47819D02*
X71366Y48319D01*
X72335Y55799D02*
X72835Y55299D01*
X71835Y55799D02*
X72335D01*
X71835D02*
X72335Y56299D01*
X71835Y56799D02*
X72335Y56299D01*
X71835Y56799D02*
X72335D01*
X72835Y57299D01*
X73335Y56799D01*
X73835D01*
X73335Y56299D02*
X73835Y56799D01*
X73335Y56299D02*
X73835Y55799D01*
X73335D02*
X73835D01*
X72835Y55299D02*
X73335Y55799D01*
X54945Y88083D02*
X55445Y87583D01*
X54445Y88083D02*
X54945D01*
X54445D02*
X54945Y88583D01*
X54445Y89083D02*
X54945Y88583D01*
X54445Y89083D02*
X54945D01*
X55445Y89583D01*
X55945Y89083D01*
X56445D01*
X55945Y88583D02*
X56445Y89083D01*
X55945Y88583D02*
X56445Y88083D01*
X55945D02*
X56445D01*
X55445Y87583D02*
X55945Y88083D01*
X34933Y47925D02*
X35433Y47425D01*
X34433Y47925D02*
X34933D01*
X34433D02*
X34933Y48425D01*
X34433Y48925D02*
X34933Y48425D01*
X34433Y48925D02*
X34933D01*
X35433Y49425D01*
X35933Y48925D01*
X36433D01*
X35933Y48425D02*
X36433Y48925D01*
X35933Y48425D02*
X36433Y47925D01*
X35933D02*
X36433D01*
X35433Y47425D02*
X35933Y47925D01*
X40839Y48553D02*
X41339Y48053D01*
X40339Y48553D02*
X40839D01*
X40339D02*
X40839Y49053D01*
X40339Y49553D02*
X40839Y49053D01*
X40339Y49553D02*
X40839D01*
X41339Y50053D01*
X41839Y49553D01*
X42339D01*
X41839Y49053D02*
X42339Y49553D01*
X41839Y49053D02*
X42339Y48553D01*
X41839D02*
X42339D01*
X41339Y48053D02*
X41839Y48553D01*
X36700Y16300D02*
X37200Y15800D01*
X36200Y16300D02*
X36700D01*
X36200D02*
X36700Y16800D01*
X36200Y17300D02*
X36700Y16800D01*
X36200Y17300D02*
X36700D01*
X37200Y17800D01*
X37700Y17300D01*
X38200D01*
X37700Y16800D02*
X38200Y17300D01*
X37700Y16800D02*
X38200Y16300D01*
X37700D02*
X38200D01*
X37200Y15800D02*
X37700Y16300D01*
X27453Y104224D02*
X27953Y103724D01*
X26953Y104224D02*
X27453D01*
X26953D02*
X27453Y104724D01*
X26953Y105224D02*
X27453Y104724D01*
X26953Y105224D02*
X27453D01*
X27953Y105724D01*
X28453Y105224D01*
X28953D01*
X28453Y104724D02*
X28953Y105224D01*
X28453Y104724D02*
X28953Y104224D01*
X28453D02*
X28953D01*
X27953Y103724D02*
X28453Y104224D01*
X29028Y71941D02*
X29528Y71441D01*
X28528Y71941D02*
X29028D01*
X28528D02*
X29028Y72441D01*
X28528Y72941D02*
X29028Y72441D01*
X28528Y72941D02*
X29028D01*
X29528Y73441D01*
X30028Y72941D01*
X30528D01*
X30028Y72441D02*
X30528Y72941D01*
X30028Y72441D02*
X30528Y71941D01*
X30028D02*
X30528D01*
X29528Y71441D02*
X30028Y71941D01*
X29351Y47532D02*
X29851Y47032D01*
X28851Y47532D02*
X29351D01*
X28851D02*
X29351Y48031D01*
X28851Y48531D02*
X29351Y48031D01*
X28851Y48531D02*
X29351D01*
X29851Y49031D01*
X30351Y48531D01*
X30851D01*
X30351Y48031D02*
X30851Y48531D01*
X30351Y48031D02*
X30851Y47532D01*
X30351D02*
X30851D01*
X29851Y47032D02*
X30351Y47532D01*
X31022Y16704D02*
X31522Y16204D01*
X30522Y16704D02*
X31022D01*
X30522D02*
X31022Y17204D01*
X30522Y17704D02*
X31022Y17204D01*
X30522Y17704D02*
X31022D01*
X31522Y18204D01*
X32022Y17704D01*
X32522D01*
X32022Y17204D02*
X32522Y17704D01*
X32022Y17204D02*
X32522Y16704D01*
X32022D02*
X32522D01*
X31522Y16204D02*
X32022Y16704D01*
X30209Y23910D02*
X30709Y23410D01*
X29709Y23910D02*
X30209D01*
X29709D02*
X30209Y24409D01*
X29709Y24909D02*
X30209Y24409D01*
X29709Y24909D02*
X30209D01*
X30709Y25409D01*
X31209Y24909D01*
X31709D01*
X31209Y24409D02*
X31709Y24909D01*
X31209Y24409D02*
X31709Y23910D01*
X31209D02*
X31709D01*
X30709Y23410D02*
X31209Y23910D01*
X22728Y111705D02*
X23228Y111205D01*
X22228Y111705D02*
X22728D01*
X22228D02*
X22728Y112205D01*
X22228Y112705D02*
X22728Y112205D01*
X22228Y112705D02*
X22728D01*
X23228Y113205D01*
X23728Y112705D01*
X24228D01*
X23728Y112205D02*
X24228Y112705D01*
X23728Y112205D02*
X24228Y111705D01*
X23728D02*
X24228D01*
X23228Y111205D02*
X23728Y111705D01*
X19172Y63770D02*
X19672Y63270D01*
X18672Y63770D02*
X19172D01*
X18672D02*
X19172Y64270D01*
X18672Y64770D02*
X19172Y64270D01*
X18672Y64770D02*
X19172D01*
X19672Y65270D01*
X20172Y64770D01*
X20672D01*
X20172Y64270D02*
X20672Y64770D01*
X20172Y64270D02*
X20672Y63770D01*
X20172D02*
X20672D01*
X19672Y63270D02*
X20172Y63770D01*
X24903Y72313D02*
X25403Y71813D01*
X24403Y72313D02*
X24903D01*
X24403D02*
X24903Y72813D01*
X24403Y73313D02*
X24903Y72813D01*
X24403Y73313D02*
X24903D01*
X25403Y73813D01*
X25903Y73313D01*
X26403D01*
X25903Y72813D02*
X26403Y73313D01*
X25903Y72813D02*
X26403Y72313D01*
X25903D02*
X26403D01*
X25403Y71813D02*
X25903Y72313D01*
X20324Y24933D02*
X20824Y24433D01*
X19824Y24933D02*
X20324D01*
X19824D02*
X20324Y25433D01*
X19824Y25932D02*
X20324Y25433D01*
X19824Y25932D02*
X20324D01*
X20824Y26432D01*
X21324Y25932D01*
X21824D01*
X21324Y25433D02*
X21824Y25932D01*
X21324Y25433D02*
X21824Y24933D01*
X21324D02*
X21824D01*
X20824Y24433D02*
X21324Y24933D01*
X19594Y15291D02*
X20095Y14791D01*
X19094Y15291D02*
X19594D01*
X19094D02*
X19594Y15791D01*
X19094Y16291D02*
X19594Y15791D01*
X19094Y16291D02*
X19594D01*
X20095Y16791D01*
X20595Y16291D01*
X21094D01*
X20595Y15791D02*
X21094Y16291D01*
X20595Y15791D02*
X21094Y15291D01*
X20595D02*
X21094D01*
X20095Y14791D02*
X20595Y15291D01*
X16684Y24480D02*
X17184Y23980D01*
X16184Y24480D02*
X16684D01*
X16184D02*
X16684Y24980D01*
X16184Y25480D02*
X16684Y24980D01*
X16184Y25480D02*
X16684D01*
X17184Y25980D01*
X17684Y25480D01*
X18184D01*
X17684Y24980D02*
X18184Y25480D01*
X17684Y24980D02*
X18184Y24480D01*
X17684D02*
X18184D01*
X17184Y23980D02*
X17684Y24480D01*
X8555Y31390D02*
X9055Y30890D01*
X8055Y31390D02*
X8555D01*
X8055D02*
X8555Y31890D01*
X8055Y32390D02*
X8555Y31890D01*
X8055Y32390D02*
X8555D01*
X9055Y32890D01*
X9555Y32390D01*
X10055D01*
X9555Y31890D02*
X10055Y32390D01*
X9555Y31890D02*
X10055Y31390D01*
X9555D02*
X10055D01*
X9055Y30890D02*
X9555Y31390D01*
X363673Y82177D02*
X364173Y81677D01*
X363173Y82177D02*
X363673D01*
X363173D02*
X363673Y82677D01*
X363173Y83177D02*
X363673Y82677D01*
X363173Y83177D02*
X363673D01*
X364173Y83677D01*
X364673Y83177D01*
X365173D01*
X364673Y82677D02*
X365173Y83177D01*
X364673Y82677D02*
X365173Y82177D01*
X364673D02*
X365173D01*
X364173Y81677D02*
X364673Y82177D01*
X363673Y74303D02*
X364173Y73803D01*
X363173Y74303D02*
X363673D01*
X363173D02*
X363673Y74803D01*
X363173Y75303D02*
X363673Y74803D01*
X363173Y75303D02*
X363673D01*
X364173Y75803D01*
X364673Y75303D01*
X365173D01*
X364673Y74803D02*
X365173Y75303D01*
X364673Y74803D02*
X365173Y74303D01*
X364673D02*
X365173D01*
X364173Y73803D02*
X364673Y74303D01*
X363673Y78240D02*
X364173Y77740D01*
X363173Y78240D02*
X363673D01*
X363173D02*
X363673Y78740D01*
X363173Y79240D02*
X363673Y78740D01*
X363173Y79240D02*
X363673D01*
X364173Y79740D01*
X364673Y79240D01*
X365173D01*
X364673Y78740D02*
X365173Y79240D01*
X364673Y78740D02*
X365173Y78240D01*
X364673D02*
X365173D01*
X364173Y77740D02*
X364673Y78240D01*
X363673Y66429D02*
X364173Y65929D01*
X363173Y66429D02*
X363673D01*
X363173D02*
X363673Y66929D01*
X363173Y67429D02*
X363673Y66929D01*
X363173Y67429D02*
X363673D01*
X364173Y67929D01*
X364673Y67429D01*
X365173D01*
X364673Y66929D02*
X365173Y67429D01*
X364673Y66929D02*
X365173Y66429D01*
X364673D02*
X365173D01*
X364173Y65929D02*
X364673Y66429D01*
X355844Y82177D02*
X356344Y81677D01*
X355344Y82177D02*
X355844D01*
X355344D02*
X355844Y82677D01*
X355344Y83177D02*
X355844Y82677D01*
X355344Y83177D02*
X355844D01*
X356344Y83677D01*
X356844Y83177D01*
X357344D01*
X356844Y82677D02*
X357344Y83177D01*
X356844Y82677D02*
X357344Y82177D01*
X356844D02*
X357344D01*
X356344Y81677D02*
X356844Y82177D01*
X359736D02*
X360236Y81677D01*
X359236Y82177D02*
X359736D01*
X359236D02*
X359736Y82677D01*
X359236Y83177D02*
X359736Y82677D01*
X359236Y83177D02*
X359736D01*
X360236Y83677D01*
X360736Y83177D01*
X361236D01*
X360736Y82677D02*
X361236Y83177D01*
X360736Y82677D02*
X361236Y82177D01*
X360736D02*
X361236D01*
X360236Y81677D02*
X360736Y82177D01*
X355924Y74303D02*
X356424Y73803D01*
X355424Y74303D02*
X355924D01*
X355424D02*
X355924Y74803D01*
X355424Y75303D02*
X355924Y74803D01*
X355424Y75303D02*
X355924D01*
X356424Y75803D01*
X356924Y75303D01*
X357424D01*
X356924Y74803D02*
X357424Y75303D01*
X356924Y74803D02*
X357424Y74303D01*
X356924D02*
X357424D01*
X356424Y73803D02*
X356924Y74303D01*
X355770Y78240D02*
X356270Y77740D01*
X355270Y78240D02*
X355770D01*
X355270D02*
X355770Y78740D01*
X355270Y79240D02*
X355770Y78740D01*
X355270Y79240D02*
X355770D01*
X356270Y79740D01*
X356770Y79240D01*
X357270D01*
X356770Y78740D02*
X357270Y79240D01*
X356770Y78740D02*
X357270Y78240D01*
X356770D02*
X357270D01*
X356270Y77740D02*
X356770Y78240D01*
X359736D02*
X360236Y77740D01*
X359236Y78240D02*
X359736D01*
X359236D02*
X359736Y78740D01*
X359236Y79240D02*
X359736Y78740D01*
X359236Y79240D02*
X359736D01*
X360236Y79740D01*
X360736Y79240D01*
X361236D01*
X360736Y78740D02*
X361236Y79240D01*
X360736Y78740D02*
X361236Y78240D01*
X360736D02*
X361236D01*
X360236Y77740D02*
X360736Y78240D01*
X355799Y66429D02*
X356299Y65929D01*
X355299Y66429D02*
X355799D01*
X355299D02*
X355799Y66929D01*
X355299Y67429D02*
X355799Y66929D01*
X355299Y67429D02*
X355799D01*
X356299Y67929D01*
X356799Y67429D01*
X357299D01*
X356799Y66929D02*
X357299Y67429D01*
X356799Y66929D02*
X357299Y66429D01*
X356799D02*
X357299D01*
X356299Y65929D02*
X356799Y66429D01*
X359736Y70366D02*
X360236Y69866D01*
X359236Y70366D02*
X359736D01*
X359236D02*
X359736Y70866D01*
X359236Y71366D02*
X359736Y70866D01*
X359236Y71366D02*
X359736D01*
X360236Y71866D01*
X360736Y71366D01*
X361236D01*
X360736Y70866D02*
X361236Y71366D01*
X360736Y70866D02*
X361236Y70366D01*
X360736D02*
X361236D01*
X360236Y69866D02*
X360736Y70366D01*
X351862Y82177D02*
X352362Y81677D01*
X351362Y82177D02*
X351862D01*
X351362D02*
X351862Y82677D01*
X351362Y83177D02*
X351862Y82677D01*
X351362Y83177D02*
X351862D01*
X352362Y83677D01*
X352862Y83177D01*
X353362D01*
X352862Y82677D02*
X353362Y83177D01*
X352862Y82677D02*
X353362Y82177D01*
X352862D02*
X353362D01*
X352362Y81677D02*
X352862Y82177D01*
X351862Y78240D02*
X352362Y77740D01*
X351362Y78240D02*
X351862D01*
X351362D02*
X351862Y78740D01*
X351362Y79240D02*
X351862Y78740D01*
X351362Y79240D02*
X351862D01*
X352362Y79740D01*
X352862Y79240D01*
X353362D01*
X352862Y78740D02*
X353362Y79240D01*
X352862Y78740D02*
X353362Y78240D01*
X352862D02*
X353362D01*
X352362Y77740D02*
X352862Y78240D01*
X351862Y70366D02*
X352362Y69866D01*
X351362Y70366D02*
X351862D01*
X351362D02*
X351862Y70866D01*
X351362Y71366D02*
X351862Y70866D01*
X351362Y71366D02*
X351862D01*
X352362Y71866D01*
X352862Y71366D01*
X353362D01*
X352862Y70866D02*
X353362Y71366D01*
X352862Y70866D02*
X353362Y70366D01*
X352862D02*
X353362D01*
X352362Y69866D02*
X352862Y70366D01*
X347925Y66429D02*
X348425Y65929D01*
X347425Y66429D02*
X347925D01*
X347425D02*
X347925Y66929D01*
X347425Y67429D02*
X347925Y66929D01*
X347425Y67429D02*
X347925D01*
X348425Y67929D01*
X348925Y67429D01*
X349425D01*
X348925Y66929D02*
X349425Y67429D01*
X348925Y66929D02*
X349425Y66429D01*
X348925D02*
X349425D01*
X348425Y65929D02*
X348925Y66429D01*
X340051D02*
X340551Y65929D01*
X339551Y66429D02*
X340051D01*
X339551D02*
X340051Y66929D01*
X339551Y67429D02*
X340051Y66929D01*
X339551Y67429D02*
X340051D01*
X340551Y67929D01*
X341051Y67429D01*
X341551D01*
X341051Y66929D02*
X341551Y67429D01*
X341051Y66929D02*
X341551Y66429D01*
X341051D02*
X341551D01*
X340551Y65929D02*
X341051Y66429D01*
X340051Y60524D02*
X340551Y60024D01*
X339551Y60524D02*
X340051D01*
X339551D02*
X340051Y61024D01*
X339551Y61524D02*
X340051Y61024D01*
X339551Y61524D02*
X340051D01*
X340551Y62024D01*
X341051Y61524D01*
X341551D01*
X341051Y61024D02*
X341551Y61524D01*
X341051Y61024D02*
X341551Y60524D01*
X341051D02*
X341551D01*
X340551Y60024D02*
X341051Y60524D01*
X343988Y62492D02*
X344488Y61992D01*
X343488Y62492D02*
X343988D01*
X343488D02*
X343988Y62992D01*
X343488Y63492D02*
X343988Y62992D01*
X343488Y63492D02*
X343988D01*
X344488Y63992D01*
X344988Y63492D01*
X345488D01*
X344988Y62992D02*
X345488Y63492D01*
X344988Y62992D02*
X345488Y62492D01*
X344988D02*
X345488D01*
X344488Y61992D02*
X344988Y62492D01*
X347925Y60524D02*
X348425Y60024D01*
X347425Y60524D02*
X347925D01*
X347425D02*
X347925Y61024D01*
X347425Y61524D02*
X347925Y61024D01*
X347425Y61524D02*
X347925D01*
X348425Y62024D01*
X348925Y61524D01*
X349425D01*
X348925Y61024D02*
X349425Y61524D01*
X348925Y61024D02*
X349425Y60524D01*
X348925D02*
X349425D01*
X348425Y60024D02*
X348925Y60524D01*
X351075Y42020D02*
X351575Y41520D01*
X350575Y42020D02*
X351075D01*
X350575D02*
X351075Y42520D01*
X350575Y43020D02*
X351075Y42520D01*
X350575Y43020D02*
X351075D01*
X351575Y43520D01*
X352075Y43020D01*
X352575D01*
X352075Y42520D02*
X352575Y43020D01*
X352075Y42520D02*
X352575Y42020D01*
X352075D02*
X352575D01*
X351575Y41520D02*
X352075Y42020D01*
X356587D02*
X357087Y41520D01*
X356087Y42020D02*
X356587D01*
X356087D02*
X356587Y42520D01*
X356087Y43020D02*
X356587Y42520D01*
X356087Y43020D02*
X356587D01*
X357087Y43520D01*
X357587Y43020D01*
X358087D01*
X357587Y42520D02*
X358087Y43020D01*
X357587Y42520D02*
X358087Y42020D01*
X357587D02*
X358087D01*
X357087Y41520D02*
X357587Y42020D01*
X332177Y60524D02*
X332677Y60024D01*
X331677Y60524D02*
X332177D01*
X331677D02*
X332177Y61024D01*
X331677Y61524D02*
X332177Y61024D01*
X331677Y61524D02*
X332177D01*
X332677Y62024D01*
X333177Y61524D01*
X333677D01*
X333177Y61024D02*
X333677Y61524D01*
X333177Y61024D02*
X333677Y60524D01*
X333177D02*
X333677D01*
X332677Y60024D02*
X333177Y60524D01*
X336114Y62492D02*
X336614Y61992D01*
X335614Y62492D02*
X336114D01*
X335614D02*
X336114Y62992D01*
X335614Y63492D02*
X336114Y62992D01*
X335614Y63492D02*
X336114D01*
X336614Y63992D01*
X337114Y63492D01*
X337614D01*
X337114Y62992D02*
X337614Y63492D01*
X337114Y62992D02*
X337614Y62492D01*
X337114D02*
X337614D01*
X336614Y61992D02*
X337114Y62492D01*
X324303Y60524D02*
X324803Y60024D01*
X323803Y60524D02*
X324303D01*
X323803D02*
X324303Y61024D01*
X323803Y61524D02*
X324303Y61024D01*
X323803Y61524D02*
X324303D01*
X324803Y62024D01*
X325303Y61524D01*
X325803D01*
X325303Y61024D02*
X325803Y61524D01*
X325303Y61024D02*
X325803Y60524D01*
X325303D02*
X325803D01*
X324803Y60024D02*
X325303Y60524D01*
X351075Y47138D02*
X351575Y46638D01*
X350575Y47138D02*
X351075D01*
X350575D02*
X351075Y47638D01*
X350575Y48138D02*
X351075Y47638D01*
X350575Y48138D02*
X351075D01*
X351575Y48638D01*
X352075Y48138D01*
X352575D01*
X352075Y47638D02*
X352575Y48138D01*
X352075Y47638D02*
X352575Y47138D01*
X352075D02*
X352575D01*
X351575Y46638D02*
X352075Y47138D01*
X324303Y66429D02*
X324803Y65929D01*
X323803Y66429D02*
X324303D01*
X323803D02*
X324303Y66929D01*
X323803Y67429D02*
X324303Y66929D01*
X323803Y67429D02*
X324303D01*
X324803Y67929D01*
X325303Y67429D01*
X325803D01*
X325303Y66929D02*
X325803Y67429D01*
X325303Y66929D02*
X325803Y66429D01*
X325303D02*
X325803D01*
X324803Y65929D02*
X325303Y66429D01*
X328240Y62492D02*
X328740Y61992D01*
X327740Y62492D02*
X328240D01*
X327740D02*
X328240Y62992D01*
X327740Y63492D02*
X328240Y62992D01*
X327740Y63492D02*
X328240D01*
X328740Y63992D01*
X329240Y63492D01*
X329740D01*
X329240Y62992D02*
X329740Y63492D01*
X329240Y62992D02*
X329740Y62492D01*
X329240D02*
X329740D01*
X328740Y61992D02*
X329240Y62492D01*
X363280Y11131D02*
X363779Y10632D01*
X362779Y11131D02*
X363280D01*
X362779D02*
X363280Y11631D01*
X362779Y12132D02*
X363280Y11631D01*
X362779Y12132D02*
X363280D01*
X363779Y12631D01*
X364280Y12132D01*
X364779D01*
X364280Y11631D02*
X364779Y12132D01*
X364280Y11631D02*
X364779Y11131D01*
X364280D02*
X364779D01*
X363779Y10632D02*
X364280Y11131D01*
X326893Y31330D02*
X327393Y30830D01*
X326393Y31330D02*
X326893D01*
X326393D02*
X326893Y31830D01*
X326393Y32331D02*
X326893Y31830D01*
X326393Y32331D02*
X326893D01*
X327393Y32831D01*
X327893Y32331D01*
X328393D01*
X327893Y31830D02*
X328393Y32331D01*
X327893Y31830D02*
X328393Y31330D01*
X327893D02*
X328393D01*
X327393Y30830D02*
X327893Y31330D01*
X329421Y34933D02*
X329921Y34433D01*
X328921Y34933D02*
X329421D01*
X328921D02*
X329421Y35433D01*
X328921Y35933D02*
X329421Y35433D01*
X328921Y35933D02*
X329421D01*
X329921Y36433D01*
X330421Y35933D01*
X330921D01*
X330421Y35433D02*
X330921Y35933D01*
X330421Y35433D02*
X330921Y34933D01*
X330421D02*
X330921D01*
X329921Y34433D02*
X330421Y34933D01*
X326272Y7424D02*
X326772Y6924D01*
X325772Y7424D02*
X326272D01*
X325772D02*
X326272Y7924D01*
X325772Y8424D02*
X326272Y7924D01*
X325772Y8424D02*
X326272D01*
X326772Y8924D01*
X327272Y8424D01*
X327772D01*
X327272Y7924D02*
X327772Y8424D01*
X327272Y7924D02*
X327772Y7424D01*
X327272D02*
X327772D01*
X326772Y6924D02*
X327272Y7424D01*
X363673Y28848D02*
X364173Y28348D01*
X363173Y28848D02*
X363673D01*
X363173D02*
X363673Y29348D01*
X363173Y29848D02*
X363673Y29348D01*
X363173Y29848D02*
X363673D01*
X364173Y30348D01*
X364673Y29848D01*
X365173D01*
X364673Y29348D02*
X365173Y29848D01*
X364673Y29348D02*
X365173Y28848D01*
X364673D02*
X365173D01*
X364173Y28348D02*
X364673Y28848D01*
X322335Y15314D02*
X322835Y14814D01*
X321835Y15314D02*
X322335D01*
X321835D02*
X322335Y15813D01*
X321835Y16314D02*
X322335Y15813D01*
X321835Y16314D02*
X322335D01*
X322835Y16814D01*
X323335Y16314D01*
X323835D01*
X323335Y15813D02*
X323835Y16314D01*
X323335Y15813D02*
X323835Y15314D01*
X323335D02*
X323835D01*
X322835Y14814D02*
X323335Y15314D01*
X340051Y32965D02*
X340551Y32465D01*
X339551Y32965D02*
X340051D01*
X339551D02*
X340051Y33465D01*
X339551Y33965D02*
X340051Y33465D01*
X339551Y33965D02*
X340051D01*
X340551Y34465D01*
X341051Y33965D01*
X341551D01*
X341051Y33465D02*
X341551Y33965D01*
X341051Y33465D02*
X341551Y32965D01*
X341051D02*
X341551D01*
X340551Y32465D02*
X341051Y32965D01*
X329421Y19185D02*
X329921Y18685D01*
X328921Y19185D02*
X329421D01*
X328921D02*
X329421Y19685D01*
X328921Y20185D02*
X329421Y19685D01*
X328921Y20185D02*
X329421D01*
X329921Y20685D01*
X330421Y20185D01*
X330921D01*
X330421Y19685D02*
X330921Y20185D01*
X330421Y19685D02*
X330921Y19185D01*
X330421D02*
X330921D01*
X329921Y18685D02*
X330421Y19185D01*
X340051Y29028D02*
X340551Y28528D01*
X339551Y29028D02*
X340051D01*
X339551D02*
X340051Y29528D01*
X339551Y30028D02*
X340051Y29528D01*
X339551Y30028D02*
X340051D01*
X340551Y30528D01*
X341051Y30028D01*
X341551D01*
X341051Y29528D02*
X341551Y30028D01*
X341051Y29528D02*
X341551Y29028D01*
X341051D02*
X341551D01*
X340551Y28528D02*
X341051Y29028D01*
X328240Y66429D02*
X328740Y65929D01*
X327740Y66429D02*
X328240D01*
X327740D02*
X328240Y66929D01*
X327740Y67429D02*
X328240Y66929D01*
X327740Y67429D02*
X328240D01*
X328740Y67929D01*
X329240Y67429D01*
X329740D01*
X329240Y66929D02*
X329740Y67429D01*
X329240Y66929D02*
X329740Y66429D01*
X329240D02*
X329740D01*
X328740Y65929D02*
X329240Y66429D01*
X317822Y43282D02*
X318322Y42782D01*
X317322Y43282D02*
X317822D01*
X317322D02*
X317822Y43782D01*
X317322Y44282D02*
X317822Y43782D01*
X317322Y44282D02*
X317822D01*
X318322Y44782D01*
X318822Y44282D01*
X319322D01*
X318822Y43782D02*
X319322Y44282D01*
X318822Y43782D02*
X319322Y43282D01*
X318822D02*
X319322D01*
X318322Y42782D02*
X318822Y43282D01*
X308555Y66429D02*
X309055Y65929D01*
X308055Y66429D02*
X308555D01*
X308055D02*
X308555Y66929D01*
X308055Y67429D02*
X308555Y66929D01*
X308055Y67429D02*
X308555D01*
X309055Y67929D01*
X309555Y67429D01*
X310055D01*
X309555Y66929D02*
X310055Y67429D01*
X309555Y66929D02*
X310055Y66429D01*
X309555D02*
X310055D01*
X309055Y65929D02*
X309555Y66429D01*
X312492D02*
X312992Y65929D01*
X311992Y66429D02*
X312492D01*
X311992D02*
X312492Y66929D01*
X311992Y67429D02*
X312492Y66929D01*
X311992Y67429D02*
X312492D01*
X312992Y67929D01*
X313492Y67429D01*
X313992D01*
X313492Y66929D02*
X313992Y67429D01*
X313492Y66929D02*
X313992Y66429D01*
X313492D02*
X313992D01*
X312992Y65929D02*
X313492Y66429D01*
X309343Y31073D02*
X309842Y30573D01*
X308842Y31073D02*
X309343D01*
X308842D02*
X309343Y31573D01*
X308842Y32073D02*
X309343Y31573D01*
X308842Y32073D02*
X309343D01*
X309842Y32573D01*
X310343Y32073D01*
X310842D01*
X310343Y31573D02*
X310842Y32073D01*
X310343Y31573D02*
X310842Y31073D01*
X310343D02*
X310842D01*
X309842Y30573D02*
X310343Y31073D01*
X311311Y29028D02*
X311811Y28528D01*
X310811Y29028D02*
X311311D01*
X310811D02*
X311311Y29528D01*
X310811Y30028D02*
X311311Y29528D01*
X310811Y30028D02*
X311311D01*
X311811Y30528D01*
X312311Y30028D01*
X312811D01*
X312311Y29528D02*
X312811Y30028D01*
X312311Y29528D02*
X312811Y29028D01*
X312311D02*
X312811D01*
X311811Y28528D02*
X312311Y29028D01*
X310513Y25091D02*
X311014Y24590D01*
X310014Y25091D02*
X310513D01*
X310014D02*
X310513Y25591D01*
X310014Y26091D02*
X310513Y25591D01*
X310014Y26091D02*
X310513D01*
X311014Y26591D01*
X311513Y26091D01*
X312014D01*
X311513Y25591D02*
X312014Y26091D01*
X311513Y25591D02*
X312014Y25091D01*
X311513D02*
X312014D01*
X311014Y24590D02*
X311513Y25091D01*
X307768Y20366D02*
X308268Y19866D01*
X307268Y20366D02*
X307768D01*
X307268D02*
X307768Y20866D01*
X307268Y21366D02*
X307768Y20866D01*
X307268Y21366D02*
X307768D01*
X308268Y21866D01*
X308768Y21366D01*
X309268D01*
X308768Y20866D02*
X309268Y21366D01*
X308768Y20866D02*
X309268Y20366D01*
X308768D02*
X309268D01*
X308268Y19866D02*
X308768Y20366D01*
X312492Y19201D02*
X312992Y18701D01*
X311992Y19201D02*
X312492D01*
X311992D02*
X312492Y19701D01*
X311992Y20201D02*
X312492Y19701D01*
X311992Y20201D02*
X312492D01*
X312992Y20701D01*
X313492Y20201D01*
X313992D01*
X313492Y19701D02*
X313992Y20201D01*
X313492Y19701D02*
X313992Y19201D01*
X313492D02*
X313992D01*
X312992Y18701D02*
X313492Y19201D01*
X312492Y23134D02*
X312992Y22634D01*
X311992Y23134D02*
X312492D01*
X311992D02*
X312492Y23634D01*
X311992Y24134D02*
X312492Y23634D01*
X311992Y24134D02*
X312492D01*
X312992Y24634D01*
X313492Y24134D01*
X313992D01*
X313492Y23634D02*
X313992Y24134D01*
X313492Y23634D02*
X313992Y23134D01*
X313492D02*
X313992D01*
X312992Y22634D02*
X313492Y23134D01*
X300681Y66429D02*
X301181Y65929D01*
X300181Y66429D02*
X300681D01*
X300181D02*
X300681Y66929D01*
X300181Y67429D02*
X300681Y66929D01*
X300181Y67429D02*
X300681D01*
X301181Y67929D01*
X301681Y67429D01*
X302181D01*
X301681Y66929D02*
X302181Y67429D01*
X301681Y66929D02*
X302181Y66429D01*
X301681D02*
X302181D01*
X301181Y65929D02*
X301681Y66429D01*
X304612Y62492D02*
X305112Y61992D01*
X304112Y62492D02*
X304612D01*
X304112D02*
X304612Y62992D01*
X304112Y63492D02*
X304612Y62992D01*
X304112Y63492D02*
X304612D01*
X305112Y63992D01*
X305612Y63492D01*
X306112D01*
X305612Y62992D02*
X306112Y63492D01*
X305612Y62992D02*
X306112Y62492D01*
X305612D02*
X306112D01*
X305112Y61992D02*
X305612Y62492D01*
X299504Y29028D02*
X300004Y28528D01*
X299004Y29028D02*
X299504D01*
X299004D02*
X299504Y29528D01*
X299004Y30028D02*
X299504Y29528D01*
X299004Y30028D02*
X299504D01*
X300004Y30528D01*
X300504Y30028D01*
X301004D01*
X300504Y29528D02*
X301004Y30028D01*
X300504Y29528D02*
X301004Y29028D01*
X300504D02*
X301004D01*
X300004Y28528D02*
X300504Y29028D01*
X299504Y25091D02*
X300004Y24590D01*
X299004Y25091D02*
X299504D01*
X299004D02*
X299504Y25591D01*
X299004Y26091D02*
X299504Y25591D01*
X299004Y26091D02*
X299504D01*
X300004Y26591D01*
X300504Y26091D01*
X301004D01*
X300504Y25591D02*
X301004Y26091D01*
X300504Y25591D02*
X301004Y25091D01*
X300504D02*
X301004D01*
X300004Y24590D02*
X300504Y25091D01*
X300681Y2497D02*
X301181Y1997D01*
X300181Y2497D02*
X300681D01*
X300181D02*
X300681Y2997D01*
X300181Y3497D02*
X300681Y2997D01*
X300181Y3497D02*
X300681D01*
X301181Y3997D01*
X301681Y3497D01*
X302181D01*
X301681Y2997D02*
X302181Y3497D01*
X301681Y2997D02*
X302181Y2497D01*
X301681D02*
X302181D01*
X301181Y1997D02*
X301681Y2497D01*
X296744Y62492D02*
X297244Y61992D01*
X296244Y62492D02*
X296744D01*
X296244D02*
X296744Y62992D01*
X296244Y63492D02*
X296744Y62992D01*
X296244Y63492D02*
X296744D01*
X297244Y63992D01*
X297744Y63492D01*
X298244D01*
X297744Y62992D02*
X298244Y63492D01*
X297744Y62992D02*
X298244Y62492D01*
X297744D02*
X298244D01*
X297244Y61992D02*
X297744Y62492D01*
X295535Y29059D02*
X296035Y28559D01*
X295035Y29059D02*
X295535D01*
X295035D02*
X295535Y29559D01*
X295035Y30059D02*
X295535Y29559D01*
X295035Y30059D02*
X295535D01*
X296035Y30559D01*
X296535Y30059D01*
X297035D01*
X296535Y29559D02*
X297035Y30059D01*
X296535Y29559D02*
X297035Y29059D01*
X296535D02*
X297035D01*
X296035Y28559D02*
X296535Y29059D01*
X295535Y25091D02*
X296035Y24590D01*
X295035Y25091D02*
X295535D01*
X295035D02*
X295535Y25591D01*
X295035Y26091D02*
X295535Y25591D01*
X295035Y26091D02*
X295535D01*
X296035Y26591D01*
X296535Y26091D01*
X297035D01*
X296535Y25591D02*
X297035Y26091D01*
X296535Y25591D02*
X297035Y25091D01*
X296535D02*
X297035D01*
X296035Y24590D02*
X296535Y25091D01*
X293125Y10600D02*
X293624Y10100D01*
X292624Y10600D02*
X293125D01*
X292624D02*
X293125Y11100D01*
X292624Y11600D02*
X293125Y11100D01*
X292624Y11600D02*
X293125D01*
X293624Y12100D01*
X294125Y11600D01*
X294624D01*
X294125Y11100D02*
X294624Y11600D01*
X294125Y11100D02*
X294624Y10600D01*
X294125D02*
X294624D01*
X293624Y10100D02*
X294125Y10600D01*
X296744Y2497D02*
X297244Y1997D01*
X296244Y2497D02*
X296744D01*
X296244D02*
X296744Y2997D01*
X296244Y3497D02*
X296744Y2997D01*
X296244Y3497D02*
X296744D01*
X297244Y3997D01*
X297744Y3497D01*
X298244D01*
X297744Y2997D02*
X298244Y3497D01*
X297744Y2997D02*
X298244Y2497D01*
X297744D02*
X298244D01*
X297244Y1997D02*
X297744Y2497D01*
X292807D02*
X293307Y1997D01*
X292307Y2497D02*
X292807D01*
X292307D02*
X292807Y2997D01*
X292307Y3497D02*
X292807Y2997D01*
X292307Y3497D02*
X292807D01*
X293307Y3997D01*
X293807Y3497D01*
X294307D01*
X293807Y2997D02*
X294307Y3497D01*
X293807Y2997D02*
X294307Y2497D01*
X293807D02*
X294307D01*
X293307Y1997D02*
X293807Y2497D01*
X287295Y58555D02*
X287795Y58055D01*
X286795Y58555D02*
X287295D01*
X286795D02*
X287295Y59055D01*
X286795Y59555D02*
X287295Y59055D01*
X286795Y59555D02*
X287295D01*
X287795Y60055D01*
X288295Y59555D01*
X288795D01*
X288295Y59055D02*
X288795Y59555D01*
X288295Y59055D02*
X288795Y58555D01*
X288295D02*
X288795D01*
X287795Y58055D02*
X288295Y58555D01*
X285056Y62492D02*
X285556Y61992D01*
X284556Y62492D02*
X285056D01*
X284556D02*
X285056Y62992D01*
X284556Y63492D02*
X285056Y62992D01*
X284556Y63492D02*
X285056D01*
X285556Y63992D01*
X286056Y63492D01*
X286556D01*
X286056Y62992D02*
X286556Y63492D01*
X286056Y62992D02*
X286556Y62492D01*
X286056D02*
X286556D01*
X285556Y61992D02*
X286056Y62492D01*
X282965Y56587D02*
X283465Y56087D01*
X282465Y56587D02*
X282965D01*
X282465D02*
X282965Y57087D01*
X282465Y57587D02*
X282965Y57087D01*
X282465Y57587D02*
X282965D01*
X283465Y58087D01*
X283965Y57587D01*
X284465D01*
X283965Y57087D02*
X284465Y57587D01*
X283965Y57087D02*
X284465Y56587D01*
X283965D02*
X284465D01*
X283465Y56087D02*
X283965Y56587D01*
X287295Y54618D02*
X287795Y54118D01*
X286795Y54618D02*
X287295D01*
X286795D02*
X287295Y55118D01*
X286795Y55618D02*
X287295Y55118D01*
X286795Y55618D02*
X287295D01*
X287795Y56118D01*
X288295Y55618D01*
X288795D01*
X288295Y55118D02*
X288795Y55618D01*
X288295Y55118D02*
X288795Y54618D01*
X288295D02*
X288795D01*
X287795Y54118D02*
X288295Y54618D01*
X284933Y52650D02*
X285433Y52150D01*
X284433Y52650D02*
X284933D01*
X284433D02*
X284933Y53150D01*
X284433Y53650D02*
X284933Y53150D01*
X284433Y53650D02*
X284933D01*
X285433Y54150D01*
X285933Y53650D01*
X286433D01*
X285933Y53150D02*
X286433Y53650D01*
X285933Y53150D02*
X286433Y52650D01*
X285933D02*
X286433D01*
X285433Y52150D02*
X285933Y52650D01*
X287295Y47532D02*
X287795Y47032D01*
X286795Y47532D02*
X287295D01*
X286795D02*
X287295Y48031D01*
X286795Y48531D02*
X287295Y48031D01*
X286795Y48531D02*
X287295D01*
X287795Y49031D01*
X288295Y48531D01*
X288795D01*
X288295Y48031D02*
X288795Y48531D01*
X288295Y48031D02*
X288795Y47532D01*
X288295D02*
X288795D01*
X287795Y47032D02*
X288295Y47532D01*
X286902Y21547D02*
X287402Y21047D01*
X286402Y21547D02*
X286902D01*
X286402D02*
X286902Y22047D01*
X286402Y22547D02*
X286902Y22047D01*
X286402Y22547D02*
X286902D01*
X287402Y23047D01*
X287902Y22547D01*
X288402D01*
X287902Y22047D02*
X288402Y22547D01*
X287902Y22047D02*
X288402Y21547D01*
X287902D02*
X288402D01*
X287402Y21047D02*
X287902Y21547D01*
X288870Y2497D02*
X289370Y1997D01*
X288370Y2497D02*
X288870D01*
X288370D02*
X288870Y2997D01*
X288370Y3497D02*
X288870Y2997D01*
X288370Y3497D02*
X288870D01*
X289370Y3997D01*
X289870Y3497D01*
X290370D01*
X289870Y2997D02*
X290370Y3497D01*
X289870Y2997D02*
X290370Y2497D01*
X289870D02*
X290370D01*
X289370Y1997D02*
X289870Y2497D01*
X280996Y52500D02*
X281496Y52000D01*
X280496Y52500D02*
X280996D01*
X280496D02*
X280996Y53000D01*
X280496Y53500D02*
X280996Y53000D01*
X280496Y53500D02*
X280996D01*
X281496Y54000D01*
X281996Y53500D01*
X282496D01*
X281996Y53000D02*
X282496Y53500D01*
X281996Y53000D02*
X282496Y52500D01*
X281996D02*
X282496D01*
X281496Y52000D02*
X281996Y52500D01*
X280996Y36902D02*
X281496Y36402D01*
X280496Y36902D02*
X280996D01*
X280496D02*
X280996Y37402D01*
X280496Y37902D02*
X280996Y37402D01*
X280496Y37902D02*
X280996D01*
X281496Y38402D01*
X281996Y37902D01*
X282496D01*
X281996Y37402D02*
X282496Y37902D01*
X281996Y37402D02*
X282496Y36902D01*
X281996D02*
X282496D01*
X281496Y36402D02*
X281996Y36902D01*
X277325Y28600D02*
X277824Y28100D01*
X276824Y28600D02*
X277325D01*
X276824D02*
X277325Y29100D01*
X276824Y29600D02*
X277325Y29100D01*
X276824Y29600D02*
X277325D01*
X277824Y30100D01*
X278325Y29600D01*
X278824D01*
X278325Y29100D02*
X278824Y29600D01*
X278325Y29100D02*
X278824Y28600D01*
X278325D02*
X278824D01*
X277824Y28100D02*
X278325Y28600D01*
X280996Y30012D02*
X281496Y29512D01*
X280496Y30012D02*
X280996D01*
X280496D02*
X280996Y30512D01*
X280496Y31012D02*
X280996Y30512D01*
X280496Y31012D02*
X280996D01*
X281496Y31512D01*
X281996Y31012D01*
X282496D01*
X281996Y30512D02*
X282496Y31012D01*
X281996Y30512D02*
X282496Y30012D01*
X281996D02*
X282496D01*
X281496Y29512D02*
X281996Y30012D01*
X277625Y21900D02*
X278124Y21400D01*
X277125Y21900D02*
X277625D01*
X277125D02*
X277625Y22400D01*
X277125Y22900D02*
X277625Y22400D01*
X277125Y22900D02*
X277625D01*
X278124Y23400D01*
X278625Y22900D01*
X279124D01*
X278625Y22400D02*
X279124Y22900D01*
X278625Y22400D02*
X279124Y21900D01*
X278625D02*
X279124D01*
X278124Y21400D02*
X278625Y21900D01*
X280996Y21547D02*
X281496Y21047D01*
X280496Y21547D02*
X280996D01*
X280496D02*
X280996Y22047D01*
X280496Y22547D02*
X280996Y22047D01*
X280496Y22547D02*
X280996D01*
X281496Y23047D01*
X281996Y22547D01*
X282496D01*
X281996Y22047D02*
X282496Y22547D01*
X281996Y22047D02*
X282496Y21547D01*
X281996D02*
X282496D01*
X281496Y21047D02*
X281996Y21547D01*
X277625Y11721D02*
X278124Y11221D01*
X277125Y11721D02*
X277625D01*
X277125D02*
X277625Y12221D01*
X277125Y12721D02*
X277625Y12221D01*
X277125Y12721D02*
X277625D01*
X278124Y13221D01*
X278625Y12721D01*
X279124D01*
X278625Y12221D02*
X279124Y12721D01*
X278625Y12221D02*
X279124Y11721D01*
X278625D02*
X279124D01*
X278124Y11221D02*
X278625Y11721D01*
X271525Y2000D02*
X272024Y1500D01*
X271024Y2000D02*
X271525D01*
X271024D02*
X271525Y2500D01*
X271024Y3000D02*
X271525Y2500D01*
X271024Y3000D02*
X271525D01*
X272024Y3500D01*
X272524Y3000D01*
X273025D01*
X272524Y2500D02*
X273025Y3000D01*
X272524Y2500D02*
X273025Y2000D01*
X272524D02*
X273025D01*
X272024Y1500D02*
X272524Y2000D01*
X268624D02*
X269125Y1500D01*
X268125Y2000D02*
X268624D01*
X268125D02*
X268624Y2500D01*
X268125Y3000D02*
X268624Y2500D01*
X268125Y3000D02*
X268624D01*
X269125Y3500D01*
X269624Y3000D01*
X270125D01*
X269624Y2500D02*
X270125Y3000D01*
X269624Y2500D02*
X270125Y2000D01*
X269624D02*
X270125D01*
X269125Y1500D02*
X269624Y2000D01*
X262886Y59342D02*
X263386Y58842D01*
X262386Y59342D02*
X262886D01*
X262386D02*
X262886Y59842D01*
X262386Y60343D02*
X262886Y59842D01*
X262386Y60343D02*
X262886D01*
X263386Y60843D01*
X263886Y60343D01*
X264386D01*
X263886Y59842D02*
X264386Y60343D01*
X263886Y59842D02*
X264386Y59342D01*
X263886D02*
X264386D01*
X263386Y58842D02*
X263886Y59342D01*
X263124Y2000D02*
X263625Y1500D01*
X262625Y2000D02*
X263124D01*
X262625D02*
X263124Y2500D01*
X262625Y3000D02*
X263124Y2500D01*
X262625Y3000D02*
X263124D01*
X263625Y3500D01*
X264124Y3000D01*
X264625D01*
X264124Y2500D02*
X264625Y3000D01*
X264124Y2500D02*
X264625Y2000D01*
X264124D02*
X264625D01*
X263625Y1500D02*
X264124Y2000D01*
X256980Y54618D02*
X257480Y54118D01*
X256480Y54618D02*
X256980D01*
X256480D02*
X256980Y55118D01*
X256480Y55618D02*
X256980Y55118D01*
X256480Y55618D02*
X256980D01*
X257480Y56118D01*
X257980Y55618D01*
X258480D01*
X257980Y55118D02*
X258480Y55618D01*
X257980Y55118D02*
X258480Y54618D01*
X257980D02*
X258480D01*
X257480Y54118D02*
X257980Y54618D01*
X243201Y51862D02*
X243701Y51362D01*
X242701Y51862D02*
X243201D01*
X242701D02*
X243201Y52362D01*
X242701Y52862D02*
X243201Y52362D01*
X242701Y52862D02*
X243201D01*
X243701Y53362D01*
X244201Y52862D01*
X244701D01*
X244201Y52362D02*
X244701Y52862D01*
X244201Y52362D02*
X244701Y51862D01*
X244201D02*
X244701D01*
X243701Y51362D02*
X244201Y51862D01*
X243201Y17610D02*
X243701Y17110D01*
X242701Y17610D02*
X243201D01*
X242701D02*
X243201Y18110D01*
X242701Y18610D02*
X243201Y18110D01*
X242701Y18610D02*
X243201D01*
X243701Y19110D01*
X244201Y18610D01*
X244701D01*
X244201Y18110D02*
X244701Y18610D01*
X244201Y18110D02*
X244701Y17610D01*
X244201D02*
X244701D01*
X243701Y17110D02*
X244201Y17610D01*
X237541Y36502D02*
X238041Y36002D01*
X237041Y36502D02*
X237541D01*
X237041D02*
X237541Y37002D01*
X237041Y37502D02*
X237541Y37002D01*
X237041Y37502D02*
X237541D01*
X238041Y38002D01*
X238541Y37502D01*
X239041D01*
X238541Y37002D02*
X239041Y37502D01*
X238541Y37002D02*
X239041Y36502D01*
X238541D02*
X239041D01*
X238041Y36002D02*
X238541Y36502D01*
X238083Y1862D02*
X238583Y1362D01*
X237583Y1862D02*
X238083D01*
X237583D02*
X238083Y2362D01*
X237583Y2862D02*
X238083Y2362D01*
X237583Y2862D02*
X238083D01*
X238583Y3362D01*
X239083Y2862D01*
X239583D01*
X239083Y2362D02*
X239583Y2862D01*
X239083Y2362D02*
X239583Y1862D01*
X239083D02*
X239583D01*
X238583Y1362D02*
X239083Y1862D01*
X229470Y52650D02*
X229970Y52150D01*
X228970Y52650D02*
X229470D01*
X228970D02*
X229470Y53150D01*
X228970Y53650D02*
X229470Y53150D01*
X228970Y53650D02*
X229470D01*
X229970Y54150D01*
X230470Y53650D01*
X230970D01*
X230470Y53150D02*
X230970Y53650D01*
X230470Y53150D02*
X230970Y52650D01*
X230470D02*
X230970D01*
X229970Y52150D02*
X230470Y52650D01*
X227059Y25878D02*
X227559Y25378D01*
X226559Y25878D02*
X227059D01*
X226559D02*
X227059Y26378D01*
X226559Y26878D02*
X227059Y26378D01*
X226559Y26878D02*
X227059D01*
X227559Y27378D01*
X228059Y26878D01*
X228559D01*
X228059Y26378D02*
X228559Y26878D01*
X228059Y26378D02*
X228559Y25878D01*
X228059D02*
X228559D01*
X227559Y25378D02*
X228059Y25878D01*
X227059Y21547D02*
X227559Y21047D01*
X226559Y21547D02*
X227059D01*
X226559D02*
X227059Y22047D01*
X226559Y22547D02*
X227059Y22047D01*
X226559Y22547D02*
X227059D01*
X227559Y23047D01*
X228059Y22547D01*
X228559D01*
X228059Y22047D02*
X228559Y22547D01*
X228059Y22047D02*
X228559Y21547D01*
X228059D02*
X228559D01*
X227559Y21047D02*
X228059Y21547D01*
X229421Y9342D02*
X229921Y8843D01*
X228921Y9342D02*
X229421D01*
X228921D02*
X229421Y9843D01*
X228921Y10343D02*
X229421Y9843D01*
X228921Y10343D02*
X229421D01*
X229921Y10842D01*
X230421Y10343D01*
X230921D01*
X230421Y9843D02*
X230921Y10343D01*
X230421Y9843D02*
X230921Y9342D01*
X230421D02*
X230921D01*
X229921Y8843D02*
X230421Y9342D01*
X223516Y52650D02*
X224016Y52150D01*
X223016Y52650D02*
X223516D01*
X223016D02*
X223516Y53150D01*
X223016Y53650D02*
X223516Y53150D01*
X223016Y53650D02*
X223516D01*
X224016Y54150D01*
X224516Y53650D01*
X225016D01*
X224516Y53150D02*
X225016Y53650D01*
X224516Y53150D02*
X225016Y52650D01*
X224516D02*
X225016D01*
X224016Y52150D02*
X224516Y52650D01*
X223909Y36508D02*
X224410Y36008D01*
X223410Y36508D02*
X223909D01*
X223410D02*
X223909Y37008D01*
X223410Y37508D02*
X223909Y37008D01*
X223410Y37508D02*
X223909D01*
X224410Y38008D01*
X224909Y37508D01*
X225410D01*
X224909Y37008D02*
X225410Y37508D01*
X224909Y37008D02*
X225410Y36508D01*
X224909D02*
X225410D01*
X224410Y36008D02*
X224909Y36508D01*
X221941Y5799D02*
X222441Y5299D01*
X221441Y5799D02*
X221941D01*
X221441D02*
X221941Y6299D01*
X221441Y6799D02*
X221941Y6299D01*
X221441Y6799D02*
X221941D01*
X222441Y7299D01*
X222941Y6799D01*
X223441D01*
X222941Y6299D02*
X223441Y6799D01*
X222941Y6299D02*
X223441Y5799D01*
X222941D02*
X223441D01*
X222441Y5299D02*
X222941Y5799D01*
X211639Y31073D02*
X212139Y30573D01*
X211139Y31073D02*
X211639D01*
X211139D02*
X211639Y31573D01*
X211139Y32073D02*
X211639Y31573D01*
X211139Y32073D02*
X211639D01*
X212139Y32573D01*
X212639Y32073D01*
X213139D01*
X212639Y31573D02*
X213139Y32073D01*
X212639Y31573D02*
X213139Y31073D01*
X212639D02*
X213139D01*
X212139Y30573D02*
X212639Y31073D01*
X212968Y27454D02*
X213468Y26954D01*
X212468Y27454D02*
X212968D01*
X212468D02*
X212968Y27954D01*
X212468Y28454D02*
X212968Y27954D01*
X212468Y28454D02*
X212968D01*
X213468Y28954D01*
X213968Y28454D01*
X214468D01*
X213968Y27954D02*
X214468Y28454D01*
X213968Y27954D02*
X214468Y27454D01*
X213968D02*
X214468D01*
X213468Y26954D02*
X213968Y27454D01*
X207839Y44110D02*
X208339Y43610D01*
X207339Y44110D02*
X207839D01*
X207339D02*
X207839Y44610D01*
X207339Y45110D02*
X207839Y44610D01*
X207339Y45110D02*
X207839D01*
X208339Y45610D01*
X208839Y45110D01*
X209339D01*
X208839Y44610D02*
X209339Y45110D01*
X208839Y44610D02*
X209339Y44110D01*
X208839D02*
X209339D01*
X208339Y43610D02*
X208839Y44110D01*
X205612Y33491D02*
X206112Y32991D01*
X205112Y33491D02*
X205612D01*
X205112D02*
X205612Y33991D01*
X205112Y34491D02*
X205612Y33991D01*
X205112Y34491D02*
X205612D01*
X206112Y34991D01*
X206612Y34491D01*
X207112D01*
X206612Y33991D02*
X207112Y34491D01*
X206612Y33991D02*
X207112Y33491D01*
X206612D02*
X207112D01*
X206112Y32991D02*
X206612Y33491D01*
X208181Y27454D02*
X208681Y26954D01*
X207681Y27454D02*
X208181D01*
X207681D02*
X208181Y27954D01*
X207681Y28454D02*
X208181Y27954D01*
X207681Y28454D02*
X208181D01*
X208681Y28954D01*
X209181Y28454D01*
X209681D01*
X209181Y27954D02*
X209681Y28454D01*
X209181Y27954D02*
X209681Y27454D01*
X209181D02*
X209681D01*
X208681Y26954D02*
X209181Y27454D01*
X206193Y9736D02*
X206693Y9236D01*
X205693Y9736D02*
X206193D01*
X205693D02*
X206193Y10236D01*
X205693Y10736D02*
X206193Y10236D01*
X205693Y10736D02*
X206193D01*
X206693Y11236D01*
X207193Y10736D01*
X207693D01*
X207193Y10236D02*
X207693Y10736D01*
X207193Y10236D02*
X207693Y9736D01*
X207193D02*
X207693D01*
X206693Y9236D02*
X207193Y9736D01*
X206037Y5799D02*
X206537Y5299D01*
X205537Y5799D02*
X206037D01*
X205537D02*
X206037Y6299D01*
X205537Y6799D02*
X206037Y6299D01*
X205537Y6799D02*
X206037D01*
X206537Y7299D01*
X207037Y6799D01*
X207537D01*
X207037Y6299D02*
X207537Y6799D01*
X207037Y6299D02*
X207537Y5799D01*
X207037D02*
X207537D01*
X206537Y5299D02*
X207037Y5799D01*
X198041Y43562D02*
X198541Y43062D01*
X197541Y43562D02*
X198041D01*
X197541D02*
X198041Y44062D01*
X197541Y44562D02*
X198041Y44062D01*
X197541Y44562D02*
X198041D01*
X198541Y45062D01*
X199041Y44562D01*
X199541D01*
X199041Y44062D02*
X199541Y44562D01*
X199041Y44062D02*
X199541Y43562D01*
X199041D02*
X199541D01*
X198541Y43062D02*
X199041Y43562D01*
X190445Y51075D02*
X190945Y50575D01*
X189945Y51075D02*
X190445D01*
X189945D02*
X190445Y51575D01*
X189945Y52075D02*
X190445Y51575D01*
X189945Y52075D02*
X190445D01*
X190945Y52575D01*
X191445Y52075D01*
X191945D01*
X191445Y51575D02*
X191945Y52075D01*
X191445Y51575D02*
X191945Y51075D01*
X191445D02*
X191945D01*
X190945Y50575D02*
X191445Y51075D01*
X191232Y53831D02*
X191732Y53331D01*
X190732Y53831D02*
X191232D01*
X190732D02*
X191232Y54331D01*
X190732Y54831D02*
X191232Y54331D01*
X190732Y54831D02*
X191232D01*
X191732Y55331D01*
X192232Y54831D01*
X192732D01*
X192232Y54331D02*
X192732Y54831D01*
X192232Y54331D02*
X192732Y53831D01*
X192232D02*
X192732D01*
X191732Y53331D02*
X192232Y53831D01*
X190513Y39065D02*
X191013Y38565D01*
X190013Y39065D02*
X190513D01*
X190013D02*
X190513Y39565D01*
X190013Y40065D02*
X190513Y39565D01*
X190013Y40065D02*
X190513D01*
X191013Y40565D01*
X191513Y40065D01*
X192013D01*
X191513Y39565D02*
X192013Y40065D01*
X191513Y39565D02*
X192013Y39065D01*
X191513D02*
X192013D01*
X191013Y38565D02*
X191513Y39065D01*
X190513Y36317D02*
X191013Y35817D01*
X190013Y36317D02*
X190513D01*
X190013D02*
X190513Y36817D01*
X190013Y37317D02*
X190513Y36817D01*
X190013Y37317D02*
X190513D01*
X191013Y37817D01*
X191513Y37317D01*
X192013D01*
X191513Y36817D02*
X192013Y37317D01*
X191513Y36817D02*
X192013Y36317D01*
X191513D02*
X192013D01*
X191013Y35817D02*
X191513Y36317D01*
X191632Y9917D02*
X192132Y9417D01*
X191132Y9917D02*
X191632D01*
X191132D02*
X191632Y10417D01*
X191132Y10917D02*
X191632Y10417D01*
X191132Y10917D02*
X191632D01*
X192132Y11417D01*
X192632Y10917D01*
X193132D01*
X192632Y10417D02*
X193132Y10917D01*
X192632Y10417D02*
X193132Y9917D01*
X192632D02*
X193132D01*
X192132Y9417D02*
X192632Y9917D01*
X191632Y6227D02*
X192132Y5727D01*
X191132Y6227D02*
X191632D01*
X191132D02*
X191632Y6727D01*
X191132Y7227D02*
X191632Y6727D01*
X191132Y7227D02*
X191632D01*
X192132Y7727D01*
X192632Y7227D01*
X193132D01*
X192632Y6727D02*
X193132Y7227D01*
X192632Y6727D02*
X193132Y6227D01*
X192632D02*
X193132D01*
X192132Y5727D02*
X192632Y6227D01*
X178900Y67800D02*
X179400Y67300D01*
X178400Y67800D02*
X178900D01*
X178400D02*
X178900Y68300D01*
X178400Y68800D02*
X178900Y68300D01*
X178400Y68800D02*
X178900D01*
X179400Y69300D01*
X179900Y68800D01*
X180400D01*
X179900Y68300D02*
X180400Y68800D01*
X179900Y68300D02*
X180400Y67800D01*
X179900D02*
X180400D01*
X179400Y67300D02*
X179900Y67800D01*
X171167D02*
X171667Y67300D01*
X170667Y67800D02*
X171167D01*
X170667D02*
X171167Y68300D01*
X170667Y68800D02*
X171167Y68300D01*
X170667Y68800D02*
X171167D01*
X171667Y69300D01*
X172167Y68800D01*
X172667D01*
X172167Y68300D02*
X172667Y68800D01*
X172167Y68300D02*
X172667Y67800D01*
X172167D02*
X172667D01*
X171667Y67300D02*
X172167Y67800D01*
X174697Y42020D02*
X175197Y41520D01*
X174197Y42020D02*
X174697D01*
X174197D02*
X174697Y42520D01*
X174197Y43020D02*
X174697Y42520D01*
X174197Y43020D02*
X174697D01*
X175197Y43520D01*
X175697Y43020D01*
X176197D01*
X175697Y42520D02*
X176197Y43020D01*
X175697Y42520D02*
X176197Y42020D01*
X175697D02*
X176197D01*
X175197Y41520D02*
X175697Y42020D01*
X174697Y44382D02*
X175197Y43882D01*
X174197Y44382D02*
X174697D01*
X174197D02*
X174697Y44882D01*
X174197Y45382D02*
X174697Y44882D01*
X174197Y45382D02*
X174697D01*
X175197Y45882D01*
X175697Y45382D01*
X176197D01*
X175697Y44882D02*
X176197Y45382D01*
X175697Y44882D02*
X176197Y44382D01*
X175697D02*
X176197D01*
X175197Y43882D02*
X175697Y44382D01*
X173122Y18398D02*
X173622Y17898D01*
X172622Y18398D02*
X173122D01*
X172622D02*
X173122Y18898D01*
X172622Y19398D02*
X173122Y18898D01*
X172622Y19398D02*
X173122D01*
X173622Y19898D01*
X174122Y19398D01*
X174622D01*
X174122Y18898D02*
X174622Y19398D01*
X174122Y18898D02*
X174622Y18398D01*
X174122D02*
X174622D01*
X173622Y17898D02*
X174122Y18398D01*
X174400Y10643D02*
X174900Y10143D01*
X173900Y10643D02*
X174400D01*
X173900D02*
X174400Y11143D01*
X173900Y11643D02*
X174400Y11143D01*
X173900Y11643D02*
X174400D01*
X174900Y12143D01*
X175400Y11643D01*
X175900D01*
X175400Y11143D02*
X175900Y11643D01*
X175400Y11143D02*
X175900Y10643D01*
X175400D02*
X175900D01*
X174900Y10143D02*
X175400Y10643D01*
X171613Y6341D02*
X172113Y5841D01*
X171113Y6341D02*
X171613D01*
X171113D02*
X171613Y6841D01*
X171113Y7341D02*
X171613Y6841D01*
X171113Y7341D02*
X171613D01*
X172113Y7841D01*
X172613Y7341D01*
X173113D01*
X172613Y6841D02*
X173113Y7341D01*
X172613Y6841D02*
X173113Y6341D01*
X172613D02*
X173113D01*
X172113Y5841D02*
X172613Y6341D01*
X163433Y67800D02*
X163933Y67300D01*
X162933Y67800D02*
X163433D01*
X162933D02*
X163433Y68300D01*
X162933Y68800D02*
X163433Y68300D01*
X162933Y68800D02*
X163433D01*
X163933Y69300D01*
X164433Y68800D01*
X164933D01*
X164433Y68300D02*
X164933Y68800D01*
X164433Y68300D02*
X164933Y67800D01*
X164433D02*
X164933D01*
X163933Y67300D02*
X164433Y67800D01*
X163126Y2300D02*
X163626Y1800D01*
X162626Y2300D02*
X163126D01*
X162626D02*
X163126Y2800D01*
X162626Y3300D02*
X163126Y2800D01*
X162626Y3300D02*
X163126D01*
X163626Y3800D01*
X164126Y3300D01*
X164626D01*
X164126Y2800D02*
X164626Y3300D01*
X164126Y2800D02*
X164626Y2300D01*
X164126D02*
X164626D01*
X163626Y1800D02*
X164126Y2300D01*
X155700Y67800D02*
X156200Y67300D01*
X155200Y67800D02*
X155700D01*
X155200D02*
X155700Y68300D01*
X155200Y68800D02*
X155700Y68300D01*
X155200Y68800D02*
X155700D01*
X156200Y69300D01*
X156700Y68800D01*
X157200D01*
X156700Y68300D02*
X157200Y68800D01*
X156700Y68300D02*
X157200Y67800D01*
X156700D02*
X157200D01*
X156200Y67300D02*
X156700Y67800D01*
X160900Y21000D02*
X161400Y20500D01*
X160400Y21000D02*
X160900D01*
X160400D02*
X160900Y21500D01*
X160400Y22000D02*
X160900Y21500D01*
X160400Y22000D02*
X160900D01*
X161400Y22500D01*
X161900Y22000D01*
X162400D01*
X161900Y21500D02*
X162400Y22000D01*
X161900Y21500D02*
X162400Y21000D01*
X161900D02*
X162400D01*
X161400Y20500D02*
X161900Y21000D01*
X155569Y13687D02*
X156069Y13187D01*
X155069Y13687D02*
X155569D01*
X155069D02*
X155569Y14187D01*
X155069Y14687D02*
X155569Y14187D01*
X155069Y14687D02*
X155569D01*
X156069Y15187D01*
X156569Y14687D01*
X157069D01*
X156569Y14187D02*
X157069Y14687D01*
X156569Y14187D02*
X157069Y13687D01*
X156569D02*
X157069D01*
X156069Y13187D02*
X156569Y13687D01*
X156400Y6454D02*
X156900Y5954D01*
X155900Y6454D02*
X156400D01*
X155900D02*
X156400Y6954D01*
X155900Y7454D02*
X156400Y6954D01*
X155900Y7454D02*
X156400D01*
X156900Y7954D01*
X157400Y7454D01*
X157900D01*
X157400Y6954D02*
X157900Y7454D01*
X157400Y6954D02*
X157900Y6454D01*
X157400D02*
X157900D01*
X156900Y5954D02*
X157400Y6454D01*
X155569Y2846D02*
X156069Y2346D01*
X155069Y2846D02*
X155569D01*
X155069D02*
X155569Y3346D01*
X155069Y3846D02*
X155569Y3346D01*
X155069Y3846D02*
X155569D01*
X156069Y4346D01*
X156569Y3846D01*
X157069D01*
X156569Y3346D02*
X157069Y3846D01*
X156569Y3346D02*
X157069Y2846D01*
X156569D02*
X157069D01*
X156069Y2346D02*
X156569Y2846D01*
X148400Y20900D02*
X148900Y20400D01*
X147900Y20900D02*
X148400D01*
X147900D02*
X148400Y21400D01*
X147900Y21900D02*
X148400Y21400D01*
X147900Y21900D02*
X148400D01*
X148900Y22400D01*
X149400Y21900D01*
X149900D01*
X149400Y21400D02*
X149900Y21900D01*
X149400Y21400D02*
X149900Y20900D01*
X149400D02*
X149900D01*
X148900Y20400D02*
X149400Y20900D01*
X143201Y113673D02*
X143701Y113173D01*
X142701Y113673D02*
X143201D01*
X142701D02*
X143201Y114173D01*
X142701Y114673D02*
X143201Y114173D01*
X142701Y114673D02*
X143201D01*
X143701Y115173D01*
X144201Y114673D01*
X144701D01*
X144201Y114173D02*
X144701Y114673D01*
X144201Y114173D02*
X144701Y113673D01*
X144201D02*
X144701D01*
X143701Y113173D02*
X144201Y113673D01*
X143201Y109736D02*
X143701Y109236D01*
X142701Y109736D02*
X143201D01*
X142701D02*
X143201Y110236D01*
X142701Y110736D02*
X143201Y110236D01*
X142701Y110736D02*
X143201D01*
X143701Y111236D01*
X144201Y110736D01*
X144701D01*
X144201Y110236D02*
X144701Y110736D01*
X144201Y110236D02*
X144701Y109736D01*
X144201D02*
X144701D01*
X143701Y109236D02*
X144201Y109736D01*
X143201Y105799D02*
X143701Y105299D01*
X142701Y105799D02*
X143201D01*
X142701D02*
X143201Y106299D01*
X142701Y106799D02*
X143201Y106299D01*
X142701Y106799D02*
X143201D01*
X143701Y107299D01*
X144201Y106799D01*
X144701D01*
X144201Y106299D02*
X144701Y106799D01*
X144201Y106299D02*
X144701Y105799D01*
X144201D02*
X144701D01*
X143701Y105299D02*
X144201Y105799D01*
X142083Y81784D02*
X142583Y81284D01*
X141583Y81784D02*
X142083D01*
X141583D02*
X142083Y82284D01*
X141583Y82784D02*
X142083Y82284D01*
X141583Y82784D02*
X142083D01*
X142583Y83284D01*
X143083Y82784D01*
X143583D01*
X143083Y82284D02*
X143583Y82784D01*
X143083Y82284D02*
X143583Y81784D01*
X143083D02*
X143583D01*
X142583Y81284D02*
X143083Y81784D01*
X143300Y10840D02*
X143800Y10340D01*
X142800Y10840D02*
X143300D01*
X142800D02*
X143300Y11340D01*
X142800Y11840D02*
X143300Y11340D01*
X142800Y11840D02*
X143300D01*
X143800Y12340D01*
X144300Y11840D01*
X144800D01*
X144300Y11340D02*
X144800Y11840D01*
X144300Y11340D02*
X144800Y10840D01*
X144300D02*
X144800D01*
X143800Y10340D02*
X144300Y10840D01*
X140445Y13280D02*
X140945Y12779D01*
X139945Y13280D02*
X140445D01*
X139945D02*
X140445Y13780D01*
X139945Y14279D02*
X140445Y13780D01*
X139945Y14279D02*
X140445D01*
X140945Y14780D01*
X141445Y14279D01*
X141945D01*
X141445Y13780D02*
X141945Y14279D01*
X141445Y13780D02*
X141945Y13280D01*
X141445D02*
X141945D01*
X140945Y12779D02*
X141445Y13280D01*
X143300Y1898D02*
X143800Y1398D01*
X142800Y1898D02*
X143300D01*
X142800D02*
X143300Y2398D01*
X142800Y2898D02*
X143300Y2398D01*
X142800Y2898D02*
X143300D01*
X143800Y3398D01*
X144300Y2898D01*
X144800D01*
X144300Y2398D02*
X144800Y2898D01*
X144300Y2398D02*
X144800Y1898D01*
X144300D02*
X144800D01*
X143800Y1398D02*
X144300Y1898D01*
X133358Y113673D02*
X133858Y113173D01*
X132858Y113673D02*
X133358D01*
X132858D02*
X133358Y114173D01*
X132858Y114673D02*
X133358Y114173D01*
X132858Y114673D02*
X133358D01*
X133858Y115173D01*
X134358Y114673D01*
X134858D01*
X134358Y114173D02*
X134858Y114673D01*
X134358Y114173D02*
X134858Y113673D01*
X134358D02*
X134858D01*
X133858Y113173D02*
X134358Y113673D01*
X133358Y109736D02*
X133858Y109236D01*
X132858Y109736D02*
X133358D01*
X132858D02*
X133358Y110236D01*
X132858Y110736D02*
X133358Y110236D01*
X132858Y110736D02*
X133358D01*
X133858Y111236D01*
X134358Y110736D01*
X134858D01*
X134358Y110236D02*
X134858Y110736D01*
X134358Y110236D02*
X134858Y109736D01*
X134358D02*
X134858D01*
X133858Y109236D02*
X134358Y109736D01*
X133358Y105799D02*
X133858Y105299D01*
X132858Y105799D02*
X133358D01*
X132858D02*
X133358Y106299D01*
X132858Y106799D02*
X133358Y106299D01*
X132858Y106799D02*
X133358D01*
X133858Y107299D01*
X134358Y106799D01*
X134858D01*
X134358Y106299D02*
X134858Y106799D01*
X134358Y106299D02*
X134858Y105799D01*
X134358D02*
X134858D01*
X133858Y105299D02*
X134358Y105799D01*
X133752Y73516D02*
X134252Y73016D01*
X133252Y73516D02*
X133752D01*
X133252D02*
X133752Y74016D01*
X133252Y74516D02*
X133752Y74016D01*
X133252Y74516D02*
X133752D01*
X134252Y75016D01*
X134752Y74516D01*
X135252D01*
X134752Y74016D02*
X135252Y74516D01*
X134752Y74016D02*
X135252Y73516D01*
X134752D02*
X135252D01*
X134252Y73016D02*
X134752Y73516D01*
X132249Y76049D02*
X132749Y75549D01*
X131749Y76049D02*
X132249D01*
X131749D02*
X132249Y76549D01*
X131749Y77049D02*
X132249Y76549D01*
X131749Y77049D02*
X132249D01*
X132749Y77549D01*
X133249Y77049D01*
X133749D01*
X133249Y76549D02*
X133749Y77049D01*
X133249Y76549D02*
X133749Y76049D01*
X133249D02*
X133749D01*
X132749Y75549D02*
X133249Y76049D01*
X133090Y65248D02*
X133590Y64748D01*
X132590Y65248D02*
X133090D01*
X132590D02*
X133090Y65748D01*
X132590Y66248D02*
X133090Y65748D01*
X132590Y66248D02*
X133090D01*
X133590Y66748D01*
X134090Y66248D01*
X134590D01*
X134090Y65748D02*
X134590Y66248D01*
X134090Y65748D02*
X134590Y65248D01*
X134090D02*
X134590D01*
X133590Y64748D02*
X134090Y65248D01*
X136114Y71153D02*
X136614Y70653D01*
X135614Y71153D02*
X136114D01*
X135614D02*
X136114Y71653D01*
X135614Y72154D02*
X136114Y71653D01*
X135614Y72154D02*
X136114D01*
X136614Y72654D01*
X137114Y72154D01*
X137614D01*
X137114Y71653D02*
X137614Y72154D01*
X137114Y71653D02*
X137614Y71153D01*
X137114D02*
X137614D01*
X136614Y70653D02*
X137114Y71153D01*
X132177Y35721D02*
X132677Y35221D01*
X131677Y35721D02*
X132177D01*
X131677D02*
X132177Y36220D01*
X131677Y36720D02*
X132177Y36220D01*
X131677Y36720D02*
X132177D01*
X132677Y37220D01*
X133177Y36720D01*
X133677D01*
X133177Y36220D02*
X133677Y36720D01*
X133177Y36220D02*
X133677Y35721D01*
X133177D02*
X133677D01*
X132677Y35221D02*
X133177Y35721D01*
X132249Y29883D02*
X132749Y29383D01*
X131749Y29883D02*
X132249D01*
X131749D02*
X132249Y30383D01*
X131749Y30883D02*
X132249Y30383D01*
X131749Y30883D02*
X132249D01*
X132749Y31383D01*
X133249Y30883D01*
X133749D01*
X133249Y30383D02*
X133749Y30883D01*
X133249Y30383D02*
X133749Y29883D01*
X133249D02*
X133749D01*
X132749Y29383D02*
X133249Y29883D01*
X135327Y18398D02*
X135827Y17898D01*
X134827Y18398D02*
X135327D01*
X134827D02*
X135327Y18898D01*
X134827Y19398D02*
X135327Y18898D01*
X134827Y19398D02*
X135327D01*
X135827Y19898D01*
X136327Y19398D01*
X136827D01*
X136327Y18898D02*
X136827Y19398D01*
X136327Y18898D02*
X136827Y18398D01*
X136327D02*
X136827D01*
X135827Y17898D02*
X136327Y18398D01*
X75484Y11311D02*
X75984Y10811D01*
X74984Y11311D02*
X75484D01*
X74984D02*
X75484Y11811D01*
X74984Y12311D02*
X75484Y11811D01*
X74984Y12311D02*
X75484D01*
X75984Y12811D01*
X76484Y12311D01*
X76984D01*
X76484Y11811D02*
X76984Y12311D01*
X76484Y11811D02*
X76984Y11311D01*
X76484D02*
X76984D01*
X75984Y10811D02*
X76484Y11311D01*
X75484Y2256D02*
X75984Y1756D01*
X74984Y2256D02*
X75484D01*
X74984D02*
X75484Y2756D01*
X74984Y3256D02*
X75484Y2756D01*
X74984Y3256D02*
X75484D01*
X75984Y3756D01*
X76484Y3256D01*
X76984D01*
X76484Y2756D02*
X76984Y3256D01*
X76484Y2756D02*
X76984Y2256D01*
X76484D02*
X76984D01*
X75984Y1756D02*
X76484Y2256D01*
X72335Y81396D02*
X72835Y80896D01*
X71835Y81396D02*
X72335D01*
X71835D02*
X72335Y81896D01*
X71835Y82396D02*
X72335Y81896D01*
X71835Y82396D02*
X72335D01*
X72835Y82896D01*
X73335Y82396D01*
X73835D01*
X73335Y81896D02*
X73835Y82396D01*
X73335Y81896D02*
X73835Y81396D01*
X73335D02*
X73835D01*
X72835Y80896D02*
X73335Y81396D01*
X71547Y67216D02*
X72047Y66716D01*
X71047Y67216D02*
X71547D01*
X71047D02*
X71547Y67716D01*
X71047Y68217D02*
X71547Y67716D01*
X71047Y68217D02*
X71547D01*
X72047Y68717D01*
X72547Y68217D01*
X73047D01*
X72547Y67716D02*
X73047Y68217D01*
X72547Y67716D02*
X73047Y67216D01*
X72547D02*
X73047D01*
X72047Y66716D02*
X72547Y67216D01*
X68004Y29600D02*
X68504Y29100D01*
X67504Y29600D02*
X68004D01*
X67504D02*
X68004Y30100D01*
X67504Y30600D02*
X68004Y30100D01*
X67504Y30600D02*
X68004D01*
X68504Y31100D01*
X69004Y30600D01*
X69504D01*
X69004Y30100D02*
X69504Y30600D01*
X69004Y30100D02*
X69504Y29600D01*
X69004D02*
X69504D01*
X68504Y29100D02*
X69004Y29600D01*
X67046Y1500D02*
X67546Y1000D01*
X66546Y1500D02*
X67046D01*
X66546D02*
X67046Y2000D01*
X66546Y2500D02*
X67046Y2000D01*
X66546Y2500D02*
X67046D01*
X67546Y3000D01*
X68046Y2500D01*
X68546D01*
X68046Y2000D02*
X68546Y2500D01*
X68046Y2000D02*
X68546Y1500D01*
X68046D02*
X68546D01*
X67546Y1000D02*
X68046Y1500D01*
X62492Y114415D02*
X62992Y113915D01*
X61992Y114415D02*
X62492D01*
X61992D02*
X62492Y114915D01*
X61992Y115415D02*
X62492Y114915D01*
X61992Y115415D02*
X62492D01*
X62992Y115915D01*
X63492Y115415D01*
X63992D01*
X63492Y114915D02*
X63992Y115415D01*
X63492Y114915D02*
X63992Y114415D01*
X63492D02*
X63992D01*
X62992Y113915D02*
X63492Y114415D01*
X60917Y67216D02*
X61417Y66716D01*
X60417Y67216D02*
X60917D01*
X60417D02*
X60917Y67716D01*
X60417Y68217D02*
X60917Y67716D01*
X60417Y68217D02*
X60917D01*
X61417Y68717D01*
X61917Y68217D01*
X62417D01*
X61917Y67716D02*
X62417Y68217D01*
X61917Y67716D02*
X62417Y67216D01*
X61917D02*
X62417D01*
X61417Y66716D02*
X61917Y67216D01*
X60917Y38083D02*
X61417Y37583D01*
X60417Y38083D02*
X60917D01*
X60417D02*
X60917Y38583D01*
X60417Y39083D02*
X60917Y38583D01*
X60417Y39083D02*
X60917D01*
X61417Y39583D01*
X61917Y39083D01*
X62417D01*
X61917Y38583D02*
X62417Y39083D01*
X61917Y38583D02*
X62417Y38083D01*
X61917D02*
X62417D01*
X61417Y37583D02*
X61917Y38083D01*
X64599Y1500D02*
X65099Y1000D01*
X64099Y1500D02*
X64599D01*
X64099D02*
X64599Y2000D01*
X64099Y2500D02*
X64599Y2000D01*
X64099Y2500D02*
X64599D01*
X65099Y3000D01*
X65599Y2500D01*
X66099D01*
X65599Y2000D02*
X66099Y2500D01*
X65599Y2000D02*
X66099Y1500D01*
X65599D02*
X66099D01*
X65099Y1000D02*
X65599Y1500D01*
X60693D02*
X61193Y1000D01*
X60193Y1500D02*
X60693D01*
X60193D02*
X60693Y2000D01*
X60193Y2500D02*
X60693Y2000D01*
X60193Y2500D02*
X60693D01*
X61193Y3000D01*
X61693Y2500D01*
X62193D01*
X61693Y2000D02*
X62193Y2500D01*
X61693Y2000D02*
X62193Y1500D01*
X61693D02*
X62193D01*
X61193Y1000D02*
X61693Y1500D01*
X55735Y110876D02*
X56235Y110376D01*
X55235Y110876D02*
X55735D01*
X55235D02*
X55735Y111376D01*
X55235Y111876D02*
X55735Y111376D01*
X55235Y111876D02*
X55735D01*
X56235Y112376D01*
X56735Y111876D01*
X57235D01*
X56735Y111376D02*
X57235Y111876D01*
X56735Y111376D02*
X57235Y110876D01*
X56735D02*
X57235D01*
X56235Y110376D02*
X56735Y110876D01*
X55405Y77453D02*
X55905Y76953D01*
X54905Y77453D02*
X55405D01*
X54905D02*
X55405Y77953D01*
X54905Y78453D02*
X55405Y77953D01*
X54905Y78453D02*
X55405D01*
X55905Y78953D01*
X56406Y78453D01*
X56906D01*
X56406Y77953D02*
X56906Y78453D01*
X56406Y77953D02*
X56906Y77453D01*
X56406D02*
X56906D01*
X55905Y76953D02*
X56406Y77453D01*
X56520Y69510D02*
X57020Y69010D01*
X56020Y69510D02*
X56520D01*
X56020D02*
X56520Y70010D01*
X56020Y70510D02*
X56520Y70010D01*
X56020Y70510D02*
X56520D01*
X57020Y71010D01*
X57520Y70510D01*
X58020D01*
X57520Y70010D02*
X58020Y70510D01*
X57520Y70010D02*
X58020Y69510D01*
X57520D02*
X58020D01*
X57020Y69010D02*
X57520Y69510D01*
X51862Y34933D02*
X52362Y34433D01*
X51362Y34933D02*
X51862D01*
X51362D02*
X51862Y35433D01*
X51362Y35933D02*
X51862Y35433D01*
X51362Y35933D02*
X51862D01*
X52362Y36433D01*
X52862Y35933D01*
X53362D01*
X52862Y35433D02*
X53362Y35933D01*
X52862Y35433D02*
X53362Y34933D01*
X52862D02*
X53362D01*
X52362Y34433D02*
X52862Y34933D01*
X55405Y35327D02*
X55905Y34827D01*
X54905Y35327D02*
X55405D01*
X54905D02*
X55405Y35827D01*
X54905Y36327D02*
X55405Y35827D01*
X54905Y36327D02*
X55405D01*
X55905Y36827D01*
X56406Y36327D01*
X56906D01*
X56406Y35827D02*
X56906Y36327D01*
X56406Y35827D02*
X56906Y35327D01*
X56406D02*
X56906D01*
X55905Y34827D02*
X56406Y35327D01*
X45943Y110876D02*
X46443Y110376D01*
X45443Y110876D02*
X45943D01*
X45443D02*
X45943Y111376D01*
X45443Y111876D02*
X45943Y111376D01*
X45443Y111876D02*
X45943D01*
X46443Y112376D01*
X46943Y111876D01*
X47443D01*
X46943Y111376D02*
X47443Y111876D01*
X46943Y111376D02*
X47443Y110876D01*
X46943D02*
X47443D01*
X46443Y110376D02*
X46943Y110876D01*
X48226Y81390D02*
X48726Y80890D01*
X47725Y81390D02*
X48226D01*
X47725D02*
X48226Y81890D01*
X47725Y82390D02*
X48226Y81890D01*
X47725Y82390D02*
X48226D01*
X48726Y82890D01*
X49226Y82390D01*
X49725D01*
X49226Y81890D02*
X49725Y82390D01*
X49226Y81890D02*
X49725Y81390D01*
X49226D02*
X49725D01*
X48726Y80890D02*
X49226Y81390D01*
X46744Y62052D02*
X47244Y61552D01*
X46244Y62052D02*
X46744D01*
X46244D02*
X46744Y62552D01*
X46244Y63052D02*
X46744Y62552D01*
X46244Y63052D02*
X46744D01*
X47244Y63552D01*
X47744Y63052D01*
X48244D01*
X47744Y62552D02*
X48244Y63052D01*
X47744Y62552D02*
X48244Y62052D01*
X47744D02*
X48244D01*
X47244Y61552D02*
X47744Y62052D01*
X45563Y45957D02*
X46063Y45457D01*
X45063Y45957D02*
X45563D01*
X45063D02*
X45563Y46457D01*
X45063Y46957D02*
X45563Y46457D01*
X45063Y46957D02*
X45563D01*
X46063Y47457D01*
X46563Y46957D01*
X47063D01*
X46563Y46457D02*
X47063Y46957D01*
X46563Y46457D02*
X47063Y45957D01*
X46563D02*
X47063D01*
X46063Y45457D02*
X46563Y45957D01*
X36151Y110876D02*
X36650Y110376D01*
X35651Y110876D02*
X36151D01*
X35651D02*
X36151Y111376D01*
X35651Y111876D02*
X36151Y111376D01*
X35651Y111876D02*
X36151D01*
X36650Y112376D01*
X37150Y111876D01*
X37650D01*
X37150Y111376D02*
X37650Y111876D01*
X37150Y111376D02*
X37650Y110876D01*
X37150D02*
X37650D01*
X36650Y110376D02*
X37150Y110876D01*
X37495Y92020D02*
X37995Y91520D01*
X36994Y92020D02*
X37495D01*
X36994D02*
X37495Y92520D01*
X36994Y93020D02*
X37495Y92520D01*
X36994Y93020D02*
X37495D01*
X37995Y93520D01*
X38495Y93020D01*
X38995D01*
X38495Y92520D02*
X38995Y93020D01*
X38495Y92520D02*
X38995Y92020D01*
X38495D02*
X38995D01*
X37995Y91520D02*
X38495Y92020D01*
X38476Y76665D02*
X38976Y76165D01*
X37976Y76665D02*
X38476D01*
X37976D02*
X38476Y77165D01*
X37976Y77665D02*
X38476Y77165D01*
X37976Y77665D02*
X38476D01*
X38976Y78165D01*
X39476Y77665D01*
X39976D01*
X39476Y77165D02*
X39976Y77665D01*
X39476Y77165D02*
X39976Y76665D01*
X39476D02*
X39976D01*
X38976Y76165D02*
X39476Y76665D01*
X36508Y25091D02*
X37008Y24590D01*
X36008Y25091D02*
X36508D01*
X36008D02*
X36508Y25591D01*
X36008Y26091D02*
X36508Y25591D01*
X36008Y26091D02*
X36508D01*
X37008Y26591D01*
X37508Y26091D01*
X38008D01*
X37508Y25591D02*
X38008Y26091D01*
X37508Y25591D02*
X38008Y25091D01*
X37508D02*
X38008D01*
X37008Y24590D02*
X37508Y25091D01*
X40839D02*
X41339Y24590D01*
X40339Y25091D02*
X40839D01*
X40339D02*
X40839Y25591D01*
X40339Y26091D02*
X40839Y25591D01*
X40339Y26091D02*
X40839D01*
X41339Y26591D01*
X41839Y26091D01*
X42339D01*
X41839Y25591D02*
X42339Y26091D01*
X41839Y25591D02*
X42339Y25091D01*
X41839D02*
X42339D01*
X41339Y24590D02*
X41839Y25091D01*
X37700Y20500D02*
X38200Y20000D01*
X37200Y20500D02*
X37700D01*
X37200D02*
X37700Y21000D01*
X37200Y21500D02*
X37700Y21000D01*
X37200Y21500D02*
X37700D01*
X38200Y22000D01*
X38700Y21500D01*
X39200D01*
X38700Y21000D02*
X39200Y21500D01*
X38700Y21000D02*
X39200Y20500D01*
X38700D02*
X39200D01*
X38200Y20000D02*
X38700Y20500D01*
X28240Y110917D02*
X28740Y110417D01*
X27740Y110917D02*
X28240D01*
X27740D02*
X28240Y111417D01*
X27740Y111917D02*
X28240Y111417D01*
X27740Y111917D02*
X28240D01*
X28740Y112417D01*
X29240Y111917D01*
X29740D01*
X29240Y111417D02*
X29740Y111917D01*
X29240Y111417D02*
X29740Y110917D01*
X29240D02*
X29740D01*
X28740Y110417D02*
X29240Y110917D01*
X29815Y99894D02*
X30315Y99394D01*
X29315Y99894D02*
X29815D01*
X29315D02*
X29815Y100394D01*
X29315Y100894D02*
X29815Y100394D01*
X29315Y100894D02*
X29815D01*
X30315Y101394D01*
X30815Y100894D01*
X31315D01*
X30815Y100394D02*
X31315Y100894D01*
X30815Y100394D02*
X31315Y99894D01*
X30815D02*
X31315D01*
X30315Y99394D02*
X30815Y99894D01*
X28240Y76665D02*
X28740Y76165D01*
X27740Y76665D02*
X28240D01*
X27740D02*
X28240Y77165D01*
X27740Y77665D02*
X28240Y77165D01*
X27740Y77665D02*
X28240D01*
X28740Y78165D01*
X29240Y77665D01*
X29740D01*
X29240Y77165D02*
X29740Y77665D01*
X29240Y77165D02*
X29740Y76665D01*
X29240D02*
X29740D01*
X28740Y76165D02*
X29240Y76665D01*
X30809Y54921D02*
X31309Y54421D01*
X30309Y54921D02*
X30809D01*
X30309D02*
X30809Y55421D01*
X30309Y55921D02*
X30809Y55421D01*
X30309Y55921D02*
X30809D01*
X31309Y56421D01*
X31809Y55921D01*
X32309D01*
X31809Y55421D02*
X32309Y55921D01*
X31809Y55421D02*
X32309Y54921D01*
X31809D02*
X32309D01*
X31309Y54421D02*
X31809Y54921D01*
X24697Y99894D02*
X25197Y99394D01*
X24197Y99894D02*
X24697D01*
X24197D02*
X24697Y100394D01*
X24197Y100894D02*
X24697Y100394D01*
X24197Y100894D02*
X24697D01*
X25197Y101394D01*
X25697Y100894D01*
X26197D01*
X25697Y100394D02*
X26197Y100894D01*
X25697Y100394D02*
X26197Y99894D01*
X25697D02*
X26197D01*
X25197Y99394D02*
X25697Y99894D01*
X22762Y84146D02*
X23262Y83646D01*
X22262Y84146D02*
X22762D01*
X22262D02*
X22762Y84646D01*
X22262Y85146D02*
X22762Y84646D01*
X22262Y85146D02*
X22762D01*
X23262Y85646D01*
X23762Y85146D01*
X24262D01*
X23762Y84646D02*
X24262Y85146D01*
X23762Y84646D02*
X24262Y84146D01*
X23762D02*
X24262D01*
X23262Y83646D02*
X23762Y84146D01*
X24697Y86902D02*
X25197Y86402D01*
X24197Y86902D02*
X24697D01*
X24197D02*
X24697Y87402D01*
X24197Y87902D02*
X24697Y87402D01*
X24197Y87902D02*
X24697D01*
X25197Y88402D01*
X25697Y87902D01*
X26197D01*
X25697Y87402D02*
X26197Y87902D01*
X25697Y87402D02*
X26197Y86902D01*
X25697D02*
X26197D01*
X25197Y86402D02*
X25697Y86902D01*
X19172Y60732D02*
X19672Y60232D01*
X18672Y60732D02*
X19172D01*
X18672D02*
X19172Y61232D01*
X18672Y61732D02*
X19172Y61232D01*
X18672Y61732D02*
X19172D01*
X19672Y62232D01*
X20172Y61732D01*
X20672D01*
X20172Y61232D02*
X20672Y61732D01*
X20172Y61232D02*
X20672Y60732D01*
X20172D02*
X20672D01*
X19672Y60232D02*
X20172Y60732D01*
X23910Y55012D02*
X24409Y54512D01*
X23410Y55012D02*
X23910D01*
X23410D02*
X23910Y55512D01*
X23410Y56012D02*
X23910Y55512D01*
X23410Y56012D02*
X23910D01*
X24409Y56512D01*
X24909Y56012D01*
X25409D01*
X24909Y55512D02*
X25409Y56012D01*
X24909Y55512D02*
X25409Y55012D01*
X24909D02*
X25409D01*
X24409Y54512D02*
X24909Y55012D01*
X20300Y22300D02*
X20800Y21800D01*
X19800Y22300D02*
X20300D01*
X19800D02*
X20300Y22800D01*
X19800Y23300D02*
X20300Y22800D01*
X19800Y23300D02*
X20300D01*
X20800Y23800D01*
X21300Y23300D01*
X21800D01*
X21300Y22800D02*
X21800Y23300D01*
X21300Y22800D02*
X21800Y22300D01*
X21300D02*
X21800D01*
X20800Y21800D02*
X21300Y22300D01*
X20300Y5293D02*
X20800Y4793D01*
X19800Y5293D02*
X20300D01*
X19800D02*
X20300Y5793D01*
X19800Y6293D02*
X20300Y5793D01*
X19800Y6293D02*
X20300D01*
X20800Y6793D01*
X21300Y6293D01*
X21800D01*
X21300Y5793D02*
X21800Y6293D01*
X21300Y5793D02*
X21800Y5293D01*
X21300D02*
X21800D01*
X20800Y4793D02*
X21300Y5293D01*
X12886Y98319D02*
X13386Y97819D01*
X12386Y98319D02*
X12886D01*
X12386D02*
X12886Y98819D01*
X12386Y99319D02*
X12886Y98819D01*
X12386Y99319D02*
X12886D01*
X13386Y99819D01*
X13886Y99319D01*
X14386D01*
X13886Y98819D02*
X14386Y99319D01*
X13886Y98819D02*
X14386Y98319D01*
X13886D02*
X14386D01*
X13386Y97819D02*
X13886Y98319D01*
X15248Y81390D02*
X15748Y80890D01*
X14748Y81390D02*
X15248D01*
X14748D02*
X15248Y81890D01*
X14748Y82390D02*
X15248Y81890D01*
X14748Y82390D02*
X15248D01*
X15748Y82890D01*
X16248Y82390D01*
X16748D01*
X16248Y81890D02*
X16748Y82390D01*
X16248Y81890D02*
X16748Y81390D01*
X16248D02*
X16748D01*
X15748Y80890D02*
X16248Y81390D01*
X13311Y44776D02*
X13811Y44276D01*
X12811Y44776D02*
X13311D01*
X12811D02*
X13311Y45276D01*
X12811Y45776D02*
X13311Y45276D01*
X12811Y45776D02*
X13311D01*
X13811Y46276D01*
X14311Y45776D01*
X14811D01*
X14311Y45276D02*
X14811Y45776D01*
X14311Y45276D02*
X14811Y44776D01*
X14311D02*
X14811D01*
X13811Y44276D02*
X14311Y44776D01*
X14461Y21941D02*
X14961Y21441D01*
X13961Y21941D02*
X14461D01*
X13961D02*
X14461Y22441D01*
X13961Y22941D02*
X14461Y22441D01*
X13961Y22941D02*
X14461D01*
X14961Y23441D01*
X15461Y22941D01*
X15961D01*
X15461Y22441D02*
X15961Y22941D01*
X15461Y22441D02*
X15961Y21941D01*
X15461D02*
X15961D01*
X14961Y21441D02*
X15461Y21941D01*
X13673Y18791D02*
X14173Y18291D01*
X13173Y18791D02*
X13673D01*
X13173D02*
X13673Y19291D01*
X13173Y19791D02*
X13673Y19291D01*
X13173Y19791D02*
X13673D01*
X14173Y20291D01*
X14673Y19791D01*
X15173D01*
X14673Y19291D02*
X15173Y19791D01*
X14673Y19291D02*
X15173Y18791D01*
X14673D02*
X15173D01*
X14173Y18291D02*
X14673Y18791D01*
X13673Y12098D02*
X14173Y11598D01*
X13173Y12098D02*
X13673D01*
X13173D02*
X13673Y12598D01*
X13173Y13098D02*
X13673Y12598D01*
X13173Y13098D02*
X13673D01*
X14173Y13598D01*
X14673Y13098D01*
X15173D01*
X14673Y12598D02*
X15173Y13098D01*
X14673Y12598D02*
X15173Y12098D01*
X14673D02*
X15173D01*
X14173Y11598D02*
X14673Y12098D01*
X16363Y5293D02*
X16863Y4793D01*
X15863Y5293D02*
X16363D01*
X15863D02*
X16363Y5793D01*
X15863Y6293D02*
X16363Y5793D01*
X15863Y6293D02*
X16363D01*
X16863Y6793D01*
X17363Y6293D01*
X17863D01*
X17363Y5793D02*
X17863Y6293D01*
X17363Y5793D02*
X17863Y5293D01*
X17363D02*
X17863D01*
X16863Y4793D02*
X17363Y5293D01*
X6980Y84855D02*
X7480Y84355D01*
X6480Y84855D02*
X6980D01*
X6480D02*
X6980Y85355D01*
X6480Y85855D02*
X6980Y85355D01*
X6480Y85855D02*
X6980D01*
X7480Y86355D01*
X7980Y85855D01*
X8480D01*
X7980Y85355D02*
X8480Y85855D01*
X7980Y85355D02*
X8480Y84855D01*
X7980D02*
X8480D01*
X7480Y84355D02*
X7980Y84855D01*
X5012Y51468D02*
X5512Y50968D01*
X4512Y51468D02*
X5012D01*
X4512D02*
X5012Y51968D01*
X4512Y52469D02*
X5012Y51968D01*
X4512Y52469D02*
X5012D01*
X5512Y52969D01*
X6012Y52469D01*
X6512D01*
X6012Y51968D02*
X6512Y52469D01*
X6012Y51968D02*
X6512Y51468D01*
X6012D02*
X6512D01*
X5512Y50968D02*
X6012Y51468D01*
X4081Y17928D02*
X4581Y17428D01*
X3581Y17928D02*
X4081D01*
X3581D02*
X4081Y18428D01*
X3581Y18928D02*
X4081Y18428D01*
X3581Y18928D02*
X4081D01*
X4581Y19428D01*
X5081Y18928D01*
X5581D01*
X5081Y18428D02*
X5581Y18928D01*
X5081Y18428D02*
X5581Y17928D01*
X5081D02*
X5581D01*
X4581Y17428D02*
X5081Y17928D01*
X359236Y18685D02*
Y19185D01*
X359735Y19685D01*
X359236Y20185D02*
X359735Y19685D01*
X359236Y20185D02*
Y20685D01*
X359735D01*
X360236Y20185D01*
X360736Y20685D01*
X361235D01*
Y20185D02*
Y20685D01*
X360736Y19685D02*
X361235Y20185D01*
X360736Y19685D02*
X361235Y19185D01*
Y18685D02*
Y19185D01*
X360736Y18685D02*
X361235D01*
X360236Y19185D02*
X360736Y18685D01*
X359735D02*
X360236Y19185D01*
X359236Y18685D02*
X359735D01*
X351862Y59539D02*
X352362Y59039D01*
X351362Y59539D02*
X351862D01*
X351362D02*
X351862Y60039D01*
X351362Y60539D02*
X351862Y60039D01*
X351362Y60539D02*
X351862D01*
X352362Y61039D01*
X352862Y60539D01*
X353362D01*
X352862Y60039D02*
X353362Y60539D01*
X352862Y60039D02*
X353362Y59539D01*
X352862D02*
X353362D01*
X352362Y59039D02*
X352862Y59539D01*
X336114Y29028D02*
X336614Y28528D01*
X335614Y29028D02*
X336114D01*
X335614D02*
X336114Y29528D01*
X335614Y30028D02*
X336114Y29528D01*
X335614Y30028D02*
X336114D01*
X336614Y30528D01*
X337114Y30028D01*
X337614D01*
X337114Y29528D02*
X337614Y30028D01*
X337114Y29528D02*
X337614Y29028D01*
X337114D02*
X337614D01*
X336614Y28528D02*
X337114Y29028D01*
X353831Y32571D02*
X354331Y32071D01*
X353331Y32571D02*
X353831D01*
X353331D02*
X353831Y33071D01*
X353331Y33571D02*
X353831Y33071D01*
X353331Y33571D02*
X353831D01*
X354331Y34071D01*
X354831Y33571D01*
X355331D01*
X354831Y33071D02*
X355331Y33571D01*
X354831Y33071D02*
X355331Y32571D01*
X354831D02*
X355331D01*
X354331Y32071D02*
X354831Y32571D01*
X329815Y3437D02*
X330315Y2937D01*
X329315Y3437D02*
X329815D01*
X329315D02*
X329815Y3937D01*
X329315Y4437D02*
X329815Y3937D01*
X329315Y4437D02*
X329815D01*
X330315Y4937D01*
X330815Y4437D01*
X331315D01*
X330815Y3937D02*
X331315Y4437D01*
X330815Y3937D02*
X331315Y3437D01*
X330815D02*
X331315D01*
X330315Y2937D02*
X330815Y3437D01*
X329421Y29028D02*
X329921Y28528D01*
X328921Y29028D02*
X329421D01*
X328921D02*
X329421Y29528D01*
X328921Y30028D02*
X329421Y29528D01*
X328921Y30028D02*
X329421D01*
X329921Y30528D01*
X330421Y30028D01*
X330921D01*
X330421Y29528D02*
X330921Y30028D01*
X330421Y29528D02*
X330921Y29028D01*
X330421D02*
X330921D01*
X329921Y28528D02*
X330421Y29028D01*
X336112Y32965D02*
X336612Y32465D01*
X335612Y32965D02*
X336112D01*
X335612D02*
X336112Y33465D01*
X335612Y33965D02*
X336112Y33465D01*
X335612Y33965D02*
X336112D01*
X336612Y34465D01*
X337112Y33965D01*
X337612D01*
X337112Y33465D02*
X337612Y33965D01*
X337112Y33465D02*
X337612Y32965D01*
X337112D02*
X337612D01*
X336612Y32465D02*
X337112Y32965D01*
X283752Y47532D02*
X284252Y47032D01*
X283252Y47532D02*
X283752D01*
X283252D02*
X283752Y48031D01*
X283252Y48531D02*
X283752Y48031D01*
X283252Y48531D02*
X283752D01*
X284252Y49031D01*
X284752Y48531D01*
X285252D01*
X284752Y48031D02*
X285252Y48531D01*
X284752Y48031D02*
X285252Y47532D01*
X284752D02*
X285252D01*
X284252Y47032D02*
X284752Y47532D01*
X280209Y43167D02*
X280709Y42667D01*
X279709Y43167D02*
X280209D01*
X279709D02*
X280209Y43667D01*
X279709Y44167D02*
X280209Y43667D01*
X279709Y44167D02*
X280209D01*
X280709Y44667D01*
X281209Y44167D01*
X281709D01*
X281209Y43667D02*
X281709Y44167D01*
X281209Y43667D02*
X281709Y43167D01*
X281209D02*
X281709D01*
X280709Y42667D02*
X281209Y43167D01*
X296744Y66429D02*
X297244Y65929D01*
X296244Y66429D02*
X296744D01*
X296244D02*
X296744Y66929D01*
X296244Y67429D02*
X296744Y66929D01*
X296244Y67429D02*
X296744D01*
X297244Y67929D01*
X297744Y67429D01*
X298244D01*
X297744Y66929D02*
X298244Y67429D01*
X297744Y66929D02*
X298244Y66429D01*
X297744D02*
X298244D01*
X297244Y65929D02*
X297744Y66429D01*
X308949Y60917D02*
X309449Y60417D01*
X308449Y60917D02*
X308949D01*
X308449D02*
X308949Y61417D01*
X308449Y61917D02*
X308949Y61417D01*
X308449Y61917D02*
X308949D01*
X309449Y62417D01*
X309949Y61917D01*
X310449D01*
X309949Y61417D02*
X310449Y61917D01*
X309949Y61417D02*
X310449Y60917D01*
X309949D02*
X310449D01*
X309449Y60417D02*
X309949Y60917D01*
X304512Y47611D02*
X305712D01*
Y48812D01*
X304512D02*
X305712D01*
X304512Y47611D02*
Y48812D01*
X304112Y47212D02*
X306112D01*
Y49211D01*
X304112D02*
X306112D01*
X304112Y47212D02*
Y49211D01*
X304512Y44856D02*
X305712D01*
Y46056D01*
X304512D02*
X305712D01*
X304512Y44856D02*
Y46056D01*
X304112Y44456D02*
X306112D01*
Y46456D01*
X304112D02*
X306112D01*
X304112Y44456D02*
Y46456D01*
X304512Y42100D02*
X305712D01*
Y43300D01*
X304512D02*
X305712D01*
X304512Y42100D02*
Y43300D01*
X304112Y41700D02*
X306112D01*
Y43700D01*
X304112D02*
X306112D01*
X304112Y41700D02*
Y43700D01*
X304512Y50367D02*
X305712D01*
Y51567D01*
X304512D02*
X305712D01*
X304512Y50367D02*
Y51567D01*
X304112Y49967D02*
X306112D01*
Y51967D01*
X304112D02*
X306112D01*
X304112Y49967D02*
Y51967D01*
X304512Y53123D02*
X305712D01*
Y54323D01*
X304512D02*
X305712D01*
X304512Y53123D02*
Y54323D01*
X304112Y52723D02*
X306112D01*
Y54723D01*
X304112D02*
X306112D01*
X304112Y52723D02*
Y54723D01*
X301756Y47611D02*
X302956D01*
Y48812D01*
X301756D02*
X302956D01*
X301756Y47611D02*
Y48812D01*
X301356Y47212D02*
X303356D01*
Y49211D01*
X301356D02*
X303356D01*
X301356Y47212D02*
Y49211D01*
X299000Y47611D02*
X300200D01*
Y48812D01*
X299000D02*
X300200D01*
X299000Y47611D02*
Y48812D01*
X298600Y47212D02*
X300600D01*
Y49211D01*
X298600D02*
X300600D01*
X298600Y47212D02*
Y49211D01*
X307268Y47611D02*
X308468D01*
Y48812D01*
X307268D02*
X308468D01*
X307268Y47611D02*
Y48812D01*
X306868Y47212D02*
X308868D01*
Y49211D01*
X306868D02*
X308868D01*
X306868Y47212D02*
Y49211D01*
X310024Y47611D02*
X311224D01*
Y48812D01*
X310024D02*
X311224D01*
X310024Y47611D02*
Y48812D01*
X309624Y47212D02*
X311624D01*
Y49211D01*
X309624D02*
X311624D01*
X309624Y47212D02*
Y49211D01*
X307268Y50367D02*
X308468D01*
Y51567D01*
X307268D02*
X308468D01*
X307268Y50367D02*
Y51567D01*
X306868Y49967D02*
X308868D01*
Y51967D01*
X306868D02*
X308868D01*
X306868Y49967D02*
Y51967D01*
X310024Y50367D02*
X311224D01*
Y51567D01*
X310024D02*
X311224D01*
X310024Y50367D02*
Y51567D01*
X309624Y49967D02*
X311624D01*
Y51967D01*
X309624D02*
X311624D01*
X309624Y49967D02*
Y51967D01*
X307268Y53123D02*
X308468D01*
Y54323D01*
X307268D02*
X308468D01*
X307268Y53123D02*
Y54323D01*
X306868Y52723D02*
X308868D01*
Y54723D01*
X306868D02*
X308868D01*
X306868Y52723D02*
Y54723D01*
X310024Y53123D02*
X311224D01*
Y54323D01*
X310024D02*
X311224D01*
X310024Y53123D02*
Y54323D01*
X309624Y52723D02*
X311624D01*
Y54723D01*
X309624D02*
X311624D01*
X309624Y52723D02*
Y54723D01*
X307268Y44856D02*
X308468D01*
Y46056D01*
X307268D02*
X308468D01*
X307268Y44856D02*
Y46056D01*
X306868Y44456D02*
X308868D01*
Y46456D01*
X306868D02*
X308868D01*
X306868Y44456D02*
Y46456D01*
X310024Y44856D02*
X311224D01*
Y46056D01*
X310024D02*
X311224D01*
X310024Y44856D02*
Y46056D01*
X309624Y44456D02*
X311624D01*
Y46456D01*
X309624D02*
X311624D01*
X309624Y44456D02*
Y46456D01*
X307268Y42100D02*
X308468D01*
Y43300D01*
X307268D02*
X308468D01*
X307268Y42100D02*
Y43300D01*
X306868Y41700D02*
X308868D01*
Y43700D01*
X306868D02*
X308868D01*
X306868Y41700D02*
Y43700D01*
X310024Y42100D02*
X311224D01*
Y43300D01*
X310024D02*
X311224D01*
X310024Y42100D02*
Y43300D01*
X309624Y41700D02*
X311624D01*
Y43700D01*
X309624D02*
X311624D01*
X309624Y41700D02*
Y43700D01*
X301756Y44856D02*
X302956D01*
Y46056D01*
X301756D02*
X302956D01*
X301756Y44856D02*
Y46056D01*
X301356Y44456D02*
X303356D01*
Y46456D01*
X301356D02*
X303356D01*
X301356Y44456D02*
Y46456D01*
X301756Y42100D02*
X302956D01*
Y43300D01*
X301756D02*
X302956D01*
X301756Y42100D02*
Y43300D01*
X301356Y41700D02*
X303356D01*
Y43700D01*
X301356D02*
X303356D01*
X301356Y41700D02*
Y43700D01*
X299000Y44856D02*
X300200D01*
Y46056D01*
X299000D02*
X300200D01*
X299000Y44856D02*
Y46056D01*
X298600Y44456D02*
X300600D01*
Y46456D01*
X298600D02*
X300600D01*
X298600Y44456D02*
Y46456D01*
X299000Y42100D02*
X300200D01*
Y43300D01*
X299000D02*
X300200D01*
X299000Y42100D02*
Y43300D01*
X298600Y41700D02*
X300600D01*
Y43700D01*
X298600D02*
X300600D01*
X298600Y41700D02*
Y43700D01*
X301756Y50367D02*
X302956D01*
Y51567D01*
X301756D02*
X302956D01*
X301756Y50367D02*
Y51567D01*
X301356Y49967D02*
X303356D01*
Y51967D01*
X301356D02*
X303356D01*
X301356Y49967D02*
Y51967D01*
X299000Y50367D02*
X300200D01*
Y51567D01*
X299000D02*
X300200D01*
X299000Y50367D02*
Y51567D01*
X298600Y49967D02*
X300600D01*
Y51967D01*
X298600D02*
X300600D01*
X298600Y49967D02*
Y51967D01*
X301756Y53123D02*
X302956D01*
Y54323D01*
X301756D02*
X302956D01*
X301756Y53123D02*
Y54323D01*
X301356Y52723D02*
X303356D01*
Y54723D01*
X301356D02*
X303356D01*
X301356Y52723D02*
Y54723D01*
X299000Y53123D02*
X300200D01*
Y54323D01*
X299000D02*
X300200D01*
X299000Y53123D02*
Y54323D01*
X298600Y52723D02*
X300600D01*
Y54723D01*
X298600D02*
X300600D01*
X298600Y52723D02*
Y54723D01*
X314461Y3466D02*
X314961Y2966D01*
X313961Y3466D02*
X314461D01*
X313961D02*
X314461Y3966D01*
X313961Y4466D02*
X314461Y3966D01*
X313961Y4466D02*
X314461D01*
X314961Y4966D01*
X315461Y4466D01*
X315961D01*
X315461Y3966D02*
X315961Y4466D01*
X315461Y3966D02*
X315961Y3466D01*
X315461D02*
X315961D01*
X314961Y2966D02*
X315461Y3466D01*
X322335Y9342D02*
X322835Y8843D01*
X321835Y9342D02*
X322335D01*
X321835D02*
X322335Y9843D01*
X321835Y10343D02*
X322335Y9843D01*
X321835Y10343D02*
X322335D01*
X322835Y10842D01*
X323335Y10343D01*
X323835D01*
X323335Y9843D02*
X323835Y10343D01*
X323335Y9843D02*
X323835Y9342D01*
X323335D02*
X323835D01*
X322835Y8843D02*
X323335Y9342D01*
X330996Y43201D02*
X331496Y42701D01*
X330496Y43201D02*
X330996D01*
X330496D02*
X330996Y43701D01*
X330496Y44201D02*
X330996Y43701D01*
X330496Y44201D02*
X330996D01*
X331496Y44701D01*
X331996Y44201D01*
X332496D01*
X331996Y43701D02*
X332496Y44201D01*
X331996Y43701D02*
X332496Y43201D01*
X331996D02*
X332496D01*
X331496Y42701D02*
X331996Y43201D01*
X330297Y46350D02*
X330797Y45850D01*
X329797Y46350D02*
X330297D01*
X329797D02*
X330297Y46850D01*
X329797Y47350D02*
X330297Y46850D01*
X329797Y47350D02*
X330297D01*
X330797Y47850D01*
X331297Y47350D01*
X331797D01*
X331297Y46850D02*
X331797Y47350D01*
X331297Y46850D02*
X331797Y46350D01*
X331297D02*
X331797D01*
X330797Y45850D02*
X331297Y46350D01*
X318791Y51075D02*
X319291Y50575D01*
X318291Y51075D02*
X318791D01*
X318291D02*
X318791Y51575D01*
X318291Y52075D02*
X318791Y51575D01*
X318291Y52075D02*
X318791D01*
X319291Y52575D01*
X319791Y52075D01*
X320291D01*
X319791Y51575D02*
X320291Y52075D01*
X319791Y51575D02*
X320291Y51075D01*
X319791D02*
X320291D01*
X319291Y50575D02*
X319791Y51075D01*
X321941Y48713D02*
X322441Y48213D01*
X321441Y48713D02*
X321941D01*
X321441D02*
X321941Y49213D01*
X321441Y49713D02*
X321941Y49213D01*
X321441Y49713D02*
X321941D01*
X322441Y50213D01*
X322941Y49713D01*
X323441D01*
X322941Y49213D02*
X323441Y49713D01*
X322941Y49213D02*
X323441Y48713D01*
X322941D02*
X323441D01*
X322441Y48213D02*
X322941Y48713D01*
X245562Y1467D02*
X246061Y967D01*
X245061Y1467D02*
X245562D01*
X245061D02*
X245562Y1967D01*
X245061Y2467D02*
X245562Y1967D01*
X245061Y2467D02*
X245562D01*
X246061Y2967D01*
X246562Y2467D01*
X247061D01*
X246562Y1967D02*
X247061Y2467D01*
X246562Y1967D02*
X247061Y1467D01*
X246562D02*
X247061D01*
X246061Y967D02*
X246562Y1467D01*
X322775Y26659D02*
X323275Y26159D01*
X322275Y26659D02*
X322775D01*
X322275D02*
X322775Y27159D01*
X322275Y27659D02*
X322775Y27159D01*
X322275Y27659D02*
X322775D01*
X323275Y28159D01*
X323775Y27659D01*
X324275D01*
X323775Y27159D02*
X324275Y27659D01*
X323775Y27159D02*
X324275Y26659D01*
X323775D02*
X324275D01*
X323275Y26159D02*
X323775Y26659D01*
X319988Y27474D02*
X320488Y26974D01*
X319488Y27474D02*
X319988D01*
X319488D02*
X319988Y27974D01*
X319488Y28474D02*
X319988Y27974D01*
X319488Y28474D02*
X319988D01*
X320488Y28974D01*
X320988Y28474D01*
X321488D01*
X320988Y27974D02*
X321488Y28474D01*
X320988Y27974D02*
X321488Y27474D01*
X320988D02*
X321488D01*
X320488Y26974D02*
X320988Y27474D01*
X330209Y38876D02*
X330709Y38376D01*
X329709Y38876D02*
X330209D01*
X329709D02*
X330209Y39376D01*
X329709Y39876D02*
X330209Y39376D01*
X329709Y39876D02*
X330209D01*
X330709Y40376D01*
X331209Y39876D01*
X331709D01*
X331209Y39376D02*
X331709Y39876D01*
X331209Y39376D02*
X331709Y38876D01*
X331209D02*
X331709D01*
X330709Y38376D02*
X331209Y38876D01*
X315248Y33752D02*
X315748Y33252D01*
X314748Y33752D02*
X315248D01*
X314748D02*
X315248Y34252D01*
X314748Y34752D02*
X315248Y34252D01*
X314748Y34752D02*
X315248D01*
X315748Y35252D01*
X316248Y34752D01*
X316748D01*
X316248Y34252D02*
X316748Y34752D01*
X316248Y34252D02*
X316748Y33752D01*
X316248D02*
X316748D01*
X315748Y33252D02*
X316248Y33752D01*
X302650Y11311D02*
X303150Y10811D01*
X302150Y11311D02*
X302650D01*
X302150D02*
X302650Y11811D01*
X302150Y12311D02*
X302650Y11811D01*
X302150Y12311D02*
X302650D01*
X303150Y12811D01*
X303650Y12311D01*
X304150D01*
X303650Y11811D02*
X304150Y12311D01*
X303650Y11811D02*
X304150Y11311D01*
X303650D02*
X304150D01*
X303150Y10811D02*
X303650Y11311D01*
X306587D02*
X307087Y10811D01*
X306087Y11311D02*
X306587D01*
X306087D02*
X306587Y11811D01*
X306087Y12311D02*
X306587Y11811D01*
X306087Y12311D02*
X306587D01*
X307087Y12811D01*
X307587Y12311D01*
X308087D01*
X307587Y11811D02*
X308087Y12311D01*
X307587Y11811D02*
X308087Y11311D01*
X307587D02*
X308087D01*
X307087Y10811D02*
X307587Y11311D01*
X310513Y11302D02*
X311014Y10802D01*
X310014Y11302D02*
X310513D01*
X310014D02*
X310513Y11802D01*
X310014Y12302D02*
X310513Y11802D01*
X310014Y12302D02*
X310513D01*
X311014Y12802D01*
X311513Y12302D01*
X312014D01*
X311513Y11802D02*
X312014Y12302D01*
X311513Y11802D02*
X312014Y11302D01*
X311513D02*
X312014D01*
X311014Y10802D02*
X311513Y11302D01*
X239158Y51756D02*
X241158D01*
Y53756D01*
X239158D02*
X241158D01*
X239158Y51756D02*
Y53756D01*
X220654Y32858D02*
X222654D01*
Y34858D01*
X220654D02*
X222654D01*
X220654Y32858D02*
Y34858D01*
X229094Y40281D02*
X231094D01*
Y42281D01*
X229094D02*
X231094D01*
X229094Y40281D02*
Y42281D01*
X306087Y3331D02*
X308087D01*
Y5331D01*
X306087D02*
X308087D01*
X306087Y3331D02*
Y5331D01*
X250060Y36700D02*
X252060D01*
Y38700D01*
X250060D02*
X252060D01*
X250060Y36700D02*
Y38700D01*
X244860Y36700D02*
X246860D01*
Y38700D01*
X244860D02*
X246860D01*
X244860Y36700D02*
Y38700D01*
X54100Y11022D02*
X55100Y13023D01*
X53100D02*
X55100D01*
X53100D02*
X54100Y11022D01*
Y3022D02*
X55100Y5023D01*
X53100D02*
X55100D01*
X53100D02*
X54100Y3022D01*
X74100Y7023D02*
X75100Y9023D01*
X73100D02*
X75100D01*
X73100D02*
X74100Y7023D01*
X307268Y15945D02*
X309268D01*
Y17945D01*
X307268D02*
X309268D01*
X307268Y15945D02*
Y17945D01*
X325960Y38021D02*
X327960D01*
Y40021D01*
X325960D02*
X327960D01*
X325960Y38021D02*
Y40021D01*
M02*
