G04*
G04 #@! TF.GenerationSoftware,Altium Limited,Altium NEXUS,3.1.14 (81)*
G04*
G04 Layer_Color=16711935*
%FSLAX25Y25*%
%MOIN*%
G70*
G04*
G04 #@! TF.SameCoordinates,8D934BE8-6637-419B-8715-06A4025A7093*
G04*
G04*
G04 #@! TF.FilePolarity,Positive*
G04*
G01*
G75*
%ADD10C,0.00394*%
%ADD12C,0.00600*%
%ADD15C,0.01000*%
%ADD139C,0.01500*%
%ADD174C,0.00100*%
D10*
X78740Y114173D02*
G03*
X74803Y118110I-3937J0D01*
G01*
X352937D02*
G03*
X349000Y114173I0J-3937D01*
G01*
X496063D02*
G03*
X492126Y118110I-3937J0D01*
G01*
X74803Y0D02*
G03*
X78740Y3937I0J3937D01*
G01*
X492126Y0D02*
G03*
X496063Y3937I0J3937D01*
G01*
X3937Y118110D02*
G03*
X0Y114173I0J-3937D01*
G01*
X35433Y118110D02*
G03*
X43307Y118110I3937J0D01*
G01*
X133858D02*
G03*
X129921Y114173I0J-3937D01*
G01*
X147902D02*
G03*
X143965Y118110I-3937J0D01*
G01*
X366142Y114173D02*
G03*
X362205Y118110I-3937J0D01*
G01*
X421260D02*
G03*
X417323Y114173I0J-3937D01*
G01*
X421260Y118110D02*
G03*
X429134Y118110I3937J0D01*
G01*
X0Y3937D02*
G03*
X3937Y0I3937J0D01*
G01*
X0Y70866D02*
G03*
X0Y78740I0J3937D01*
G01*
X129921Y3937D02*
G03*
X133858Y0I3937J0D01*
G01*
X362205D02*
G03*
X366142Y3937I0J3937D01*
G01*
X417323D02*
G03*
X421260Y0I3937J0D01*
G01*
X330709Y70402D02*
G03*
X338583Y70402I3937J0D01*
G01*
Y0D02*
G03*
X330709Y0I-3937J0D01*
G01*
X78740Y3937D02*
Y11811D01*
Y106299D02*
Y114173D01*
X129921Y3937D02*
Y11811D01*
Y106299D02*
Y114173D01*
X366142Y3937D02*
Y11811D01*
Y106299D02*
Y114173D01*
X417323Y3937D02*
Y11800D01*
Y106299D02*
Y114173D01*
X0Y3937D02*
Y70866D01*
X78740Y11811D02*
Y106299D01*
X129921Y11811D02*
Y106299D01*
X366142Y11800D02*
Y106299D01*
X417323Y11811D02*
Y106299D01*
X0Y78740D02*
Y114173D01*
X147900Y70400D02*
Y114173D01*
X349000Y70400D02*
Y114173D01*
X496063Y3937D02*
Y114173D01*
X338583Y0D02*
X362205D01*
X338583Y70400D02*
X349000D01*
X352937Y118110D02*
X362205D01*
X3937Y0D02*
X74803D01*
X43307Y118110D02*
X74803D01*
X3937D02*
X35433D01*
X133858D02*
X143965D01*
X421260Y0D02*
X460630D01*
X492126D01*
X452756Y118110D02*
X492126D01*
X429134D02*
X452756D01*
X133858Y0D02*
X330709D01*
X366142Y11800D02*
X417323D01*
X78740Y11811D02*
X129921D01*
X147900Y70400D02*
X330709D01*
X366142Y106299D02*
X417323D01*
X78740D02*
X129921D01*
D12*
X216941Y-26827D02*
X218940D01*
X217941D01*
Y-20829D01*
X216941Y-21829D01*
X225938Y-26827D02*
X221939D01*
X225938Y-22829D01*
Y-21829D01*
X224939Y-20829D01*
X222939D01*
X221939Y-21829D01*
X231936Y-20829D02*
X229937Y-21829D01*
X227938Y-23828D01*
Y-25828D01*
X228937Y-26827D01*
X230937D01*
X231936Y-25828D01*
Y-24828D01*
X230937Y-23828D01*
X227938D01*
X233935Y-26827D02*
Y-25828D01*
X234935D01*
Y-26827D01*
X233935D01*
X238934Y-21829D02*
X239934Y-20829D01*
X241933D01*
X242933Y-21829D01*
Y-25828D01*
X241933Y-26827D01*
X239934D01*
X238934Y-25828D01*
Y-21829D01*
X244932D02*
X245932Y-20829D01*
X247931D01*
X248931Y-21829D01*
Y-25828D01*
X247931Y-26827D01*
X245932D01*
X244932Y-25828D01*
Y-21829D01*
X258927Y-26827D02*
X256928Y-24828D01*
Y-22829D01*
X258927Y-20829D01*
X261927Y-26827D02*
Y-22829D01*
X262926D01*
X263926Y-23828D01*
Y-26827D01*
Y-23828D01*
X264926Y-22829D01*
X265925Y-23828D01*
Y-26827D01*
X267924D02*
Y-22829D01*
X268924D01*
X269924Y-23828D01*
Y-26827D01*
Y-23828D01*
X270924Y-22829D01*
X271923Y-23828D01*
Y-26827D01*
X273923D02*
X275922Y-24828D01*
Y-22829D01*
X273923Y-20829D01*
X363835Y34457D02*
Y30458D01*
X359837Y34457D01*
X358837D01*
X357837Y33457D01*
Y31458D01*
X358837Y30458D01*
X363835Y39455D02*
X357837D01*
X360836Y36456D01*
Y40455D01*
X363835Y42454D02*
X362836D01*
Y43454D01*
X363835D01*
Y42454D01*
X358837Y47453D02*
X357837Y48452D01*
Y50452D01*
X358837Y51451D01*
X362836D01*
X363835Y50452D01*
Y48452D01*
X362836Y47453D01*
X358837D01*
Y53451D02*
X357837Y54451D01*
Y56450D01*
X358837Y57450D01*
X362836D01*
X363835Y56450D01*
Y54451D01*
X362836Y53451D01*
X358837D01*
X363835Y67446D02*
X361836Y65447D01*
X359837D01*
X357837Y67446D01*
X363835Y70445D02*
X359837D01*
Y71445D01*
X360836Y72445D01*
X363835D01*
X360836D01*
X359837Y73444D01*
X360836Y74444D01*
X363835D01*
Y76443D02*
X359837D01*
Y77443D01*
X360836Y78443D01*
X363835D01*
X360836D01*
X359837Y79443D01*
X360836Y80442D01*
X363835D01*
Y82442D02*
X361836Y84441D01*
X359837D01*
X357837Y82442D01*
X363641Y87966D02*
X365640D01*
X364640D01*
Y93964D01*
X363641Y92965D01*
X368639D02*
X369639Y93964D01*
X371638D01*
X372638Y92965D01*
Y91965D01*
X371638Y90965D01*
X370639D01*
X371638D01*
X372638Y89965D01*
Y88966D01*
X371638Y87966D01*
X369639D01*
X368639Y88966D01*
X374637Y87966D02*
Y88966D01*
X375637D01*
Y87966D01*
X374637D01*
X379636Y92965D02*
X380635Y93964D01*
X382635D01*
X383634Y92965D01*
Y88966D01*
X382635Y87966D01*
X380635D01*
X379636Y88966D01*
Y92965D01*
X385634D02*
X386633Y93964D01*
X388633D01*
X389632Y92965D01*
Y88966D01*
X388633Y87966D01*
X386633D01*
X385634Y88966D01*
Y92965D01*
X399629Y87966D02*
X397630Y89965D01*
Y91965D01*
X399629Y93964D01*
X402628Y87966D02*
Y91965D01*
X403628D01*
X404628Y90965D01*
Y87966D01*
Y90965D01*
X405627Y91965D01*
X406627Y90965D01*
Y87966D01*
X408626D02*
Y91965D01*
X409626D01*
X410626Y90965D01*
Y87966D01*
Y90965D01*
X411625Y91965D01*
X412625Y90965D01*
Y87966D01*
X414624D02*
X416624Y89965D01*
Y91965D01*
X414624Y93964D01*
X432100Y123960D02*
X428102D01*
X432100Y127959D01*
Y128958D01*
X431101Y129958D01*
X429101D01*
X428102Y128958D01*
X434100D02*
X435099Y129958D01*
X437099D01*
X438098Y128958D01*
Y124960D01*
X437099Y123960D01*
X435099D01*
X434100Y124960D01*
Y128958D01*
X440098Y123960D02*
Y124960D01*
X441097D01*
Y123960D01*
X440098D01*
X445096Y128958D02*
X446096Y129958D01*
X448095D01*
X449095Y128958D01*
Y124960D01*
X448095Y123960D01*
X446096D01*
X445096Y124960D01*
Y128958D01*
X451094D02*
X452094Y129958D01*
X454093D01*
X455093Y128958D01*
Y124960D01*
X454093Y123960D01*
X452094D01*
X451094Y124960D01*
Y128958D01*
X465090Y123960D02*
X463090Y125959D01*
Y127959D01*
X465090Y129958D01*
X468089Y123960D02*
Y127959D01*
X469088D01*
X470088Y126959D01*
Y123960D01*
Y126959D01*
X471088Y127959D01*
X472087Y126959D01*
Y123960D01*
X474087D02*
Y127959D01*
X475086D01*
X476086Y126959D01*
Y123960D01*
Y126959D01*
X477086Y127959D01*
X478086Y126959D01*
Y123960D01*
X480085D02*
X482084Y125959D01*
Y127959D01*
X480085Y129958D01*
X334978Y134757D02*
Y140755D01*
X331979Y137756D01*
X335977D01*
X337977Y134757D02*
Y135757D01*
X338976D01*
Y134757D01*
X337977D01*
X342975Y139755D02*
X343975Y140755D01*
X345974D01*
X346974Y139755D01*
Y138756D01*
X345974Y137756D01*
X344974D01*
X345974D01*
X346974Y136757D01*
Y135757D01*
X345974Y134757D01*
X343975D01*
X342975Y135757D01*
X352972Y140755D02*
X348973D01*
Y137756D01*
X350973Y138756D01*
X351972D01*
X352972Y137756D01*
Y135757D01*
X351972Y134757D01*
X349973D01*
X348973Y135757D01*
X362969Y134757D02*
X360969Y136757D01*
Y138756D01*
X362969Y140755D01*
X365968Y134757D02*
Y138756D01*
X366967D01*
X367967Y137756D01*
Y134757D01*
Y137756D01*
X368967Y138756D01*
X369966Y137756D01*
Y134757D01*
X371966D02*
Y138756D01*
X372965D01*
X373965Y137756D01*
Y134757D01*
Y137756D01*
X374965Y138756D01*
X375964Y137756D01*
Y134757D01*
X377964D02*
X379963Y136757D01*
Y138756D01*
X377964Y140755D01*
X116317Y139875D02*
Y145873D01*
X113318Y142874D01*
X117317D01*
X119316Y139875D02*
Y140875D01*
X120316D01*
Y139875D01*
X119316D01*
X128314Y145873D02*
X124315D01*
Y142874D01*
X126314Y143874D01*
X127314D01*
X128314Y142874D01*
Y140875D01*
X127314Y139875D01*
X125314D01*
X124315Y140875D01*
X130313Y145873D02*
X134312D01*
Y144874D01*
X130313Y140875D01*
Y139875D01*
X144308D02*
X142309Y141875D01*
Y143874D01*
X144308Y145873D01*
X147307Y139875D02*
Y143874D01*
X148307D01*
X149307Y142874D01*
Y139875D01*
Y142874D01*
X150306Y143874D01*
X151306Y142874D01*
Y139875D01*
X153305D02*
Y143874D01*
X154305D01*
X155305Y142874D01*
Y139875D01*
Y142874D01*
X156305Y143874D01*
X157304Y142874D01*
Y139875D01*
X159303D02*
X161303Y141875D01*
Y143874D01*
X159303Y145873D01*
X76239Y86785D02*
X78239D01*
X77239D01*
Y92783D01*
X76239Y91783D01*
X81238D02*
X82237Y92783D01*
X84237D01*
X85236Y91783D01*
Y90784D01*
X84237Y89784D01*
X83237D01*
X84237D01*
X85236Y88784D01*
Y87785D01*
X84237Y86785D01*
X82237D01*
X81238Y87785D01*
X87236Y86785D02*
Y87785D01*
X88235D01*
Y86785D01*
X87236D01*
X92234Y91783D02*
X93234Y92783D01*
X95233D01*
X96233Y91783D01*
Y87785D01*
X95233Y86785D01*
X93234D01*
X92234Y87785D01*
Y91783D01*
X98232D02*
X99232Y92783D01*
X101231D01*
X102231Y91783D01*
Y87785D01*
X101231Y86785D01*
X99232D01*
X98232Y87785D01*
Y91783D01*
X112228Y86785D02*
X110228Y88784D01*
Y90784D01*
X112228Y92783D01*
X115227Y86785D02*
Y90784D01*
X116226D01*
X117226Y89784D01*
Y86785D01*
Y89784D01*
X118226Y90784D01*
X119225Y89784D01*
Y86785D01*
X121225D02*
Y90784D01*
X122224D01*
X123224Y89784D01*
Y86785D01*
Y89784D01*
X124224Y90784D01*
X125223Y89784D01*
Y86785D01*
X127223D02*
X129222Y88784D01*
Y90784D01*
X127223Y92783D01*
X14777Y131440D02*
X10779D01*
X14777Y135439D01*
Y136439D01*
X13778Y137438D01*
X11778D01*
X10779Y136439D01*
X16777D02*
X17777Y137438D01*
X19776D01*
X20776Y136439D01*
Y132440D01*
X19776Y131440D01*
X17777D01*
X16777Y132440D01*
Y136439D01*
X22775Y131440D02*
Y132440D01*
X23775D01*
Y131440D01*
X22775D01*
X27773Y136439D02*
X28773Y137438D01*
X30772D01*
X31772Y136439D01*
Y132440D01*
X30772Y131440D01*
X28773D01*
X27773Y132440D01*
Y136439D01*
X33771D02*
X34771Y137438D01*
X36770D01*
X37770Y136439D01*
Y132440D01*
X36770Y131440D01*
X34771D01*
X33771Y132440D01*
Y136439D01*
X47767Y131440D02*
X45768Y133440D01*
Y135439D01*
X47767Y137438D01*
X50766Y131440D02*
Y135439D01*
X51766D01*
X52765Y134439D01*
Y131440D01*
Y134439D01*
X53765Y135439D01*
X54765Y134439D01*
Y131440D01*
X56764D02*
Y135439D01*
X57764D01*
X58763Y134439D01*
Y131440D01*
Y134439D01*
X59763Y135439D01*
X60763Y134439D01*
Y131440D01*
X62762D02*
X64761Y133440D01*
Y135439D01*
X62762Y137438D01*
X-13210Y30464D02*
X-14210Y31464D01*
Y33463D01*
X-13210Y34463D01*
X-12211D01*
X-11211Y33463D01*
Y32463D01*
Y33463D01*
X-10211Y34463D01*
X-9212D01*
X-8212Y33463D01*
Y31464D01*
X-9212Y30464D01*
X-13210Y36462D02*
X-14210Y37462D01*
Y39461D01*
X-13210Y40461D01*
X-9212D01*
X-8212Y39461D01*
Y37462D01*
X-9212Y36462D01*
X-13210D01*
X-8212Y42460D02*
X-9212D01*
Y43460D01*
X-8212D01*
Y42460D01*
X-13210Y47458D02*
X-14210Y48458D01*
Y50457D01*
X-13210Y51457D01*
X-9212D01*
X-8212Y50457D01*
Y48458D01*
X-9212Y47458D01*
X-13210D01*
Y53456D02*
X-14210Y54456D01*
Y56455D01*
X-13210Y57455D01*
X-9212D01*
X-8212Y56455D01*
Y54456D01*
X-9212Y53456D01*
X-13210D01*
X-8212Y67452D02*
X-10211Y65452D01*
X-12211D01*
X-14210Y67452D01*
X-8212Y70451D02*
X-12211D01*
Y71451D01*
X-11211Y72450D01*
X-8212D01*
X-11211D01*
X-12211Y73450D01*
X-11211Y74450D01*
X-8212D01*
Y76449D02*
X-12211D01*
Y77449D01*
X-11211Y78448D01*
X-8212D01*
X-11211D01*
X-12211Y79448D01*
X-11211Y80448D01*
X-8212D01*
Y82447D02*
X-10211Y84446D01*
X-12211D01*
X-14210Y82447D01*
X224357Y85076D02*
X220359D01*
Y82077D01*
X222358Y83077D01*
X223358D01*
X224357Y82077D01*
Y80078D01*
X223358Y79078D01*
X221358D01*
X220359Y80078D01*
X226357Y79078D02*
X228356D01*
X227356D01*
Y85076D01*
X226357Y84076D01*
X231355Y79078D02*
Y80078D01*
X232355D01*
Y79078D01*
X231355D01*
X236353Y84076D02*
X237353Y85076D01*
X239352D01*
X240352Y84076D01*
Y80078D01*
X239352Y79078D01*
X237353D01*
X236353Y80078D01*
Y84076D01*
X242352D02*
X243351Y85076D01*
X245351D01*
X246350Y84076D01*
Y83077D01*
X245351Y82077D01*
X246350Y81077D01*
Y80078D01*
X245351Y79078D01*
X243351D01*
X242352Y80078D01*
Y81077D01*
X243351Y82077D01*
X242352Y83077D01*
Y84076D01*
X243351Y82077D02*
X245351D01*
X256347Y79078D02*
X254348Y81077D01*
Y83077D01*
X256347Y85076D01*
X259346Y79078D02*
Y83077D01*
X260346D01*
X261345Y82077D01*
Y79078D01*
Y82077D01*
X262345Y83077D01*
X263345Y82077D01*
Y79078D01*
X265344D02*
Y83077D01*
X266344D01*
X267343Y82077D01*
Y79078D01*
Y82077D01*
X268343Y83077D01*
X269343Y82077D01*
Y79078D01*
X271342D02*
X273341Y81077D01*
Y83077D01*
X271342Y85076D01*
X73678Y34463D02*
Y30464D01*
X69679Y34463D01*
X68679D01*
X67680Y33463D01*
Y31464D01*
X68679Y30464D01*
X73678Y39461D02*
X67680D01*
X70679Y36462D01*
Y40461D01*
X73678Y42460D02*
X72678D01*
Y43460D01*
X73678D01*
Y42460D01*
X68679Y47458D02*
X67680Y48458D01*
Y50457D01*
X68679Y51457D01*
X72678D01*
X73678Y50457D01*
Y48458D01*
X72678Y47458D01*
X68679D01*
Y53456D02*
X67680Y54456D01*
Y56455D01*
X68679Y57455D01*
X72678D01*
X73678Y56455D01*
Y54456D01*
X72678Y53456D01*
X68679D01*
X73678Y67452D02*
X71678Y65452D01*
X69679D01*
X67680Y67452D01*
X73678Y70451D02*
X69679D01*
Y71451D01*
X70679Y72450D01*
X73678D01*
X70679D01*
X69679Y73450D01*
X70679Y74450D01*
X73678D01*
Y76449D02*
X69679D01*
Y77449D01*
X70679Y78448D01*
X73678D01*
X70679D01*
X69679Y79448D01*
X70679Y80448D01*
X73678D01*
Y82447D02*
X71678Y84446D01*
X69679D01*
X67680Y82447D01*
D15*
X490063Y-25228D02*
X496063Y-23228D01*
X490063Y-21228D02*
X496063Y-23228D01*
X0D02*
X6000Y-21228D01*
X0Y-23228D02*
X6000Y-25228D01*
X277522Y-23228D02*
X496063D01*
X0D02*
X215341D01*
X496063Y-24228D02*
Y3937D01*
X0Y-24228D02*
Y3937D01*
X358236Y17800D02*
X360236Y11800D01*
X362236Y17800D01*
X360236Y106299D02*
X362236Y100299D01*
X358236D02*
X360236Y106299D01*
Y11800D02*
Y28858D01*
Y86041D02*
Y106299D01*
X359236Y11800D02*
X364945D01*
X359236Y106299D02*
X364945D01*
X417323Y102362D02*
X423323Y104362D01*
X417323Y102362D02*
X423323Y100362D01*
X360142D02*
X366142Y102362D01*
X360142Y104362D02*
X366142Y102362D01*
X417323D02*
X427323D01*
X356142D02*
X366142D01*
Y101362D02*
Y114173D01*
X417323Y101362D02*
Y105102D01*
Y127559D02*
X423323Y129559D01*
X417323Y127559D02*
X423323Y125559D01*
X490063D02*
X496063Y127559D01*
X490063Y129559D02*
X496063Y127559D01*
X417323D02*
X426502D01*
X483684D02*
X496063D01*
X417323Y115370D02*
Y128559D01*
X496063Y115370D02*
Y128559D01*
X366142Y127559D02*
X372142Y129559D01*
X366142Y127559D02*
X372142Y125559D01*
X343000D02*
X349000Y127559D01*
X343000Y129559D02*
X349000Y127559D01*
X366142D02*
X376142D01*
X339000D02*
X349000D01*
Y115370D02*
Y128559D01*
X366142Y115370D02*
Y128559D01*
X147900Y132677D02*
X153900Y134677D01*
X147900Y132677D02*
X153900Y130677D01*
X123921D02*
X129921Y132677D01*
X123921Y134677D02*
X129921Y132677D01*
X147900D02*
X157900D01*
X119921D02*
X129921D01*
Y107496D02*
Y133677D01*
X147900Y115370D02*
Y133677D01*
X129921Y101181D02*
X135921Y103181D01*
X129921Y101181D02*
X135921Y99181D01*
X72740D02*
X78740Y101181D01*
X72740Y103181D02*
X78740Y101181D01*
X129921D02*
X139921D01*
X68740D02*
X78740D01*
Y100181D02*
Y112976D01*
X129921Y100181D02*
Y105102D01*
X0Y135039D02*
X6000Y137039D01*
X0Y135039D02*
X6000Y133039D01*
X72740D02*
X78740Y135039D01*
X72740Y137039D02*
X78740Y135039D01*
X0D02*
X9179D01*
X66361D02*
X78740D01*
X0Y115370D02*
Y136039D01*
X78740Y115370D02*
Y136039D01*
X-13811Y6000D02*
X-11811Y0D01*
X-9811Y6000D01*
X-11811Y118110D02*
X-9811Y112110D01*
X-13811D02*
X-11811Y118110D01*
Y0D02*
Y28864D01*
Y86046D02*
Y118110D01*
X-12811Y0D02*
X2740D01*
X-12811Y118110D02*
X2740D01*
X147900Y82677D02*
X153900Y84677D01*
X147900Y82677D02*
X153900Y80677D01*
X343000D02*
X349000Y82677D01*
X343000Y84677D02*
X349000Y82677D01*
X147900D02*
X218759D01*
X274941D02*
X349000D01*
X147900Y71597D02*
Y83677D01*
X349000Y71597D02*
Y83677D01*
X70079Y106299D02*
X72079Y100299D01*
X68079D02*
X70079Y106299D01*
X68079Y17811D02*
X70079Y11811D01*
X72079Y17811D01*
X70079Y86046D02*
Y106299D01*
Y11811D02*
Y28864D01*
X69079Y106299D02*
X77543D01*
X69079Y11811D02*
X77543D01*
X524670Y132972D02*
Y127924D01*
X528035D01*
X530559Y131290D02*
X532241D01*
X533083Y130448D01*
Y127924D01*
X530559D01*
X529717Y128765D01*
X530559Y129607D01*
X533083D01*
X534765Y131290D02*
Y128765D01*
X535607Y127924D01*
X538131D01*
Y127083D01*
X537289Y126242D01*
X536448D01*
X538131Y127924D02*
Y131290D01*
X542337Y127924D02*
X540654D01*
X539813Y128765D01*
Y130448D01*
X540654Y131290D01*
X542337D01*
X543178Y130448D01*
Y129607D01*
X539813D01*
X544861Y131290D02*
Y127924D01*
Y129607D01*
X545702Y130448D01*
X546544Y131290D01*
X547385D01*
X528035Y-38711D02*
X526352Y-39552D01*
X524670Y-41235D01*
Y-42917D01*
X525511Y-43759D01*
X527193D01*
X528035Y-42917D01*
Y-42076D01*
X527193Y-41235D01*
X524670D01*
X528035Y-18513D02*
X524670D01*
Y-21037D01*
X526352Y-20196D01*
X527193D01*
X528035Y-21037D01*
Y-22719D01*
X527193Y-23561D01*
X525511D01*
X524670Y-22719D01*
X527193Y16835D02*
Y21883D01*
X524670Y19359D01*
X528035D01*
X524670Y41240D02*
X525511Y42081D01*
X527193D01*
X528035Y41240D01*
Y40398D01*
X527193Y39557D01*
X526352D01*
X527193D01*
X528035Y38716D01*
Y37874D01*
X527193Y37033D01*
X525511D01*
X524670Y37874D01*
X528035Y77429D02*
X524670D01*
X528035Y80794D01*
Y81636D01*
X527193Y82477D01*
X525511D01*
X524670Y81636D01*
Y97627D02*
X526352D01*
X525511D01*
Y102675D01*
X524670Y101834D01*
X559484Y127924D02*
Y132972D01*
X562849Y127924D01*
Y132972D01*
X565373Y131290D02*
X567056D01*
X567897Y130448D01*
Y127924D01*
X565373D01*
X564532Y128765D01*
X565373Y129607D01*
X567897D01*
X569580Y127924D02*
Y131290D01*
X570421D01*
X571262Y130448D01*
Y127924D01*
Y130448D01*
X572104Y131290D01*
X572945Y130448D01*
Y127924D01*
X577151D02*
X575469D01*
X574627Y128765D01*
Y130448D01*
X575469Y131290D01*
X577151D01*
X577993Y130448D01*
Y129607D01*
X574627D01*
X559484Y-58909D02*
Y-63957D01*
X562008D01*
X562849Y-63116D01*
Y-62274D01*
X562008Y-61433D01*
X559484D01*
X562008D01*
X562849Y-60592D01*
Y-59750D01*
X562008Y-58909D01*
X559484D01*
X565373Y-63957D02*
X567056D01*
X567897Y-63116D01*
Y-61433D01*
X567056Y-60592D01*
X565373D01*
X564532Y-61433D01*
Y-63116D01*
X565373Y-63957D01*
X570421Y-59750D02*
Y-60592D01*
X569580D01*
X571262D01*
X570421D01*
Y-63116D01*
X571262Y-63957D01*
X574627Y-59750D02*
Y-60592D01*
X573786D01*
X575469D01*
X574627D01*
Y-63116D01*
X575469Y-63957D01*
X578834D02*
X580517D01*
X581358Y-63116D01*
Y-61433D01*
X580517Y-60592D01*
X578834D01*
X577993Y-61433D01*
Y-63116D01*
X578834Y-63957D01*
X583041D02*
Y-60592D01*
X583882D01*
X584723Y-61433D01*
Y-63957D01*
Y-61433D01*
X585565Y-60592D01*
X586406Y-61433D01*
Y-63957D01*
X595660Y-58909D02*
X593978D01*
X593136Y-59750D01*
Y-63116D01*
X593978Y-63957D01*
X595660D01*
X596502Y-63116D01*
Y-59750D01*
X595660Y-58909D01*
X598184Y-60592D02*
X599867Y-63957D01*
X601549Y-60592D01*
X605756Y-63957D02*
X604073D01*
X603232Y-63116D01*
Y-61433D01*
X604073Y-60592D01*
X605756D01*
X606597Y-61433D01*
Y-62274D01*
X603232D01*
X608280Y-60592D02*
Y-63957D01*
Y-62274D01*
X609121Y-61433D01*
X609963Y-60592D01*
X610804D01*
X613328Y-63957D02*
X615010D01*
X614169D01*
Y-58909D01*
X613328D01*
X618376Y-60592D02*
X620058D01*
X620900Y-61433D01*
Y-63957D01*
X618376D01*
X617534Y-63116D01*
X618376Y-62274D01*
X620900D01*
X622582Y-60592D02*
Y-63116D01*
X623424Y-63957D01*
X625948D01*
Y-64798D01*
X625106Y-65639D01*
X624265D01*
X625948Y-63957D02*
Y-60592D01*
X559484Y-48810D02*
Y-53858D01*
X562008D01*
X562849Y-53017D01*
Y-52175D01*
X562008Y-51334D01*
X559484D01*
X562008D01*
X562849Y-50493D01*
Y-49651D01*
X562008Y-48810D01*
X559484D01*
X565373Y-53858D02*
X567056D01*
X567897Y-53017D01*
Y-51334D01*
X567056Y-50493D01*
X565373D01*
X564532Y-51334D01*
Y-53017D01*
X565373Y-53858D01*
X570421Y-49651D02*
Y-50493D01*
X569580D01*
X571262D01*
X570421D01*
Y-53017D01*
X571262Y-53858D01*
X574627Y-49651D02*
Y-50493D01*
X573786D01*
X575469D01*
X574627D01*
Y-53017D01*
X575469Y-53858D01*
X578834D02*
X580517D01*
X581358Y-53017D01*
Y-51334D01*
X580517Y-50493D01*
X578834D01*
X577993Y-51334D01*
Y-53017D01*
X578834Y-53858D01*
X583041D02*
Y-50493D01*
X583882D01*
X584723Y-51334D01*
Y-53858D01*
Y-51334D01*
X585565Y-50493D01*
X586406Y-51334D01*
Y-53858D01*
X596502Y-49651D02*
X595660Y-48810D01*
X593978D01*
X593136Y-49651D01*
Y-50493D01*
X593978Y-51334D01*
X595660D01*
X596502Y-52175D01*
Y-53017D01*
X595660Y-53858D01*
X593978D01*
X593136Y-53017D01*
X599026Y-53858D02*
X600708D01*
X601549Y-53017D01*
Y-51334D01*
X600708Y-50493D01*
X599026D01*
X598184Y-51334D01*
Y-53017D01*
X599026Y-53858D01*
X603232D02*
X604915D01*
X604073D01*
Y-48810D01*
X603232D01*
X610804D02*
Y-53858D01*
X608280D01*
X607439Y-53017D01*
Y-51334D01*
X608280Y-50493D01*
X610804D01*
X615010Y-53858D02*
X613328D01*
X612487Y-53017D01*
Y-51334D01*
X613328Y-50493D01*
X615010D01*
X615852Y-51334D01*
Y-52175D01*
X612487D01*
X617534Y-50493D02*
Y-53858D01*
Y-52175D01*
X618376Y-51334D01*
X619217Y-50493D01*
X620058D01*
X559484Y-38711D02*
Y-43759D01*
X562008D01*
X562849Y-42917D01*
Y-42076D01*
X562008Y-41235D01*
X559484D01*
X562008D01*
X562849Y-40393D01*
Y-39552D01*
X562008Y-38711D01*
X559484D01*
X565373Y-43759D02*
X567056D01*
X567897Y-42917D01*
Y-41235D01*
X567056Y-40393D01*
X565373D01*
X564532Y-41235D01*
Y-42917D01*
X565373Y-43759D01*
X570421Y-39552D02*
Y-40393D01*
X569580D01*
X571262D01*
X570421D01*
Y-42917D01*
X571262Y-43759D01*
X574627Y-39552D02*
Y-40393D01*
X573786D01*
X575469D01*
X574627D01*
Y-42917D01*
X575469Y-43759D01*
X578834D02*
X580517D01*
X581358Y-42917D01*
Y-41235D01*
X580517Y-40393D01*
X578834D01*
X577993Y-41235D01*
Y-42917D01*
X578834Y-43759D01*
X583041D02*
Y-40393D01*
X583882D01*
X584723Y-41235D01*
Y-43759D01*
Y-41235D01*
X585565Y-40393D01*
X586406Y-41235D01*
Y-43759D01*
X593136Y-38711D02*
Y-43759D01*
X596502D01*
X599026Y-40393D02*
X600708D01*
X601549Y-41235D01*
Y-43759D01*
X599026D01*
X598184Y-42917D01*
X599026Y-42076D01*
X601549D01*
X603232Y-40393D02*
Y-42917D01*
X604073Y-43759D01*
X606597D01*
Y-44600D01*
X605756Y-45441D01*
X604915D01*
X606597Y-43759D02*
Y-40393D01*
X610804Y-43759D02*
X609121D01*
X608280Y-42917D01*
Y-41235D01*
X609121Y-40393D01*
X610804D01*
X611645Y-41235D01*
Y-42076D01*
X608280D01*
X613328Y-40393D02*
Y-43759D01*
Y-42076D01*
X614169Y-41235D01*
X615010Y-40393D01*
X615852D01*
X559484Y-28612D02*
Y-33660D01*
X562008D01*
X562849Y-32818D01*
Y-29453D01*
X562008Y-28612D01*
X559484D01*
X564532Y-33660D02*
X566214D01*
X565373D01*
Y-30294D01*
X564532D01*
X571262Y-33660D02*
X569580D01*
X568738Y-32818D01*
Y-31136D01*
X569580Y-30294D01*
X571262D01*
X572104Y-31136D01*
Y-31977D01*
X568738D01*
X573786Y-33660D02*
X575469D01*
X574627D01*
Y-28612D01*
X573786D01*
X580517Y-33660D02*
X578834D01*
X577993Y-32818D01*
Y-31136D01*
X578834Y-30294D01*
X580517D01*
X581358Y-31136D01*
Y-31977D01*
X577993D01*
X586406Y-30294D02*
X583882D01*
X583041Y-31136D01*
Y-32818D01*
X583882Y-33660D01*
X586406D01*
X588930Y-29453D02*
Y-30294D01*
X588089D01*
X589771D01*
X588930D01*
Y-32818D01*
X589771Y-33660D01*
X592295Y-30294D02*
Y-33660D01*
Y-31977D01*
X593136Y-31136D01*
X593978Y-30294D01*
X594819D01*
X597343Y-33660D02*
X599026D01*
X598184D01*
Y-30294D01*
X597343D01*
X604915D02*
X602391D01*
X601549Y-31136D01*
Y-32818D01*
X602391Y-33660D01*
X604915D01*
X615010D02*
X611645D01*
X615010Y-30294D01*
Y-29453D01*
X614169Y-28612D01*
X612487D01*
X611645Y-29453D01*
X562849Y-19354D02*
X562008Y-18513D01*
X560325D01*
X559484Y-19354D01*
Y-20196D01*
X560325Y-21037D01*
X562008D01*
X562849Y-21878D01*
Y-22719D01*
X562008Y-23561D01*
X560325D01*
X559484Y-22719D01*
X564532Y-23561D02*
X566214D01*
X565373D01*
Y-20196D01*
X564532D01*
X570421Y-25243D02*
X571262D01*
X572104Y-24402D01*
Y-20196D01*
X569580D01*
X568738Y-21037D01*
Y-22719D01*
X569580Y-23561D01*
X572104D01*
X573786D02*
Y-20196D01*
X576310D01*
X577151Y-21037D01*
Y-23561D01*
X579675Y-20196D02*
X581358D01*
X582199Y-21037D01*
Y-23561D01*
X579675D01*
X578834Y-22719D01*
X579675Y-21878D01*
X582199D01*
X583882Y-23561D02*
X585565D01*
X584723D01*
Y-18513D01*
X583882D01*
X593136D02*
Y-23561D01*
X596502D01*
X599026Y-20196D02*
X600708D01*
X601549Y-21037D01*
Y-23561D01*
X599026D01*
X598184Y-22719D01*
X599026Y-21878D01*
X601549D01*
X603232Y-20196D02*
Y-22719D01*
X604073Y-23561D01*
X606597D01*
Y-24402D01*
X605756Y-25243D01*
X604915D01*
X606597Y-23561D02*
Y-20196D01*
X610804Y-23561D02*
X609121D01*
X608280Y-22719D01*
Y-21037D01*
X609121Y-20196D01*
X610804D01*
X611645Y-21037D01*
Y-21878D01*
X608280D01*
X613328Y-20196D02*
Y-23561D01*
Y-21878D01*
X614169Y-21037D01*
X615010Y-20196D01*
X615852D01*
X625948Y-23561D02*
Y-18513D01*
X623424Y-21037D01*
X626789D01*
X559484Y-8414D02*
Y-13462D01*
X562008D01*
X562849Y-12620D01*
Y-9255D01*
X562008Y-8414D01*
X559484D01*
X564532Y-13462D02*
X566214D01*
X565373D01*
Y-10097D01*
X564532D01*
X571262Y-13462D02*
X569580D01*
X568738Y-12620D01*
Y-10938D01*
X569580Y-10097D01*
X571262D01*
X572104Y-10938D01*
Y-11779D01*
X568738D01*
X573786Y-13462D02*
X575469D01*
X574627D01*
Y-8414D01*
X573786D01*
X580517Y-13462D02*
X578834D01*
X577993Y-12620D01*
Y-10938D01*
X578834Y-10097D01*
X580517D01*
X581358Y-10938D01*
Y-11779D01*
X577993D01*
X586406Y-10097D02*
X583882D01*
X583041Y-10938D01*
Y-12620D01*
X583882Y-13462D01*
X586406D01*
X588930Y-9255D02*
Y-10097D01*
X588089D01*
X589771D01*
X588930D01*
Y-12620D01*
X589771Y-13462D01*
X592295Y-10097D02*
Y-13462D01*
Y-11779D01*
X593136Y-10938D01*
X593978Y-10097D01*
X594819D01*
X597343Y-13462D02*
X599026D01*
X598184D01*
Y-10097D01*
X597343D01*
X604915D02*
X602391D01*
X601549Y-10938D01*
Y-12620D01*
X602391Y-13462D01*
X604915D01*
X615010Y-8414D02*
X611645D01*
Y-10938D01*
X613328Y-10097D01*
X614169D01*
X615010Y-10938D01*
Y-12620D01*
X614169Y-13462D01*
X612487D01*
X611645Y-12620D01*
X559484Y1685D02*
Y-3363D01*
X562008D01*
X562849Y-2521D01*
Y844D01*
X562008Y1685D01*
X559484D01*
X564532Y-3363D02*
X566214D01*
X565373D01*
Y2D01*
X564532D01*
X571262Y-3363D02*
X569580D01*
X568738Y-2521D01*
Y-839D01*
X569580Y2D01*
X571262D01*
X572104Y-839D01*
Y-1680D01*
X568738D01*
X573786Y-3363D02*
X575469D01*
X574627D01*
Y1685D01*
X573786D01*
X580517Y-3363D02*
X578834D01*
X577993Y-2521D01*
Y-839D01*
X578834Y2D01*
X580517D01*
X581358Y-839D01*
Y-1680D01*
X577993D01*
X586406Y2D02*
X583882D01*
X583041Y-839D01*
Y-2521D01*
X583882Y-3363D01*
X586406D01*
X588930Y844D02*
Y2D01*
X588089D01*
X589771D01*
X588930D01*
Y-2521D01*
X589771Y-3363D01*
X592295Y2D02*
Y-3363D01*
Y-1680D01*
X593136Y-839D01*
X593978Y2D01*
X594819D01*
X597343Y-3363D02*
X599026D01*
X598184D01*
Y2D01*
X597343D01*
X604915D02*
X602391D01*
X601549Y-839D01*
Y-2521D01*
X602391Y-3363D01*
X604915D01*
X611645Y844D02*
X612487Y1685D01*
X614169D01*
X615010Y844D01*
Y2D01*
X614169Y-839D01*
X615010Y-1680D01*
Y-2521D01*
X614169Y-3363D01*
X612487D01*
X611645Y-2521D01*
Y-1680D01*
X612487Y-839D01*
X611645Y2D01*
Y844D01*
X612487Y-839D02*
X614169D01*
X559484Y11784D02*
Y6736D01*
X562008D01*
X562849Y7577D01*
Y10943D01*
X562008Y11784D01*
X559484D01*
X564532Y6736D02*
X566214D01*
X565373D01*
Y10101D01*
X564532D01*
X571262Y6736D02*
X569580D01*
X568738Y7577D01*
Y9260D01*
X569580Y10101D01*
X571262D01*
X572104Y9260D01*
Y8419D01*
X568738D01*
X573786Y6736D02*
X575469D01*
X574627D01*
Y11784D01*
X573786D01*
X580517Y6736D02*
X578834D01*
X577993Y7577D01*
Y9260D01*
X578834Y10101D01*
X580517D01*
X581358Y9260D01*
Y8419D01*
X577993D01*
X586406Y10101D02*
X583882D01*
X583041Y9260D01*
Y7577D01*
X583882Y6736D01*
X586406D01*
X588930Y10943D02*
Y10101D01*
X588089D01*
X589771D01*
X588930D01*
Y7577D01*
X589771Y6736D01*
X592295Y10101D02*
Y6736D01*
Y8419D01*
X593136Y9260D01*
X593978Y10101D01*
X594819D01*
X597343Y6736D02*
X599026D01*
X598184D01*
Y10101D01*
X597343D01*
X604915D02*
X602391D01*
X601549Y9260D01*
Y7577D01*
X602391Y6736D01*
X604915D01*
X611645Y7577D02*
X612487Y6736D01*
X614169D01*
X615010Y7577D01*
Y10943D01*
X614169Y11784D01*
X612487D01*
X611645Y10943D01*
Y10101D01*
X612487Y9260D01*
X615010D01*
X562849Y21042D02*
X562008Y21883D01*
X560325D01*
X559484Y21042D01*
Y20200D01*
X560325Y19359D01*
X562008D01*
X562849Y18518D01*
Y17676D01*
X562008Y16835D01*
X560325D01*
X559484Y17676D01*
X564532Y16835D02*
X566214D01*
X565373D01*
Y20200D01*
X564532D01*
X570421Y15153D02*
X571262D01*
X572104Y15994D01*
Y20200D01*
X569580D01*
X568738Y19359D01*
Y17676D01*
X569580Y16835D01*
X572104D01*
X573786D02*
Y20200D01*
X576310D01*
X577151Y19359D01*
Y16835D01*
X579675Y20200D02*
X581358D01*
X582199Y19359D01*
Y16835D01*
X579675D01*
X578834Y17676D01*
X579675Y18518D01*
X582199D01*
X583882Y16835D02*
X585565D01*
X584723D01*
Y21883D01*
X583882D01*
X593136D02*
Y16835D01*
X596502D01*
X599026Y20200D02*
X600708D01*
X601549Y19359D01*
Y16835D01*
X599026D01*
X598184Y17676D01*
X599026Y18518D01*
X601549D01*
X603232Y20200D02*
Y17676D01*
X604073Y16835D01*
X606597D01*
Y15994D01*
X605756Y15153D01*
X604915D01*
X606597Y16835D02*
Y20200D01*
X610804Y16835D02*
X609121D01*
X608280Y17676D01*
Y19359D01*
X609121Y20200D01*
X610804D01*
X611645Y19359D01*
Y18518D01*
X608280D01*
X613328Y20200D02*
Y16835D01*
Y18518D01*
X614169Y19359D01*
X615010Y20200D01*
X615852D01*
X623424Y21042D02*
X624265Y21883D01*
X625948D01*
X626789Y21042D01*
Y20200D01*
X625948Y19359D01*
X625106D01*
X625948D01*
X626789Y18518D01*
Y17676D01*
X625948Y16835D01*
X624265D01*
X623424Y17676D01*
X559484Y31982D02*
Y26934D01*
X562008D01*
X562849Y27775D01*
Y31141D01*
X562008Y31982D01*
X559484D01*
X564532Y26934D02*
X566214D01*
X565373D01*
Y30299D01*
X564532D01*
X571262Y26934D02*
X569580D01*
X568738Y27775D01*
Y29458D01*
X569580Y30299D01*
X571262D01*
X572104Y29458D01*
Y28617D01*
X568738D01*
X573786Y26934D02*
X575469D01*
X574627D01*
Y31982D01*
X573786D01*
X580517Y26934D02*
X578834D01*
X577993Y27775D01*
Y29458D01*
X578834Y30299D01*
X580517D01*
X581358Y29458D01*
Y28617D01*
X577993D01*
X586406Y30299D02*
X583882D01*
X583041Y29458D01*
Y27775D01*
X583882Y26934D01*
X586406D01*
X588930Y31141D02*
Y30299D01*
X588089D01*
X589771D01*
X588930D01*
Y27775D01*
X589771Y26934D01*
X592295Y30299D02*
Y26934D01*
Y28617D01*
X593136Y29458D01*
X593978Y30299D01*
X594819D01*
X597343Y26934D02*
X599026D01*
X598184D01*
Y30299D01*
X597343D01*
X604915D02*
X602391D01*
X601549Y29458D01*
Y27775D01*
X602391Y26934D01*
X604915D01*
X614169D02*
Y31982D01*
X611645Y29458D01*
X615010D01*
X562849Y41240D02*
X562008Y42081D01*
X560325D01*
X559484Y41240D01*
Y40398D01*
X560325Y39557D01*
X562008D01*
X562849Y38716D01*
Y37874D01*
X562008Y37033D01*
X560325D01*
X559484Y37874D01*
X564532Y37033D02*
X566214D01*
X565373D01*
Y40398D01*
X564532D01*
X570421Y35351D02*
X571262D01*
X572104Y36192D01*
Y40398D01*
X569580D01*
X568738Y39557D01*
Y37874D01*
X569580Y37033D01*
X572104D01*
X573786D02*
Y40398D01*
X576310D01*
X577151Y39557D01*
Y37033D01*
X579675Y40398D02*
X581358D01*
X582199Y39557D01*
Y37033D01*
X579675D01*
X578834Y37874D01*
X579675Y38716D01*
X582199D01*
X583882Y37033D02*
X585565D01*
X584723D01*
Y42081D01*
X583882D01*
X593136D02*
Y37033D01*
X596502D01*
X599026Y40398D02*
X600708D01*
X601549Y39557D01*
Y37033D01*
X599026D01*
X598184Y37874D01*
X599026Y38716D01*
X601549D01*
X603232Y40398D02*
Y37874D01*
X604073Y37033D01*
X606597D01*
Y36192D01*
X605756Y35351D01*
X604915D01*
X606597Y37033D02*
Y40398D01*
X610804Y37033D02*
X609121D01*
X608280Y37874D01*
Y39557D01*
X609121Y40398D01*
X610804D01*
X611645Y39557D01*
Y38716D01*
X608280D01*
X613328Y40398D02*
Y37033D01*
Y38716D01*
X614169Y39557D01*
X615010Y40398D01*
X615852D01*
X626789Y37033D02*
X623424D01*
X626789Y40398D01*
Y41240D01*
X625948Y42081D01*
X624265D01*
X623424Y41240D01*
X559484Y52180D02*
Y47132D01*
X562008D01*
X562849Y47973D01*
Y51339D01*
X562008Y52180D01*
X559484D01*
X564532Y47132D02*
X566214D01*
X565373D01*
Y50497D01*
X564532D01*
X571262Y47132D02*
X569580D01*
X568738Y47973D01*
Y49656D01*
X569580Y50497D01*
X571262D01*
X572104Y49656D01*
Y48815D01*
X568738D01*
X573786Y47132D02*
X575469D01*
X574627D01*
Y52180D01*
X573786D01*
X580517Y47132D02*
X578834D01*
X577993Y47973D01*
Y49656D01*
X578834Y50497D01*
X580517D01*
X581358Y49656D01*
Y48815D01*
X577993D01*
X586406Y50497D02*
X583882D01*
X583041Y49656D01*
Y47973D01*
X583882Y47132D01*
X586406D01*
X588930Y51339D02*
Y50497D01*
X588089D01*
X589771D01*
X588930D01*
Y47973D01*
X589771Y47132D01*
X592295Y50497D02*
Y47132D01*
Y48815D01*
X593136Y49656D01*
X593978Y50497D01*
X594819D01*
X597343Y47132D02*
X599026D01*
X598184D01*
Y50497D01*
X597343D01*
X604915D02*
X602391D01*
X601549Y49656D01*
Y47973D01*
X602391Y47132D01*
X604915D01*
X611645Y52180D02*
X615010D01*
Y51339D01*
X611645Y47973D01*
Y47132D01*
X559484Y62279D02*
Y57231D01*
X562008D01*
X562849Y58073D01*
Y61438D01*
X562008Y62279D01*
X559484D01*
X564532Y57231D02*
X566214D01*
X565373D01*
Y60597D01*
X564532D01*
X571262Y57231D02*
X569580D01*
X568738Y58073D01*
Y59755D01*
X569580Y60597D01*
X571262D01*
X572104Y59755D01*
Y58914D01*
X568738D01*
X573786Y57231D02*
X575469D01*
X574627D01*
Y62279D01*
X573786D01*
X580517Y57231D02*
X578834D01*
X577993Y58073D01*
Y59755D01*
X578834Y60597D01*
X580517D01*
X581358Y59755D01*
Y58914D01*
X577993D01*
X586406Y60597D02*
X583882D01*
X583041Y59755D01*
Y58073D01*
X583882Y57231D01*
X586406D01*
X588930Y61438D02*
Y60597D01*
X588089D01*
X589771D01*
X588930D01*
Y58073D01*
X589771Y57231D01*
X592295Y60597D02*
Y57231D01*
Y58914D01*
X593136Y59755D01*
X593978Y60597D01*
X594819D01*
X597343Y57231D02*
X599026D01*
X598184D01*
Y60597D01*
X597343D01*
X604915D02*
X602391D01*
X601549Y59755D01*
Y58073D01*
X602391Y57231D01*
X604915D01*
X615010Y62279D02*
X613328Y61438D01*
X611645Y59755D01*
Y58073D01*
X612487Y57231D01*
X614169D01*
X615010Y58073D01*
Y58914D01*
X614169Y59755D01*
X611645D01*
X559484Y72378D02*
Y67330D01*
X562008D01*
X562849Y68172D01*
Y71537D01*
X562008Y72378D01*
X559484D01*
X564532Y67330D02*
X566214D01*
X565373D01*
Y70696D01*
X564532D01*
X571262Y67330D02*
X569580D01*
X568738Y68172D01*
Y69854D01*
X569580Y70696D01*
X571262D01*
X572104Y69854D01*
Y69013D01*
X568738D01*
X573786Y67330D02*
X575469D01*
X574627D01*
Y72378D01*
X573786D01*
X580517Y67330D02*
X578834D01*
X577993Y68172D01*
Y69854D01*
X578834Y70696D01*
X580517D01*
X581358Y69854D01*
Y69013D01*
X577993D01*
X586406Y70696D02*
X583882D01*
X583041Y69854D01*
Y68172D01*
X583882Y67330D01*
X586406D01*
X588930Y71537D02*
Y70696D01*
X588089D01*
X589771D01*
X588930D01*
Y68172D01*
X589771Y67330D01*
X592295Y70696D02*
Y67330D01*
Y69013D01*
X593136Y69854D01*
X593978Y70696D01*
X594819D01*
X597343Y67330D02*
X599026D01*
X598184D01*
Y70696D01*
X597343D01*
X604915D02*
X602391D01*
X601549Y69854D01*
Y68172D01*
X602391Y67330D01*
X604915D01*
X611645Y71537D02*
X612487Y72378D01*
X614169D01*
X615010Y71537D01*
Y70696D01*
X614169Y69854D01*
X613328D01*
X614169D01*
X615010Y69013D01*
Y68172D01*
X614169Y67330D01*
X612487D01*
X611645Y68172D01*
X562849Y81636D02*
X562008Y82477D01*
X560325D01*
X559484Y81636D01*
Y80794D01*
X560325Y79953D01*
X562008D01*
X562849Y79112D01*
Y78271D01*
X562008Y77429D01*
X560325D01*
X559484Y78271D01*
X564532Y77429D02*
X566214D01*
X565373D01*
Y80794D01*
X564532D01*
X570421Y75747D02*
X571262D01*
X572104Y76588D01*
Y80794D01*
X569580D01*
X568738Y79953D01*
Y78271D01*
X569580Y77429D01*
X572104D01*
X573786D02*
Y80794D01*
X576310D01*
X577151Y79953D01*
Y77429D01*
X579675Y80794D02*
X581358D01*
X582199Y79953D01*
Y77429D01*
X579675D01*
X578834Y78271D01*
X579675Y79112D01*
X582199D01*
X583882Y77429D02*
X585565D01*
X584723D01*
Y82477D01*
X583882D01*
X593136D02*
Y77429D01*
X596502D01*
X599026Y80794D02*
X600708D01*
X601549Y79953D01*
Y77429D01*
X599026D01*
X598184Y78271D01*
X599026Y79112D01*
X601549D01*
X603232Y80794D02*
Y78271D01*
X604073Y77429D01*
X606597D01*
Y76588D01*
X605756Y75747D01*
X604915D01*
X606597Y77429D02*
Y80794D01*
X610804Y77429D02*
X609121D01*
X608280Y78271D01*
Y79953D01*
X609121Y80794D01*
X610804D01*
X611645Y79953D01*
Y79112D01*
X608280D01*
X613328Y80794D02*
Y77429D01*
Y79112D01*
X614169Y79953D01*
X615010Y80794D01*
X615852D01*
X623424Y77429D02*
X625106D01*
X624265D01*
Y82477D01*
X623424Y81636D01*
X559484Y92576D02*
Y87528D01*
X562008D01*
X562849Y88370D01*
Y91735D01*
X562008Y92576D01*
X559484D01*
X564532Y87528D02*
X566214D01*
X565373D01*
Y90893D01*
X564532D01*
X571262Y87528D02*
X569580D01*
X568738Y88370D01*
Y90052D01*
X569580Y90893D01*
X571262D01*
X572104Y90052D01*
Y89211D01*
X568738D01*
X573786Y87528D02*
X575469D01*
X574627D01*
Y92576D01*
X573786D01*
X580517Y87528D02*
X578834D01*
X577993Y88370D01*
Y90052D01*
X578834Y90893D01*
X580517D01*
X581358Y90052D01*
Y89211D01*
X577993D01*
X586406Y90893D02*
X583882D01*
X583041Y90052D01*
Y88370D01*
X583882Y87528D01*
X586406D01*
X588930Y91735D02*
Y90893D01*
X588089D01*
X589771D01*
X588930D01*
Y88370D01*
X589771Y87528D01*
X592295Y90893D02*
Y87528D01*
Y89211D01*
X593136Y90052D01*
X593978Y90893D01*
X594819D01*
X597343Y87528D02*
X599026D01*
X598184D01*
Y90893D01*
X597343D01*
X604915D02*
X602391D01*
X601549Y90052D01*
Y88370D01*
X602391Y87528D01*
X604915D01*
X611645D02*
X613328D01*
X612487D01*
Y92576D01*
X611645Y91735D01*
X559484Y102675D02*
X562849D01*
X561167D01*
Y97627D01*
X565373D02*
X567056D01*
X567897Y98469D01*
Y100151D01*
X567056Y100992D01*
X565373D01*
X564532Y100151D01*
Y98469D01*
X565373Y97627D01*
X569580Y95945D02*
Y100992D01*
X572104D01*
X572945Y100151D01*
Y98469D01*
X572104Y97627D01*
X569580D01*
X579675Y102675D02*
Y97627D01*
X583041D01*
X585565Y100992D02*
X587247D01*
X588089Y100151D01*
Y97627D01*
X585565D01*
X584723Y98469D01*
X585565Y99310D01*
X588089D01*
X589771Y100992D02*
Y98469D01*
X590613Y97627D01*
X593136D01*
Y96786D01*
X592295Y95945D01*
X591454D01*
X593136Y97627D02*
Y100992D01*
X597343Y97627D02*
X595660D01*
X594819Y98469D01*
Y100151D01*
X595660Y100992D01*
X597343D01*
X598184Y100151D01*
Y99310D01*
X594819D01*
X599867Y100992D02*
Y97627D01*
Y99310D01*
X600708Y100151D01*
X601549Y100992D01*
X602391D01*
X559484Y112774D02*
X562849D01*
X561167D01*
Y107726D01*
X565373D02*
X567056D01*
X567897Y108568D01*
Y110250D01*
X567056Y111091D01*
X565373D01*
X564532Y110250D01*
Y108568D01*
X565373Y107726D01*
X569580Y106044D02*
Y111091D01*
X572104D01*
X572945Y110250D01*
Y108568D01*
X572104Y107726D01*
X569580D01*
X583041Y111933D02*
X582199Y112774D01*
X580517D01*
X579675Y111933D01*
Y111091D01*
X580517Y110250D01*
X582199D01*
X583041Y109409D01*
Y108568D01*
X582199Y107726D01*
X580517D01*
X579675Y108568D01*
X585565Y107726D02*
X587247D01*
X588089Y108568D01*
Y110250D01*
X587247Y111091D01*
X585565D01*
X584723Y110250D01*
Y108568D01*
X585565Y107726D01*
X589771D02*
X591454D01*
X590613D01*
Y112774D01*
X589771D01*
X597343D02*
Y107726D01*
X594819D01*
X593978Y108568D01*
Y110250D01*
X594819Y111091D01*
X597343D01*
X601549Y107726D02*
X599867D01*
X599026Y108568D01*
Y110250D01*
X599867Y111091D01*
X601549D01*
X602391Y110250D01*
Y109409D01*
X599026D01*
X604073Y111091D02*
Y107726D01*
Y109409D01*
X604915Y110250D01*
X605756Y111091D01*
X606597D01*
X559484Y122873D02*
X562849D01*
X561167D01*
Y117825D01*
X565373D02*
X567056D01*
X567897Y118667D01*
Y120349D01*
X567056Y121191D01*
X565373D01*
X564532Y120349D01*
Y118667D01*
X565373Y117825D01*
X569580Y116143D02*
Y121191D01*
X572104D01*
X572945Y120349D01*
Y118667D01*
X572104Y117825D01*
X569580D01*
X582199Y122873D02*
X580517D01*
X579675Y122032D01*
Y118667D01*
X580517Y117825D01*
X582199D01*
X583041Y118667D01*
Y122032D01*
X582199Y122873D01*
X584723Y121191D02*
X586406Y117825D01*
X588089Y121191D01*
X592295Y117825D02*
X590613D01*
X589771Y118667D01*
Y120349D01*
X590613Y121191D01*
X592295D01*
X593136Y120349D01*
Y119508D01*
X589771D01*
X594819Y121191D02*
Y117825D01*
Y119508D01*
X595660Y120349D01*
X596502Y121191D01*
X597343D01*
X599867Y117825D02*
X601549D01*
X600708D01*
Y122873D01*
X599867D01*
X604915Y121191D02*
X606597D01*
X607439Y120349D01*
Y117825D01*
X604915D01*
X604073Y118667D01*
X604915Y119508D01*
X607439D01*
X609121Y121191D02*
Y118667D01*
X609963Y117825D01*
X612487D01*
Y116984D01*
X611645Y116143D01*
X610804D01*
X612487Y117825D02*
Y121191D01*
X638888Y127924D02*
Y132972D01*
X640570Y131290D01*
X642253Y132972D01*
Y127924D01*
X644777Y131290D02*
X646460D01*
X647301Y130448D01*
Y127924D01*
X644777D01*
X643936Y128765D01*
X644777Y129607D01*
X647301D01*
X649825Y132131D02*
Y131290D01*
X648984D01*
X650666D01*
X649825D01*
Y128765D01*
X650666Y127924D01*
X655714D02*
X654032D01*
X653190Y128765D01*
Y130448D01*
X654032Y131290D01*
X655714D01*
X656555Y130448D01*
Y129607D01*
X653190D01*
X658238Y131290D02*
Y127924D01*
Y129607D01*
X659079Y130448D01*
X659921Y131290D01*
X660762D01*
X663286Y127924D02*
X664968D01*
X664127D01*
Y131290D01*
X663286D01*
X668334D02*
X670016D01*
X670858Y130448D01*
Y127924D01*
X668334D01*
X667492Y128765D01*
X668334Y129607D01*
X670858D01*
X672540Y127924D02*
X674223D01*
X673382D01*
Y132972D01*
X672540D01*
X642253Y-49651D02*
X641412Y-48810D01*
X639729D01*
X638888Y-49651D01*
Y-50493D01*
X639729Y-51334D01*
X641412D01*
X642253Y-52175D01*
Y-53017D01*
X641412Y-53858D01*
X639729D01*
X638888Y-53017D01*
X644777Y-53858D02*
X646460D01*
X647301Y-53017D01*
Y-51334D01*
X646460Y-50493D01*
X644777D01*
X643936Y-51334D01*
Y-53017D01*
X644777Y-53858D01*
X648984D02*
X650666D01*
X649825D01*
Y-48810D01*
X648984D01*
X656555D02*
Y-53858D01*
X654032D01*
X653190Y-53017D01*
Y-51334D01*
X654032Y-50493D01*
X656555D01*
X660762Y-53858D02*
X659079D01*
X658238Y-53017D01*
Y-51334D01*
X659079Y-50493D01*
X660762D01*
X661603Y-51334D01*
Y-52175D01*
X658238D01*
X663286Y-50493D02*
Y-53858D01*
Y-52175D01*
X664127Y-51334D01*
X664968Y-50493D01*
X665810D01*
X673382Y-53858D02*
Y-48810D01*
X675906D01*
X676747Y-49651D01*
Y-51334D01*
X675906Y-52175D01*
X673382D01*
X675064D02*
X676747Y-53858D01*
X680953D02*
X679271D01*
X678430Y-53017D01*
Y-51334D01*
X679271Y-50493D01*
X680953D01*
X681795Y-51334D01*
Y-52175D01*
X678430D01*
X683477Y-53858D02*
X686001D01*
X686843Y-53017D01*
X686001Y-52175D01*
X684319D01*
X683477Y-51334D01*
X684319Y-50493D01*
X686843D01*
X688525Y-53858D02*
X690208D01*
X689367D01*
Y-50493D01*
X688525D01*
X692732Y-53858D02*
X695256D01*
X696097Y-53017D01*
X695256Y-52175D01*
X693573D01*
X692732Y-51334D01*
X693573Y-50493D01*
X696097D01*
X698621Y-49651D02*
Y-50493D01*
X697780D01*
X699462D01*
X698621D01*
Y-53017D01*
X699462Y-53858D01*
X642253Y-39552D02*
X641412Y-38711D01*
X639729D01*
X638888Y-39552D01*
Y-42917D01*
X639729Y-43759D01*
X641412D01*
X642253Y-42917D01*
X644777Y-43759D02*
X646460D01*
X647301Y-42917D01*
Y-41235D01*
X646460Y-40393D01*
X644777D01*
X643936Y-41235D01*
Y-42917D01*
X644777Y-43759D01*
X648984Y-45441D02*
Y-40393D01*
X651508D01*
X652349Y-41235D01*
Y-42917D01*
X651508Y-43759D01*
X648984D01*
X654032Y-45441D02*
Y-40393D01*
X656555D01*
X657397Y-41235D01*
Y-42917D01*
X656555Y-43759D01*
X654032D01*
X661603D02*
X659921D01*
X659079Y-42917D01*
Y-41235D01*
X659921Y-40393D01*
X661603D01*
X662445Y-41235D01*
Y-42076D01*
X659079D01*
X664127Y-40393D02*
Y-43759D01*
Y-42076D01*
X664968Y-41235D01*
X665810Y-40393D01*
X666651D01*
X642253Y-19354D02*
X641412Y-18513D01*
X639729D01*
X638888Y-19354D01*
Y-22719D01*
X639729Y-23561D01*
X641412D01*
X642253Y-22719D01*
X644777Y-23561D02*
X646460D01*
X647301Y-22719D01*
Y-21037D01*
X646460Y-20196D01*
X644777D01*
X643936Y-21037D01*
Y-22719D01*
X644777Y-23561D01*
X648984Y-25243D02*
Y-20196D01*
X651508D01*
X652349Y-21037D01*
Y-22719D01*
X651508Y-23561D01*
X648984D01*
X654032Y-25243D02*
Y-20196D01*
X656555D01*
X657397Y-21037D01*
Y-22719D01*
X656555Y-23561D01*
X654032D01*
X661603D02*
X659921D01*
X659079Y-22719D01*
Y-21037D01*
X659921Y-20196D01*
X661603D01*
X662445Y-21037D01*
Y-21878D01*
X659079D01*
X664127Y-20196D02*
Y-23561D01*
Y-21878D01*
X664968Y-21037D01*
X665810Y-20196D01*
X666651D01*
X638888Y-13462D02*
Y-8414D01*
X641412D01*
X642253Y-9255D01*
Y-10938D01*
X641412Y-11779D01*
X638888D01*
X643936Y-13462D02*
Y-8414D01*
X646460D01*
X647301Y-9255D01*
Y-10938D01*
X646460Y-11779D01*
X643936D01*
X648984Y-10938D02*
X652349D01*
X654032Y-9255D02*
X654873Y-8414D01*
X656555D01*
X657397Y-9255D01*
Y-12620D01*
X656555Y-13462D01*
X654873D01*
X654032Y-12620D01*
Y-9255D01*
X659079D02*
X659921Y-8414D01*
X661603D01*
X662445Y-9255D01*
Y-12620D01*
X661603Y-13462D01*
X659921D01*
X659079Y-12620D01*
Y-9255D01*
X667492Y-8414D02*
X665810Y-9255D01*
X664127Y-10938D01*
Y-12620D01*
X664968Y-13462D01*
X666651D01*
X667492Y-12620D01*
Y-11779D01*
X666651Y-10938D01*
X664127D01*
X642253Y844D02*
X641412Y1685D01*
X639729D01*
X638888Y844D01*
Y-2521D01*
X639729Y-3363D01*
X641412D01*
X642253Y-2521D01*
X644777Y-3363D02*
X646460D01*
X647301Y-2521D01*
Y-839D01*
X646460Y2D01*
X644777D01*
X643936Y-839D01*
Y-2521D01*
X644777Y-3363D01*
X648984Y2D02*
Y-3363D01*
Y-1680D01*
X649825Y-839D01*
X650666Y2D01*
X651508D01*
X656555Y-3363D02*
X654873D01*
X654032Y-2521D01*
Y-839D01*
X654873Y2D01*
X656555D01*
X657397Y-839D01*
Y-1680D01*
X654032D01*
X659079Y-839D02*
X662445D01*
X664127Y844D02*
X664968Y1685D01*
X666651D01*
X667492Y844D01*
Y-2521D01*
X666651Y-3363D01*
X664968D01*
X664127Y-2521D01*
Y844D01*
X669175D02*
X670016Y1685D01*
X671699D01*
X672540Y844D01*
Y-2521D01*
X671699Y-3363D01*
X670016D01*
X669175Y-2521D01*
Y844D01*
X674223Y-2521D02*
X675064Y-3363D01*
X676747D01*
X677588Y-2521D01*
Y844D01*
X676747Y1685D01*
X675064D01*
X674223Y844D01*
Y2D01*
X675064Y-839D01*
X677588D01*
X638888Y6736D02*
Y11784D01*
X641412D01*
X642253Y10943D01*
Y9260D01*
X641412Y8419D01*
X638888D01*
X643936Y6736D02*
Y11784D01*
X646460D01*
X647301Y10943D01*
Y9260D01*
X646460Y8419D01*
X643936D01*
X648984Y9260D02*
X652349D01*
X654032Y10943D02*
X654873Y11784D01*
X656555D01*
X657397Y10943D01*
Y7577D01*
X656555Y6736D01*
X654873D01*
X654032Y7577D01*
Y10943D01*
X659079D02*
X659921Y11784D01*
X661603D01*
X662445Y10943D01*
Y7577D01*
X661603Y6736D01*
X659921D01*
X659079Y7577D01*
Y10943D01*
X667492Y11784D02*
X665810Y10943D01*
X664127Y9260D01*
Y7577D01*
X664968Y6736D01*
X666651D01*
X667492Y7577D01*
Y8419D01*
X666651Y9260D01*
X664127D01*
X642253Y21042D02*
X641412Y21883D01*
X639729D01*
X638888Y21042D01*
Y17676D01*
X639729Y16835D01*
X641412D01*
X642253Y17676D01*
X644777Y16835D02*
X646460D01*
X647301Y17676D01*
Y19359D01*
X646460Y20200D01*
X644777D01*
X643936Y19359D01*
Y17676D01*
X644777Y16835D01*
X648984Y15153D02*
Y20200D01*
X651508D01*
X652349Y19359D01*
Y17676D01*
X651508Y16835D01*
X648984D01*
X654032Y15153D02*
Y20200D01*
X656555D01*
X657397Y19359D01*
Y17676D01*
X656555Y16835D01*
X654032D01*
X661603D02*
X659921D01*
X659079Y17676D01*
Y19359D01*
X659921Y20200D01*
X661603D01*
X662445Y19359D01*
Y18518D01*
X659079D01*
X664127Y20200D02*
Y16835D01*
Y18518D01*
X664968Y19359D01*
X665810Y20200D01*
X666651D01*
X642253Y41240D02*
X641412Y42081D01*
X639729D01*
X638888Y41240D01*
Y37874D01*
X639729Y37033D01*
X641412D01*
X642253Y37874D01*
X644777Y37033D02*
X646460D01*
X647301Y37874D01*
Y39557D01*
X646460Y40398D01*
X644777D01*
X643936Y39557D01*
Y37874D01*
X644777Y37033D01*
X648984Y35351D02*
Y40398D01*
X651508D01*
X652349Y39557D01*
Y37874D01*
X651508Y37033D01*
X648984D01*
X654032Y35351D02*
Y40398D01*
X656555D01*
X657397Y39557D01*
Y37874D01*
X656555Y37033D01*
X654032D01*
X661603D02*
X659921D01*
X659079Y37874D01*
Y39557D01*
X659921Y40398D01*
X661603D01*
X662445Y39557D01*
Y38716D01*
X659079D01*
X664127Y40398D02*
Y37033D01*
Y38716D01*
X664968Y39557D01*
X665810Y40398D01*
X666651D01*
X638888Y47132D02*
Y52180D01*
X641412D01*
X642253Y51339D01*
Y49656D01*
X641412Y48815D01*
X638888D01*
X643936Y47132D02*
Y52180D01*
X646460D01*
X647301Y51339D01*
Y49656D01*
X646460Y48815D01*
X643936D01*
X648984Y49656D02*
X652349D01*
X654032Y51339D02*
X654873Y52180D01*
X656555D01*
X657397Y51339D01*
Y47973D01*
X656555Y47132D01*
X654873D01*
X654032Y47973D01*
Y51339D01*
X659079D02*
X659921Y52180D01*
X661603D01*
X662445Y51339D01*
Y47973D01*
X661603Y47132D01*
X659921D01*
X659079Y47973D01*
Y51339D01*
X667492Y52180D02*
X665810Y51339D01*
X664127Y49656D01*
Y47973D01*
X664968Y47132D01*
X666651D01*
X667492Y47973D01*
Y48815D01*
X666651Y49656D01*
X664127D01*
X642253Y61438D02*
X641412Y62279D01*
X639729D01*
X638888Y61438D01*
Y58073D01*
X639729Y57231D01*
X641412D01*
X642253Y58073D01*
X644777Y57231D02*
X646460D01*
X647301Y58073D01*
Y59755D01*
X646460Y60597D01*
X644777D01*
X643936Y59755D01*
Y58073D01*
X644777Y57231D01*
X648984Y60597D02*
Y57231D01*
Y58914D01*
X649825Y59755D01*
X650666Y60597D01*
X651508D01*
X656555Y57231D02*
X654873D01*
X654032Y58073D01*
Y59755D01*
X654873Y60597D01*
X656555D01*
X657397Y59755D01*
Y58914D01*
X654032D01*
X659079Y59755D02*
X662445D01*
X664127Y61438D02*
X664968Y62279D01*
X666651D01*
X667492Y61438D01*
Y58073D01*
X666651Y57231D01*
X664968D01*
X664127Y58073D01*
Y61438D01*
X669175D02*
X670016Y62279D01*
X671699D01*
X672540Y61438D01*
Y58073D01*
X671699Y57231D01*
X670016D01*
X669175Y58073D01*
Y61438D01*
X674223Y58073D02*
X675064Y57231D01*
X676747D01*
X677588Y58073D01*
Y61438D01*
X676747Y62279D01*
X675064D01*
X674223Y61438D01*
Y60597D01*
X675064Y59755D01*
X677588D01*
X638888Y67330D02*
Y72378D01*
X641412D01*
X642253Y71537D01*
Y69854D01*
X641412Y69013D01*
X638888D01*
X643936Y67330D02*
Y72378D01*
X646460D01*
X647301Y71537D01*
Y69854D01*
X646460Y69013D01*
X643936D01*
X648984Y69854D02*
X652349D01*
X654032Y71537D02*
X654873Y72378D01*
X656555D01*
X657397Y71537D01*
Y68172D01*
X656555Y67330D01*
X654873D01*
X654032Y68172D01*
Y71537D01*
X659079D02*
X659921Y72378D01*
X661603D01*
X662445Y71537D01*
Y68172D01*
X661603Y67330D01*
X659921D01*
X659079Y68172D01*
Y71537D01*
X667492Y72378D02*
X665810Y71537D01*
X664127Y69854D01*
Y68172D01*
X664968Y67330D01*
X666651D01*
X667492Y68172D01*
Y69013D01*
X666651Y69854D01*
X664127D01*
X642253Y81636D02*
X641412Y82477D01*
X639729D01*
X638888Y81636D01*
Y78271D01*
X639729Y77429D01*
X641412D01*
X642253Y78271D01*
X644777Y77429D02*
X646460D01*
X647301Y78271D01*
Y79953D01*
X646460Y80794D01*
X644777D01*
X643936Y79953D01*
Y78271D01*
X644777Y77429D01*
X648984Y75747D02*
Y80794D01*
X651508D01*
X652349Y79953D01*
Y78271D01*
X651508Y77429D01*
X648984D01*
X654032Y75747D02*
Y80794D01*
X656555D01*
X657397Y79953D01*
Y78271D01*
X656555Y77429D01*
X654032D01*
X661603D02*
X659921D01*
X659079Y78271D01*
Y79953D01*
X659921Y80794D01*
X661603D01*
X662445Y79953D01*
Y79112D01*
X659079D01*
X664127Y80794D02*
Y77429D01*
Y79112D01*
X664968Y79953D01*
X665810Y80794D01*
X666651D01*
X642253Y92576D02*
X638888D01*
Y90052D01*
X640570D01*
X638888D01*
Y87528D01*
X643936D02*
Y92576D01*
X646460D01*
X647301Y91735D01*
Y90052D01*
X646460Y89211D01*
X643936D01*
X645618D02*
X647301Y87528D01*
X648984Y90052D02*
X652349D01*
X656555Y87528D02*
Y92576D01*
X654032Y90052D01*
X657397D01*
X642253Y101834D02*
X641412Y102675D01*
X639729D01*
X638888Y101834D01*
Y98469D01*
X639729Y97627D01*
X641412D01*
X642253Y98469D01*
X644777Y97627D02*
X646460D01*
X647301Y98469D01*
Y100151D01*
X646460Y100992D01*
X644777D01*
X643936Y100151D01*
Y98469D01*
X644777Y97627D01*
X648984Y95945D02*
Y100992D01*
X651508D01*
X652349Y100151D01*
Y98469D01*
X651508Y97627D01*
X648984D01*
X654032Y95945D02*
Y100992D01*
X656555D01*
X657397Y100151D01*
Y98469D01*
X656555Y97627D01*
X654032D01*
X661603D02*
X659921D01*
X659079Y98469D01*
Y100151D01*
X659921Y100992D01*
X661603D01*
X662445Y100151D01*
Y99310D01*
X659079D01*
X664127Y100992D02*
Y97627D01*
Y99310D01*
X664968Y100151D01*
X665810Y100992D01*
X666651D01*
X642253Y111933D02*
X641412Y112774D01*
X639729D01*
X638888Y111933D01*
Y111091D01*
X639729Y110250D01*
X641412D01*
X642253Y109409D01*
Y108568D01*
X641412Y107726D01*
X639729D01*
X638888Y108568D01*
X644777Y107726D02*
X646460D01*
X647301Y108568D01*
Y110250D01*
X646460Y111091D01*
X644777D01*
X643936Y110250D01*
Y108568D01*
X644777Y107726D01*
X648984D02*
X650666D01*
X649825D01*
Y112774D01*
X648984D01*
X656555D02*
Y107726D01*
X654032D01*
X653190Y108568D01*
Y110250D01*
X654032Y111091D01*
X656555D01*
X660762Y107726D02*
X659079D01*
X658238Y108568D01*
Y110250D01*
X659079Y111091D01*
X660762D01*
X661603Y110250D01*
Y109409D01*
X658238D01*
X663286Y111091D02*
Y107726D01*
Y109409D01*
X664127Y110250D01*
X664968Y111091D01*
X665810D01*
X673382Y107726D02*
Y112774D01*
X675906D01*
X676747Y111933D01*
Y110250D01*
X675906Y109409D01*
X673382D01*
X675064D02*
X676747Y107726D01*
X680953D02*
X679271D01*
X678430Y108568D01*
Y110250D01*
X679271Y111091D01*
X680953D01*
X681795Y110250D01*
Y109409D01*
X678430D01*
X683477Y107726D02*
X686001D01*
X686843Y108568D01*
X686001Y109409D01*
X684319D01*
X683477Y110250D01*
X684319Y111091D01*
X686843D01*
X688525Y107726D02*
X690208D01*
X689367D01*
Y111091D01*
X688525D01*
X692732Y107726D02*
X695256D01*
X696097Y108568D01*
X695256Y109409D01*
X693573D01*
X692732Y110250D01*
X693573Y111091D01*
X696097D01*
X698621Y111933D02*
Y111091D01*
X697780D01*
X699462D01*
X698621D01*
Y108568D01*
X699462Y107726D01*
X711561Y132972D02*
X714927D01*
X713244D01*
Y127924D01*
X716609Y132972D02*
Y127924D01*
Y130448D01*
X717451Y131290D01*
X719133D01*
X719974Y130448D01*
Y127924D01*
X721657D02*
X723340D01*
X722498D01*
Y131290D01*
X721657D01*
X729229D02*
X726705D01*
X725864Y130448D01*
Y128765D01*
X726705Y127924D01*
X729229D01*
X730911D02*
Y132972D01*
Y129607D02*
X733435Y131290D01*
X730911Y129607D02*
X733435Y127924D01*
X735959D02*
Y131290D01*
X738483D01*
X739325Y130448D01*
Y127924D01*
X743531D02*
X741849D01*
X741007Y128765D01*
Y130448D01*
X741849Y131290D01*
X743531D01*
X744373Y130448D01*
Y129607D01*
X741007D01*
X746055Y127924D02*
X748579D01*
X749420Y128765D01*
X748579Y129607D01*
X746896D01*
X746055Y130448D01*
X746896Y131290D01*
X749420D01*
X751103Y127924D02*
X753627D01*
X754468Y128765D01*
X753627Y129607D01*
X751944D01*
X751103Y130448D01*
X751944Y131290D01*
X754468D01*
X711561Y-49651D02*
X712403Y-48810D01*
X714085D01*
X714927Y-49651D01*
Y-53017D01*
X714085Y-53858D01*
X712403D01*
X711561Y-53017D01*
Y-49651D01*
X716609Y-53858D02*
Y-53017D01*
X717451D01*
Y-53858D01*
X716609D01*
X724181Y-48810D02*
X722498Y-49651D01*
X720816Y-51334D01*
Y-53017D01*
X721657Y-53858D01*
X723340D01*
X724181Y-53017D01*
Y-52175D01*
X723340Y-51334D01*
X720816D01*
X725864Y-49651D02*
X726705Y-48810D01*
X728387D01*
X729229Y-49651D01*
Y-53017D01*
X728387Y-53858D01*
X726705D01*
X725864Y-53017D01*
Y-49651D01*
X730911Y-53858D02*
Y-50493D01*
X731753D01*
X732594Y-51334D01*
Y-53858D01*
Y-51334D01*
X733435Y-50493D01*
X734277Y-51334D01*
Y-53858D01*
X735959D02*
X737642D01*
X736801D01*
Y-50493D01*
X735959D01*
X740166Y-53858D02*
X741849D01*
X741007D01*
Y-48810D01*
X740166D01*
X711561Y-43759D02*
X713244D01*
X712403D01*
Y-38711D01*
X711561Y-39552D01*
X715768Y-43759D02*
Y-42917D01*
X716609D01*
Y-43759D01*
X715768D01*
X722498D02*
Y-38711D01*
X719974Y-41235D01*
X723340D01*
X725022Y-39552D02*
X725864Y-38711D01*
X727546D01*
X728388Y-39552D01*
Y-42917D01*
X727546Y-43759D01*
X725864D01*
X725022Y-42917D01*
Y-39552D01*
X730070Y-43759D02*
Y-40393D01*
X730911D01*
X731753Y-41235D01*
Y-43759D01*
Y-41235D01*
X732594Y-40393D01*
X733435Y-41235D01*
Y-43759D01*
X735118D02*
X736801D01*
X735959D01*
Y-40393D01*
X735118D01*
X739325Y-43759D02*
X741007D01*
X740166D01*
Y-38711D01*
X739325D01*
X711561Y-33660D02*
X713244D01*
X712403D01*
Y-28612D01*
X711561Y-29453D01*
X715768D02*
X716609Y-28612D01*
X718292D01*
X719133Y-29453D01*
Y-32818D01*
X718292Y-33660D01*
X716609D01*
X715768Y-32818D01*
Y-29453D01*
X720816Y-33660D02*
Y-32818D01*
X721657D01*
Y-33660D01*
X720816D01*
X725022Y-29453D02*
X725864Y-28612D01*
X727546D01*
X728388Y-29453D01*
Y-32818D01*
X727546Y-33660D01*
X725864D01*
X725022Y-32818D01*
Y-29453D01*
X730070D02*
X730911Y-28612D01*
X732594D01*
X733435Y-29453D01*
Y-32818D01*
X732594Y-33660D01*
X730911D01*
X730070Y-32818D01*
Y-29453D01*
X735118Y-33660D02*
Y-30294D01*
X735959D01*
X736801Y-31136D01*
Y-33660D01*
Y-31136D01*
X737642Y-30294D01*
X738483Y-31136D01*
Y-33660D01*
X740166D02*
X741849D01*
X741007D01*
Y-30294D01*
X740166D01*
X744373Y-33660D02*
X746055D01*
X745214D01*
Y-28612D01*
X744373D01*
X711561Y-19354D02*
X712403Y-18513D01*
X714085D01*
X714927Y-19354D01*
Y-22719D01*
X714085Y-23561D01*
X712403D01*
X711561Y-22719D01*
Y-19354D01*
X716609Y-23561D02*
Y-22719D01*
X717451D01*
Y-23561D01*
X716609D01*
X720816Y-18513D02*
X724181D01*
Y-19354D01*
X720816Y-22719D01*
Y-23561D01*
X725864Y-19354D02*
X726705Y-18513D01*
X728387D01*
X729229Y-19354D01*
Y-22719D01*
X728387Y-23561D01*
X726705D01*
X725864Y-22719D01*
Y-19354D01*
X730911Y-23561D02*
Y-20196D01*
X731753D01*
X732594Y-21037D01*
Y-23561D01*
Y-21037D01*
X733435Y-20196D01*
X734277Y-21037D01*
Y-23561D01*
X735959D02*
X737642D01*
X736801D01*
Y-20196D01*
X735959D01*
X740166Y-23561D02*
X741849D01*
X741007D01*
Y-18513D01*
X740166D01*
X711561Y-9255D02*
X712403Y-8414D01*
X714085D01*
X714927Y-9255D01*
Y-10097D01*
X714085Y-10938D01*
X713244D01*
X714085D01*
X714927Y-11779D01*
Y-12620D01*
X714085Y-13462D01*
X712403D01*
X711561Y-12620D01*
X716609Y-13462D02*
Y-12620D01*
X717451D01*
Y-13462D01*
X716609D01*
X720816Y-9255D02*
X721657Y-8414D01*
X723340D01*
X724181Y-9255D01*
Y-10097D01*
X723340Y-10938D01*
X722498D01*
X723340D01*
X724181Y-11779D01*
Y-12620D01*
X723340Y-13462D01*
X721657D01*
X720816Y-12620D01*
X725864Y-9255D02*
X726705Y-8414D01*
X728387D01*
X729229Y-9255D01*
Y-12620D01*
X728387Y-13462D01*
X726705D01*
X725864Y-12620D01*
Y-9255D01*
X730911Y-13462D02*
Y-10097D01*
X731753D01*
X732594Y-10938D01*
Y-13462D01*
Y-10938D01*
X733435Y-10097D01*
X734277Y-10938D01*
Y-13462D01*
X735959D02*
X737642D01*
X736801D01*
Y-10097D01*
X735959D01*
X740166Y-13462D02*
X741849D01*
X741007D01*
Y-8414D01*
X740166D01*
X711561Y-3363D02*
X713244D01*
X712403D01*
Y1685D01*
X711561Y844D01*
X715768D02*
X716609Y1685D01*
X718292D01*
X719133Y844D01*
Y-2521D01*
X718292Y-3363D01*
X716609D01*
X715768Y-2521D01*
Y844D01*
X720816Y-3363D02*
Y-2521D01*
X721657D01*
Y-3363D01*
X720816D01*
X725022Y844D02*
X725864Y1685D01*
X727546D01*
X728388Y844D01*
Y-2521D01*
X727546Y-3363D01*
X725864D01*
X725022Y-2521D01*
Y844D01*
X730070D02*
X730911Y1685D01*
X732594D01*
X733435Y844D01*
Y-2521D01*
X732594Y-3363D01*
X730911D01*
X730070Y-2521D01*
Y844D01*
X735118Y-3363D02*
Y2D01*
X735959D01*
X736801Y-839D01*
Y-3363D01*
Y-839D01*
X737642Y2D01*
X738483Y-839D01*
Y-3363D01*
X740166D02*
X741849D01*
X741007D01*
Y2D01*
X740166D01*
X744373Y-3363D02*
X746055D01*
X745214D01*
Y1685D01*
X744373D01*
X711561Y10943D02*
X712403Y11784D01*
X714085D01*
X714927Y10943D01*
Y10101D01*
X714085Y9260D01*
X713244D01*
X714085D01*
X714927Y8419D01*
Y7577D01*
X714085Y6736D01*
X712403D01*
X711561Y7577D01*
X716609Y6736D02*
Y7577D01*
X717451D01*
Y6736D01*
X716609D01*
X723340D02*
Y11784D01*
X720816Y9260D01*
X724181D01*
X725864Y10943D02*
X726705Y11784D01*
X728387D01*
X729229Y10943D01*
Y7577D01*
X728387Y6736D01*
X726705D01*
X725864Y7577D01*
Y10943D01*
X730911Y6736D02*
Y10101D01*
X731753D01*
X732594Y9260D01*
Y6736D01*
Y9260D01*
X733435Y10101D01*
X734277Y9260D01*
Y6736D01*
X735959D02*
X737642D01*
X736801D01*
Y10101D01*
X735959D01*
X740166Y6736D02*
X741849D01*
X741007D01*
Y11784D01*
X740166D01*
X711561Y21042D02*
X712403Y21883D01*
X714085D01*
X714927Y21042D01*
Y17676D01*
X714085Y16835D01*
X712403D01*
X711561Y17676D01*
Y21042D01*
X716609Y16835D02*
Y17676D01*
X717451D01*
Y16835D01*
X716609D01*
X720816Y21883D02*
X724181D01*
Y21042D01*
X720816Y17676D01*
Y16835D01*
X725864Y21042D02*
X726705Y21883D01*
X728387D01*
X729229Y21042D01*
Y17676D01*
X728387Y16835D01*
X726705D01*
X725864Y17676D01*
Y21042D01*
X730911Y16835D02*
Y20200D01*
X731753D01*
X732594Y19359D01*
Y16835D01*
Y19359D01*
X733435Y20200D01*
X734277Y19359D01*
Y16835D01*
X735959D02*
X737642D01*
X736801D01*
Y20200D01*
X735959D01*
X740166Y16835D02*
X741849D01*
X741007D01*
Y21883D01*
X740166D01*
X714927Y26934D02*
X711561D01*
X714927Y30299D01*
Y31141D01*
X714085Y31982D01*
X712403D01*
X711561Y31141D01*
X716609Y26934D02*
Y27775D01*
X717451D01*
Y26934D01*
X716609D01*
X720816Y31141D02*
X721657Y31982D01*
X723340D01*
X724181Y31141D01*
Y27775D01*
X723340Y26934D01*
X721657D01*
X720816Y27775D01*
Y31141D01*
X725864D02*
X726705Y31982D01*
X728387D01*
X729229Y31141D01*
Y27775D01*
X728387Y26934D01*
X726705D01*
X725864Y27775D01*
Y31141D01*
X730911Y26934D02*
Y30299D01*
X731753D01*
X732594Y29458D01*
Y26934D01*
Y29458D01*
X733435Y30299D01*
X734277Y29458D01*
Y26934D01*
X735959D02*
X737642D01*
X736801D01*
Y30299D01*
X735959D01*
X740166Y26934D02*
X741849D01*
X741007D01*
Y31982D01*
X740166D01*
X711561Y41240D02*
X712403Y42081D01*
X714085D01*
X714927Y41240D01*
Y37874D01*
X714085Y37033D01*
X712403D01*
X711561Y37874D01*
Y41240D01*
X716609Y37033D02*
Y37874D01*
X717451D01*
Y37033D01*
X716609D01*
X720816Y42081D02*
X724181D01*
Y41240D01*
X720816Y37874D01*
Y37033D01*
X725864Y41240D02*
X726705Y42081D01*
X728387D01*
X729229Y41240D01*
Y37874D01*
X728387Y37033D01*
X726705D01*
X725864Y37874D01*
Y41240D01*
X730911Y37033D02*
Y40398D01*
X731753D01*
X732594Y39557D01*
Y37033D01*
Y39557D01*
X733435Y40398D01*
X734277Y39557D01*
Y37033D01*
X735959D02*
X737642D01*
X736801D01*
Y40398D01*
X735959D01*
X740166Y37033D02*
X741849D01*
X741007D01*
Y42081D01*
X740166D01*
X714927Y47132D02*
X711561D01*
X714927Y50497D01*
Y51339D01*
X714085Y52180D01*
X712403D01*
X711561Y51339D01*
X716609Y47132D02*
Y47973D01*
X717451D01*
Y47132D01*
X716609D01*
X720816Y47973D02*
X721657Y47132D01*
X723340D01*
X724181Y47973D01*
Y51339D01*
X723340Y52180D01*
X721657D01*
X720816Y51339D01*
Y50497D01*
X721657Y49656D01*
X724181D01*
X725864Y51339D02*
X726705Y52180D01*
X728387D01*
X729229Y51339D01*
Y47973D01*
X728387Y47132D01*
X726705D01*
X725864Y47973D01*
Y51339D01*
X730911Y47132D02*
Y50497D01*
X731753D01*
X732594Y49656D01*
Y47132D01*
Y49656D01*
X733435Y50497D01*
X734277Y49656D01*
Y47132D01*
X735959D02*
X737642D01*
X736801D01*
Y50497D01*
X735959D01*
X740166Y47132D02*
X741849D01*
X741007D01*
Y52180D01*
X740166D01*
X711561Y57231D02*
X713244D01*
X712403D01*
Y62279D01*
X711561Y61438D01*
X715768D02*
X716609Y62279D01*
X718292D01*
X719133Y61438D01*
Y58073D01*
X718292Y57231D01*
X716609D01*
X715768Y58073D01*
Y61438D01*
X720816Y57231D02*
Y58073D01*
X721657D01*
Y57231D01*
X720816D01*
X725022Y61438D02*
X725864Y62279D01*
X727546D01*
X728388Y61438D01*
Y58073D01*
X727546Y57231D01*
X725864D01*
X725022Y58073D01*
Y61438D01*
X730070D02*
X730911Y62279D01*
X732594D01*
X733435Y61438D01*
Y58073D01*
X732594Y57231D01*
X730911D01*
X730070Y58073D01*
Y61438D01*
X735118Y57231D02*
Y60597D01*
X735959D01*
X736801Y59755D01*
Y57231D01*
Y59755D01*
X737642Y60597D01*
X738483Y59755D01*
Y57231D01*
X740166D02*
X741849D01*
X741007D01*
Y60597D01*
X740166D01*
X744373Y57231D02*
X746055D01*
X745214D01*
Y62279D01*
X744373D01*
X711561Y71537D02*
X712403Y72378D01*
X714085D01*
X714927Y71537D01*
Y70696D01*
X714085Y69854D01*
X713244D01*
X714085D01*
X714927Y69013D01*
Y68172D01*
X714085Y67330D01*
X712403D01*
X711561Y68172D01*
X716609Y67330D02*
Y68172D01*
X717451D01*
Y67330D01*
X716609D01*
X720816Y71537D02*
X721657Y72378D01*
X723340D01*
X724181Y71537D01*
Y70696D01*
X723340Y69854D01*
X722498D01*
X723340D01*
X724181Y69013D01*
Y68172D01*
X723340Y67330D01*
X721657D01*
X720816Y68172D01*
X725864Y71537D02*
X726705Y72378D01*
X728387D01*
X729229Y71537D01*
Y68172D01*
X728387Y67330D01*
X726705D01*
X725864Y68172D01*
Y71537D01*
X730911Y67330D02*
Y70696D01*
X731753D01*
X732594Y69854D01*
Y67330D01*
Y69854D01*
X733435Y70696D01*
X734277Y69854D01*
Y67330D01*
X735959D02*
X737642D01*
X736801D01*
Y70696D01*
X735959D01*
X740166Y67330D02*
X741849D01*
X741007D01*
Y72378D01*
X740166D01*
X711561Y81636D02*
X712403Y82477D01*
X714085D01*
X714927Y81636D01*
Y78271D01*
X714085Y77429D01*
X712403D01*
X711561Y78271D01*
Y81636D01*
X716609Y77429D02*
Y78271D01*
X717451D01*
Y77429D01*
X716609D01*
X720816Y82477D02*
X724181D01*
Y81636D01*
X720816Y78271D01*
Y77429D01*
X725864Y81636D02*
X726705Y82477D01*
X728387D01*
X729229Y81636D01*
Y78271D01*
X728387Y77429D01*
X726705D01*
X725864Y78271D01*
Y81636D01*
X730911Y77429D02*
Y80794D01*
X731753D01*
X732594Y79953D01*
Y77429D01*
Y79953D01*
X733435Y80794D01*
X734277Y79953D01*
Y77429D01*
X735959D02*
X737642D01*
X736801D01*
Y80794D01*
X735959D01*
X740166Y77429D02*
X741849D01*
X741007D01*
Y82477D01*
X740166D01*
X711561Y87528D02*
X713244D01*
X712403D01*
Y92576D01*
X711561Y91735D01*
X715768D02*
X716609Y92576D01*
X718292D01*
X719133Y91735D01*
Y88370D01*
X718292Y87528D01*
X716609D01*
X715768Y88370D01*
Y91735D01*
X720816Y87528D02*
Y88370D01*
X721657D01*
Y87528D01*
X720816D01*
X725022Y91735D02*
X725864Y92576D01*
X727546D01*
X728388Y91735D01*
Y88370D01*
X727546Y87528D01*
X725864D01*
X725022Y88370D01*
Y91735D01*
X730070D02*
X730911Y92576D01*
X732594D01*
X733435Y91735D01*
Y88370D01*
X732594Y87528D01*
X730911D01*
X730070Y88370D01*
Y91735D01*
X735118Y87528D02*
Y90893D01*
X735959D01*
X736801Y90052D01*
Y87528D01*
Y90052D01*
X737642Y90893D01*
X738483Y90052D01*
Y87528D01*
X740166D02*
X741849D01*
X741007D01*
Y90893D01*
X740166D01*
X744373Y87528D02*
X746055D01*
X745214D01*
Y92576D01*
X744373D01*
X711561Y97627D02*
X713244D01*
X712403D01*
Y102675D01*
X711561Y101834D01*
X715768Y97627D02*
Y98469D01*
X716609D01*
Y97627D01*
X715768D01*
X722498D02*
Y102675D01*
X719974Y100151D01*
X723340D01*
X725022Y101834D02*
X725864Y102675D01*
X727546D01*
X728388Y101834D01*
Y98469D01*
X727546Y97627D01*
X725864D01*
X725022Y98469D01*
Y101834D01*
X730070Y97627D02*
Y100992D01*
X730911D01*
X731753Y100151D01*
Y97627D01*
Y100151D01*
X732594Y100992D01*
X733435Y100151D01*
Y97627D01*
X735118D02*
X736801D01*
X735959D01*
Y100992D01*
X735118D01*
X739325Y97627D02*
X741007D01*
X740166D01*
Y102675D01*
X739325D01*
X711561Y111933D02*
X712403Y112774D01*
X714085D01*
X714927Y111933D01*
Y108568D01*
X714085Y107726D01*
X712403D01*
X711561Y108568D01*
Y111933D01*
X716609Y107726D02*
Y108568D01*
X717451D01*
Y107726D01*
X716609D01*
X724181Y112774D02*
X722498Y111933D01*
X720816Y110250D01*
Y108568D01*
X721657Y107726D01*
X723340D01*
X724181Y108568D01*
Y109409D01*
X723340Y110250D01*
X720816D01*
X725864Y111933D02*
X726705Y112774D01*
X728387D01*
X729229Y111933D01*
Y108568D01*
X728387Y107726D01*
X726705D01*
X725864Y108568D01*
Y111933D01*
X730911Y107726D02*
Y111091D01*
X731753D01*
X732594Y110250D01*
Y107726D01*
Y110250D01*
X733435Y111091D01*
X734277Y110250D01*
Y107726D01*
X735959D02*
X737642D01*
X736801D01*
Y111091D01*
X735959D01*
X740166Y107726D02*
X741849D01*
X741007D01*
Y112774D01*
X740166D01*
X769933Y132131D02*
X769091Y132972D01*
X767409D01*
X766567Y132131D01*
Y128765D01*
X767409Y127924D01*
X769091D01*
X769933Y128765D01*
X772456Y127924D02*
X774139D01*
X774980Y128765D01*
Y130448D01*
X774139Y131290D01*
X772456D01*
X771615Y130448D01*
Y128765D01*
X772456Y127924D01*
X776663D02*
Y131290D01*
X779187D01*
X780028Y130448D01*
Y127924D01*
X781711D02*
X784235D01*
X785076Y128765D01*
X784235Y129607D01*
X782552D01*
X781711Y130448D01*
X782552Y131290D01*
X785076D01*
X787600Y132131D02*
Y131290D01*
X786759D01*
X788441D01*
X787600D01*
Y128765D01*
X788441Y127924D01*
X791807Y131290D02*
X793489D01*
X794331Y130448D01*
Y127924D01*
X791807D01*
X790965Y128765D01*
X791807Y129607D01*
X794331D01*
X796013Y127924D02*
Y131290D01*
X798537D01*
X799378Y130448D01*
Y127924D01*
X801902Y132131D02*
Y131290D01*
X801061D01*
X802744D01*
X801902D01*
Y128765D01*
X802744Y127924D01*
X766567Y-49651D02*
X767409Y-48810D01*
X769091D01*
X769933Y-49651D01*
Y-50493D01*
X769091Y-51334D01*
X768250D01*
X769091D01*
X769933Y-52175D01*
Y-53017D01*
X769091Y-53858D01*
X767409D01*
X766567Y-53017D01*
X771615Y-53858D02*
Y-53017D01*
X772456D01*
Y-53858D01*
X771615D01*
X779187Y-48810D02*
X775822D01*
Y-51334D01*
X777504Y-50493D01*
X778346D01*
X779187Y-51334D01*
Y-53017D01*
X778346Y-53858D01*
X776663D01*
X775822Y-53017D01*
X769091Y-33660D02*
Y-28612D01*
X766567Y-31136D01*
X769933D01*
X771615Y-33660D02*
Y-32818D01*
X772456D01*
Y-33660D01*
X771615D01*
X779187D02*
X775822D01*
X779187Y-30294D01*
Y-29453D01*
X778346Y-28612D01*
X776663D01*
X775822Y-29453D01*
X769091Y-13462D02*
Y-8414D01*
X766567Y-10938D01*
X769933D01*
X771615Y-13462D02*
Y-12620D01*
X772456D01*
Y-13462D01*
X771615D01*
X775822D02*
X777504D01*
X776663D01*
Y-8414D01*
X775822Y-9255D01*
X769091Y-3363D02*
Y1685D01*
X766567Y-839D01*
X769933D01*
X771615Y-3363D02*
Y-2521D01*
X772456D01*
Y-3363D01*
X771615D01*
X779187Y1685D02*
X775822D01*
Y-839D01*
X777504Y2D01*
X778346D01*
X779187Y-839D01*
Y-2521D01*
X778346Y-3363D01*
X776663D01*
X775822Y-2521D01*
X769091Y6736D02*
Y11784D01*
X766567Y9260D01*
X769933D01*
X771615Y6736D02*
Y7577D01*
X772456D01*
Y6736D01*
X771615D01*
X775822D02*
X777504D01*
X776663D01*
Y11784D01*
X775822Y10943D01*
X769091Y26934D02*
Y31982D01*
X766567Y29458D01*
X769933D01*
X771615Y26934D02*
Y27775D01*
X772456D01*
Y26934D01*
X771615D01*
X779187D02*
X775822D01*
X779187Y30299D01*
Y31141D01*
X778346Y31982D01*
X776663D01*
X775822Y31141D01*
X769091Y47132D02*
Y52180D01*
X766567Y49656D01*
X769933D01*
X771615Y47132D02*
Y47973D01*
X772456D01*
Y47132D01*
X771615D01*
X775822D02*
X777504D01*
X776663D01*
Y52180D01*
X775822Y51339D01*
X769091Y57231D02*
Y62279D01*
X766567Y59755D01*
X769933D01*
X771615Y57231D02*
Y58073D01*
X772456D01*
Y57231D01*
X771615D01*
X779187Y62279D02*
X775822D01*
Y59755D01*
X777504Y60597D01*
X778346D01*
X779187Y59755D01*
Y58073D01*
X778346Y57231D01*
X776663D01*
X775822Y58073D01*
X769091Y67330D02*
Y72378D01*
X766567Y69854D01*
X769933D01*
X771615Y67330D02*
Y68172D01*
X772456D01*
Y67330D01*
X771615D01*
X775822D02*
X777504D01*
X776663D01*
Y72378D01*
X775822Y71537D01*
X769091Y87528D02*
Y92576D01*
X766567Y90052D01*
X769933D01*
X771615Y87528D02*
Y88370D01*
X772456D01*
Y87528D01*
X771615D01*
X779187D02*
X775822D01*
X779187Y90893D01*
Y91735D01*
X778346Y92576D01*
X776663D01*
X775822Y91735D01*
X766567Y111933D02*
X767409Y112774D01*
X769091D01*
X769933Y111933D01*
Y111091D01*
X769091Y110250D01*
X768250D01*
X769091D01*
X769933Y109409D01*
Y108568D01*
X769091Y107726D01*
X767409D01*
X766567Y108568D01*
X771615Y107726D02*
Y108568D01*
X772456D01*
Y107726D01*
X771615D01*
X779187Y112774D02*
X775822D01*
Y110250D01*
X777504Y111091D01*
X778346D01*
X779187Y110250D01*
Y108568D01*
X778346Y107726D01*
X776663D01*
X775822Y108568D01*
X814843Y132972D02*
Y127924D01*
X817367D01*
X818208Y128765D01*
Y129607D01*
X817367Y130448D01*
X814843D01*
X817367D01*
X818208Y131290D01*
Y132131D01*
X817367Y132972D01*
X814843D01*
X820732Y127924D02*
X822414D01*
X823256Y128765D01*
Y130448D01*
X822414Y131290D01*
X820732D01*
X819890Y130448D01*
Y128765D01*
X820732Y127924D01*
X825780Y131290D02*
X827462D01*
X828304Y130448D01*
Y127924D01*
X825780D01*
X824938Y128765D01*
X825780Y129607D01*
X828304D01*
X829986Y131290D02*
Y127924D01*
Y129607D01*
X830828Y130448D01*
X831669Y131290D01*
X832510D01*
X838399Y132972D02*
Y127924D01*
X835875D01*
X835034Y128765D01*
Y130448D01*
X835875Y131290D01*
X838399D01*
X845130Y132972D02*
Y127924D01*
X848495D01*
X851019Y131290D02*
X852702D01*
X853543Y130448D01*
Y127924D01*
X851019D01*
X850178Y128765D01*
X851019Y129607D01*
X853543D01*
X855226Y131290D02*
Y128765D01*
X856067Y127924D01*
X858591D01*
Y127083D01*
X857749Y126242D01*
X856908D01*
X858591Y127924D02*
Y131290D01*
X862797Y127924D02*
X861115D01*
X860273Y128765D01*
Y130448D01*
X861115Y131290D01*
X862797D01*
X863639Y130448D01*
Y129607D01*
X860273D01*
X865321Y131290D02*
Y127924D01*
Y129607D01*
X866163Y130448D01*
X867004Y131290D01*
X867845D01*
X878782Y132131D02*
X877941Y132972D01*
X876258D01*
X875417Y132131D01*
Y131290D01*
X876258Y130448D01*
X877941D01*
X878782Y129607D01*
Y128765D01*
X877941Y127924D01*
X876258D01*
X875417Y128765D01*
X881306Y132131D02*
Y131290D01*
X880465D01*
X882148D01*
X881306D01*
Y128765D01*
X882148Y127924D01*
X885513Y131290D02*
X887195D01*
X888037Y130448D01*
Y127924D01*
X885513D01*
X884671Y128765D01*
X885513Y129607D01*
X888037D01*
X893085Y131290D02*
X890561D01*
X889719Y130448D01*
Y128765D01*
X890561Y127924D01*
X893085D01*
X894767D02*
Y132972D01*
Y129607D02*
X897291Y131290D01*
X894767Y129607D02*
X897291Y127924D01*
X912755Y132972D02*
X909390D01*
Y130448D01*
X911073D01*
X909390D01*
Y127924D01*
X914438D02*
X916121D01*
X915279D01*
Y132972D01*
X914438D01*
X921169Y127924D02*
X919486D01*
X918645Y128765D01*
Y130448D01*
X919486Y131290D01*
X921169D01*
X922010Y130448D01*
Y129607D01*
X918645D01*
X923692Y131290D02*
X927058Y127924D01*
X925375Y129607D01*
X927058Y131290D01*
X923692Y127924D01*
D139*
X518620Y125399D02*
X946568D01*
X518620Y135498D02*
X946568D01*
X518620Y-66482D02*
Y135498D01*
Y-66482D02*
X553434D01*
X518620Y-56383D02*
X553434D01*
X518620Y-46284D02*
X553434D01*
X518620Y-36185D02*
X553434D01*
X518620Y-26086D02*
X553434D01*
X518620Y-15987D02*
X553434D01*
X518620Y-5888D02*
X553434D01*
X518620Y4211D02*
X553434D01*
X518620Y14311D02*
X553434D01*
X518620Y24409D02*
X553434D01*
X518620Y34508D02*
X553434D01*
X518620Y44607D02*
X553434D01*
X518620Y54706D02*
X553434D01*
X518620Y64805D02*
X553434D01*
X518620Y74904D02*
X553434D01*
X518620Y85003D02*
X553434D01*
X518620Y95102D02*
X553434D01*
X518620Y105201D02*
X553434D01*
X518620Y115301D02*
X553434D01*
Y-66482D02*
Y135498D01*
Y-66482D02*
X632838D01*
X553434Y-56383D02*
X632838D01*
X553434Y-46284D02*
X632838D01*
X553434Y-36185D02*
X632838D01*
X553434Y-26086D02*
X632838D01*
X553434Y-15987D02*
X632838D01*
X553434Y-5888D02*
X632838D01*
X553434Y4211D02*
X632838D01*
X553434Y14311D02*
X632838D01*
X553434Y24409D02*
X632838D01*
X553434Y34508D02*
X632838D01*
X553434Y44607D02*
X632838D01*
X553434Y54706D02*
X632838D01*
X553434Y64805D02*
X632838D01*
X553434Y74904D02*
X632838D01*
X553434Y85003D02*
X632838D01*
X553434Y95102D02*
X632838D01*
X553434Y105201D02*
X632838D01*
X553434Y115301D02*
X632838D01*
Y-66482D02*
Y135498D01*
Y-66482D02*
X705512D01*
X632838Y-56383D02*
X705512D01*
X632838Y-46284D02*
X705512D01*
X632838Y-36185D02*
X705512D01*
X632838Y-26086D02*
X705512D01*
X632838Y-15987D02*
X705512D01*
X632838Y-5888D02*
X705512D01*
X632838Y4211D02*
X705512D01*
X632838Y14311D02*
X705512D01*
X632838Y24409D02*
X705512D01*
X632838Y34508D02*
X705512D01*
X632838Y44607D02*
X705512D01*
X632838Y54706D02*
X705512D01*
X632838Y64805D02*
X705512D01*
X632838Y74904D02*
X705512D01*
X632838Y85003D02*
X705512D01*
X632838Y95102D02*
X705512D01*
X632838Y105201D02*
X705512D01*
X632838Y115301D02*
X705512D01*
Y-66482D02*
Y135498D01*
Y-66482D02*
X760518D01*
X705512Y-56383D02*
X760518D01*
X705512Y-46284D02*
X760518D01*
X705512Y-36185D02*
X760518D01*
X705512Y-26086D02*
X760518D01*
X705512Y-15987D02*
X760518D01*
X705512Y-5888D02*
X760518D01*
X705512Y4211D02*
X760518D01*
X705512Y14311D02*
X760518D01*
X705512Y24409D02*
X760518D01*
X705512Y34508D02*
X760518D01*
X705512Y44607D02*
X760518D01*
X705512Y54706D02*
X760518D01*
X705512Y64805D02*
X760518D01*
X705512Y74904D02*
X760518D01*
X705512Y85003D02*
X760518D01*
X705512Y95102D02*
X760518D01*
X705512Y105201D02*
X760518D01*
X705512Y115301D02*
X760518D01*
Y-66482D02*
Y135498D01*
Y-66482D02*
X808793D01*
X760518Y-56383D02*
X808793D01*
X760518Y-46284D02*
X808793D01*
X760518Y-36185D02*
X808793D01*
X760518Y-26086D02*
X808793D01*
X760518Y-15987D02*
X808793D01*
X760518Y-5888D02*
X808793D01*
X760518Y4211D02*
X808793D01*
X760518Y14311D02*
X808793D01*
X760518Y24409D02*
X808793D01*
X760518Y34508D02*
X808793D01*
X760518Y44607D02*
X808793D01*
X760518Y54706D02*
X808793D01*
X760518Y64805D02*
X808793D01*
X760518Y74904D02*
X808793D01*
X760518Y85003D02*
X808793D01*
X760518Y95102D02*
X808793D01*
X760518Y105201D02*
X808793D01*
X760518Y115301D02*
X808793D01*
Y-66482D02*
Y135498D01*
Y-66482D02*
X903341D01*
X808793Y-56383D02*
X903341D01*
X808793Y-46284D02*
X903341D01*
X808793Y-36185D02*
X903341D01*
X808793Y-26086D02*
X903341D01*
X808793Y-15987D02*
X903341D01*
X808793Y-5888D02*
X903341D01*
X808793Y4211D02*
X903341D01*
X808793Y14311D02*
X903341D01*
X808793Y24409D02*
X903341D01*
X808793Y34508D02*
X903341D01*
X808793Y44607D02*
X903341D01*
X808793Y54706D02*
X903341D01*
X808793Y64805D02*
X903341D01*
X808793Y74904D02*
X903341D01*
X808793Y85003D02*
X903341D01*
X808793Y95102D02*
X903341D01*
X808793Y105201D02*
X903341D01*
X808793Y115301D02*
X903341D01*
Y-66482D02*
Y135498D01*
Y-66482D02*
X946568D01*
X903341Y-56383D02*
X946568D01*
X903341Y-46284D02*
X946568D01*
X903341Y-36185D02*
X946568D01*
X903341Y-26086D02*
X946568D01*
X903341Y-15987D02*
X946568D01*
X903341Y-5888D02*
X946568D01*
X903341Y4211D02*
X946568D01*
X903341Y14311D02*
X946568D01*
X903341Y24409D02*
X946568D01*
X903341Y34508D02*
X946568D01*
X903341Y44607D02*
X946568D01*
X903341Y54706D02*
X946568D01*
X903341Y64805D02*
X946568D01*
X903341Y74904D02*
X946568D01*
X903341Y85003D02*
X946568D01*
X903341Y95102D02*
X946568D01*
X903341Y105201D02*
X946568D01*
X903341Y115301D02*
X946568D01*
Y-66482D02*
Y135498D01*
D174*
X898291Y-66482D02*
X903341Y-61432D01*
X893242Y-66482D02*
X903341Y-56383D01*
X888192Y-66482D02*
X898291Y-56383D01*
X883143Y-66482D02*
X893242Y-56383D01*
X878093Y-66482D02*
X888192Y-56383D01*
X873044Y-66482D02*
X883143Y-56383D01*
X867994Y-66482D02*
X878093Y-56383D01*
X862945Y-66482D02*
X873044Y-56383D01*
X857895Y-66482D02*
X867994Y-56383D01*
X852846Y-66482D02*
X862945Y-56383D01*
X847796Y-66482D02*
X857895Y-56383D01*
X842747Y-66482D02*
X852846Y-56383D01*
X837697Y-66482D02*
X847796Y-56383D01*
X832648Y-66482D02*
X842747Y-56383D01*
X827598Y-66482D02*
X837697Y-56383D01*
X822549Y-66482D02*
X832648Y-56383D01*
X817499Y-66482D02*
X827598Y-56383D01*
X812450Y-66482D02*
X822549Y-56383D01*
X808793Y-65089D02*
X817499Y-56383D01*
X808793Y-60039D02*
X812450Y-56383D01*
X898291D02*
X903341Y-51333D01*
X893242Y-56383D02*
X903341Y-46284D01*
X888192Y-56383D02*
X898291Y-46284D01*
X883143Y-56383D02*
X893242Y-46284D01*
X878093Y-56383D02*
X888192Y-46284D01*
X873044Y-56383D02*
X883143Y-46284D01*
X867994Y-56383D02*
X878093Y-46284D01*
X862945Y-56383D02*
X873044Y-46284D01*
X857895Y-56383D02*
X867994Y-46284D01*
X852846Y-56383D02*
X862945Y-46284D01*
X847796Y-56383D02*
X857895Y-46284D01*
X842747Y-56383D02*
X852846Y-46284D01*
X837697Y-56383D02*
X847796Y-46284D01*
X832648Y-56383D02*
X842747Y-46284D01*
X827598Y-56383D02*
X837697Y-46284D01*
X822549Y-56383D02*
X832648Y-46284D01*
X817499Y-56383D02*
X827598Y-46284D01*
X812450Y-56383D02*
X822549Y-46284D01*
X808793Y-54990D02*
X817499Y-46284D01*
X808793Y-49940D02*
X812450Y-46284D01*
X898291D02*
X903341Y-41234D01*
X893242Y-46284D02*
X903341Y-36185D01*
X888192Y-46284D02*
X898291Y-36185D01*
X883143Y-46284D02*
X893242Y-36185D01*
X878093Y-46284D02*
X888192Y-36185D01*
X873044Y-46284D02*
X883143Y-36185D01*
X867994Y-46284D02*
X878093Y-36185D01*
X862945Y-46284D02*
X873044Y-36185D01*
X857895Y-46284D02*
X867994Y-36185D01*
X852846Y-46284D02*
X862945Y-36185D01*
X847796Y-46284D02*
X857895Y-36185D01*
X842747Y-46284D02*
X852846Y-36185D01*
X837697Y-46284D02*
X847796Y-36185D01*
X832648Y-46284D02*
X842747Y-36185D01*
X827598Y-46284D02*
X837697Y-36185D01*
X822549Y-46284D02*
X832648Y-36185D01*
X817499Y-46284D02*
X827598Y-36185D01*
X812450Y-46284D02*
X822549Y-36185D01*
X808793Y-44891D02*
X817499Y-36185D01*
X808793Y-39841D02*
X812450Y-36185D01*
X898291D02*
X903341Y-31135D01*
X893242Y-36185D02*
X903341Y-26086D01*
X888192Y-36185D02*
X898291Y-26086D01*
X883143Y-36185D02*
X893242Y-26086D01*
X878093Y-36185D02*
X888192Y-26086D01*
X873044Y-36185D02*
X883143Y-26086D01*
X867994Y-36185D02*
X878093Y-26086D01*
X862945Y-36185D02*
X873044Y-26086D01*
X857895Y-36185D02*
X867994Y-26086D01*
X852846Y-36185D02*
X862945Y-26086D01*
X847796Y-36185D02*
X857895Y-26086D01*
X842747Y-36185D02*
X852846Y-26086D01*
X837697Y-36185D02*
X847796Y-26086D01*
X832648Y-36185D02*
X842747Y-26086D01*
X827598Y-36185D02*
X837697Y-26086D01*
X822549Y-36185D02*
X832648Y-26086D01*
X817499Y-36185D02*
X827598Y-26086D01*
X812450Y-36185D02*
X822549Y-26086D01*
X808793Y-34792D02*
X817499Y-26086D01*
X808793Y-29742D02*
X812450Y-26086D01*
X898291D02*
X903341Y-21036D01*
X893242Y-26086D02*
X903341Y-15987D01*
X888192Y-26086D02*
X898291Y-15987D01*
X883143Y-26086D02*
X893242Y-15987D01*
X878093Y-26086D02*
X888192Y-15987D01*
X873044Y-26086D02*
X883143Y-15987D01*
X867994Y-26086D02*
X878093Y-15987D01*
X862945Y-26086D02*
X873044Y-15987D01*
X857895Y-26086D02*
X867994Y-15987D01*
X852846Y-26086D02*
X862945Y-15987D01*
X847796Y-26086D02*
X857895Y-15987D01*
X842747Y-26086D02*
X852846Y-15987D01*
X837697Y-26086D02*
X847796Y-15987D01*
X832648Y-26086D02*
X842747Y-15987D01*
X827598Y-26086D02*
X837697Y-15987D01*
X822549Y-26086D02*
X832648Y-15987D01*
X817499Y-26086D02*
X827598Y-15987D01*
X812450Y-26086D02*
X822549Y-15987D01*
X808793Y-24693D02*
X817499Y-15987D01*
X808793Y-19643D02*
X812450Y-15987D01*
X898291D02*
X903341Y-10937D01*
X893242Y-15987D02*
X903341Y-5888D01*
X888192Y-15987D02*
X898291Y-5888D01*
X883143Y-15987D02*
X893242Y-5888D01*
X878093Y-15987D02*
X888192Y-5888D01*
X873044Y-15987D02*
X883143Y-5888D01*
X867994Y-15987D02*
X878093Y-5888D01*
X862945Y-15987D02*
X873044Y-5888D01*
X857895Y-15987D02*
X867994Y-5888D01*
X852846Y-15987D02*
X862945Y-5888D01*
X847796Y-15987D02*
X857895Y-5888D01*
X842747Y-15987D02*
X852846Y-5888D01*
X837697Y-15987D02*
X847796Y-5888D01*
X832648Y-15987D02*
X842747Y-5888D01*
X827598Y-15987D02*
X837697Y-5888D01*
X822549Y-15987D02*
X832648Y-5888D01*
X817499Y-15987D02*
X827598Y-5888D01*
X812450Y-15987D02*
X822549Y-5888D01*
X808793Y-14594D02*
X817499Y-5888D01*
X808793Y-9544D02*
X812450Y-5888D01*
X898291D02*
X903341Y-838D01*
X893242Y-5888D02*
X903341Y4211D01*
X888192Y-5888D02*
X898291Y4211D01*
X883143Y-5888D02*
X893242Y4211D01*
X878093Y-5888D02*
X888192Y4211D01*
X873044Y-5888D02*
X883143Y4211D01*
X867994Y-5888D02*
X878093Y4211D01*
X862945Y-5888D02*
X873044Y4211D01*
X857895Y-5888D02*
X867994Y4211D01*
X852846Y-5888D02*
X862945Y4211D01*
X847796Y-5888D02*
X857895Y4211D01*
X842747Y-5888D02*
X852846Y4211D01*
X837697Y-5888D02*
X847796Y4211D01*
X832648Y-5888D02*
X842747Y4211D01*
X827598Y-5888D02*
X837697Y4211D01*
X822549Y-5888D02*
X832648Y4211D01*
X817499Y-5888D02*
X827598Y4211D01*
X812450Y-5888D02*
X822549Y4211D01*
X808793Y-4495D02*
X817499Y4211D01*
X808793Y555D02*
X812450Y4211D01*
X898291D02*
X903341Y9261D01*
X893242Y4211D02*
X903341Y14311D01*
X888192Y4211D02*
X898291Y14311D01*
X883143Y4211D02*
X893242Y14311D01*
X878093Y4211D02*
X888192Y14311D01*
X873044Y4211D02*
X883143Y14311D01*
X867994Y4211D02*
X878093Y14311D01*
X862945Y4211D02*
X873044Y14311D01*
X857895Y4211D02*
X867994Y14311D01*
X852846Y4211D02*
X862945Y14311D01*
X847796Y4211D02*
X857895Y14311D01*
X842747Y4211D02*
X852846Y14311D01*
X837697Y4211D02*
X847796Y14311D01*
X832648Y4211D02*
X842747Y14311D01*
X827598Y4211D02*
X837697Y14311D01*
X822549Y4211D02*
X832648Y14311D01*
X817499Y4211D02*
X827598Y14311D01*
X812450Y4211D02*
X822549Y14311D01*
X808793Y5604D02*
X817499Y14311D01*
X808793Y10654D02*
X812450Y14311D01*
X898291D02*
X903341Y19360D01*
X893242Y14311D02*
X903341Y24409D01*
X888192Y14311D02*
X898291Y24409D01*
X883143Y14311D02*
X893242Y24409D01*
X878093Y14311D02*
X888192Y24409D01*
X873044Y14311D02*
X883143Y24409D01*
X867994Y14311D02*
X878093Y24409D01*
X862945Y14311D02*
X873044Y24409D01*
X857895Y14311D02*
X867994Y24409D01*
X852846Y14311D02*
X862945Y24409D01*
X847796Y14311D02*
X857895Y24409D01*
X842747Y14311D02*
X852846Y24409D01*
X837697Y14311D02*
X847796Y24409D01*
X832648Y14311D02*
X842747Y24409D01*
X827598Y14311D02*
X837697Y24409D01*
X822549Y14311D02*
X832648Y24409D01*
X817499Y14311D02*
X827598Y24409D01*
X812450Y14311D02*
X822549Y24409D01*
X808793Y15703D02*
X817499Y24409D01*
X808793Y20753D02*
X812450Y24409D01*
X898291D02*
X903341Y29459D01*
X893242Y24409D02*
X903341Y34508D01*
X888192Y24409D02*
X898291Y34508D01*
X883143Y24409D02*
X893242Y34508D01*
X878093Y24409D02*
X888192Y34508D01*
X873044Y24409D02*
X883143Y34508D01*
X867994Y24409D02*
X878093Y34508D01*
X862945Y24409D02*
X873044Y34508D01*
X857895Y24409D02*
X867994Y34508D01*
X852846Y24409D02*
X862945Y34508D01*
X847796Y24409D02*
X857895Y34508D01*
X842747Y24409D02*
X852846Y34508D01*
X837697Y24409D02*
X847796Y34508D01*
X832648Y24409D02*
X842747Y34508D01*
X827598Y24409D02*
X837697Y34508D01*
X822549Y24409D02*
X832648Y34508D01*
X817499Y24409D02*
X827598Y34508D01*
X812450Y24409D02*
X822549Y34508D01*
X808793Y25802D02*
X817499Y34508D01*
X808793Y30852D02*
X812450Y34508D01*
X898291D02*
X903341Y39558D01*
X893242Y34508D02*
X903341Y44607D01*
X888192Y34508D02*
X898291Y44607D01*
X883143Y34508D02*
X893242Y44607D01*
X878093Y34508D02*
X888192Y44607D01*
X873044Y34508D02*
X883143Y44607D01*
X867994Y34508D02*
X878093Y44607D01*
X862945Y34508D02*
X873044Y44607D01*
X857895Y34508D02*
X867994Y44607D01*
X852846Y34508D02*
X862945Y44607D01*
X847796Y34508D02*
X857895Y44607D01*
X842747Y34508D02*
X852846Y44607D01*
X837697Y34508D02*
X847796Y44607D01*
X832648Y34508D02*
X842747Y44607D01*
X827598Y34508D02*
X837697Y44607D01*
X822549Y34508D02*
X832648Y44607D01*
X817499Y34508D02*
X827598Y44607D01*
X812450Y34508D02*
X822549Y44607D01*
X808793Y35901D02*
X817499Y44607D01*
X808793Y40951D02*
X812450Y44607D01*
X898291D02*
X903341Y49657D01*
X893242Y44607D02*
X903341Y54706D01*
X888192Y44607D02*
X898291Y54706D01*
X883143Y44607D02*
X893242Y54706D01*
X878093Y44607D02*
X888192Y54706D01*
X873044Y44607D02*
X883143Y54706D01*
X867994Y44607D02*
X878093Y54706D01*
X862945Y44607D02*
X873044Y54706D01*
X857895Y44607D02*
X867994Y54706D01*
X852846Y44607D02*
X862945Y54706D01*
X847796Y44607D02*
X857895Y54706D01*
X842747Y44607D02*
X852846Y54706D01*
X837697Y44607D02*
X847796Y54706D01*
X832648Y44607D02*
X842747Y54706D01*
X827598Y44607D02*
X837697Y54706D01*
X822549Y44607D02*
X832648Y54706D01*
X817499Y44607D02*
X827598Y54706D01*
X812450Y44607D02*
X822549Y54706D01*
X808793Y46000D02*
X817499Y54706D01*
X808793Y51050D02*
X812450Y54706D01*
X898291D02*
X903341Y59756D01*
X893242Y54706D02*
X903341Y64805D01*
X888192Y54706D02*
X898291Y64805D01*
X883143Y54706D02*
X893242Y64805D01*
X878093Y54706D02*
X888192Y64805D01*
X873044Y54706D02*
X883143Y64805D01*
X867994Y54706D02*
X878093Y64805D01*
X862945Y54706D02*
X873044Y64805D01*
X857895Y54706D02*
X867994Y64805D01*
X852846Y54706D02*
X862945Y64805D01*
X847796Y54706D02*
X857895Y64805D01*
X842747Y54706D02*
X852846Y64805D01*
X837697Y54706D02*
X847796Y64805D01*
X832648Y54706D02*
X842747Y64805D01*
X827598Y54706D02*
X837697Y64805D01*
X822549Y54706D02*
X832648Y64805D01*
X817499Y54706D02*
X827598Y64805D01*
X812450Y54706D02*
X822549Y64805D01*
X808793Y56099D02*
X817499Y64805D01*
X808793Y61149D02*
X812450Y64805D01*
X898291D02*
X903341Y69855D01*
X893242Y64805D02*
X903341Y74904D01*
X888192Y64805D02*
X898291Y74904D01*
X883143Y64805D02*
X893242Y74904D01*
X878093Y64805D02*
X888192Y74904D01*
X873044Y64805D02*
X883143Y74904D01*
X867994Y64805D02*
X878093Y74904D01*
X862945Y64805D02*
X873044Y74904D01*
X857895Y64805D02*
X867994Y74904D01*
X852846Y64805D02*
X862945Y74904D01*
X847796Y64805D02*
X857895Y74904D01*
X842747Y64805D02*
X852846Y74904D01*
X837697Y64805D02*
X847796Y74904D01*
X832648Y64805D02*
X842747Y74904D01*
X827598Y64805D02*
X837697Y74904D01*
X822549Y64805D02*
X832648Y74904D01*
X817499Y64805D02*
X827598Y74904D01*
X812450Y64805D02*
X822549Y74904D01*
X808793Y66198D02*
X817499Y74904D01*
X808793Y71248D02*
X812450Y74904D01*
X898291D02*
X903341Y79954D01*
X893242Y74904D02*
X903341Y85003D01*
X888192Y74904D02*
X898291Y85003D01*
X883143Y74904D02*
X893242Y85003D01*
X878093Y74904D02*
X888192Y85003D01*
X873044Y74904D02*
X883143Y85003D01*
X867994Y74904D02*
X878093Y85003D01*
X862945Y74904D02*
X873044Y85003D01*
X857895Y74904D02*
X867994Y85003D01*
X852846Y74904D02*
X862945Y85003D01*
X847796Y74904D02*
X857895Y85003D01*
X842747Y74904D02*
X852846Y85003D01*
X837697Y74904D02*
X847796Y85003D01*
X832648Y74904D02*
X842747Y85003D01*
X827598Y74904D02*
X837697Y85003D01*
X822549Y74904D02*
X832648Y85003D01*
X817499Y74904D02*
X827598Y85003D01*
X812450Y74904D02*
X822549Y85003D01*
X808793Y76297D02*
X817499Y85003D01*
X808793Y81347D02*
X812450Y85003D01*
X898291D02*
X903341Y90053D01*
X893242Y85003D02*
X903341Y95102D01*
X888192Y85003D02*
X898291Y95102D01*
X883143Y85003D02*
X893242Y95102D01*
X878093Y85003D02*
X888192Y95102D01*
X873044Y85003D02*
X883143Y95102D01*
X867994Y85003D02*
X878093Y95102D01*
X862945Y85003D02*
X873044Y95102D01*
X857895Y85003D02*
X867994Y95102D01*
X852846Y85003D02*
X862945Y95102D01*
X847796Y85003D02*
X857895Y95102D01*
X842747Y85003D02*
X852846Y95102D01*
X837697Y85003D02*
X847796Y95102D01*
X832648Y85003D02*
X842747Y95102D01*
X827598Y85003D02*
X837697Y95102D01*
X822549Y85003D02*
X832648Y95102D01*
X817499Y85003D02*
X827598Y95102D01*
X812450Y85003D02*
X822549Y95102D01*
X808793Y86396D02*
X817499Y95102D01*
X808793Y91446D02*
X812450Y95102D01*
X898291D02*
X903341Y100152D01*
X893242Y95102D02*
X903341Y105201D01*
X888192Y95102D02*
X898291Y105201D01*
X883143Y95102D02*
X893242Y105201D01*
X878093Y95102D02*
X888192Y105201D01*
X873044Y95102D02*
X883143Y105201D01*
X867994Y95102D02*
X878093Y105201D01*
X862945Y95102D02*
X873044Y105201D01*
X857895Y95102D02*
X867994Y105201D01*
X852846Y95102D02*
X862945Y105201D01*
X847796Y95102D02*
X857895Y105201D01*
X842747Y95102D02*
X852846Y105201D01*
X837697Y95102D02*
X847796Y105201D01*
X832648Y95102D02*
X842747Y105201D01*
X827598Y95102D02*
X837697Y105201D01*
X822549Y95102D02*
X832648Y105201D01*
X817499Y95102D02*
X827598Y105201D01*
X812450Y95102D02*
X822549Y105201D01*
X808793Y96495D02*
X817499Y105201D01*
X808793Y101545D02*
X812450Y105201D01*
X898291D02*
X903341Y110251D01*
X893242Y105201D02*
X903341Y115301D01*
X888192Y105201D02*
X898291Y115301D01*
X883143Y105201D02*
X893242Y115301D01*
X878093Y105201D02*
X888192Y115301D01*
X873044Y105201D02*
X883143Y115301D01*
X867994Y105201D02*
X878093Y115301D01*
X862945Y105201D02*
X873044Y115301D01*
X857895Y105201D02*
X867994Y115301D01*
X852846Y105201D02*
X862945Y115301D01*
X847796Y105201D02*
X857895Y115301D01*
X842747Y105201D02*
X852846Y115301D01*
X837697Y105201D02*
X847796Y115301D01*
X832648Y105201D02*
X842747Y115301D01*
X827598Y105201D02*
X837697Y115301D01*
X822549Y105201D02*
X832648Y115301D01*
X817499Y105201D02*
X827598Y115301D01*
X812450Y105201D02*
X822549Y115301D01*
X808793Y106594D02*
X817499Y115301D01*
X808793Y111644D02*
X812450Y115301D01*
X898291D02*
X903341Y120350D01*
X893242Y115301D02*
X903341Y125399D01*
X888192Y115301D02*
X898291Y125399D01*
X883143Y115301D02*
X893242Y125399D01*
X878093Y115301D02*
X888192Y125399D01*
X873044Y115301D02*
X883143Y125399D01*
X867994Y115301D02*
X878093Y125399D01*
X862945Y115301D02*
X873044Y125399D01*
X857895Y115301D02*
X867994Y125399D01*
X852846Y115301D02*
X862945Y125399D01*
X847796Y115301D02*
X857895Y125399D01*
X842747Y115301D02*
X852846Y125399D01*
X837697Y115301D02*
X847796Y125399D01*
X832648Y115301D02*
X842747Y125399D01*
X827598Y115301D02*
X837697Y125399D01*
X822549Y115301D02*
X832648Y125399D01*
X817499Y115301D02*
X827598Y125399D01*
X812450Y115301D02*
X822549Y125399D01*
X808793Y116693D02*
X817499Y125399D01*
X808793Y121743D02*
X812450Y125399D01*
X903341Y-838D02*
X908390Y-5888D01*
X903341Y4211D02*
X913440Y-5888D01*
X908390Y4211D02*
X918489Y-5888D01*
X913440Y4211D02*
X923539Y-5888D01*
X918489Y4211D02*
X928588Y-5888D01*
X923539Y4211D02*
X933638Y-5888D01*
X928588Y4211D02*
X938687Y-5888D01*
X933638Y4211D02*
X943737Y-5888D01*
X938687Y4211D02*
X946568Y-3670D01*
X943737Y4211D02*
X946568Y1380D01*
X903341Y9261D02*
X908390Y4211D01*
X903341Y14311D02*
X913440Y4211D01*
X908390Y14311D02*
X918489Y4211D01*
X913440Y14311D02*
X923539Y4211D01*
X918489Y14311D02*
X928588Y4211D01*
X923539Y14311D02*
X933638Y4211D01*
X928588Y14311D02*
X938687Y4211D01*
X933638Y14311D02*
X943737Y4211D01*
X938687Y14311D02*
X946568Y6429D01*
X943737Y14311D02*
X946568Y11479D01*
X903341Y19360D02*
X908390Y14311D01*
X903341Y24409D02*
X913440Y14311D01*
X908390Y24409D02*
X918489Y14311D01*
X913440Y24409D02*
X923539Y14311D01*
X918489Y24409D02*
X928588Y14311D01*
X923539Y24409D02*
X933638Y14311D01*
X928588Y24409D02*
X938687Y14311D01*
X933638Y24409D02*
X943737Y14311D01*
X938687Y24409D02*
X946568Y16528D01*
X943737Y24409D02*
X946568Y21578D01*
X903341Y29459D02*
X908390Y24409D01*
X903341Y34508D02*
X913440Y24409D01*
X908390Y34508D02*
X918489Y24409D01*
X913440Y34508D02*
X923539Y24409D01*
X918489Y34508D02*
X928588Y24409D01*
X923539Y34508D02*
X933638Y24409D01*
X928588Y34508D02*
X938687Y24409D01*
X933638Y34508D02*
X943737Y24409D01*
X938687Y34508D02*
X946568Y26627D01*
X943737Y34508D02*
X946568Y31677D01*
X903341Y39558D02*
X908390Y34508D01*
X903341Y44607D02*
X913440Y34508D01*
X908390Y44607D02*
X918489Y34508D01*
X913440Y44607D02*
X923539Y34508D01*
X918489Y44607D02*
X928588Y34508D01*
X923539Y44607D02*
X933638Y34508D01*
X928588Y44607D02*
X938687Y34508D01*
X933638Y44607D02*
X943737Y34508D01*
X938687Y44607D02*
X946568Y36726D01*
X943737Y44607D02*
X946568Y41776D01*
X903341Y49657D02*
X908390Y44607D01*
X903341Y54706D02*
X913440Y44607D01*
X908390Y54706D02*
X918489Y44607D01*
X913440Y54706D02*
X923539Y44607D01*
X918489Y54706D02*
X928588Y44607D01*
X923539Y54706D02*
X933638Y44607D01*
X928588Y54706D02*
X938687Y44607D01*
X933638Y54706D02*
X943737Y44607D01*
X938687Y54706D02*
X946568Y46825D01*
X943737Y54706D02*
X946568Y51875D01*
X903341Y59756D02*
X908390Y54706D01*
X903341Y64805D02*
X913440Y54706D01*
X908390Y64805D02*
X918489Y54706D01*
X913440Y64805D02*
X923539Y54706D01*
X918489Y64805D02*
X928588Y54706D01*
X923539Y64805D02*
X933638Y54706D01*
X928588Y64805D02*
X938687Y54706D01*
X933638Y64805D02*
X943737Y54706D01*
X938687Y64805D02*
X946568Y56924D01*
X943737Y64805D02*
X946568Y61974D01*
M02*
