G04*
G04 #@! TF.GenerationSoftware,Altium Limited,Altium NEXUS,3.1.14 (81)*
G04*
G04 Layer_Color=128*
%FSLAX25Y25*%
%MOIN*%
G70*
G04*
G04 #@! TF.SameCoordinates,8D934BE8-6637-419B-8715-06A4025A7093*
G04*
G04*
G04 #@! TF.FilePolarity,Positive*
G04*
G01*
G75*
%ADD178C,0.00200*%
D178*
X326160Y39021D02*
X327760D01*
X326960Y38221D02*
Y39821D01*
X307468Y16945D02*
X309068D01*
X308268Y16145D02*
Y17745D01*
X72149Y8022D02*
X76051D01*
X74100Y6072D02*
Y9973D01*
X52149Y4022D02*
X56051D01*
X54100Y2072D02*
Y5973D01*
X52149Y12022D02*
X56051D01*
X54100Y10072D02*
Y13973D01*
X245060Y37700D02*
X246660D01*
X245860Y36900D02*
Y38500D01*
X250260Y37700D02*
X251860D01*
X251060Y36900D02*
Y38500D01*
X306287Y4331D02*
X307887D01*
X307087Y3531D02*
Y5131D01*
X54409Y94488D02*
X57953D01*
X56181Y92716D02*
Y96260D01*
X44409Y94488D02*
X47953D01*
X46181Y92716D02*
Y96260D01*
X229294Y41281D02*
X230894D01*
X230094Y40481D02*
Y42081D01*
X220853Y33858D02*
X222453D01*
X221654Y33058D02*
Y34658D01*
X239357Y52756D02*
X240957D01*
X240158Y51956D02*
Y53556D01*
X310613Y11802D02*
X311414D01*
X311014Y11402D02*
Y12202D01*
X306687Y11811D02*
X307487D01*
X307087Y11411D02*
Y12211D01*
X302750Y11811D02*
X303550D01*
X303150Y11411D02*
Y12211D01*
X315348Y34252D02*
X316148D01*
X315748Y33852D02*
Y34652D01*
X330309Y39376D02*
X331109D01*
X330709Y38976D02*
Y39776D01*
X320088Y27974D02*
X320888D01*
X320488Y27574D02*
Y28374D01*
X322875Y27159D02*
X323675D01*
X323275Y26759D02*
Y27559D01*
X245661Y1967D02*
X246462D01*
X246061Y1567D02*
Y2367D01*
X322041Y49213D02*
X322841D01*
X322441Y48813D02*
Y49613D01*
X318891Y51575D02*
X319691D01*
X319291Y51175D02*
Y51975D01*
X330397Y46850D02*
X331197D01*
X330797Y46450D02*
Y47250D01*
X331096Y43701D02*
X331896D01*
X331496Y43301D02*
Y44101D01*
X322435Y9843D02*
X323235D01*
X322835Y9443D02*
Y10243D01*
X314561Y3966D02*
X315361D01*
X314961Y3566D02*
Y4366D01*
X299000Y53723D02*
X300200D01*
X299600Y53123D02*
Y54323D01*
X301756Y53723D02*
X302956D01*
X302356Y53123D02*
Y54323D01*
X299000Y50967D02*
X300200D01*
X299600Y50367D02*
Y51567D01*
X301756Y50967D02*
X302956D01*
X302356Y50367D02*
Y51567D01*
X299000Y42700D02*
X300200D01*
X299600Y42100D02*
Y43300D01*
X299000Y45456D02*
X300200D01*
X299600Y44856D02*
Y46056D01*
X301756Y42700D02*
X302956D01*
X302356Y42100D02*
Y43300D01*
X301756Y45456D02*
X302956D01*
X302356Y44856D02*
Y46056D01*
X310024Y42700D02*
X311224D01*
X310624Y42100D02*
Y43300D01*
X307268Y42700D02*
X308468D01*
X307868Y42100D02*
Y43300D01*
X310024Y45456D02*
X311224D01*
X310624Y44856D02*
Y46056D01*
X307268Y45456D02*
X308468D01*
X307868Y44856D02*
Y46056D01*
X310024Y53723D02*
X311224D01*
X310624Y53123D02*
Y54323D01*
X307268Y53723D02*
X308468D01*
X307868Y53123D02*
Y54323D01*
X310024Y50967D02*
X311224D01*
X310624Y50367D02*
Y51567D01*
X307268Y50967D02*
X308468D01*
X307868Y50367D02*
Y51567D01*
X310024Y48212D02*
X311224D01*
X310624Y47611D02*
Y48812D01*
X307268Y48212D02*
X308468D01*
X307868Y47611D02*
Y48812D01*
X299000Y48212D02*
X300200D01*
X299600Y47611D02*
Y48812D01*
X301756Y48212D02*
X302956D01*
X302356Y47611D02*
Y48812D01*
X304512Y53723D02*
X305712D01*
X305112Y53123D02*
Y54323D01*
X304512Y50967D02*
X305712D01*
X305112Y50367D02*
Y51567D01*
X304512Y42700D02*
X305712D01*
X305112Y42100D02*
Y43300D01*
X304512Y45456D02*
X305712D01*
X305112Y44856D02*
Y46056D01*
X304512Y48212D02*
X305712D01*
X305112Y47611D02*
Y48812D01*
X309049Y61417D02*
X309849D01*
X309449Y61017D02*
Y61817D01*
X296844Y66929D02*
X297644D01*
X297244Y66529D02*
Y67329D01*
X280309Y43667D02*
X281109D01*
X280709Y43267D02*
Y44067D01*
X283852Y48031D02*
X284652D01*
X284252Y47631D02*
Y48432D01*
X336212Y33465D02*
X337012D01*
X336612Y33065D02*
Y33865D01*
X329521Y29528D02*
X330321D01*
X329921Y29128D02*
Y29928D01*
X329915Y3937D02*
X330715D01*
X330315Y3537D02*
Y4337D01*
X353931Y33071D02*
X354731D01*
X354331Y32671D02*
Y33471D01*
X336214Y29528D02*
X337014D01*
X336614Y29128D02*
Y29928D01*
X351962Y60039D02*
X352762D01*
X352362Y59639D02*
Y60439D01*
X356735Y19685D02*
X363736D01*
X360236Y16185D02*
Y23185D01*
X4181Y18428D02*
X4981D01*
X4581Y18028D02*
Y18828D01*
X5112Y51968D02*
X5912D01*
X5512Y51569D02*
Y52368D01*
X7080Y85355D02*
X7880D01*
X7480Y84955D02*
Y85755D01*
X16463Y5793D02*
X17263D01*
X16863Y5393D02*
Y6193D01*
X13773Y12598D02*
X14573D01*
X14173Y12198D02*
Y12998D01*
X13773Y19291D02*
X14573D01*
X14173Y18891D02*
Y19691D01*
X14561Y22441D02*
X15361D01*
X14961Y22041D02*
Y22841D01*
X13411Y45276D02*
X14211D01*
X13811Y44876D02*
Y45676D01*
X15348Y81890D02*
X16148D01*
X15748Y81490D02*
Y82290D01*
X12986Y98819D02*
X13786D01*
X13386Y98419D02*
Y99219D01*
X20400Y5793D02*
X21200D01*
X20800Y5393D02*
Y6193D01*
X20400Y22800D02*
X21200D01*
X20800Y22400D02*
Y23200D01*
X24010Y55512D02*
X24810D01*
X24409Y55112D02*
Y55912D01*
X19272Y61232D02*
X20072D01*
X19672Y60832D02*
Y61632D01*
X24797Y87402D02*
X25597D01*
X25197Y87002D02*
Y87802D01*
X22862Y84646D02*
X23662D01*
X23262Y84246D02*
Y85046D01*
X24797Y100394D02*
X25597D01*
X25197Y99994D02*
Y100794D01*
X30909Y55421D02*
X31709D01*
X31309Y55021D02*
Y55821D01*
X28340Y77165D02*
X29140D01*
X28740Y76765D02*
Y77565D01*
X29915Y100394D02*
X30715D01*
X30315Y99994D02*
Y100794D01*
X28340Y111417D02*
X29140D01*
X28740Y111017D02*
Y111817D01*
X37800Y21000D02*
X38600D01*
X38200Y20600D02*
Y21400D01*
X40939Y25591D02*
X41739D01*
X41339Y25190D02*
Y25991D01*
X36608Y25591D02*
X37408D01*
X37008Y25190D02*
Y25991D01*
X38576Y77165D02*
X39376D01*
X38976Y76765D02*
Y77565D01*
X37595Y92520D02*
X38394D01*
X37995Y92120D02*
Y92920D01*
X36250Y111376D02*
X37051D01*
X36650Y110976D02*
Y111776D01*
X45663Y46457D02*
X46463D01*
X46063Y46057D02*
Y46857D01*
X46844Y62552D02*
X47644D01*
X47244Y62152D02*
Y62952D01*
X48325Y81890D02*
X49125D01*
X48726Y81490D02*
Y82290D01*
X46043Y111376D02*
X46843D01*
X46443Y110976D02*
Y111776D01*
X55506Y35827D02*
X56305D01*
X55905Y35427D02*
Y36227D01*
X51962Y35433D02*
X52762D01*
X52362Y35033D02*
Y35833D01*
X56620Y70010D02*
X57420D01*
X57020Y69610D02*
Y70410D01*
X55506Y77953D02*
X56305D01*
X55905Y77553D02*
Y78353D01*
X55835Y111376D02*
X56635D01*
X56235Y110976D02*
Y111776D01*
X60793Y2000D02*
X61593D01*
X61193Y1600D02*
Y2400D01*
X64699Y2000D02*
X65499D01*
X65099Y1600D02*
Y2400D01*
X61017Y38583D02*
X61817D01*
X61417Y38183D02*
Y38983D01*
X61017Y67716D02*
X61817D01*
X61417Y67317D02*
Y68116D01*
X62592Y114915D02*
X63392D01*
X62992Y114515D02*
Y115315D01*
X67146Y2000D02*
X67946D01*
X67546Y1600D02*
Y2400D01*
X68104Y30100D02*
X68904D01*
X68504Y29700D02*
Y30500D01*
X71647Y67716D02*
X72447D01*
X72047Y67317D02*
Y68116D01*
X72435Y81896D02*
X73235D01*
X72835Y81496D02*
Y82296D01*
X75584Y2756D02*
X76384D01*
X75984Y2356D02*
Y3156D01*
X75584Y11811D02*
X76384D01*
X75984Y11411D02*
Y12211D01*
X135427Y18898D02*
X136227D01*
X135827Y18498D02*
Y19298D01*
X132349Y30383D02*
X133149D01*
X132749Y29983D02*
Y30783D01*
X132277Y36220D02*
X133077D01*
X132677Y35820D02*
Y36621D01*
X136214Y71653D02*
X137014D01*
X136614Y71254D02*
Y72053D01*
X133191Y65748D02*
X133991D01*
X133590Y65348D02*
Y66148D01*
X132349Y76549D02*
X133149D01*
X132749Y76149D02*
Y76949D01*
X133852Y74016D02*
X134652D01*
X134252Y73616D02*
Y74416D01*
X133458Y106299D02*
X134258D01*
X133858Y105899D02*
Y106699D01*
X133458Y110236D02*
X134258D01*
X133858Y109836D02*
Y110636D01*
X133458Y114173D02*
X134258D01*
X133858Y113773D02*
Y114573D01*
X143400Y2398D02*
X144200D01*
X143800Y1998D02*
Y2798D01*
X140545Y13780D02*
X141345D01*
X140945Y13379D02*
Y14179D01*
X143400Y11340D02*
X144200D01*
X143800Y10940D02*
Y11740D01*
X142183Y82284D02*
X142983D01*
X142583Y81884D02*
Y82684D01*
X143301Y106299D02*
X144101D01*
X143701Y105899D02*
Y106699D01*
X143301Y110236D02*
X144101D01*
X143701Y109836D02*
Y110636D01*
X143301Y114173D02*
X144101D01*
X143701Y113773D02*
Y114573D01*
X148500Y21400D02*
X149300D01*
X148900Y21000D02*
Y21800D01*
X155668Y3346D02*
X156468D01*
X156069Y2946D02*
Y3746D01*
X156500Y6954D02*
X157300D01*
X156900Y6554D02*
Y7354D01*
X155668Y14187D02*
X156468D01*
X156069Y13787D02*
Y14587D01*
X161000Y21500D02*
X161800D01*
X161400Y21100D02*
Y21900D01*
X155800Y68300D02*
X156600D01*
X156200Y67900D02*
Y68700D01*
X163226Y2800D02*
X164026D01*
X163626Y2400D02*
Y3200D01*
X163533Y68300D02*
X164333D01*
X163933Y67900D02*
Y68700D01*
X171713Y6841D02*
X172513D01*
X172113Y6441D02*
Y7241D01*
X174500Y11143D02*
X175300D01*
X174900Y10743D02*
Y11543D01*
X173222Y18898D02*
X174022D01*
X173622Y18498D02*
Y19298D01*
X174797Y44882D02*
X175597D01*
X175197Y44482D02*
Y45282D01*
X174797Y42520D02*
X175597D01*
X175197Y42120D02*
Y42920D01*
X171267Y68300D02*
X172067D01*
X171667Y67900D02*
Y68700D01*
X179000Y68300D02*
X179800D01*
X179400Y67900D02*
Y68700D01*
X191732Y6727D02*
X192532D01*
X192132Y6327D02*
Y7127D01*
X191732Y10417D02*
X192532D01*
X192132Y10017D02*
Y10817D01*
X190613Y36817D02*
X191413D01*
X191013Y36417D02*
Y37217D01*
X190613Y39565D02*
X191413D01*
X191013Y39165D02*
Y39965D01*
X191332Y54331D02*
X192132D01*
X191732Y53931D02*
Y54731D01*
X190545Y51575D02*
X191345D01*
X190945Y51175D02*
Y51975D01*
X198141Y44062D02*
X198941D01*
X198541Y43662D02*
Y44462D01*
X206137Y6299D02*
X206937D01*
X206537Y5899D02*
Y6699D01*
X206293Y10236D02*
X207093D01*
X206693Y9836D02*
Y10636D01*
X208281Y27954D02*
X209081D01*
X208681Y27554D02*
Y28354D01*
X205712Y33991D02*
X206512D01*
X206112Y33591D02*
Y34391D01*
X207939Y44610D02*
X208739D01*
X208339Y44210D02*
Y45010D01*
X213068Y27954D02*
X213868D01*
X213468Y27554D02*
Y28354D01*
X211739Y31573D02*
X212539D01*
X212139Y31173D02*
Y31973D01*
X222041Y6299D02*
X222841D01*
X222441Y5899D02*
Y6699D01*
X224009Y37008D02*
X224810D01*
X224410Y36608D02*
Y37408D01*
X223616Y53150D02*
X224416D01*
X224016Y52750D02*
Y53550D01*
X229521Y9843D02*
X230321D01*
X229921Y9443D02*
Y10243D01*
X227159Y22047D02*
X227959D01*
X227559Y21647D02*
Y22447D01*
X227159Y26378D02*
X227959D01*
X227559Y25978D02*
Y26778D01*
X229570Y53150D02*
X230370D01*
X229970Y52750D02*
Y53550D01*
X238183Y2362D02*
X238983D01*
X238583Y1962D02*
Y2762D01*
X237641Y37002D02*
X238441D01*
X238041Y36602D02*
Y37402D01*
X243301Y18110D02*
X244101D01*
X243701Y17710D02*
Y18510D01*
X243301Y52362D02*
X244101D01*
X243701Y51962D02*
Y52762D01*
X257080Y55118D02*
X257880D01*
X257480Y54718D02*
Y55518D01*
X263225Y2500D02*
X264024D01*
X263625Y2100D02*
Y2900D01*
X262986Y59842D02*
X263786D01*
X263386Y59443D02*
Y60242D01*
X268724Y2500D02*
X269525D01*
X269125Y2100D02*
Y2900D01*
X271624Y2500D02*
X272425D01*
X272024Y2100D02*
Y2900D01*
X277725Y12221D02*
X278524D01*
X278124Y11821D02*
Y12621D01*
X281096Y22047D02*
X281896D01*
X281496Y21647D02*
Y22447D01*
X277725Y22400D02*
X278524D01*
X278124Y22000D02*
Y22800D01*
X281096Y30512D02*
X281896D01*
X281496Y30112D02*
Y30912D01*
X277425Y29100D02*
X278224D01*
X277824Y28700D02*
Y29500D01*
X281096Y37402D02*
X281896D01*
X281496Y37002D02*
Y37802D01*
X281096Y53000D02*
X281896D01*
X281496Y52600D02*
Y53400D01*
X288970Y2997D02*
X289770D01*
X289370Y2597D02*
Y3397D01*
X287002Y22047D02*
X287802D01*
X287402Y21647D02*
Y22447D01*
X287395Y48031D02*
X288195D01*
X287795Y47631D02*
Y48432D01*
X285033Y53150D02*
X285833D01*
X285433Y52750D02*
Y53550D01*
X287395Y55118D02*
X288195D01*
X287795Y54718D02*
Y55518D01*
X283065Y57087D02*
X283865D01*
X283465Y56687D02*
Y57487D01*
X285156Y62992D02*
X285956D01*
X285556Y62592D02*
Y63392D01*
X287395Y59055D02*
X288195D01*
X287795Y58655D02*
Y59455D01*
X292907Y2997D02*
X293707D01*
X293307Y2597D02*
Y3397D01*
X296844Y2997D02*
X297644D01*
X297244Y2597D02*
Y3397D01*
X293225Y11100D02*
X294024D01*
X293624Y10700D02*
Y11500D01*
X295635Y25591D02*
X296435D01*
X296035Y25190D02*
Y25991D01*
X295635Y29559D02*
X296435D01*
X296035Y29159D02*
Y29959D01*
X296844Y62992D02*
X297644D01*
X297244Y62592D02*
Y63392D01*
X300781Y2997D02*
X301581D01*
X301181Y2597D02*
Y3397D01*
X299604Y25591D02*
X300404D01*
X300004Y25190D02*
Y25991D01*
X299604Y29528D02*
X300404D01*
X300004Y29128D02*
Y29928D01*
X304712Y62992D02*
X305512D01*
X305112Y62592D02*
Y63392D01*
X300781Y66929D02*
X301581D01*
X301181Y66529D02*
Y67329D01*
X312592Y23634D02*
X313392D01*
X312992Y23234D02*
Y24034D01*
X312592Y19701D02*
X313392D01*
X312992Y19301D02*
Y20101D01*
X307868Y20866D02*
X308668D01*
X308268Y20466D02*
Y21266D01*
X310613Y25591D02*
X311414D01*
X311014Y25190D02*
Y25991D01*
X311411Y29528D02*
X312211D01*
X311811Y29128D02*
Y29928D01*
X309442Y31573D02*
X310243D01*
X309842Y31173D02*
Y31973D01*
X312592Y66929D02*
X313392D01*
X312992Y66529D02*
Y67329D01*
X308655Y66929D02*
X309455D01*
X309055Y66529D02*
Y67329D01*
X317922Y43782D02*
X318722D01*
X318322Y43382D02*
Y44182D01*
X328340Y66929D02*
X329140D01*
X328740Y66529D02*
Y67329D01*
X340151Y29528D02*
X340951D01*
X340551Y29128D02*
Y29928D01*
X329521Y19685D02*
X330321D01*
X329921Y19285D02*
Y20085D01*
X340151Y33465D02*
X340951D01*
X340551Y33065D02*
Y33865D01*
X322435Y15813D02*
X323235D01*
X322835Y15414D02*
Y16214D01*
X363773Y29348D02*
X364573D01*
X364173Y28948D02*
Y29748D01*
X326372Y7924D02*
X327172D01*
X326772Y7524D02*
Y8324D01*
X329521Y35433D02*
X330321D01*
X329921Y35033D02*
Y35833D01*
X326993Y31830D02*
X327793D01*
X327393Y31431D02*
Y32230D01*
X363380Y11631D02*
X364179D01*
X363779Y11231D02*
Y12032D01*
X328340Y62992D02*
X329140D01*
X328740Y62592D02*
Y63392D01*
X324403Y66929D02*
X325203D01*
X324803Y66529D02*
Y67329D01*
X351175Y47638D02*
X351975D01*
X351575Y47238D02*
Y48038D01*
X324403Y61024D02*
X325203D01*
X324803Y60624D02*
Y61424D01*
X336214Y62992D02*
X337014D01*
X336614Y62592D02*
Y63392D01*
X332277Y61024D02*
X333077D01*
X332677Y60624D02*
Y61424D01*
X356687Y42520D02*
X357487D01*
X357087Y42120D02*
Y42920D01*
X351175Y42520D02*
X351975D01*
X351575Y42120D02*
Y42920D01*
X348025Y61024D02*
X348825D01*
X348425Y60624D02*
Y61424D01*
X344088Y62992D02*
X344888D01*
X344488Y62592D02*
Y63392D01*
X340151Y61024D02*
X340951D01*
X340551Y60624D02*
Y61424D01*
X340151Y66929D02*
X340951D01*
X340551Y66529D02*
Y67329D01*
X348025Y66929D02*
X348825D01*
X348425Y66529D02*
Y67329D01*
X351962Y70866D02*
X352762D01*
X352362Y70466D02*
Y71266D01*
X351962Y78740D02*
X352762D01*
X352362Y78340D02*
Y79140D01*
X351962Y82677D02*
X352762D01*
X352362Y82277D02*
Y83077D01*
X359836Y70866D02*
X360636D01*
X360236Y70466D02*
Y71266D01*
X355899Y66929D02*
X356699D01*
X356299Y66529D02*
Y67329D01*
X359836Y78740D02*
X360636D01*
X360236Y78340D02*
Y79140D01*
X355870Y78740D02*
X356670D01*
X356270Y78340D02*
Y79140D01*
X356024Y74803D02*
X356824D01*
X356424Y74403D02*
Y75203D01*
X359836Y82677D02*
X360636D01*
X360236Y82277D02*
Y83077D01*
X355944Y82677D02*
X356744D01*
X356344Y82277D02*
Y83077D01*
X363773Y66929D02*
X364573D01*
X364173Y66529D02*
Y67329D01*
X363773Y78740D02*
X364573D01*
X364173Y78340D02*
Y79140D01*
X363773Y74803D02*
X364573D01*
X364173Y74403D02*
Y75203D01*
X363773Y82677D02*
X364573D01*
X364173Y82277D02*
Y83077D01*
X8655Y31890D02*
X9455D01*
X9055Y31490D02*
Y32290D01*
X16784Y24980D02*
X17584D01*
X17184Y24580D02*
Y25380D01*
X19694Y15791D02*
X20494D01*
X20095Y15391D02*
Y16191D01*
X20424Y25433D02*
X21224D01*
X20824Y25033D02*
Y25833D01*
X25003Y72813D02*
X25803D01*
X25403Y72413D02*
Y73213D01*
X19272Y64270D02*
X20072D01*
X19672Y63870D02*
Y64670D01*
X22828Y112205D02*
X23628D01*
X23228Y111805D02*
Y112605D01*
X30309Y24409D02*
X31109D01*
X30709Y24010D02*
Y24810D01*
X31122Y17204D02*
X31922D01*
X31522Y16804D02*
Y17604D01*
X29451Y48031D02*
X30251D01*
X29851Y47631D02*
Y48432D01*
X29128Y72441D02*
X29928D01*
X29528Y72041D02*
Y72841D01*
X27553Y104724D02*
X28353D01*
X27953Y104324D02*
Y105124D01*
X36800Y16800D02*
X37600D01*
X37200Y16400D02*
Y17200D01*
X40939Y49053D02*
X41739D01*
X41339Y48653D02*
Y49453D01*
X35033Y48425D02*
X35833D01*
X35433Y48025D02*
Y48825D01*
X55045Y88583D02*
X55845D01*
X55445Y88183D02*
Y88983D01*
X72435Y56299D02*
X73235D01*
X72835Y55899D02*
Y56699D01*
X70466Y48819D02*
X71266D01*
X70866Y48419D02*
Y49219D01*
X133458Y56299D02*
X134258D01*
X133858Y55899D02*
Y56699D01*
X158655Y16535D02*
X159455D01*
X159055Y16135D02*
Y16935D01*
X197999Y56487D02*
X198799D01*
X198399Y56087D02*
Y56887D01*
X208261Y16535D02*
X209061D01*
X208661Y16135D02*
Y16935D01*
X211805Y41732D02*
X212605D01*
X212205Y41332D02*
Y42132D01*
X228734Y16535D02*
X229534D01*
X229134Y16135D02*
Y16935D01*
X248025Y40462D02*
X248825D01*
X248425Y40062D02*
Y40862D01*
X256293Y40551D02*
X257093D01*
X256693Y40151D02*
Y40951D01*
X253260Y41300D02*
X254060D01*
X253660Y40900D02*
Y41700D01*
X281100Y40551D02*
X281900D01*
X281500Y40151D02*
Y40951D01*
X281096Y34449D02*
X281896D01*
X281496Y34049D02*
Y34849D01*
X277425Y32200D02*
X278224D01*
X277824Y31800D02*
Y32600D01*
X287395Y50787D02*
X288195D01*
X287795Y50387D02*
Y51187D01*
X295635Y33465D02*
X296435D01*
X296035Y33065D02*
Y33865D01*
X299604Y33465D02*
X300404D01*
X300004Y33065D02*
Y33865D01*
X312592Y15767D02*
X313392D01*
X312992Y15368D02*
Y16168D01*
X311411Y33465D02*
X312211D01*
X311811Y33065D02*
Y33865D01*
X356687Y29577D02*
X357487D01*
X357087Y29177D02*
Y29977D01*
X322435Y21654D02*
X323235D01*
X322835Y21254D02*
Y22054D01*
X326372Y24485D02*
X327172D01*
X326772Y24085D02*
Y24885D01*
X363773Y37795D02*
X364573D01*
X364173Y37395D02*
Y38195D01*
X329521Y49213D02*
X330321D01*
X329921Y48813D02*
Y49613D01*
X356687Y50475D02*
X357487D01*
X357087Y50075D02*
Y50875D01*
X330309Y11811D02*
X331109D01*
X330709Y11411D02*
Y12211D01*
X363773Y47638D02*
X364573D01*
X364173Y47238D02*
Y48038D01*
X363380Y2662D02*
X364179D01*
X363779Y2262D02*
Y3062D01*
X351949Y105291D02*
X352749D01*
X352349Y104891D02*
Y105691D01*
X340545Y2662D02*
X341345D01*
X340945Y2262D02*
Y3062D01*
X2309Y3150D02*
X3109D01*
X2709Y2750D02*
Y3550D01*
X1568Y21260D02*
X2369D01*
X1969Y20860D02*
Y21660D01*
X1568Y31102D02*
X2369D01*
X1969Y30702D02*
Y31502D01*
X1568Y46850D02*
X2369D01*
X1969Y46450D02*
Y47250D01*
X1568Y51968D02*
X2369D01*
X1969Y51569D02*
Y52368D01*
X1962Y98819D02*
X2762D01*
X2362Y98419D02*
Y99219D01*
X2356Y108661D02*
X3156D01*
X2756Y108261D02*
Y109061D01*
X33458Y21260D02*
X34258D01*
X33858Y20860D02*
Y21660D01*
X41332Y17717D02*
X42132D01*
X41732Y17316D02*
Y18116D01*
X33852Y38189D02*
X34652D01*
X34252Y37789D02*
Y38589D01*
X26765Y55421D02*
X27565D01*
X27165Y55021D02*
Y55821D01*
X34246Y52362D02*
X35046D01*
X34646Y51962D02*
Y52762D01*
X42120Y87008D02*
X42920D01*
X42520Y86608D02*
Y87408D01*
X18463Y116142D02*
X19263D01*
X18863Y115742D02*
Y116542D01*
X49307Y4050D02*
X50107D01*
X49707Y3650D02*
Y4451D01*
X49307Y6924D02*
X50107D01*
X49707Y6524D02*
Y7324D01*
X57400Y1971D02*
X58200D01*
X57800Y1571D02*
Y2371D01*
X49491Y10331D02*
X50291D01*
X49891Y9931D02*
Y10731D01*
X50387Y17717D02*
X51187D01*
X50787Y17316D02*
Y18116D01*
X65348Y29921D02*
X66148D01*
X65748Y29521D02*
Y30321D01*
X58655Y35071D02*
X59455D01*
X59055Y34671D02*
Y35471D01*
X58050Y39005D02*
X58850D01*
X58450Y38605D02*
Y39405D01*
X49600Y37008D02*
X50400D01*
X50000Y36608D02*
Y37408D01*
X74403Y52362D02*
X75203D01*
X74803Y51962D02*
Y52762D01*
X65714Y94882D02*
X66514D01*
X66114Y94482D02*
Y95282D01*
X73700Y102756D02*
X74500D01*
X74100Y102356D02*
Y103156D01*
X138477Y106167D02*
X139277D01*
X138877Y105768D02*
Y106568D01*
X138380Y114173D02*
X139180D01*
X138779Y113773D02*
Y114573D01*
X170791Y11143D02*
X171591D01*
X171191Y10743D02*
Y11543D01*
X169679Y18898D02*
X170479D01*
X170079Y18498D02*
Y19298D01*
X170445Y22609D02*
X171245D01*
X170845Y22209D02*
Y23009D01*
X201569Y6299D02*
X202368D01*
X201969Y5899D02*
Y6699D01*
X178813Y7100D02*
X179613D01*
X179213Y6700D02*
Y7500D01*
X193513Y36817D02*
X194313D01*
X193913Y36417D02*
Y37217D01*
X193513Y39565D02*
X194313D01*
X193913Y39165D02*
Y39965D01*
X177613Y36465D02*
X178413D01*
X178013Y36065D02*
Y36865D01*
X226372Y6299D02*
X227172D01*
X226772Y5899D02*
Y6699D01*
X225978Y10630D02*
X226778D01*
X226378Y10230D02*
Y11030D01*
X234246Y31102D02*
X235046D01*
X234646Y30702D02*
Y31502D01*
X217317Y30406D02*
X218117D01*
X217717Y30007D02*
Y30806D01*
X225584Y29134D02*
X226384D01*
X225984Y28734D02*
Y29534D01*
X226372Y53150D02*
X227172D01*
X226772Y52750D02*
Y53550D01*
X241542Y2394D02*
X242342D01*
X241942Y1994D02*
Y2794D01*
X242120Y15354D02*
X242920D01*
X242520Y14954D02*
Y15754D01*
X266529Y46457D02*
X267329D01*
X266929Y46057D02*
Y46857D01*
X266255Y51691D02*
X267055D01*
X266655Y51291D02*
Y52091D01*
X298813Y11811D02*
X299613D01*
X299213Y11411D02*
Y12211D01*
X297632Y31459D02*
X298431D01*
X298031Y31059D02*
Y31859D01*
X322422Y3870D02*
X323222D01*
X322822Y3470D02*
Y4270D01*
X306687Y25591D02*
X307487D01*
X307087Y25190D02*
Y25991D01*
X307474Y29559D02*
X308274D01*
X307874Y29159D02*
Y29959D01*
X351175Y37795D02*
X351975D01*
X351575Y37395D02*
Y38195D01*
X33674Y25188D02*
X34474D01*
X34074Y24788D02*
Y25588D01*
X25630Y48425D02*
X26430D01*
X26030Y48025D02*
Y48825D01*
X66135Y48819D02*
X66935D01*
X66535Y48419D02*
Y49219D01*
X202750Y56299D02*
X203550D01*
X203150Y55899D02*
Y56699D01*
X234639Y9449D02*
X235439D01*
X235039Y9049D02*
Y9849D01*
X225191Y24409D02*
X225991D01*
X225591Y24010D02*
Y24810D01*
X218891Y16142D02*
X219691D01*
X219291Y15742D02*
Y16542D01*
X242874Y56700D02*
X243674D01*
X243274Y56300D02*
Y57100D01*
X307474Y33465D02*
X308274D01*
X307874Y33065D02*
Y33865D01*
X363773Y60039D02*
X364573D01*
X364173Y59639D02*
Y60439D01*
X356687Y55709D02*
X357487D01*
X357087Y55309D02*
Y56109D01*
X362776Y105291D02*
X363576D01*
X363176Y104891D02*
Y105691D01*
X419728Y19685D02*
X426728D01*
X423228Y16185D02*
Y23185D01*
X431539Y66929D02*
X438539D01*
X435039Y63429D02*
Y70429D01*
X268217Y11631D02*
X269018D01*
X268618Y11231D02*
Y12032D01*
X264280Y11631D02*
X265080D01*
X264680Y11231D02*
Y12032D01*
X260343Y11631D02*
X261143D01*
X260743Y11231D02*
Y12032D01*
X256406Y11631D02*
X257206D01*
X256806Y11231D02*
Y12032D01*
X252469Y11631D02*
X253269D01*
X252869Y11231D02*
Y12032D01*
X268217Y15568D02*
X269018D01*
X268618Y15168D02*
Y15969D01*
X264280Y15568D02*
X265080D01*
X264680Y15168D02*
Y15969D01*
X260343Y15568D02*
X261143D01*
X260743Y15168D02*
Y15969D01*
X256406Y15568D02*
X257206D01*
X256806Y15168D02*
Y15969D01*
X252469Y15568D02*
X253269D01*
X252869Y15168D02*
Y15969D01*
X268217Y19505D02*
X269018D01*
X268618Y19105D02*
Y19906D01*
X264280Y19505D02*
X265080D01*
X264680Y19105D02*
Y19906D01*
X260343Y19505D02*
X261143D01*
X260743Y19105D02*
Y19906D01*
X256406Y19505D02*
X257206D01*
X256806Y19105D02*
Y19906D01*
X252469Y19505D02*
X253269D01*
X252869Y19105D02*
Y19906D01*
X268217Y23442D02*
X269018D01*
X268618Y23043D02*
Y23843D01*
X264280Y23442D02*
X265080D01*
X264680Y23043D02*
Y23843D01*
X260343Y23442D02*
X261143D01*
X260743Y23043D02*
Y23843D01*
X256406Y23442D02*
X257206D01*
X256806Y23043D02*
Y23843D01*
X252469Y23442D02*
X253269D01*
X252869Y23043D02*
Y23843D01*
X268217Y27380D02*
X269018D01*
X268618Y26980D02*
Y27779D01*
X264280Y27380D02*
X265080D01*
X264680Y26980D02*
Y27779D01*
X260343Y27380D02*
X261143D01*
X260743Y26980D02*
Y27779D01*
X256406Y27380D02*
X257206D01*
X256806Y26980D02*
Y27779D01*
X252469Y27380D02*
X253269D01*
X252869Y26980D02*
Y27779D01*
X27956Y63286D02*
X28756D01*
X28356Y62886D02*
Y63686D01*
X164065Y11728D02*
X164853D01*
X164459Y11334D02*
Y12121D01*
X181600Y26025D02*
X182400D01*
X182000Y25625D02*
Y26425D01*
X181600Y29962D02*
X182400D01*
X182000Y29562D02*
Y30362D01*
X185537Y26025D02*
X186337D01*
X185937Y25625D02*
Y26425D01*
X185537Y29962D02*
X186337D01*
X185937Y29562D02*
Y30362D01*
X189474Y26025D02*
X190275D01*
X189874Y25625D02*
Y26425D01*
X189474Y29962D02*
X190275D01*
X189874Y29562D02*
Y30362D01*
X152372Y33280D02*
X153159D01*
X152766Y32887D02*
Y33674D01*
X152372Y29343D02*
X153159D01*
X152766Y28950D02*
Y29737D01*
M02*
