G04*
G04 #@! TF.GenerationSoftware,Altium Limited,Altium NEXUS,3.1.14 (81)*
G04*
G04 Layer_Color=8388736*
%FSLAX25Y25*%
%MOIN*%
G70*
G04*
G04 #@! TF.SameCoordinates,8D934BE8-6637-419B-8715-06A4025A7093*
G04*
G04*
G04 #@! TF.FilePolarity,Negative*
G04*
G01*
G75*
%ADD71C,0.02400*%
%ADD72R,0.03950X0.03162*%
%ADD73C,0.00787*%
%ADD74C,0.00800*%
%ADD75R,0.02205X0.02795*%
%ADD76R,0.02795X0.02598*%
%ADD77R,0.02795X0.02205*%
%ADD78R,0.15886X0.15886*%
%ADD79R,0.02965X0.03359*%
%ADD80R,0.04147X0.06312*%
%ADD81R,0.03359X0.02965*%
%ADD82R,0.03517X0.04816*%
%ADD83R,0.09449X0.04921*%
%ADD84R,0.04921X0.04724*%
%ADD85R,0.04737X0.05131*%
%ADD86R,0.04816X0.03517*%
%ADD87C,0.11874*%
%ADD88R,0.05131X0.04737*%
%ADD89R,0.07729X0.04816*%
%ADD90R,0.04737X0.04737*%
%ADD91R,0.03162X0.03950*%
%ADD92C,0.04737*%
%ADD93R,0.03950X0.05918*%
%ADD94R,0.02175X0.02175*%
%ADD95R,0.22447X0.22447*%
%ADD96O,0.01502X0.03747*%
%ADD97O,0.03747X0.01502*%
%ADD98C,0.03898*%
%ADD99R,0.02769X0.02769*%
%ADD100R,0.02493X0.03556*%
%ADD101R,0.04048X0.02769*%
%ADD102R,0.04737X0.04737*%
G04:AMPARAMS|DCode=103|XSize=23.35mil|YSize=13.91mil|CornerRadius=5.48mil|HoleSize=0mil|Usage=FLASHONLY|Rotation=180.000|XOffset=0mil|YOffset=0mil|HoleType=Round|Shape=RoundedRectangle|*
%AMROUNDEDRECTD103*
21,1,0.02335,0.00295,0,0,180.0*
21,1,0.01240,0.01391,0,0,180.0*
1,1,0.01095,-0.00620,0.00148*
1,1,0.01095,0.00620,0.00148*
1,1,0.01095,0.00620,-0.00148*
1,1,0.01095,-0.00620,-0.00148*
%
%ADD103ROUNDEDRECTD103*%
%ADD104R,0.01602X0.02114*%
%ADD105R,0.02114X0.01602*%
%ADD106R,0.06706X0.05918*%
%ADD107R,0.06312X0.03753*%
%ADD108R,0.01581X0.02447*%
%ADD109R,0.02447X0.01581*%
%ADD110R,0.07487X0.07487*%
%ADD111R,0.01561X0.01167*%
%ADD112R,0.03162X0.07887*%
%ADD113C,0.01581*%
%ADD114R,0.01817X0.01739*%
G04:AMPARAMS|DCode=115|XSize=55.24mil|YSize=37.53mil|CornerRadius=5.92mil|HoleSize=0mil|Usage=FLASHONLY|Rotation=0.000|XOffset=0mil|YOffset=0mil|HoleType=Round|Shape=RoundedRectangle|*
%AMROUNDEDRECTD115*
21,1,0.05524,0.02569,0,0,0.0*
21,1,0.04341,0.03753,0,0,0.0*
1,1,0.01184,0.02170,-0.01284*
1,1,0.01184,-0.02170,-0.01284*
1,1,0.01184,-0.02170,0.01284*
1,1,0.01184,0.02170,0.01284*
%
%ADD115ROUNDEDRECTD115*%
G04:AMPARAMS|DCode=116|XSize=17.84mil|YSize=31.62mil|CornerRadius=5.97mil|HoleSize=0mil|Usage=FLASHONLY|Rotation=0.000|XOffset=0mil|YOffset=0mil|HoleType=Round|Shape=RoundedRectangle|*
%AMROUNDEDRECTD116*
21,1,0.01784,0.01968,0,0,0.0*
21,1,0.00591,0.03162,0,0,0.0*
1,1,0.01194,0.00295,-0.00984*
1,1,0.01194,-0.00295,-0.00984*
1,1,0.01194,-0.00295,0.00984*
1,1,0.01194,0.00295,0.00984*
%
%ADD116ROUNDEDRECTD116*%
%ADD117R,0.01584X0.03356*%
%ADD118R,0.13592X0.07293*%
%ADD119R,0.04658X0.14186*%
%ADD120R,0.04737X0.12217*%
%ADD121R,0.01384X0.03156*%
%ADD122R,0.06118X0.07299*%
G04:AMPARAMS|DCode=123|XSize=23.35mil|YSize=13.91mil|CornerRadius=5.48mil|HoleSize=0mil|Usage=FLASHONLY|Rotation=90.000|XOffset=0mil|YOffset=0mil|HoleType=Round|Shape=RoundedRectangle|*
%AMROUNDEDRECTD123*
21,1,0.02335,0.00295,0,0,90.0*
21,1,0.01240,0.01391,0,0,90.0*
1,1,0.01095,0.00148,0.00620*
1,1,0.01095,0.00148,-0.00620*
1,1,0.01095,-0.00148,-0.00620*
1,1,0.01095,-0.00148,0.00620*
%
%ADD123ROUNDEDRECTD123*%
%ADD124R,0.02669X0.03456*%
%ADD125R,0.04147X0.03162*%
%ADD126R,0.15800X0.20485*%
%ADD127C,0.04000*%
%ADD128C,0.05918*%
%ADD129C,0.01600*%
%ADD130C,0.09800*%
%ADD131C,0.02600*%
%ADD132C,0.10642*%
%ADD133C,0.02769*%
D71*
X321572Y33968D02*
G03*
X321572Y33968I-1100J0D01*
G01*
Y33748D02*
G03*
X321572Y33748I-1100J0D01*
G01*
X322864Y38976D02*
G03*
X322864Y38976I-1100J0D01*
G01*
X322643D02*
G03*
X322643Y38976I-1100J0D01*
G01*
D72*
X328346Y43701D02*
D03*
X323622D02*
D03*
X348130Y19505D02*
D03*
X352854D02*
D03*
X346457Y50394D02*
D03*
X351181D02*
D03*
X282283Y26326D02*
D03*
X287008D02*
D03*
X299213Y8268D02*
D03*
X303937D02*
D03*
X299138Y16945D02*
D03*
X303862D02*
D03*
X299138Y21453D02*
D03*
X303862D02*
D03*
X351181Y35039D02*
D03*
X346457D02*
D03*
X263386Y43307D02*
D03*
X258661D02*
D03*
X263386Y48425D02*
D03*
X258661D02*
D03*
X270669Y60236D02*
D03*
X275394D02*
D03*
X275487Y43153D02*
D03*
X270762D02*
D03*
X64325Y77885D02*
D03*
X69050D02*
D03*
X64325Y81985D02*
D03*
X69050D02*
D03*
X37878Y52413D02*
D03*
X42602D02*
D03*
X37931Y56586D02*
D03*
X42656D02*
D03*
X37894Y60786D02*
D03*
X42618D02*
D03*
X224016Y13386D02*
D03*
X219291D02*
D03*
X174851Y39656D02*
D03*
X179576D02*
D03*
X202576Y33944D02*
D03*
X197851D02*
D03*
D73*
X320472Y35688D02*
D03*
Y32028D02*
D03*
D74*
X323483Y38976D02*
D03*
X319824D02*
D03*
D75*
X312250Y37778D02*
D03*
X309395D02*
D03*
X306541D02*
D03*
X303683D02*
D03*
X300828D02*
D03*
X297974D02*
D03*
X312250Y58645D02*
D03*
X309395D02*
D03*
X306541D02*
D03*
X303683D02*
D03*
X300828D02*
D03*
X297974D02*
D03*
D76*
X294777Y37778D02*
D03*
X315446D02*
D03*
Y58645D02*
D03*
X294777D02*
D03*
D77*
X315446Y40830D02*
D03*
X294777D02*
D03*
X315446Y43782D02*
D03*
X294777D02*
D03*
X315446Y46735D02*
D03*
X294777D02*
D03*
X315446Y49688D02*
D03*
X294777D02*
D03*
X315446Y52641D02*
D03*
X294777D02*
D03*
X315446Y55593D02*
D03*
X294777D02*
D03*
D78*
X305112Y48212D02*
D03*
D79*
X290945Y31176D02*
D03*
X287008D02*
D03*
X287008Y43701D02*
D03*
X283071D02*
D03*
X198311Y49656D02*
D03*
X194375D02*
D03*
X241732Y34252D02*
D03*
X237795D02*
D03*
X256456Y37653D02*
D03*
X260393D02*
D03*
X55905Y73854D02*
D03*
X51968D02*
D03*
X51968Y31890D02*
D03*
X55905D02*
D03*
X61811Y26772D02*
D03*
X65748D02*
D03*
X20800Y32177D02*
D03*
X16863D02*
D03*
X20800Y28477D02*
D03*
X16863D02*
D03*
X16863Y19077D02*
D03*
X20800D02*
D03*
X16863Y12477D02*
D03*
X20800D02*
D03*
X219291Y9055D02*
D03*
X223228D02*
D03*
X230094Y36729D02*
D03*
X234031D02*
D03*
X174782Y26209D02*
D03*
X170845D02*
D03*
X202245Y42000D02*
D03*
X206182D02*
D03*
X187282Y39656D02*
D03*
X183345D02*
D03*
X198245Y38165D02*
D03*
X202182D02*
D03*
X156069Y21400D02*
D03*
X152131D02*
D03*
X152131Y17500D02*
D03*
X156069D02*
D03*
X194376Y53365D02*
D03*
X198313D02*
D03*
X208268Y57480D02*
D03*
X212205D02*
D03*
X205882Y49656D02*
D03*
X201945D02*
D03*
X132832Y80200D02*
D03*
X136768D02*
D03*
D80*
X360039Y7498D02*
D03*
X344685D02*
D03*
D81*
X346358Y29528D02*
D03*
Y25591D02*
D03*
X287008Y39469D02*
D03*
Y35531D02*
D03*
X16518Y57245D02*
D03*
Y61182D02*
D03*
X12854Y57261D02*
D03*
Y61198D02*
D03*
X246527Y56422D02*
D03*
Y52485D02*
D03*
X68898Y60236D02*
D03*
Y64173D02*
D03*
X64961Y60236D02*
D03*
Y64173D02*
D03*
X213779Y10236D02*
D03*
Y6299D02*
D03*
X218134Y23591D02*
D03*
Y19654D02*
D03*
X212934Y23581D02*
D03*
Y19644D02*
D03*
X208661Y19685D02*
D03*
Y23622D02*
D03*
X179213Y18124D02*
D03*
Y14187D02*
D03*
D82*
X333465Y7498D02*
D03*
X338976D02*
D03*
D83*
X336612Y13878D02*
D03*
Y25492D02*
D03*
D84*
X342616Y19685D02*
D03*
D85*
X325984Y49016D02*
D03*
Y55709D02*
D03*
X240594Y41082D02*
D03*
Y47775D02*
D03*
X139405Y25644D02*
D03*
Y18951D02*
D03*
X144664Y18948D02*
D03*
Y25641D02*
D03*
X147600Y10947D02*
D03*
Y4253D02*
D03*
D86*
X352854Y24624D02*
D03*
Y30135D02*
D03*
D87*
X70500Y110100D02*
D03*
X137200Y7081D02*
D03*
X8215Y8100D02*
D03*
X357600Y110900D02*
D03*
D88*
X352953Y55905D02*
D03*
X346260D02*
D03*
X332480D02*
D03*
X339173D02*
D03*
X46260Y105905D02*
D03*
X39567D02*
D03*
X38386Y81102D02*
D03*
X31693D02*
D03*
D89*
X338878Y39449D02*
D03*
Y46457D02*
D03*
D90*
X290256Y17150D02*
D03*
Y10850D02*
D03*
X5118Y35433D02*
D03*
Y41732D02*
D03*
X139298Y37470D02*
D03*
Y31171D02*
D03*
X235294Y47578D02*
D03*
Y41279D02*
D03*
X216139Y41850D02*
D03*
Y35550D02*
D03*
X160143Y25211D02*
D03*
Y31510D02*
D03*
X165443Y25211D02*
D03*
Y31510D02*
D03*
X144657Y37477D02*
D03*
Y31178D02*
D03*
D91*
X38189Y42913D02*
D03*
Y47638D02*
D03*
X23228D02*
D03*
Y42913D02*
D03*
X346457Y45125D02*
D03*
Y40401D02*
D03*
X285039Y17717D02*
D03*
Y12992D02*
D03*
X280709Y17717D02*
D03*
Y12992D02*
D03*
X242126Y10236D02*
D03*
Y5512D02*
D03*
X237795Y10236D02*
D03*
Y5512D02*
D03*
X235433Y19291D02*
D03*
Y14567D02*
D03*
X239764Y19291D02*
D03*
Y14567D02*
D03*
X73450Y71713D02*
D03*
Y76437D02*
D03*
X18898Y40945D02*
D03*
Y36220D02*
D03*
X14567Y40945D02*
D03*
Y36220D02*
D03*
X10236Y40945D02*
D03*
Y36220D02*
D03*
X222441Y18504D02*
D03*
Y23228D02*
D03*
X209449Y5512D02*
D03*
Y10236D02*
D03*
X170713Y30148D02*
D03*
Y34872D02*
D03*
X174813Y30093D02*
D03*
Y34818D02*
D03*
D92*
X20079Y51968D02*
D03*
X70472Y18898D02*
D03*
X64440Y18948D02*
D03*
D93*
X33465Y42913D02*
D03*
X27953D02*
D03*
D94*
X41398Y31116D02*
D03*
X34705D02*
D03*
X38051D02*
D03*
X39724Y33675D02*
D03*
X29685D02*
D03*
X33031D02*
D03*
X36378D02*
D03*
X43071D02*
D03*
X36378Y14384D02*
D03*
X31358D02*
D03*
X44744Y31116D02*
D03*
Y27770D02*
D03*
Y24423D02*
D03*
Y21077D02*
D03*
Y17730D02*
D03*
Y14384D02*
D03*
X47303Y33675D02*
D03*
Y29443D02*
D03*
Y26096D02*
D03*
Y22750D02*
D03*
Y19403D02*
D03*
Y16057D02*
D03*
Y12711D02*
D03*
Y7888D02*
D03*
Y3065D02*
D03*
X31358Y31116D02*
D03*
X28012D02*
D03*
X25453Y29443D02*
D03*
Y26096D02*
D03*
X28012Y24423D02*
D03*
X25453Y33675D02*
D03*
X28012Y27770D02*
D03*
X25453Y22750D02*
D03*
Y19403D02*
D03*
Y16057D02*
D03*
Y12711D02*
D03*
Y3065D02*
D03*
X41398Y21077D02*
D03*
X36378Y27770D02*
D03*
X31358Y21077D02*
D03*
X28012D02*
D03*
Y17730D02*
D03*
Y14384D02*
D03*
X25453Y7888D02*
D03*
X41398Y14384D02*
D03*
Y27770D02*
D03*
X31358D02*
D03*
D95*
X260743Y19505D02*
D03*
D96*
X249917Y33187D02*
D03*
X251885D02*
D03*
X253854D02*
D03*
X255822D02*
D03*
X257791D02*
D03*
X259759D02*
D03*
X261728D02*
D03*
X263696D02*
D03*
X265665D02*
D03*
X267633D02*
D03*
X269602D02*
D03*
X271570D02*
D03*
Y5824D02*
D03*
X269602D02*
D03*
X267633D02*
D03*
X265665D02*
D03*
X263696D02*
D03*
X261728D02*
D03*
X259759D02*
D03*
X257791D02*
D03*
X255822D02*
D03*
X253854D02*
D03*
X251885D02*
D03*
X249917D02*
D03*
D97*
X274425Y30332D02*
D03*
Y28364D02*
D03*
Y26395D02*
D03*
Y24427D02*
D03*
Y22458D02*
D03*
Y20490D02*
D03*
Y18521D02*
D03*
Y16553D02*
D03*
Y14584D02*
D03*
Y12616D02*
D03*
Y10647D02*
D03*
Y8679D02*
D03*
X247062D02*
D03*
Y10647D02*
D03*
Y12616D02*
D03*
Y14584D02*
D03*
Y16553D02*
D03*
Y18521D02*
D03*
Y20490D02*
D03*
Y22458D02*
D03*
Y24427D02*
D03*
Y26395D02*
D03*
Y28364D02*
D03*
Y30332D02*
D03*
D98*
X69100Y10522D02*
D03*
X64100D02*
D03*
X59100D02*
D03*
Y5522D02*
D03*
X64100D02*
D03*
X69100D02*
D03*
X74100Y8022D02*
D03*
X54100Y4022D02*
D03*
Y12022D02*
D03*
D99*
X294956Y14591D02*
D03*
Y18134D02*
D03*
X232677Y5709D02*
D03*
Y9252D02*
D03*
X231496Y16339D02*
D03*
Y19882D02*
D03*
X263386Y55315D02*
D03*
Y51772D02*
D03*
D100*
X269443Y51253D02*
D03*
X276806D02*
D03*
D101*
X276026Y55780D02*
D03*
X270221D02*
D03*
Y46725D02*
D03*
X276026D02*
D03*
D102*
X274164Y38446D02*
D03*
X267864D02*
D03*
X197364Y29155D02*
D03*
X203663D02*
D03*
X197364Y23855D02*
D03*
X203663D02*
D03*
X186363Y44465D02*
D03*
X180064D02*
D03*
X186363Y49765D02*
D03*
X180064D02*
D03*
X31890Y87008D02*
D03*
X38189D02*
D03*
D103*
X250727Y52485D02*
D03*
Y54454D02*
D03*
Y56422D02*
D03*
X51966Y77953D02*
D03*
Y79921D02*
D03*
Y81890D02*
D03*
X209613Y49696D02*
D03*
Y51665D02*
D03*
Y53633D02*
D03*
D104*
X63585Y67658D02*
D03*
X65553D02*
D03*
X67522D02*
D03*
X69490D02*
D03*
Y74075D02*
D03*
X67522D02*
D03*
X65553D02*
D03*
X63585D02*
D03*
D105*
X69746Y69882D02*
D03*
Y71850D02*
D03*
X63329Y69882D02*
D03*
Y71850D02*
D03*
D106*
X17772Y76560D02*
D03*
Y69867D02*
D03*
D107*
X39056Y65332D02*
D03*
Y71040D02*
D03*
D108*
X31309Y68758D02*
D03*
X29340D02*
D03*
X27372D02*
D03*
X25403D02*
D03*
Y57813D02*
D03*
X27372D02*
D03*
X29340D02*
D03*
X31309D02*
D03*
D109*
X22884Y66239D02*
D03*
Y64270D02*
D03*
Y62302D02*
D03*
Y60333D02*
D03*
X33828D02*
D03*
Y62302D02*
D03*
Y64270D02*
D03*
Y66239D02*
D03*
D110*
X28356Y63286D02*
D03*
D111*
X210865Y16497D02*
D03*
Y15119D02*
D03*
Y13741D02*
D03*
X214802Y15119D02*
D03*
Y13741D02*
D03*
Y16497D02*
D03*
D112*
X220752Y50485D02*
D03*
X215437D02*
D03*
D113*
X226398Y39313D02*
D03*
X224429D02*
D03*
X222461D02*
D03*
X226398Y41281D02*
D03*
X224429D02*
D03*
X222461D02*
D03*
X226398Y43250D02*
D03*
X224429D02*
D03*
X222461D02*
D03*
D114*
X172400Y13998D02*
D03*
Y16202D02*
D03*
X167018Y4102D02*
D03*
Y1898D02*
D03*
X20866Y109921D02*
D03*
Y112126D02*
D03*
D115*
X164459Y11728D02*
D03*
D116*
X161900Y16255D02*
D03*
X164459D02*
D03*
X167018D02*
D03*
Y7200D02*
D03*
X164459D02*
D03*
X161900D02*
D03*
D117*
X180032Y22285D02*
D03*
X182000D02*
D03*
X183969D02*
D03*
X185937D02*
D03*
X187906D02*
D03*
X189874D02*
D03*
X191843D02*
D03*
X180032Y33702D02*
D03*
X182000D02*
D03*
X183969D02*
D03*
X185937D02*
D03*
X187906D02*
D03*
X189874D02*
D03*
X191843D02*
D03*
D118*
X185937Y27993D02*
D03*
D119*
X187448Y10356D02*
D03*
X196779D02*
D03*
D120*
X156752Y46850D02*
D03*
X148760D02*
D03*
D121*
X155423Y36824D02*
D03*
X153652D02*
D03*
X151880D02*
D03*
X150108D02*
D03*
X155423Y25800D02*
D03*
X153652D02*
D03*
X151880D02*
D03*
X150108D02*
D03*
D122*
X152766Y31312D02*
D03*
D123*
X205882Y53450D02*
D03*
X203913D02*
D03*
X201945D02*
D03*
X27953Y97244D02*
D03*
X29921D02*
D03*
X31890D02*
D03*
X144569Y80200D02*
D03*
X142600D02*
D03*
X140631D02*
D03*
D124*
X31988Y92520D02*
D03*
X34941D02*
D03*
D125*
X6791Y112008D02*
D03*
Y104528D02*
D03*
X16831Y108268D02*
D03*
D126*
X357549Y93300D02*
D03*
X138514D02*
D03*
D127*
X326960Y39021D02*
D03*
X308268Y16945D02*
D03*
X245860Y37700D02*
D03*
X251060D02*
D03*
X307087Y4331D02*
D03*
X230094Y41281D02*
D03*
X221654Y33858D02*
D03*
X240158Y52756D02*
D03*
D128*
X56181Y94488D02*
D03*
X46181D02*
D03*
D129*
X299600Y53723D02*
D03*
X302356D02*
D03*
X299600Y50967D02*
D03*
X302356D02*
D03*
X299600Y42700D02*
D03*
Y45456D02*
D03*
X302356Y42700D02*
D03*
Y45456D02*
D03*
X310624Y42700D02*
D03*
X307868D02*
D03*
X310624Y45456D02*
D03*
X307868D02*
D03*
X310624Y53723D02*
D03*
X307868D02*
D03*
X310624Y50967D02*
D03*
X307868D02*
D03*
X310624Y48212D02*
D03*
X307868D02*
D03*
X299600D02*
D03*
X302356D02*
D03*
X305112Y53723D02*
D03*
Y50967D02*
D03*
Y42700D02*
D03*
Y45456D02*
D03*
Y48212D02*
D03*
D130*
X360236Y19685D02*
D03*
X423228Y19685D02*
D03*
D131*
X212205Y41732D02*
D03*
X268618Y11631D02*
D03*
X264680D02*
D03*
X260743D02*
D03*
X256806D02*
D03*
X252869D02*
D03*
X268618Y15568D02*
D03*
X264680D02*
D03*
X260743D02*
D03*
X256806D02*
D03*
X252869D02*
D03*
X268618Y19505D02*
D03*
X264680D02*
D03*
X260743D02*
D03*
X256806D02*
D03*
X252869D02*
D03*
X268618Y23442D02*
D03*
X264680D02*
D03*
X260743D02*
D03*
X256806D02*
D03*
X252869D02*
D03*
X268618Y27380D02*
D03*
X264680D02*
D03*
X260743D02*
D03*
X256806D02*
D03*
X252869D02*
D03*
X28356Y63286D02*
D03*
X182000Y26025D02*
D03*
Y29962D02*
D03*
X185937Y26025D02*
D03*
Y29962D02*
D03*
X189874Y26025D02*
D03*
Y29962D02*
D03*
D132*
X435039Y66929D02*
D03*
D133*
X164459Y11728D02*
D03*
X152766Y33280D02*
D03*
Y29343D02*
D03*
M02*
