G04*
G04 #@! TF.GenerationSoftware,Altium Limited,Altium NEXUS,3.1.14 (81)*
G04*
G04 Layer_Color=32768*
%FSLAX25Y25*%
%MOIN*%
G70*
G04*
G04 #@! TF.SameCoordinates,8D934BE8-6637-419B-8715-06A4025A7093*
G04*
G04*
G04 #@! TF.FilePolarity,Positive*
G04*
G01*
G75*
%ADD10C,0.00394*%
%ADD11C,0.00787*%
%ADD12C,0.00600*%
%ADD17C,0.00800*%
%ADD18C,0.00197*%
%ADD20C,0.00295*%
%ADD21C,0.00500*%
%ADD176C,0.00472*%
%ADD177C,0.00300*%
%ADD178C,0.00200*%
%ADD179C,0.00250*%
%ADD180C,0.00276*%
G36*
X32921Y98744D02*
Y95744D01*
X30921D01*
Y98744D01*
X32921D01*
D02*
G37*
G36*
X53466Y76921D02*
X50466D01*
Y78921D01*
X53466D01*
Y76921D01*
D02*
G37*
G36*
X139600Y78700D02*
Y81700D01*
X141600D01*
Y78700D01*
X139600D01*
D02*
G37*
G36*
X200913Y51950D02*
Y54950D01*
X202913D01*
Y51950D01*
X200913D01*
D02*
G37*
G36*
X208113Y54665D02*
X211113D01*
Y52665D01*
X208113D01*
Y54665D01*
D02*
G37*
G36*
X252227Y51454D02*
X249227D01*
Y53454D01*
X252227D01*
Y51454D01*
D02*
G37*
G36*
X173072Y15098D02*
X173090D01*
X173108Y15096D01*
X173132Y15094D01*
X173155Y15091D01*
X173208Y15082D01*
X173266Y15069D01*
X173325Y15051D01*
X173381Y15025D01*
X173383Y15024D01*
X173388Y15022D01*
X173396Y15018D01*
X173405Y15011D01*
X173417Y15003D01*
X173432Y14994D01*
X173465Y14971D01*
X173501Y14940D01*
X173538Y14903D01*
X173574Y14862D01*
X173605Y14812D01*
X173607Y14811D01*
X173609Y14805D01*
X173612Y14798D01*
X173618Y14789D01*
X173623Y14774D01*
X173628Y14760D01*
X173636Y14741D01*
X173643Y14721D01*
X173650Y14700D01*
X173658Y14676D01*
X173669Y14625D01*
X173678Y14567D01*
X173681Y14507D01*
Y14489D01*
X173679Y14476D01*
X173678Y14459D01*
X173676Y14439D01*
X173674Y14419D01*
X173669Y14396D01*
X173658Y14346D01*
X173641Y14292D01*
X173630Y14265D01*
X173618Y14239D01*
X173601Y14214D01*
X173585Y14188D01*
X173583Y14186D01*
X173581Y14183D01*
X173576Y14175D01*
X173567Y14166D01*
X173557Y14157D01*
X173545Y14144D01*
X173530Y14132D01*
X173516Y14117D01*
X173497Y14103D01*
X173476Y14088D01*
X173454Y14072D01*
X173430Y14057D01*
X173403Y14044D01*
X173375Y14030D01*
X173346Y14019D01*
X173314Y14008D01*
X173275Y14172D01*
X173277D01*
X173281Y14174D01*
X173288Y14177D01*
X173297Y14181D01*
X173308Y14185D01*
X173323Y14190D01*
X173352Y14205D01*
X173385Y14223D01*
X173417Y14245D01*
X173448Y14272D01*
X173476Y14301D01*
X173479Y14305D01*
X173486Y14316D01*
X173496Y14334D01*
X173508Y14357D01*
X173519Y14388D01*
X173530Y14423D01*
X173538Y14465D01*
X173539Y14510D01*
Y14525D01*
X173538Y14534D01*
Y14547D01*
X173536Y14561D01*
X173530Y14596D01*
X173523Y14634D01*
X173510Y14674D01*
X173492Y14716D01*
X173468Y14754D01*
Y14756D01*
X173465Y14758D01*
X173456Y14771D01*
X173441Y14787D01*
X173419Y14807D01*
X173392Y14831D01*
X173361Y14852D01*
X173323Y14873D01*
X173281Y14891D01*
X173279D01*
X173275Y14893D01*
X173270Y14894D01*
X173261Y14896D01*
X173250Y14900D01*
X173237Y14903D01*
X173206Y14909D01*
X173170Y14916D01*
X173130Y14923D01*
X173086Y14927D01*
X173039Y14929D01*
X173037D01*
X173031D01*
X173022D01*
X173012D01*
X172999Y14927D01*
X172982D01*
X172964Y14925D01*
X172944Y14923D01*
X172900Y14918D01*
X172853Y14909D01*
X172806Y14898D01*
X172758Y14883D01*
X172757D01*
X172753Y14882D01*
X172748Y14878D01*
X172739Y14874D01*
X172717Y14863D01*
X172691Y14847D01*
X172662Y14827D01*
X172631Y14802D01*
X172604Y14772D01*
X172578Y14738D01*
Y14736D01*
X172576Y14732D01*
X172573Y14727D01*
X172569Y14720D01*
X172566Y14710D01*
X172560Y14700D01*
X172549Y14674D01*
X172538Y14641D01*
X172529Y14605D01*
X172522Y14565D01*
X172520Y14523D01*
Y14510D01*
X172522Y14499D01*
Y14487D01*
X172524Y14474D01*
X172531Y14441D01*
X172540Y14403D01*
X172555Y14365D01*
X172575Y14325D01*
X172586Y14305D01*
X172600Y14287D01*
X172602Y14285D01*
X172604Y14283D01*
X172609Y14277D01*
X172615Y14270D01*
X172624Y14263D01*
X172635Y14254D01*
X172646Y14243D01*
X172660Y14234D01*
X172677Y14223D01*
X172695Y14210D01*
X172713Y14199D01*
X172735Y14188D01*
X172758Y14179D01*
X172784Y14170D01*
X172811Y14161D01*
X172840Y14154D01*
X172799Y13986D01*
X172797D01*
X172790Y13988D01*
X172779Y13992D01*
X172764Y13997D01*
X172748Y14003D01*
X172728Y14010D01*
X172706Y14019D01*
X172682Y14030D01*
X172631Y14055D01*
X172580Y14088D01*
X172555Y14108D01*
X172529Y14128D01*
X172507Y14150D01*
X172485Y14175D01*
X172484Y14177D01*
X172480Y14181D01*
X172476Y14190D01*
X172469Y14199D01*
X172460Y14214D01*
X172451Y14228D01*
X172442Y14248D01*
X172433Y14268D01*
X172422Y14292D01*
X172413Y14317D01*
X172404Y14345D01*
X172395Y14374D01*
X172387Y14405D01*
X172384Y14437D01*
X172380Y14472D01*
X172378Y14509D01*
Y14528D01*
X172380Y14543D01*
Y14559D01*
X172382Y14580D01*
X172385Y14601D01*
X172389Y14627D01*
X172398Y14680D01*
X172413Y14734D01*
X172433Y14789D01*
X172445Y14814D01*
X172460Y14840D01*
X172462Y14842D01*
X172464Y14845D01*
X172469Y14852D01*
X172476Y14860D01*
X172484Y14871D01*
X172495Y14883D01*
X172507Y14898D01*
X172522Y14912D01*
X172538Y14927D01*
X172555Y14943D01*
X172597Y14976D01*
X172646Y15007D01*
X172700Y15034D01*
X172702D01*
X172708Y15038D01*
X172717Y15040D01*
X172728Y15045D01*
X172742Y15049D01*
X172760Y15055D01*
X172780Y15062D01*
X172802Y15067D01*
X172826Y15073D01*
X172853Y15080D01*
X172910Y15089D01*
X172973Y15096D01*
X173039Y15100D01*
X173041D01*
X173048D01*
X173059D01*
X173072Y15098D01*
D02*
G37*
G36*
X173022Y13850D02*
X173048D01*
X173077Y13848D01*
X173112Y13844D01*
X173150Y13841D01*
X173192Y13835D01*
X173234Y13828D01*
X173279Y13819D01*
X173323Y13808D01*
X173366Y13795D01*
X173408Y13779D01*
X173448Y13760D01*
X173486Y13740D01*
X173519Y13717D01*
X173521Y13715D01*
X173525Y13711D01*
X173532Y13704D01*
X173543Y13695D01*
X173554Y13684D01*
X173565Y13669D01*
X173579Y13651D01*
X173592Y13633D01*
X173605Y13611D01*
X173619Y13588D01*
X173630Y13560D01*
X173643Y13533D01*
X173652Y13502D01*
X173659Y13469D01*
X173663Y13435D01*
X173665Y13398D01*
Y13384D01*
X173663Y13373D01*
Y13360D01*
X173661Y13345D01*
X173654Y13311D01*
X173645Y13273D01*
X173630Y13233D01*
X173609Y13193D01*
X173596Y13173D01*
X173581Y13154D01*
X173579Y13153D01*
X173577Y13151D01*
X173572Y13145D01*
X173567Y13140D01*
X173557Y13131D01*
X173547Y13124D01*
X173521Y13104D01*
X173488Y13083D01*
X173448Y13065D01*
X173403Y13049D01*
X173352Y13038D01*
X173339Y13193D01*
X173341D01*
X173343Y13194D01*
X173354Y13196D01*
X173370Y13202D01*
X173390Y13209D01*
X173412Y13216D01*
X173434Y13227D01*
X173454Y13240D01*
X173470Y13253D01*
X173474Y13256D01*
X173481Y13264D01*
X173492Y13276D01*
X173505Y13295D01*
X173516Y13318D01*
X173527Y13344D01*
X173534Y13375D01*
X173538Y13407D01*
Y13420D01*
X173536Y13435D01*
X173532Y13451D01*
X173527Y13473D01*
X173519Y13495D01*
X173510Y13517D01*
X173496Y13538D01*
X173494Y13542D01*
X173486Y13551D01*
X173474Y13564D01*
X173456Y13580D01*
X173434Y13599D01*
X173408Y13619D01*
X173375Y13637D01*
X173339Y13655D01*
X173337D01*
X173334Y13657D01*
X173328Y13659D01*
X173321Y13662D01*
X173310Y13664D01*
X173297Y13668D01*
X173283Y13671D01*
X173265Y13675D01*
X173245Y13680D01*
X173223Y13684D01*
X173199Y13688D01*
X173173Y13690D01*
X173144Y13693D01*
X173115Y13695D01*
X173082Y13697D01*
X173050D01*
X173052Y13695D01*
X173063Y13688D01*
X173077Y13675D01*
X173095Y13659D01*
X173117Y13640D01*
X173137Y13617D01*
X173157Y13591D01*
X173175Y13562D01*
Y13560D01*
X173177Y13558D01*
X173183Y13547D01*
X173188Y13531D01*
X173197Y13509D01*
X173204Y13484D01*
X173210Y13455D01*
X173215Y13424D01*
X173217Y13391D01*
Y13376D01*
X173215Y13365D01*
X173214Y13351D01*
X173212Y13336D01*
X173208Y13318D01*
X173203Y13300D01*
X173190Y13258D01*
X173181Y13236D01*
X173168Y13215D01*
X173155Y13193D01*
X173141Y13169D01*
X173123Y13147D01*
X173102Y13127D01*
X173101Y13125D01*
X173097Y13122D01*
X173092Y13116D01*
X173082Y13111D01*
X173070Y13102D01*
X173057Y13092D01*
X173041Y13083D01*
X173022Y13072D01*
X173002Y13062D01*
X172981Y13052D01*
X172955Y13043D01*
X172930Y13034D01*
X172902Y13029D01*
X172871Y13023D01*
X172840Y13020D01*
X172808Y13018D01*
X172806D01*
X172802D01*
X172797D01*
X172788D01*
X172777Y13020D01*
X172766D01*
X172737Y13025D01*
X172702Y13031D01*
X172666Y13040D01*
X172626Y13052D01*
X172588Y13071D01*
X172586D01*
X172584Y13072D01*
X172578Y13076D01*
X172571Y13080D01*
X172553Y13091D01*
X172529Y13107D01*
X172504Y13127D01*
X172478Y13151D01*
X172453Y13180D01*
X172431Y13211D01*
Y13213D01*
X172429Y13215D01*
X172425Y13220D01*
X172424Y13227D01*
X172415Y13245D01*
X172406Y13269D01*
X172395Y13300D01*
X172387Y13335D01*
X172380Y13373D01*
X172378Y13415D01*
Y13424D01*
X172380Y13433D01*
Y13447D01*
X172382Y13464D01*
X172385Y13482D01*
X172391Y13504D01*
X172396Y13526D01*
X172404Y13551D01*
X172413Y13577D01*
X172424Y13602D01*
X172438Y13629D01*
X172455Y13655D01*
X172473Y13680D01*
X172495Y13706D01*
X172520Y13729D01*
X172522Y13731D01*
X172527Y13735D01*
X172535Y13740D01*
X172547Y13748D01*
X172564Y13759D01*
X172582Y13768D01*
X172606Y13779D01*
X172631Y13790D01*
X172662Y13802D01*
X172697Y13813D01*
X172735Y13822D01*
X172777Y13832D01*
X172824Y13841D01*
X172875Y13846D01*
X172930Y13850D01*
X172988Y13851D01*
X172990D01*
X172992D01*
X172997D01*
X173004D01*
X173022Y13850D01*
D02*
G37*
G36*
X173643Y12039D02*
X173521D01*
X173519Y12041D01*
X173516Y12044D01*
X173508Y12051D01*
X173497Y12059D01*
X173485Y12070D01*
X173470Y12084D01*
X173452Y12099D01*
X173430Y12115D01*
X173408Y12132D01*
X173383Y12152D01*
X173354Y12172D01*
X173325Y12192D01*
X173292Y12213D01*
X173257Y12235D01*
X173219Y12257D01*
X173181Y12279D01*
X173179Y12281D01*
X173172Y12285D01*
X173161Y12290D01*
X173144Y12299D01*
X173124Y12308D01*
X173102Y12319D01*
X173077Y12332D01*
X173048Y12344D01*
X173015Y12359D01*
X172982Y12376D01*
X172946Y12390D01*
X172908Y12405D01*
X172829Y12434D01*
X172746Y12461D01*
X172744D01*
X172739Y12463D01*
X172729Y12465D01*
X172719Y12468D01*
X172704Y12472D01*
X172686Y12476D01*
X172666Y12481D01*
X172644Y12485D01*
X172618Y12490D01*
X172591Y12496D01*
X172533Y12505D01*
X172469Y12514D01*
X172400Y12519D01*
Y12678D01*
X172402D01*
X172407D01*
X172415D01*
X172425Y12676D01*
X172440D01*
X172458Y12674D01*
X172478Y12672D01*
X172500Y12670D01*
X172526Y12667D01*
X172551Y12663D01*
X172582Y12658D01*
X172613Y12652D01*
X172646Y12647D01*
X172682Y12639D01*
X172757Y12621D01*
X172758D01*
X172766Y12619D01*
X172777Y12616D01*
X172793Y12610D01*
X172811Y12605D01*
X172833Y12597D01*
X172859Y12590D01*
X172886Y12579D01*
X172917Y12568D01*
X172948Y12558D01*
X173017Y12530D01*
X173090Y12497D01*
X173163Y12461D01*
X173164Y12459D01*
X173172Y12455D01*
X173181Y12450D01*
X173195Y12443D01*
X173212Y12434D01*
X173232Y12421D01*
X173254Y12408D01*
X173277Y12394D01*
X173330Y12359D01*
X173385Y12323D01*
X173441Y12281D01*
X173494Y12237D01*
Y12854D01*
X173643D01*
Y12039D01*
D02*
G37*
G36*
X166687Y6061D02*
X166700Y6059D01*
X166716Y6058D01*
X166734Y6054D01*
X166754Y6049D01*
X166796Y6036D01*
X166820Y6027D01*
X166842Y6014D01*
X166865Y6001D01*
X166887Y5987D01*
X166909Y5968D01*
X166931Y5948D01*
X166933Y5947D01*
X166936Y5943D01*
X166942Y5937D01*
X166947Y5928D01*
X166956Y5916D01*
X166965Y5903D01*
X166974Y5886D01*
X166985Y5868D01*
X166996Y5848D01*
X167005Y5825D01*
X167015Y5799D01*
X167024Y5774D01*
X167029Y5745D01*
X167034Y5714D01*
X167038Y5683D01*
X167040Y5648D01*
Y5630D01*
X167038Y5617D01*
X167036Y5601D01*
X167034Y5583D01*
X167031Y5563D01*
X167025Y5541D01*
X167013Y5492D01*
X167004Y5466D01*
X166995Y5442D01*
X166982Y5417D01*
X166967Y5392D01*
X166951Y5368D01*
X166931Y5346D01*
X166929Y5344D01*
X166925Y5341D01*
X166920Y5335D01*
X166911Y5328D01*
X166900Y5320D01*
X166887Y5310D01*
X166873Y5300D01*
X166854Y5290D01*
X166836Y5279D01*
X166814Y5269D01*
X166769Y5251D01*
X166742Y5244D01*
X166714Y5239D01*
X166685Y5235D01*
X166656Y5233D01*
X166654D01*
X166650D01*
X166643D01*
X166636Y5235D01*
X166625D01*
X166612Y5237D01*
X166583Y5240D01*
X166550Y5248D01*
X166518Y5259D01*
X166483Y5275D01*
X166450Y5295D01*
X166448D01*
X166447Y5299D01*
X166437Y5306D01*
X166423Y5320D01*
X166405Y5341D01*
X166387Y5366D01*
X166367Y5397D01*
X166350Y5432D01*
X166337Y5473D01*
Y5472D01*
X166336Y5470D01*
X166334Y5464D01*
X166330Y5457D01*
X166323Y5441D01*
X166312Y5419D01*
X166297Y5395D01*
X166279Y5372D01*
X166259Y5350D01*
X166237Y5330D01*
X166234Y5328D01*
X166226Y5322D01*
X166212Y5315D01*
X166194Y5308D01*
X166170Y5299D01*
X166143Y5291D01*
X166112Y5286D01*
X166079Y5284D01*
X166077D01*
X166074D01*
X166066D01*
X166055Y5286D01*
X166044Y5288D01*
X166030Y5290D01*
X165999Y5297D01*
X165963Y5308D01*
X165924Y5326D01*
X165904Y5337D01*
X165884Y5350D01*
X165866Y5366D01*
X165848Y5382D01*
X165846Y5384D01*
X165844Y5388D01*
X165839Y5393D01*
X165833Y5401D01*
X165826Y5410D01*
X165819Y5422D01*
X165810Y5437D01*
X165800Y5452D01*
X165791Y5470D01*
X165782Y5490D01*
X165775Y5512D01*
X165768Y5535D01*
X165757Y5586D01*
X165755Y5615D01*
X165753Y5644D01*
Y5661D01*
X165755Y5672D01*
X165757Y5686D01*
X165759Y5703D01*
X165761Y5721D01*
X165766Y5739D01*
X165777Y5783D01*
X165793Y5827D01*
X165804Y5848D01*
X165817Y5870D01*
X165833Y5890D01*
X165850Y5910D01*
X165851Y5912D01*
X165853Y5914D01*
X165859Y5919D01*
X165866Y5927D01*
X165877Y5934D01*
X165888Y5943D01*
X165915Y5961D01*
X165950Y5979D01*
X165990Y5996D01*
X166035Y6008D01*
X166059Y6010D01*
X166084Y6012D01*
X166086D01*
X166088D01*
X166099D01*
X166115Y6010D01*
X166135Y6007D01*
X166161Y6001D01*
X166186Y5992D01*
X166212Y5981D01*
X166237Y5965D01*
X166241Y5963D01*
X166248Y5956D01*
X166259Y5945D01*
X166274Y5930D01*
X166290Y5910D01*
X166306Y5886D01*
X166323Y5859D01*
X166337Y5827D01*
Y5828D01*
X166339Y5832D01*
X166341Y5837D01*
X166345Y5845D01*
X166354Y5866D01*
X166367Y5892D01*
X166385Y5919D01*
X166405Y5948D01*
X166430Y5976D01*
X166459Y6001D01*
X166461D01*
X166463Y6003D01*
X166474Y6010D01*
X166492Y6021D01*
X166516Y6032D01*
X166545Y6043D01*
X166579Y6054D01*
X166618Y6061D01*
X166660Y6063D01*
X166661D01*
X166667D01*
X166676D01*
X166687Y6061D01*
D02*
G37*
G36*
X166641Y5080D02*
X166652D01*
X166681Y5075D01*
X166716Y5069D01*
X166752Y5060D01*
X166792Y5048D01*
X166831Y5029D01*
X166832D01*
X166834Y5028D01*
X166840Y5024D01*
X166847Y5020D01*
X166865Y5009D01*
X166889Y4993D01*
X166914Y4973D01*
X166940Y4949D01*
X166965Y4920D01*
X166987Y4889D01*
Y4887D01*
X166989Y4885D01*
X166993Y4880D01*
X166995Y4873D01*
X167004Y4855D01*
X167013Y4831D01*
X167024Y4800D01*
X167031Y4765D01*
X167038Y4727D01*
X167040Y4685D01*
Y4676D01*
X167038Y4667D01*
Y4653D01*
X167036Y4636D01*
X167033Y4618D01*
X167027Y4596D01*
X167022Y4574D01*
X167015Y4549D01*
X167005Y4523D01*
X166995Y4498D01*
X166980Y4471D01*
X166964Y4445D01*
X166945Y4420D01*
X166923Y4394D01*
X166898Y4371D01*
X166896Y4369D01*
X166891Y4365D01*
X166883Y4360D01*
X166871Y4352D01*
X166854Y4341D01*
X166836Y4332D01*
X166812Y4321D01*
X166787Y4310D01*
X166756Y4298D01*
X166721Y4287D01*
X166683Y4278D01*
X166641Y4268D01*
X166594Y4259D01*
X166543Y4254D01*
X166489Y4250D01*
X166430Y4248D01*
X166428D01*
X166427D01*
X166421D01*
X166414D01*
X166396Y4250D01*
X166370D01*
X166341Y4252D01*
X166306Y4256D01*
X166268Y4259D01*
X166226Y4265D01*
X166184Y4272D01*
X166139Y4281D01*
X166095Y4292D01*
X166052Y4305D01*
X166010Y4321D01*
X165970Y4340D01*
X165932Y4360D01*
X165899Y4383D01*
X165897Y4385D01*
X165893Y4389D01*
X165886Y4396D01*
X165875Y4405D01*
X165864Y4416D01*
X165853Y4431D01*
X165839Y4449D01*
X165826Y4467D01*
X165813Y4489D01*
X165799Y4512D01*
X165788Y4540D01*
X165775Y4567D01*
X165766Y4598D01*
X165759Y4631D01*
X165755Y4665D01*
X165753Y4702D01*
Y4716D01*
X165755Y4727D01*
Y4740D01*
X165757Y4755D01*
X165764Y4789D01*
X165773Y4827D01*
X165788Y4867D01*
X165810Y4907D01*
X165822Y4927D01*
X165837Y4946D01*
X165839Y4947D01*
X165841Y4949D01*
X165846Y4955D01*
X165851Y4960D01*
X165861Y4969D01*
X165872Y4976D01*
X165897Y4997D01*
X165930Y5017D01*
X165970Y5035D01*
X166015Y5051D01*
X166066Y5062D01*
X166079Y4907D01*
X166077D01*
X166075Y4905D01*
X166064Y4904D01*
X166048Y4898D01*
X166028Y4891D01*
X166006Y4884D01*
X165984Y4873D01*
X165964Y4860D01*
X165948Y4847D01*
X165944Y4844D01*
X165937Y4836D01*
X165926Y4824D01*
X165913Y4805D01*
X165902Y4782D01*
X165892Y4756D01*
X165884Y4725D01*
X165881Y4693D01*
Y4680D01*
X165882Y4665D01*
X165886Y4649D01*
X165892Y4627D01*
X165899Y4605D01*
X165908Y4583D01*
X165922Y4562D01*
X165924Y4558D01*
X165932Y4549D01*
X165944Y4536D01*
X165963Y4520D01*
X165984Y4501D01*
X166010Y4482D01*
X166043Y4463D01*
X166079Y4445D01*
X166081D01*
X166084Y4443D01*
X166090Y4441D01*
X166097Y4438D01*
X166108Y4436D01*
X166121Y4432D01*
X166135Y4429D01*
X166154Y4425D01*
X166174Y4420D01*
X166195Y4416D01*
X166219Y4412D01*
X166245Y4411D01*
X166274Y4407D01*
X166303Y4405D01*
X166336Y4403D01*
X166368D01*
X166367Y4405D01*
X166356Y4412D01*
X166341Y4425D01*
X166323Y4441D01*
X166301Y4460D01*
X166281Y4483D01*
X166261Y4509D01*
X166243Y4538D01*
Y4540D01*
X166241Y4541D01*
X166235Y4552D01*
X166230Y4569D01*
X166221Y4591D01*
X166214Y4616D01*
X166208Y4645D01*
X166203Y4676D01*
X166201Y4709D01*
Y4724D01*
X166203Y4735D01*
X166205Y4749D01*
X166206Y4764D01*
X166210Y4782D01*
X166216Y4800D01*
X166228Y4842D01*
X166237Y4864D01*
X166250Y4885D01*
X166263Y4907D01*
X166277Y4931D01*
X166296Y4953D01*
X166316Y4973D01*
X166317Y4975D01*
X166321Y4978D01*
X166326Y4984D01*
X166336Y4989D01*
X166348Y4998D01*
X166361Y5007D01*
X166377Y5017D01*
X166396Y5028D01*
X166416Y5038D01*
X166437Y5048D01*
X166463Y5057D01*
X166489Y5066D01*
X166516Y5071D01*
X166547Y5077D01*
X166578Y5080D01*
X166610Y5082D01*
X166612D01*
X166616D01*
X166621D01*
X166630D01*
X166641Y5080D01*
D02*
G37*
G36*
X166629Y4112D02*
X166640Y4108D01*
X166654Y4103D01*
X166671Y4098D01*
X166691Y4090D01*
X166712Y4081D01*
X166736Y4070D01*
X166787Y4045D01*
X166838Y4012D01*
X166863Y3992D01*
X166889Y3972D01*
X166911Y3950D01*
X166933Y3925D01*
X166934Y3923D01*
X166938Y3919D01*
X166942Y3910D01*
X166949Y3901D01*
X166958Y3886D01*
X166967Y3872D01*
X166976Y3852D01*
X166985Y3832D01*
X166996Y3808D01*
X167005Y3783D01*
X167015Y3755D01*
X167024Y3726D01*
X167031Y3695D01*
X167034Y3663D01*
X167038Y3628D01*
X167040Y3591D01*
Y3571D01*
X167038Y3557D01*
Y3540D01*
X167036Y3520D01*
X167033Y3499D01*
X167029Y3473D01*
X167020Y3420D01*
X167005Y3366D01*
X166985Y3311D01*
X166973Y3286D01*
X166958Y3260D01*
X166956Y3258D01*
X166954Y3255D01*
X166949Y3247D01*
X166942Y3240D01*
X166934Y3229D01*
X166923Y3217D01*
X166911Y3202D01*
X166896Y3187D01*
X166880Y3173D01*
X166863Y3156D01*
X166822Y3124D01*
X166772Y3093D01*
X166718Y3066D01*
X166716D01*
X166710Y3062D01*
X166701Y3060D01*
X166691Y3055D01*
X166676Y3051D01*
X166658Y3046D01*
X166638Y3038D01*
X166616Y3033D01*
X166592Y3027D01*
X166565Y3020D01*
X166508Y3011D01*
X166445Y3004D01*
X166379Y3000D01*
X166377D01*
X166370D01*
X166359D01*
X166347Y3002D01*
X166328D01*
X166310Y3004D01*
X166287Y3005D01*
X166263Y3009D01*
X166210Y3018D01*
X166152Y3031D01*
X166094Y3049D01*
X166037Y3075D01*
X166035Y3076D01*
X166030Y3078D01*
X166023Y3082D01*
X166014Y3089D01*
X166001Y3097D01*
X165986Y3106D01*
X165953Y3129D01*
X165917Y3160D01*
X165881Y3197D01*
X165844Y3238D01*
X165813Y3288D01*
X165811Y3289D01*
X165810Y3295D01*
X165806Y3302D01*
X165800Y3311D01*
X165795Y3326D01*
X165790Y3340D01*
X165782Y3359D01*
X165775Y3379D01*
X165768Y3400D01*
X165761Y3424D01*
X165750Y3475D01*
X165741Y3533D01*
X165737Y3593D01*
Y3611D01*
X165739Y3624D01*
X165741Y3641D01*
X165742Y3661D01*
X165744Y3681D01*
X165750Y3704D01*
X165761Y3754D01*
X165777Y3808D01*
X165788Y3835D01*
X165800Y3861D01*
X165817Y3886D01*
X165833Y3912D01*
X165835Y3914D01*
X165837Y3917D01*
X165842Y3925D01*
X165851Y3934D01*
X165861Y3943D01*
X165873Y3955D01*
X165888Y3968D01*
X165902Y3983D01*
X165921Y3997D01*
X165943Y4012D01*
X165964Y4028D01*
X165988Y4043D01*
X166015Y4056D01*
X166043Y4070D01*
X166072Y4081D01*
X166104Y4092D01*
X166143Y3928D01*
X166141D01*
X166137Y3926D01*
X166130Y3923D01*
X166121Y3919D01*
X166110Y3915D01*
X166095Y3910D01*
X166066Y3895D01*
X166033Y3877D01*
X166001Y3855D01*
X165970Y3828D01*
X165943Y3799D01*
X165939Y3795D01*
X165932Y3784D01*
X165922Y3766D01*
X165910Y3743D01*
X165899Y3712D01*
X165888Y3677D01*
X165881Y3635D01*
X165879Y3590D01*
Y3575D01*
X165881Y3566D01*
Y3553D01*
X165882Y3539D01*
X165888Y3504D01*
X165895Y3466D01*
X165908Y3426D01*
X165926Y3384D01*
X165950Y3346D01*
Y3344D01*
X165953Y3342D01*
X165963Y3329D01*
X165977Y3313D01*
X165999Y3293D01*
X166026Y3269D01*
X166057Y3247D01*
X166095Y3227D01*
X166137Y3209D01*
X166139D01*
X166143Y3207D01*
X166148Y3206D01*
X166157Y3204D01*
X166168Y3200D01*
X166181Y3197D01*
X166212Y3191D01*
X166248Y3184D01*
X166288Y3176D01*
X166332Y3173D01*
X166379Y3171D01*
X166381D01*
X166387D01*
X166396D01*
X166407D01*
X166419Y3173D01*
X166436D01*
X166454Y3175D01*
X166474Y3176D01*
X166518Y3182D01*
X166565Y3191D01*
X166612Y3202D01*
X166660Y3217D01*
X166661D01*
X166665Y3218D01*
X166671Y3222D01*
X166680Y3226D01*
X166701Y3237D01*
X166727Y3253D01*
X166756Y3273D01*
X166787Y3299D01*
X166814Y3328D01*
X166840Y3362D01*
Y3364D01*
X166842Y3368D01*
X166845Y3373D01*
X166849Y3380D01*
X166852Y3390D01*
X166858Y3400D01*
X166869Y3426D01*
X166880Y3459D01*
X166889Y3495D01*
X166896Y3535D01*
X166898Y3577D01*
Y3590D01*
X166896Y3601D01*
Y3613D01*
X166894Y3626D01*
X166887Y3659D01*
X166878Y3697D01*
X166863Y3735D01*
X166843Y3775D01*
X166832Y3795D01*
X166818Y3813D01*
X166816Y3815D01*
X166814Y3817D01*
X166809Y3823D01*
X166803Y3830D01*
X166794Y3837D01*
X166783Y3846D01*
X166772Y3857D01*
X166758Y3866D01*
X166742Y3877D01*
X166723Y3890D01*
X166705Y3901D01*
X166683Y3912D01*
X166660Y3921D01*
X166634Y3930D01*
X166607Y3939D01*
X166578Y3946D01*
X166620Y4114D01*
X166621D01*
X166629Y4112D01*
D02*
G37*
G36*
X21538Y111022D02*
X21556D01*
X21574Y111020D01*
X21598Y111018D01*
X21621Y111014D01*
X21674Y111005D01*
X21733Y110993D01*
X21791Y110975D01*
X21847Y110949D01*
X21849Y110947D01*
X21854Y110945D01*
X21862Y110942D01*
X21871Y110934D01*
X21883Y110927D01*
X21898Y110918D01*
X21931Y110894D01*
X21967Y110863D01*
X22004Y110827D01*
X22040Y110785D01*
X22071Y110736D01*
X22073Y110734D01*
X22075Y110729D01*
X22078Y110722D01*
X22084Y110712D01*
X22089Y110698D01*
X22095Y110683D01*
X22102Y110665D01*
X22109Y110645D01*
X22117Y110623D01*
X22124Y110600D01*
X22135Y110549D01*
X22144Y110490D01*
X22147Y110430D01*
Y110412D01*
X22146Y110399D01*
X22144Y110383D01*
X22142Y110363D01*
X22140Y110343D01*
X22135Y110319D01*
X22124Y110270D01*
X22107Y110215D01*
X22096Y110188D01*
X22084Y110163D01*
X22067Y110137D01*
X22051Y110112D01*
X22049Y110110D01*
X22047Y110106D01*
X22042Y110099D01*
X22033Y110090D01*
X22024Y110081D01*
X22011Y110068D01*
X21996Y110055D01*
X21982Y110041D01*
X21964Y110026D01*
X21942Y110012D01*
X21920Y109995D01*
X21896Y109981D01*
X21869Y109968D01*
X21842Y109953D01*
X21813Y109942D01*
X21780Y109932D01*
X21742Y110095D01*
X21743D01*
X21747Y110097D01*
X21754Y110101D01*
X21763Y110105D01*
X21774Y110108D01*
X21789Y110114D01*
X21818Y110128D01*
X21851Y110146D01*
X21883Y110168D01*
X21914Y110196D01*
X21942Y110225D01*
X21945Y110228D01*
X21953Y110239D01*
X21962Y110257D01*
X21974Y110281D01*
X21985Y110312D01*
X21996Y110347D01*
X22004Y110388D01*
X22005Y110434D01*
Y110449D01*
X22004Y110458D01*
Y110470D01*
X22002Y110485D01*
X21996Y110520D01*
X21989Y110558D01*
X21976Y110598D01*
X21958Y110640D01*
X21935Y110678D01*
Y110680D01*
X21931Y110681D01*
X21922Y110694D01*
X21907Y110711D01*
X21885Y110731D01*
X21858Y110754D01*
X21827Y110776D01*
X21789Y110796D01*
X21747Y110814D01*
X21745D01*
X21742Y110816D01*
X21736Y110818D01*
X21727Y110820D01*
X21716Y110823D01*
X21703Y110827D01*
X21672Y110833D01*
X21636Y110840D01*
X21596Y110847D01*
X21552Y110851D01*
X21505Y110853D01*
X21503D01*
X21498D01*
X21489D01*
X21478D01*
X21465Y110851D01*
X21449D01*
X21430Y110849D01*
X21410Y110847D01*
X21367Y110842D01*
X21319Y110833D01*
X21272Y110822D01*
X21225Y110807D01*
X21223D01*
X21219Y110805D01*
X21214Y110802D01*
X21205Y110798D01*
X21183Y110787D01*
X21157Y110771D01*
X21128Y110751D01*
X21097Y110725D01*
X21070Y110696D01*
X21045Y110661D01*
Y110660D01*
X21043Y110656D01*
X21039Y110651D01*
X21035Y110643D01*
X21032Y110634D01*
X21026Y110623D01*
X21015Y110598D01*
X21004Y110565D01*
X20995Y110529D01*
X20988Y110488D01*
X20986Y110447D01*
Y110434D01*
X20988Y110423D01*
Y110410D01*
X20990Y110398D01*
X20997Y110365D01*
X21006Y110327D01*
X21021Y110288D01*
X21041Y110248D01*
X21052Y110228D01*
X21066Y110210D01*
X21068Y110208D01*
X21070Y110206D01*
X21075Y110201D01*
X21081Y110194D01*
X21090Y110186D01*
X21101Y110177D01*
X21112Y110166D01*
X21126Y110157D01*
X21143Y110146D01*
X21161Y110134D01*
X21179Y110123D01*
X21201Y110112D01*
X21225Y110103D01*
X21250Y110094D01*
X21278Y110084D01*
X21307Y110077D01*
X21265Y109910D01*
X21263D01*
X21256Y109912D01*
X21245Y109915D01*
X21230Y109921D01*
X21214Y109926D01*
X21194Y109933D01*
X21172Y109942D01*
X21148Y109953D01*
X21097Y109979D01*
X21046Y110012D01*
X21021Y110032D01*
X20995Y110052D01*
X20974Y110074D01*
X20952Y110099D01*
X20950Y110101D01*
X20946Y110105D01*
X20943Y110114D01*
X20935Y110123D01*
X20926Y110137D01*
X20917Y110152D01*
X20908Y110172D01*
X20899Y110192D01*
X20888Y110215D01*
X20879Y110241D01*
X20870Y110268D01*
X20861Y110297D01*
X20853Y110328D01*
X20850Y110361D01*
X20846Y110396D01*
X20844Y110432D01*
Y110452D01*
X20846Y110467D01*
Y110483D01*
X20848Y110503D01*
X20852Y110525D01*
X20855Y110550D01*
X20864Y110603D01*
X20879Y110658D01*
X20899Y110712D01*
X20912Y110738D01*
X20926Y110763D01*
X20928Y110765D01*
X20930Y110769D01*
X20935Y110776D01*
X20943Y110783D01*
X20950Y110794D01*
X20961Y110807D01*
X20974Y110822D01*
X20988Y110836D01*
X21004Y110851D01*
X21021Y110867D01*
X21063Y110900D01*
X21112Y110931D01*
X21166Y110958D01*
X21168D01*
X21174Y110962D01*
X21183Y110964D01*
X21194Y110969D01*
X21208Y110973D01*
X21226Y110978D01*
X21247Y110985D01*
X21268Y110991D01*
X21292Y110996D01*
X21319Y111004D01*
X21376Y111013D01*
X21439Y111020D01*
X21505Y111024D01*
X21507D01*
X21514D01*
X21525D01*
X21538Y111022D01*
D02*
G37*
G36*
X21219Y109611D02*
X21217D01*
X21214Y109609D01*
X21206Y109608D01*
X21197Y109606D01*
X21186Y109604D01*
X21174Y109600D01*
X21146Y109591D01*
X21114Y109579D01*
X21083Y109562D01*
X21054Y109544D01*
X21028Y109522D01*
X21026Y109519D01*
X21019Y109511D01*
X21010Y109497D01*
X21001Y109478D01*
X20990Y109457D01*
X20981Y109429D01*
X20974Y109398D01*
X20972Y109366D01*
Y109355D01*
X20974Y109347D01*
X20975Y109327D01*
X20981Y109302D01*
X20990Y109273D01*
X21003Y109242D01*
X21021Y109211D01*
X21046Y109182D01*
X21050Y109178D01*
X21061Y109169D01*
X21077Y109158D01*
X21099Y109144D01*
X21126Y109129D01*
X21157Y109118D01*
X21194Y109109D01*
X21234Y109105D01*
X21236D01*
X21239D01*
X21245D01*
X21252Y109107D01*
X21272Y109109D01*
X21296Y109114D01*
X21325Y109122D01*
X21354Y109134D01*
X21383Y109153D01*
X21410Y109176D01*
X21414Y109180D01*
X21421Y109189D01*
X21432Y109204D01*
X21445Y109224D01*
X21458Y109249D01*
X21469Y109280D01*
X21476Y109315D01*
X21479Y109353D01*
Y109369D01*
X21478Y109382D01*
X21476Y109398D01*
X21472Y109417D01*
X21469Y109438D01*
X21463Y109462D01*
X21600Y109444D01*
Y109435D01*
X21598Y109427D01*
Y109404D01*
X21601Y109384D01*
X21605Y109360D01*
X21610Y109333D01*
X21620Y109302D01*
X21632Y109273D01*
X21649Y109242D01*
Y109240D01*
X21651Y109238D01*
X21658Y109229D01*
X21671Y109216D01*
X21687Y109202D01*
X21711Y109187D01*
X21738Y109175D01*
X21769Y109165D01*
X21787Y109162D01*
X21807D01*
X21809D01*
X21811D01*
X21822D01*
X21836Y109165D01*
X21856Y109169D01*
X21878Y109176D01*
X21902Y109185D01*
X21925Y109200D01*
X21947Y109220D01*
X21949Y109222D01*
X21956Y109231D01*
X21965Y109244D01*
X21976Y109260D01*
X21985Y109282D01*
X21994Y109307D01*
X22002Y109336D01*
X22004Y109369D01*
Y109384D01*
X22000Y109400D01*
X21996Y109422D01*
X21989Y109446D01*
X21980Y109469D01*
X21965Y109495D01*
X21947Y109519D01*
X21945Y109520D01*
X21936Y109528D01*
X21924Y109538D01*
X21905Y109551D01*
X21882Y109564D01*
X21853Y109577D01*
X21818Y109588D01*
X21778Y109595D01*
X21805Y109750D01*
X21807D01*
X21813Y109748D01*
X21820Y109746D01*
X21831Y109744D01*
X21844Y109740D01*
X21858Y109735D01*
X21893Y109724D01*
X21933Y109706D01*
X21973Y109684D01*
X22011Y109657D01*
X22046Y109622D01*
X22047Y109620D01*
X22049Y109617D01*
X22053Y109611D01*
X22058Y109604D01*
X22065Y109595D01*
X22073Y109582D01*
X22080Y109569D01*
X22089Y109553D01*
X22104Y109517D01*
X22118Y109475D01*
X22127Y109426D01*
X22131Y109400D01*
Y109355D01*
X22129Y109335D01*
X22126Y109311D01*
X22120Y109282D01*
X22111Y109249D01*
X22100Y109216D01*
X22085Y109184D01*
Y109182D01*
X22084Y109180D01*
X22078Y109169D01*
X22067Y109153D01*
X22055Y109134D01*
X22036Y109113D01*
X22016Y109091D01*
X21993Y109069D01*
X21965Y109051D01*
X21962Y109049D01*
X21953Y109044D01*
X21936Y109036D01*
X21916Y109027D01*
X21893Y109018D01*
X21865Y109011D01*
X21834Y109005D01*
X21803Y109003D01*
X21800D01*
X21789D01*
X21774Y109005D01*
X21754Y109009D01*
X21731Y109014D01*
X21705Y109023D01*
X21680Y109034D01*
X21654Y109049D01*
X21651Y109051D01*
X21643Y109056D01*
X21631Y109067D01*
X21616Y109082D01*
X21600Y109100D01*
X21581Y109122D01*
X21565Y109147D01*
X21549Y109178D01*
Y109176D01*
X21547Y109173D01*
X21545Y109167D01*
X21543Y109160D01*
X21536Y109140D01*
X21525Y109114D01*
X21510Y109085D01*
X21492Y109056D01*
X21469Y109029D01*
X21441Y109003D01*
X21438Y109002D01*
X21427Y108994D01*
X21408Y108983D01*
X21385Y108973D01*
X21356Y108962D01*
X21321Y108951D01*
X21281Y108943D01*
X21237Y108941D01*
X21236D01*
X21230D01*
X21221D01*
X21210Y108943D01*
X21196Y108945D01*
X21179Y108949D01*
X21161Y108952D01*
X21141Y108956D01*
X21097Y108971D01*
X21074Y108982D01*
X21052Y108993D01*
X21028Y109007D01*
X21004Y109023D01*
X20981Y109042D01*
X20959Y109063D01*
X20957Y109065D01*
X20954Y109069D01*
X20948Y109076D01*
X20941Y109085D01*
X20932Y109096D01*
X20923Y109111D01*
X20912Y109127D01*
X20902Y109147D01*
X20892Y109167D01*
X20881Y109191D01*
X20872Y109214D01*
X20863Y109242D01*
X20855Y109271D01*
X20850Y109302D01*
X20846Y109333D01*
X20844Y109367D01*
Y109384D01*
X20846Y109395D01*
X20848Y109409D01*
X20850Y109426D01*
X20853Y109444D01*
X20857Y109464D01*
X20868Y109508D01*
X20886Y109553D01*
X20897Y109577D01*
X20910Y109599D01*
X20926Y109620D01*
X20943Y109642D01*
X20944Y109644D01*
X20948Y109648D01*
X20954Y109653D01*
X20961Y109659D01*
X20970Y109668D01*
X20983Y109677D01*
X20995Y109688D01*
X21012Y109699D01*
X21030Y109710D01*
X21048Y109721D01*
X21092Y109740D01*
X21143Y109757D01*
X21170Y109762D01*
X21199Y109766D01*
X21219Y109611D01*
D02*
G37*
G36*
Y108632D02*
X21217D01*
X21214Y108630D01*
X21206Y108628D01*
X21197Y108627D01*
X21186Y108625D01*
X21174Y108621D01*
X21146Y108612D01*
X21114Y108599D01*
X21083Y108583D01*
X21054Y108565D01*
X21028Y108543D01*
X21026Y108539D01*
X21019Y108532D01*
X21010Y108518D01*
X21001Y108499D01*
X20990Y108477D01*
X20981Y108450D01*
X20974Y108419D01*
X20972Y108386D01*
Y108376D01*
X20974Y108368D01*
X20975Y108348D01*
X20981Y108323D01*
X20990Y108294D01*
X21003Y108263D01*
X21021Y108232D01*
X21046Y108203D01*
X21050Y108199D01*
X21061Y108190D01*
X21077Y108179D01*
X21099Y108164D01*
X21126Y108150D01*
X21157Y108139D01*
X21194Y108130D01*
X21234Y108126D01*
X21236D01*
X21239D01*
X21245D01*
X21252Y108128D01*
X21272Y108130D01*
X21296Y108135D01*
X21325Y108143D01*
X21354Y108155D01*
X21383Y108174D01*
X21410Y108197D01*
X21414Y108201D01*
X21421Y108210D01*
X21432Y108224D01*
X21445Y108245D01*
X21458Y108270D01*
X21469Y108301D01*
X21476Y108335D01*
X21479Y108374D01*
Y108390D01*
X21478Y108403D01*
X21476Y108419D01*
X21472Y108437D01*
X21469Y108459D01*
X21463Y108483D01*
X21600Y108465D01*
Y108456D01*
X21598Y108448D01*
Y108425D01*
X21601Y108405D01*
X21605Y108381D01*
X21610Y108354D01*
X21620Y108323D01*
X21632Y108294D01*
X21649Y108263D01*
Y108261D01*
X21651Y108259D01*
X21658Y108250D01*
X21671Y108237D01*
X21687Y108223D01*
X21711Y108208D01*
X21738Y108195D01*
X21769Y108186D01*
X21787Y108183D01*
X21807D01*
X21809D01*
X21811D01*
X21822D01*
X21836Y108186D01*
X21856Y108190D01*
X21878Y108197D01*
X21902Y108206D01*
X21925Y108221D01*
X21947Y108241D01*
X21949Y108243D01*
X21956Y108252D01*
X21965Y108265D01*
X21976Y108281D01*
X21985Y108303D01*
X21994Y108328D01*
X22002Y108357D01*
X22004Y108390D01*
Y108405D01*
X22000Y108421D01*
X21996Y108443D01*
X21989Y108466D01*
X21980Y108490D01*
X21965Y108516D01*
X21947Y108539D01*
X21945Y108541D01*
X21936Y108548D01*
X21924Y108559D01*
X21905Y108572D01*
X21882Y108585D01*
X21853Y108598D01*
X21818Y108608D01*
X21778Y108616D01*
X21805Y108771D01*
X21807D01*
X21813Y108769D01*
X21820Y108767D01*
X21831Y108765D01*
X21844Y108761D01*
X21858Y108756D01*
X21893Y108745D01*
X21933Y108727D01*
X21973Y108705D01*
X22011Y108678D01*
X22046Y108643D01*
X22047Y108641D01*
X22049Y108638D01*
X22053Y108632D01*
X22058Y108625D01*
X22065Y108616D01*
X22073Y108603D01*
X22080Y108590D01*
X22089Y108574D01*
X22104Y108537D01*
X22118Y108496D01*
X22127Y108447D01*
X22131Y108421D01*
Y108376D01*
X22129Y108355D01*
X22126Y108332D01*
X22120Y108303D01*
X22111Y108270D01*
X22100Y108237D01*
X22085Y108204D01*
Y108203D01*
X22084Y108201D01*
X22078Y108190D01*
X22067Y108174D01*
X22055Y108155D01*
X22036Y108133D01*
X22016Y108112D01*
X21993Y108090D01*
X21965Y108072D01*
X21962Y108070D01*
X21953Y108064D01*
X21936Y108057D01*
X21916Y108048D01*
X21893Y108039D01*
X21865Y108031D01*
X21834Y108026D01*
X21803Y108024D01*
X21800D01*
X21789D01*
X21774Y108026D01*
X21754Y108030D01*
X21731Y108035D01*
X21705Y108044D01*
X21680Y108055D01*
X21654Y108070D01*
X21651Y108072D01*
X21643Y108077D01*
X21631Y108088D01*
X21616Y108103D01*
X21600Y108121D01*
X21581Y108143D01*
X21565Y108168D01*
X21549Y108199D01*
Y108197D01*
X21547Y108194D01*
X21545Y108188D01*
X21543Y108181D01*
X21536Y108161D01*
X21525Y108135D01*
X21510Y108106D01*
X21492Y108077D01*
X21469Y108050D01*
X21441Y108024D01*
X21438Y108022D01*
X21427Y108015D01*
X21408Y108004D01*
X21385Y107993D01*
X21356Y107982D01*
X21321Y107972D01*
X21281Y107964D01*
X21237Y107962D01*
X21236D01*
X21230D01*
X21221D01*
X21210Y107964D01*
X21196Y107966D01*
X21179Y107970D01*
X21161Y107973D01*
X21141Y107977D01*
X21097Y107992D01*
X21074Y108002D01*
X21052Y108013D01*
X21028Y108028D01*
X21004Y108044D01*
X20981Y108063D01*
X20959Y108084D01*
X20957Y108086D01*
X20954Y108090D01*
X20948Y108097D01*
X20941Y108106D01*
X20932Y108117D01*
X20923Y108132D01*
X20912Y108148D01*
X20902Y108168D01*
X20892Y108188D01*
X20881Y108212D01*
X20872Y108235D01*
X20863Y108263D01*
X20855Y108292D01*
X20850Y108323D01*
X20846Y108354D01*
X20844Y108388D01*
Y108405D01*
X20846Y108416D01*
X20848Y108430D01*
X20850Y108447D01*
X20853Y108465D01*
X20857Y108485D01*
X20868Y108528D01*
X20886Y108574D01*
X20897Y108598D01*
X20910Y108619D01*
X20926Y108641D01*
X20943Y108663D01*
X20944Y108665D01*
X20948Y108668D01*
X20954Y108674D01*
X20961Y108679D01*
X20970Y108689D01*
X20983Y108698D01*
X20995Y108709D01*
X21012Y108720D01*
X21030Y108730D01*
X21048Y108741D01*
X21092Y108761D01*
X21143Y108778D01*
X21170Y108783D01*
X21199Y108787D01*
X21219Y108632D01*
D02*
G37*
%LPC*%
G36*
X172808Y13673D02*
X172804D01*
X172795D01*
X172779Y13671D01*
X172758Y13669D01*
X172735Y13666D01*
X172709Y13659D01*
X172682Y13651D01*
X172655Y13640D01*
X172651Y13638D01*
X172642Y13633D01*
X172629Y13626D01*
X172613Y13615D01*
X172597Y13602D01*
X172576Y13586D01*
X172560Y13568D01*
X172544Y13546D01*
X172542Y13542D01*
X172538Y13535D01*
X172531Y13522D01*
X172526Y13506D01*
X172518Y13487D01*
X172511Y13466D01*
X172507Y13442D01*
X172506Y13417D01*
Y13407D01*
X172507Y13400D01*
X172509Y13382D01*
X172515Y13358D01*
X172526Y13333D01*
X172538Y13304D01*
X172558Y13274D01*
X172569Y13260D01*
X172584Y13247D01*
X172586D01*
X172588Y13244D01*
X172598Y13236D01*
X172617Y13225D01*
X172640Y13211D01*
X172671Y13198D01*
X172708Y13187D01*
X172749Y13180D01*
X172799Y13176D01*
X172800D01*
X172804D01*
X172811D01*
X172820Y13178D01*
X172831D01*
X172844Y13180D01*
X172873Y13185D01*
X172906Y13193D01*
X172941Y13205D01*
X172973Y13224D01*
X173004Y13247D01*
X173008Y13251D01*
X173017Y13260D01*
X173028Y13274D01*
X173043Y13295D01*
X173057Y13320D01*
X173068Y13349D01*
X173077Y13384D01*
X173081Y13422D01*
Y13433D01*
X173079Y13440D01*
X173077Y13458D01*
X173072Y13484D01*
X173063Y13511D01*
X173048Y13542D01*
X173030Y13571D01*
X173004Y13600D01*
X173001Y13604D01*
X172992Y13611D01*
X172975Y13624D01*
X172951Y13637D01*
X172924Y13649D01*
X172890Y13662D01*
X172851Y13669D01*
X172808Y13673D01*
D02*
G37*
G36*
X166083Y5854D02*
X166081D01*
X166079D01*
X166068D01*
X166052Y5850D01*
X166032Y5847D01*
X166010Y5839D01*
X165986Y5828D01*
X165963Y5814D01*
X165939Y5794D01*
X165937Y5792D01*
X165930Y5783D01*
X165921Y5770D01*
X165910Y5754D01*
X165899Y5732D01*
X165890Y5708D01*
X165882Y5679D01*
X165881Y5648D01*
Y5633D01*
X165884Y5617D01*
X165888Y5595D01*
X165895Y5572D01*
X165904Y5546D01*
X165919Y5522D01*
X165939Y5499D01*
X165941Y5497D01*
X165948Y5490D01*
X165961Y5481D01*
X165977Y5472D01*
X165997Y5461D01*
X166021Y5452D01*
X166046Y5444D01*
X166075Y5442D01*
X166077D01*
X166079D01*
X166090Y5444D01*
X166106Y5446D01*
X166126Y5450D01*
X166150Y5457D01*
X166174Y5466D01*
X166199Y5481D01*
X166221Y5499D01*
X166223Y5501D01*
X166230Y5510D01*
X166239Y5522D01*
X166248Y5539D01*
X166259Y5561D01*
X166268Y5586D01*
X166276Y5615D01*
X166277Y5648D01*
Y5652D01*
X166276Y5663D01*
X166274Y5679D01*
X166270Y5701D01*
X166263Y5725D01*
X166254Y5748D01*
X166239Y5774D01*
X166221Y5796D01*
X166219Y5797D01*
X166210Y5805D01*
X166199Y5814D01*
X166183Y5825D01*
X166163Y5836D01*
X166139Y5845D01*
X166112Y5852D01*
X166083Y5854D01*
D02*
G37*
G36*
X166661Y5905D02*
X166660D01*
X166656D01*
X166650D01*
X166643Y5903D01*
X166623Y5901D01*
X166596Y5896D01*
X166569Y5886D01*
X166538Y5874D01*
X166507Y5856D01*
X166478Y5830D01*
X166474Y5827D01*
X166467Y5817D01*
X166454Y5801D01*
X166439Y5779D01*
X166427Y5752D01*
X166414Y5719D01*
X166407Y5683D01*
X166403Y5643D01*
Y5632D01*
X166405Y5624D01*
X166407Y5604D01*
X166412Y5579D01*
X166421Y5550D01*
X166434Y5521D01*
X166452Y5490D01*
X166476Y5463D01*
X166479Y5459D01*
X166489Y5452D01*
X166505Y5441D01*
X166525Y5428D01*
X166552Y5413D01*
X166583Y5402D01*
X166618Y5395D01*
X166656Y5392D01*
X166660D01*
X166667D01*
X166680Y5393D01*
X166696Y5395D01*
X166716Y5399D01*
X166738Y5404D01*
X166760Y5412D01*
X166783Y5421D01*
X166785Y5422D01*
X166794Y5426D01*
X166805Y5433D01*
X166818Y5444D01*
X166834Y5457D01*
X166851Y5473D01*
X166865Y5492D01*
X166880Y5513D01*
X166882Y5517D01*
X166885Y5524D01*
X166891Y5537D01*
X166896Y5553D01*
X166902Y5573D01*
X166907Y5597D01*
X166911Y5623D01*
X166913Y5648D01*
Y5659D01*
X166911Y5666D01*
X166909Y5688D01*
X166903Y5714D01*
X166894Y5743D01*
X166883Y5774D01*
X166865Y5803D01*
X166842Y5832D01*
X166838Y5836D01*
X166829Y5843D01*
X166812Y5856D01*
X166792Y5868D01*
X166767Y5881D01*
X166736Y5894D01*
X166700Y5901D01*
X166661Y5905D01*
D02*
G37*
G36*
X166620Y4924D02*
X166618D01*
X166614D01*
X166607D01*
X166598Y4922D01*
X166587D01*
X166574Y4920D01*
X166545Y4915D01*
X166512Y4907D01*
X166478Y4895D01*
X166445Y4876D01*
X166414Y4853D01*
X166410Y4849D01*
X166401Y4840D01*
X166390Y4826D01*
X166376Y4805D01*
X166361Y4780D01*
X166350Y4751D01*
X166341Y4716D01*
X166337Y4678D01*
Y4667D01*
X166339Y4660D01*
X166341Y4642D01*
X166347Y4616D01*
X166356Y4589D01*
X166370Y4558D01*
X166388Y4529D01*
X166414Y4500D01*
X166418Y4496D01*
X166427Y4489D01*
X166443Y4476D01*
X166467Y4463D01*
X166494Y4451D01*
X166528Y4438D01*
X166567Y4431D01*
X166610Y4427D01*
X166614D01*
X166623D01*
X166640Y4429D01*
X166660Y4431D01*
X166683Y4434D01*
X166709Y4441D01*
X166736Y4449D01*
X166763Y4460D01*
X166767Y4462D01*
X166776Y4467D01*
X166789Y4474D01*
X166805Y4485D01*
X166822Y4498D01*
X166842Y4514D01*
X166858Y4532D01*
X166874Y4554D01*
X166876Y4558D01*
X166880Y4565D01*
X166887Y4578D01*
X166893Y4594D01*
X166900Y4612D01*
X166907Y4634D01*
X166911Y4658D01*
X166913Y4684D01*
Y4693D01*
X166911Y4700D01*
X166909Y4718D01*
X166903Y4742D01*
X166893Y4767D01*
X166880Y4796D01*
X166860Y4826D01*
X166849Y4840D01*
X166834Y4853D01*
X166832D01*
X166831Y4856D01*
X166820Y4864D01*
X166802Y4875D01*
X166778Y4889D01*
X166747Y4902D01*
X166710Y4913D01*
X166669Y4920D01*
X166620Y4924D01*
D02*
G37*
%LPD*%
D10*
X331221Y4498D02*
X341220D01*
X331221D02*
Y10498D01*
X341220D01*
Y4498D02*
Y10498D01*
X349854Y22379D02*
X355854D01*
Y32379D01*
X349854D02*
X355854D01*
X349854Y22379D02*
Y32379D01*
X341878Y37953D02*
Y47953D01*
X335878Y37953D02*
X341878D01*
X335878D02*
Y47953D01*
X341878D01*
X287303Y7898D02*
Y20102D01*
X293209Y7898D02*
Y20102D01*
X287303Y7898D02*
X293209D01*
X287303Y20102D02*
X293209D01*
X264912Y35494D02*
Y41399D01*
X277116Y35494D02*
Y41399D01*
X264912D02*
X277116D01*
X264912Y35494D02*
X277116D01*
X252227Y51454D02*
Y57454D01*
X249227D02*
X252227D01*
X249227Y51454D02*
Y57454D01*
Y51454D02*
X252227D01*
X53466Y76921D02*
Y82921D01*
X50466D02*
X53466D01*
X50466Y76921D02*
Y82921D01*
Y76921D02*
X53466D01*
X2165Y44685D02*
X8071D01*
X2165Y32480D02*
X8071D01*
Y44685D01*
X2165Y32480D02*
Y44685D01*
X42681Y88488D02*
X60181D01*
X42681D02*
Y100488D01*
X60181D01*
Y88488D02*
Y100488D01*
X13835Y66324D02*
Y80103D01*
X21709Y66324D02*
Y80103D01*
X13835Y66324D02*
X21709D01*
X13835Y80103D02*
X21709D01*
X22450Y57380D02*
Y69191D01*
X34261Y57380D02*
Y69191D01*
X22450Y57380D02*
X34261D01*
X22450Y69191D02*
X34261D01*
X136346Y28219D02*
Y40423D01*
X142251Y28219D02*
Y40423D01*
X136346Y28219D02*
X142251D01*
X136346Y40423D02*
X142251D01*
X210134Y12819D02*
X215534D01*
Y17519D01*
X210134D02*
X215534D01*
X210134Y12819D02*
Y17519D01*
X232341Y38326D02*
Y50531D01*
X238247Y38326D02*
Y50531D01*
X232341Y38326D02*
X238247D01*
X232341Y50531D02*
X238247D01*
X213187Y32598D02*
Y44802D01*
X219092Y32598D02*
Y44802D01*
X213187Y32598D02*
X219092D01*
X213187Y44802D02*
X219092D01*
X194411Y26203D02*
X206616D01*
X194411Y32108D02*
X206616D01*
Y26203D02*
Y32108D01*
X194411Y26203D02*
Y32108D01*
Y20903D02*
X206616D01*
X194411Y26808D02*
X206616D01*
Y20903D02*
Y26808D01*
X194411Y20903D02*
Y26808D01*
X177111Y47417D02*
X189316D01*
X177111Y41512D02*
X189316D01*
X177111D02*
Y47417D01*
X189316Y41512D02*
Y47417D01*
X177111Y52717D02*
X189316D01*
X177111Y46812D02*
X189316D01*
X177111D02*
Y52717D01*
X189316Y46812D02*
Y52717D01*
X163096Y22258D02*
Y34463D01*
X157191Y22258D02*
Y34463D01*
X163096D01*
X157191Y22258D02*
X163096D01*
X168396D02*
Y34463D01*
X162491Y22258D02*
Y34463D01*
X168396D01*
X162491Y22258D02*
X168396D01*
X141704Y28225D02*
Y40430D01*
X147610Y28225D02*
Y40430D01*
X141704Y28225D02*
X147610D01*
X141704Y40430D02*
X147610D01*
X200913Y51950D02*
Y54950D01*
X206913D01*
Y51950D02*
Y54950D01*
X200913Y51950D02*
X206913D01*
X208113Y54665D02*
X211113D01*
Y48665D02*
Y54665D01*
X208113Y48665D02*
X211113D01*
X208113D02*
Y54665D01*
X32921Y95744D02*
Y98744D01*
X26921Y95744D02*
X32921D01*
X26921D02*
Y98744D01*
X32921D01*
X28937Y84055D02*
X41142D01*
X28937Y89961D02*
X41142D01*
Y84055D02*
Y89961D01*
X28937Y84055D02*
Y89961D01*
X139600Y78700D02*
Y81700D01*
X145600D01*
Y78700D02*
Y81700D01*
X139600Y78700D02*
X145600D01*
X348129Y8678D02*
X347637Y9170D01*
X346653D01*
X346161Y8678D01*
Y6710D01*
X346653Y6218D01*
X347637D01*
X348129Y6710D01*
X351081Y9170D02*
X349113D01*
Y7694D01*
X350097Y8186D01*
X350589D01*
X351081Y7694D01*
Y6710D01*
X350589Y6218D01*
X349605D01*
X349113Y6710D01*
X352065Y8678D02*
X352557Y9170D01*
X353541D01*
X354033Y8678D01*
Y6710D01*
X353541Y6218D01*
X352557D01*
X352065Y6710D01*
Y8678D01*
X30708Y44881D02*
X32020Y42913D01*
Y44881D02*
X30708Y42913D01*
X32676Y44553D02*
X33004Y44881D01*
X33660D01*
X33988Y44553D01*
Y44225D01*
X33660Y43897D01*
X33332D01*
X33660D01*
X33988Y43569D01*
Y43241D01*
X33660Y42913D01*
X33004D01*
X32676Y43241D01*
X18952Y77446D02*
X19444Y77938D01*
Y78922D01*
X18952Y79414D01*
X16984D01*
X16492Y78922D01*
Y77938D01*
X16984Y77446D01*
X19444Y74494D02*
X18952Y75478D01*
X17968Y76462D01*
X16984D01*
X16492Y75970D01*
Y74986D01*
X16984Y74494D01*
X17476D01*
X17968Y74986D01*
Y76462D01*
X19444Y71543D02*
X18952Y72527D01*
X17968Y73511D01*
X16984D01*
X16492Y73019D01*
Y72035D01*
X16984Y71543D01*
X17476D01*
X17968Y72035D01*
Y73511D01*
X41023Y68186D02*
X39056Y66874D01*
X41023D02*
X39056Y68186D01*
Y66218D02*
Y65562D01*
Y65890D01*
X41023D01*
X40696Y66218D01*
X29324Y68286D02*
X27684D01*
X27356Y67958D01*
Y67302D01*
X27684Y66974D01*
X29324D01*
X27356Y66318D02*
Y65662D01*
Y65990D01*
X29324D01*
X28996Y66318D01*
X27356Y63366D02*
Y64678D01*
X28668Y63366D01*
X28996D01*
X29324Y63694D01*
Y64350D01*
X28996Y64678D01*
X184470Y21993D02*
X186109D01*
X186437Y22321D01*
Y22977D01*
X186109Y23305D01*
X184470D01*
Y25273D02*
Y23961D01*
X185453D01*
X185126Y24617D01*
Y24945D01*
X185453Y25273D01*
X186109D01*
X186437Y24945D01*
Y24289D01*
X186109Y23961D01*
D11*
X185613Y12291D02*
Y8355D01*
X188237D01*
X191517D02*
Y12291D01*
X189549Y10323D01*
X192173D01*
D12*
X222394Y49886D02*
Y52385D01*
X220728D01*
X218229Y49886D02*
X219895D01*
Y51135D01*
X219062Y50719D01*
X218645D01*
X218229Y51135D01*
Y51968D01*
X218645Y52385D01*
X219478D01*
X219895Y51968D01*
X148456Y47450D02*
Y44950D01*
X150122D01*
X150955Y47033D02*
X151372Y47450D01*
X152205D01*
X152621Y47033D01*
Y46617D01*
X152205Y46200D01*
X151788D01*
X152205D01*
X152621Y45783D01*
Y45367D01*
X152205Y44950D01*
X151372D01*
X150955Y45367D01*
D17*
X31656Y67286D02*
G03*
X31656Y67286I-300J0D01*
G01*
X267624Y57753D02*
X278625D01*
X267624Y44753D02*
Y57753D01*
Y44753D02*
X278625D01*
Y57753D01*
D18*
X321063Y41535D02*
Y45866D01*
X330906Y41535D02*
Y45866D01*
X321063D02*
X330906D01*
X321063Y41535D02*
X330906D01*
X284976Y33176D02*
X292976D01*
X284976Y29176D02*
Y33176D01*
Y29176D02*
X292976D01*
Y33176D01*
X345571Y17340D02*
X355413D01*
X345571Y21671D02*
X355413D01*
Y17340D02*
Y21671D01*
X345571Y17340D02*
Y21671D01*
X344358Y23559D02*
Y31559D01*
Y23559D02*
X348358D01*
Y31559D01*
X344358D02*
X348358D01*
X328884Y45862D02*
Y58862D01*
X323084Y45862D02*
Y58862D01*
X328884D01*
X323084Y45862D02*
X328884D01*
X285008Y33500D02*
X289008D01*
X285008D02*
Y41500D01*
X289008D01*
Y33500D02*
Y41500D01*
X343106Y58806D02*
X356106D01*
X343106Y53005D02*
X356106D01*
X343106D02*
Y58806D01*
X356106Y53005D02*
Y58806D01*
X343898Y48228D02*
X353740D01*
X343898Y52559D02*
X353740D01*
Y48228D02*
Y52559D01*
X343898Y48228D02*
Y52559D01*
X329327Y53005D02*
X342327D01*
X329327Y58806D02*
X342327D01*
Y53005D02*
Y58806D01*
X329327Y53005D02*
Y58806D01*
X279724Y24161D02*
X289567D01*
X279724Y28491D02*
X289567D01*
Y24161D02*
Y28491D01*
X279724Y24161D02*
Y28491D01*
X296654Y6102D02*
X306496D01*
X296654Y10433D02*
X306496D01*
Y6102D02*
Y10433D01*
X296654Y6102D02*
Y10433D01*
X281039Y41701D02*
Y45701D01*
X289039D01*
Y41701D02*
Y45701D01*
X281039Y41701D02*
X289039D01*
X306421Y14780D02*
Y19110D01*
X296579Y14780D02*
Y19110D01*
Y14780D02*
X306421D01*
X296579Y19110D02*
X306421D01*
Y19287D02*
Y23618D01*
X296579Y19287D02*
Y23618D01*
Y19287D02*
X306421D01*
X296579Y23618D02*
X306421D01*
X40354Y40354D02*
Y50197D01*
X36024Y40354D02*
Y50197D01*
X40354D01*
X36024Y40354D02*
X40354D01*
X35709Y39413D02*
Y46413D01*
X25709Y39413D02*
X35709D01*
X25709Y46413D02*
X35709D01*
X25709Y39413D02*
Y46413D01*
X192343Y47656D02*
Y51656D01*
X200343D01*
Y47656D02*
Y51656D01*
X192343Y47656D02*
X200343D01*
X21063Y40354D02*
X25394D01*
X21063Y50197D02*
X25394D01*
X21063Y40354D02*
Y50197D01*
X25394Y40354D02*
Y50197D01*
X343898Y32874D02*
Y37205D01*
X353740Y32874D02*
Y37205D01*
X343898D02*
X353740D01*
X343898Y32874D02*
X353740D01*
X344291Y37842D02*
Y47685D01*
X348622Y37842D02*
Y47685D01*
X344291Y37842D02*
X348622D01*
X344291Y47685D02*
X348622D01*
X14518Y63213D02*
X18518D01*
Y55213D02*
Y63213D01*
X14518Y55213D02*
X18518D01*
X14518D02*
Y63213D01*
X10854Y63229D02*
X14854D01*
Y55229D02*
Y63229D01*
X10854Y55229D02*
X14854D01*
X10854D02*
Y63229D01*
X244995Y3757D02*
X276491D01*
X244995Y35254D02*
X276491D01*
Y3757D02*
Y35254D01*
X244995Y3757D02*
Y35254D01*
X235764Y36252D02*
X243764D01*
X235764Y32252D02*
Y36252D01*
Y32252D02*
X243764D01*
Y36252D01*
X293578Y13213D02*
Y19512D01*
Y13213D02*
X296334D01*
X293578Y19512D02*
X296334D01*
Y13213D02*
Y19512D01*
X282874Y10433D02*
Y20276D01*
X287205Y10433D02*
Y20276D01*
X282874Y10433D02*
X287205D01*
X282874Y20276D02*
X287205D01*
X278543Y10433D02*
Y20276D01*
X282874Y10433D02*
Y20276D01*
X278543Y10433D02*
X282874D01*
X278543Y20276D02*
X282874D01*
X239961Y2953D02*
Y12795D01*
X244291Y2953D02*
Y12795D01*
X239961Y2953D02*
X244291D01*
X239961Y12795D02*
X244291D01*
X235630Y2953D02*
Y12795D01*
X239961Y2953D02*
Y12795D01*
X235630Y2953D02*
X239961D01*
X235630Y12795D02*
X239961D01*
X231299Y4331D02*
Y10630D01*
Y4331D02*
X234055D01*
X231299Y10630D02*
X234055D01*
Y4331D02*
Y10630D01*
X233268Y12008D02*
Y21850D01*
X237598Y12008D02*
Y21850D01*
X233268Y12008D02*
X237598D01*
X233268Y21850D02*
X237598D01*
X237598Y12008D02*
Y21850D01*
X241929Y12008D02*
Y21850D01*
X237598Y12008D02*
X241929D01*
X237598Y21850D02*
X241929D01*
X230118Y14961D02*
Y21260D01*
Y14961D02*
X232874D01*
X230118Y21260D02*
X232874D01*
Y14961D02*
Y21260D01*
X264764Y50394D02*
Y56693D01*
X262008D02*
X264764D01*
X262008Y50394D02*
X264764D01*
X262008D02*
Y56693D01*
X256102Y45472D02*
X265945D01*
X256102Y41142D02*
X265945D01*
X256102D02*
Y45472D01*
X265945Y41142D02*
Y45472D01*
X256102Y50591D02*
X265945D01*
X256102Y46260D02*
X265945D01*
X256102D02*
Y50591D01*
X265945Y46260D02*
Y50591D01*
X254425Y35653D02*
X262424D01*
Y39653D01*
X254425D02*
X262424D01*
X254425Y35653D02*
Y39653D01*
X268110Y58071D02*
X277953D01*
X268110Y62402D02*
X277953D01*
Y58071D02*
Y62402D01*
X268110Y58071D02*
Y62402D01*
X268203Y45318D02*
X278046D01*
X268203Y40987D02*
X278046D01*
X268203D02*
Y45318D01*
X278046Y40987D02*
Y45318D01*
X244527Y50454D02*
Y58454D01*
Y50454D02*
X248527D01*
Y58454D01*
X244527D02*
X248527D01*
X70898Y58205D02*
Y66205D01*
X66898D02*
X70898D01*
X66898Y58205D02*
Y66205D01*
Y58205D02*
X70898D01*
X66961D02*
Y66205D01*
X62961D02*
X66961D01*
X62961Y58205D02*
Y66205D01*
Y58205D02*
X66961D01*
X61766Y75720D02*
X71609D01*
X61766Y80050D02*
X71609D01*
Y75720D02*
Y80050D01*
X61766Y75720D02*
Y80050D01*
Y79820D02*
X71609D01*
X61766Y84150D02*
X71609D01*
Y79820D02*
Y84150D01*
X61766Y79820D02*
Y84150D01*
X75615Y69154D02*
Y78996D01*
X71285Y69154D02*
Y78996D01*
X75615D01*
X71285Y69154D02*
X75615D01*
X62128Y66457D02*
X70947D01*
Y75276D01*
X62128D02*
X70947D01*
X62128Y66457D02*
Y75276D01*
X49937Y75854D02*
X57937D01*
X49937Y71854D02*
Y75854D01*
Y71854D02*
X57937D01*
Y75854D01*
X49937Y29890D02*
X57937D01*
Y33890D01*
X49937D02*
X57937D01*
X49937Y29890D02*
Y33890D01*
X59780Y24772D02*
X67779D01*
Y28772D01*
X59780D02*
X67779D01*
X59780Y24772D02*
Y28772D01*
X14831Y34177D02*
X22831D01*
X14831Y30177D02*
Y34177D01*
Y30177D02*
X22831D01*
Y34177D01*
X14831Y30477D02*
X22831D01*
X14831Y26477D02*
Y30477D01*
Y26477D02*
X22831D01*
Y30477D01*
X14831Y17077D02*
X22831D01*
Y21077D01*
X14831D02*
X22831D01*
X14831Y17077D02*
Y21077D01*
Y10477D02*
X22831D01*
Y14477D01*
X14831D02*
X22831D01*
X14831Y10477D02*
Y14477D01*
X16732Y33661D02*
Y43504D01*
X21063Y33661D02*
Y43504D01*
X16732Y33661D02*
X21063D01*
X16732Y43504D02*
X21063D01*
X12402Y33661D02*
Y43504D01*
X16732Y33661D02*
Y43504D01*
X12402Y33661D02*
X16732D01*
X12402Y43504D02*
X16732D01*
X8071Y33661D02*
Y43504D01*
X12402Y33661D02*
Y43504D01*
X8071Y33661D02*
X12402D01*
X8071Y43504D02*
X12402D01*
X36413Y103006D02*
Y108806D01*
X49413Y103006D02*
Y108806D01*
X36413D02*
X49413D01*
X36413Y103006D02*
X49413D01*
X35319Y50248D02*
X45161D01*
X35319Y54579D02*
X45161D01*
Y50248D02*
Y54579D01*
X35319Y50248D02*
Y54579D01*
X35372Y54421D02*
X45215D01*
X35372Y58751D02*
X45215D01*
Y54421D02*
Y58751D01*
X35372Y54421D02*
Y58751D01*
X35335Y58621D02*
X45177D01*
X35335Y62951D02*
X45177D01*
Y58621D02*
Y62951D01*
X35335Y58621D02*
Y62951D01*
X35556Y63186D02*
X42556D01*
X35556D02*
Y73186D01*
X42556Y63186D02*
Y73186D01*
X35556D02*
X42556D01*
X211779Y4268D02*
X215779D01*
X211779D02*
Y12268D01*
X215779D01*
Y4268D02*
Y12268D01*
X216732Y11220D02*
Y15551D01*
X226575Y11220D02*
Y15551D01*
X216732D02*
X226575D01*
X216732Y11220D02*
X226575D01*
X225260Y7055D02*
Y11055D01*
X217260Y7055D02*
X225260D01*
X217260D02*
Y11055D01*
X225260D01*
X220276Y25787D02*
X224606D01*
X220276Y15945D02*
X224606D01*
Y25787D01*
X220276Y15945D02*
Y25787D01*
X216134Y17623D02*
X220134D01*
X216134D02*
Y25623D01*
X220134D01*
Y17623D02*
Y25623D01*
X210934Y17613D02*
X214934D01*
X210934D02*
Y25613D01*
X214934D01*
Y17613D02*
Y25613D01*
X206661Y25653D02*
X210661D01*
Y17653D02*
Y25653D01*
X206661Y17653D02*
X210661D01*
X206661D02*
Y25653D01*
X207283Y12795D02*
X211614D01*
X207283Y2953D02*
X211614D01*
Y12795D01*
X207283Y2953D02*
Y12795D01*
X220829Y37281D02*
X228029D01*
X220829Y45281D02*
X228029D01*
Y37281D02*
Y45281D01*
X220829Y37281D02*
Y45281D01*
X243494Y37929D02*
Y50928D01*
X237694Y37929D02*
Y50928D01*
X243494D01*
X237694Y37929D02*
X243494D01*
X236063Y34729D02*
Y38728D01*
X228063Y34729D02*
X236063D01*
X228063D02*
Y38728D01*
X236063D01*
X158947Y5035D02*
Y18420D01*
X169971D01*
Y5035D02*
Y18420D01*
X158947Y5035D02*
X169971D01*
X168548Y37431D02*
X172879D01*
X168548Y27589D02*
X172879D01*
Y37431D01*
X168548Y27589D02*
Y37431D01*
X168813Y24209D02*
Y28209D01*
X176813D01*
Y24209D02*
Y28209D01*
X168813Y24209D02*
X176813D01*
X172648Y37377D02*
X176979D01*
X172648Y27534D02*
X176979D01*
Y37377D01*
X172648Y27534D02*
Y37377D01*
X177213Y12156D02*
X181213D01*
X177213D02*
Y20155D01*
X181213D01*
Y12156D02*
Y20155D01*
X208213Y40000D02*
Y44000D01*
X200213Y40000D02*
X208213D01*
X200213D02*
Y44000D01*
X208213D01*
X182135Y37490D02*
Y41821D01*
X172292Y37490D02*
Y41821D01*
Y37490D02*
X182135D01*
X172292Y41821D02*
X182135D01*
X177437Y20493D02*
Y35493D01*
X194437D01*
Y20493D02*
Y35493D01*
X177437Y20493D02*
X194437D01*
X181313Y37655D02*
Y41655D01*
X189313D01*
Y37655D02*
Y41655D01*
X181313Y37655D02*
X189313D01*
X204213Y36165D02*
Y40165D01*
X196213Y36165D02*
X204213D01*
X196213D02*
Y40165D01*
X204213D01*
X195292Y31779D02*
Y36110D01*
X205135Y31779D02*
Y36110D01*
X195292D02*
X205135D01*
X195292Y31779D02*
X205135D01*
X136505Y15797D02*
Y28797D01*
X142305Y15797D02*
Y28797D01*
X136505Y15797D02*
X142305D01*
X136505Y28797D02*
X142305D01*
X147564Y15795D02*
Y28795D01*
X141764Y15795D02*
Y28795D01*
X147564D01*
X141764Y15795D02*
X147564D01*
X144700Y1100D02*
Y14100D01*
X150500Y1100D02*
Y14100D01*
X144700Y1100D02*
X150500D01*
X144700Y14100D02*
X150500D01*
X150100Y19400D02*
Y23400D01*
X158100D01*
Y19400D02*
Y23400D01*
X150100Y19400D02*
X158100D01*
Y15500D02*
Y19500D01*
X150100Y15500D02*
X158100D01*
X150100D02*
Y19500D01*
X158100D01*
X148238Y38595D02*
X157293D01*
X148238Y24028D02*
Y38595D01*
X157293Y24028D02*
Y38595D01*
X148238Y24028D02*
X157293D01*
X200345Y51365D02*
Y55365D01*
X192345Y51365D02*
X200345D01*
X192345D02*
Y55365D01*
X200345D01*
X214236Y55480D02*
Y59480D01*
X206236Y55480D02*
X214236D01*
X206236D02*
Y59480D01*
X214236D01*
X199913Y47656D02*
Y51656D01*
X207913D01*
Y47656D02*
Y51656D01*
X199913Y47656D02*
X207913D01*
X36614Y90520D02*
Y94520D01*
X30315Y90520D02*
X36614D01*
X30315Y94520D02*
X36614D01*
X30315Y90520D02*
Y94520D01*
X4823Y101772D02*
Y114764D01*
X18799Y101772D02*
Y114764D01*
X4823D02*
X18799D01*
X4823Y101772D02*
X18799D01*
X28539Y84002D02*
X41539D01*
X28539Y78202D02*
X41539D01*
X28539D02*
Y84002D01*
X41539Y78202D02*
Y84002D01*
X138800Y78200D02*
Y82200D01*
X130800Y78200D02*
X138800D01*
X130800D02*
Y82200D01*
X138800D01*
X36478Y15273D02*
Y20193D01*
X35494Y21177D01*
X33526D01*
X32542Y20193D01*
Y15273D01*
X26639Y21177D02*
X30574D01*
X26639Y17241D01*
Y16257D01*
X27623Y15273D01*
X29590D01*
X30574Y16257D01*
D20*
X326784Y46362D02*
X325285D01*
Y47112D01*
X325535Y47362D01*
X326034D01*
X326284Y47112D01*
Y46362D01*
Y46862D02*
X326784Y47362D01*
X325285Y48861D02*
X325535Y48362D01*
X326034Y47862D01*
X326534D01*
X326784Y48112D01*
Y48612D01*
X326534Y48861D01*
X326284D01*
X326034Y48612D01*
Y47862D01*
X355606Y56705D02*
Y55206D01*
X354856D01*
X354607Y55456D01*
Y55956D01*
X354856Y56206D01*
X355606D01*
X355106D02*
X354607Y56705D01*
X354107Y55206D02*
X353107D01*
Y55456D01*
X354107Y56456D01*
Y56705D01*
X329827Y55106D02*
Y56605D01*
X330576D01*
X330826Y56355D01*
Y55855D01*
X330576Y55605D01*
X329827D01*
X330327D02*
X330826Y55106D01*
X332326Y56605D02*
X331326D01*
Y55855D01*
X331826Y56105D01*
X332076D01*
X332326Y55855D01*
Y55355D01*
X332076Y55106D01*
X331576D01*
X331326Y55355D01*
X36913Y105105D02*
Y106605D01*
X37663D01*
X37913Y106355D01*
Y105855D01*
X37663Y105605D01*
X36913D01*
X37413D02*
X37913Y105105D01*
X38413D02*
X38913D01*
X38663D01*
Y106605D01*
X38413Y106355D01*
X39663Y105105D02*
X40162D01*
X39912D01*
Y106605D01*
X39663Y106355D01*
X241394Y38429D02*
X239895D01*
Y39178D01*
X240144Y39428D01*
X240644D01*
X240894Y39178D01*
Y38429D01*
Y38928D02*
X241394Y39428D01*
X239895Y40928D02*
X240144Y40428D01*
X240644Y39928D01*
X241144D01*
X241394Y40178D01*
Y40678D01*
X241144Y40928D01*
X240894D01*
X240644Y40678D01*
Y39928D01*
X240144Y41427D02*
X239895Y41677D01*
Y42177D01*
X240144Y42427D01*
X241144D01*
X241394Y42177D01*
Y41677D01*
X241144Y41427D01*
X240144D01*
X138605Y28297D02*
X140105D01*
Y27548D01*
X139855Y27298D01*
X139355D01*
X139105Y27548D01*
Y28297D01*
Y27798D02*
X138605Y27298D01*
X140105Y25798D02*
Y26798D01*
X139355D01*
X139605Y26298D01*
Y26048D01*
X139355Y25798D01*
X138855D01*
X138605Y26048D01*
Y26548D01*
X138855Y26798D01*
Y25298D02*
X138605Y25048D01*
Y24549D01*
X138855Y24299D01*
X139855D01*
X140105Y24549D01*
Y25048D01*
X139855Y25298D01*
X139605D01*
X139355Y25048D01*
Y24299D01*
X145464Y16295D02*
X143964D01*
Y17044D01*
X144214Y17294D01*
X144714D01*
X144964Y17044D01*
Y16295D01*
Y16794D02*
X145464Y17294D01*
Y17794D02*
Y18294D01*
Y18044D01*
X143964D01*
X144214Y17794D01*
X143964Y19044D02*
Y20043D01*
X144214D01*
X145214Y19044D01*
X145464D01*
X146800Y13600D02*
X148300D01*
Y12850D01*
X148050Y12600D01*
X147550D01*
X147300Y12850D01*
Y13600D01*
Y13100D02*
X146800Y12600D01*
Y12100D02*
Y11601D01*
Y11851D01*
X148300D01*
X148050Y12100D01*
Y10851D02*
X148300Y10601D01*
Y10101D01*
X148050Y9851D01*
X147800D01*
X147550Y10101D01*
X147300Y9851D01*
X147050D01*
X146800Y10101D01*
Y10601D01*
X147050Y10851D01*
X147300D01*
X147550Y10601D01*
X147800Y10851D01*
X148050D01*
X147550Y10601D02*
Y10101D01*
X41039Y81902D02*
Y80403D01*
X40290D01*
X40040Y80653D01*
Y81153D01*
X40290Y81402D01*
X41039D01*
X40540D02*
X40040Y81902D01*
X38790D02*
Y80403D01*
X39540Y81153D01*
X38540D01*
X37041Y81902D02*
X38040D01*
X37041Y80903D01*
Y80653D01*
X37291Y80403D01*
X37790D01*
X38040Y80653D01*
D21*
X213094Y54985D02*
X223094D01*
X213094Y45585D02*
Y54985D01*
Y45585D02*
X223094D01*
Y54985D01*
X182613Y855D02*
X201613D01*
Y19855D01*
X182613D02*
X201613D01*
X182613Y855D02*
Y19855D01*
X145256Y39850D02*
Y53850D01*
X160256D01*
Y39850D02*
Y53850D01*
X145256Y39850D02*
X160256D01*
D176*
X171731Y13840D02*
Y16360D01*
Y13840D02*
X173069D01*
X171731Y16360D02*
X173069D01*
Y13840D02*
Y16360D01*
X167687Y1740D02*
Y4260D01*
X166349D02*
X167687D01*
X166349Y1740D02*
X167687D01*
X166349D02*
Y4260D01*
X20197Y109764D02*
Y112284D01*
Y109764D02*
X21535D01*
X20197Y112284D02*
X21535D01*
Y109764D02*
Y112284D01*
D177*
X322984Y44200D02*
X322684Y44500D01*
X322084D01*
X321784Y44200D01*
Y43001D01*
X322084Y42701D01*
X322684D01*
X322984Y43001D01*
X324483Y42701D02*
Y44500D01*
X323584Y43600D01*
X324783D01*
X325383Y44200D02*
X325683Y44500D01*
X326283D01*
X326583Y44200D01*
Y43900D01*
X326283Y43600D01*
X326583Y43301D01*
Y43001D01*
X326283Y42701D01*
X325683D01*
X325383Y43001D01*
Y43301D01*
X325683Y43600D01*
X325383Y43900D01*
Y44200D01*
X325683Y43600D02*
X326283D01*
X347492Y20005D02*
X347192Y20305D01*
X346592D01*
X346292Y20005D01*
Y18805D01*
X346592Y18506D01*
X347192D01*
X347492Y18805D01*
X349291Y20305D02*
X348092D01*
Y19405D01*
X348691Y19705D01*
X348991D01*
X349291Y19405D01*
Y18805D01*
X348991Y18506D01*
X348391D01*
X348092Y18805D01*
X349891Y18506D02*
X350491D01*
X350191D01*
Y20305D01*
X349891Y20005D01*
X345818Y50893D02*
X345519Y51193D01*
X344919D01*
X344619Y50893D01*
Y49694D01*
X344919Y49394D01*
X345519D01*
X345818Y49694D01*
X347618Y49394D02*
X346418D01*
X347618Y50593D01*
Y50893D01*
X347318Y51193D01*
X346718D01*
X346418Y50893D01*
X349417Y49394D02*
X348218D01*
X349417Y50593D01*
Y50893D01*
X349117Y51193D01*
X348518D01*
X348218Y50893D01*
X298574Y8767D02*
X298274Y9067D01*
X297675D01*
X297375Y8767D01*
Y7568D01*
X297675Y7268D01*
X298274D01*
X298574Y7568D01*
X300074Y7268D02*
Y9067D01*
X299174Y8167D01*
X300374D01*
X300974Y7568D02*
X301273Y7268D01*
X301873D01*
X302173Y7568D01*
Y8767D01*
X301873Y9067D01*
X301273D01*
X300974Y8767D01*
Y8467D01*
X301273Y8167D01*
X302173D01*
X281645Y26825D02*
X281345Y27125D01*
X280746D01*
X280446Y26825D01*
Y25626D01*
X280746Y25326D01*
X281345D01*
X281645Y25626D01*
X282245Y26825D02*
X282545Y27125D01*
X283145D01*
X283445Y26825D01*
Y26526D01*
X283145Y26226D01*
X282845D01*
X283145D01*
X283445Y25926D01*
Y25626D01*
X283145Y25326D01*
X282545D01*
X282245Y25626D01*
X284045D02*
X284344Y25326D01*
X284944D01*
X285244Y25626D01*
Y26825D01*
X284944Y27125D01*
X284344D01*
X284045Y26825D01*
Y26526D01*
X284344Y26226D01*
X285244D01*
X290779Y17814D02*
X291179Y18214D01*
Y19014D01*
X290779Y19413D01*
X289179D01*
X288780Y19014D01*
Y18214D01*
X289179Y17814D01*
X288780Y17014D02*
Y16214D01*
Y16614D01*
X291179D01*
X290779Y17014D01*
X304500Y16445D02*
X304800Y16146D01*
X305400D01*
X305700Y16445D01*
Y17645D01*
X305400Y17945D01*
X304800D01*
X304500Y17645D01*
X303001Y17945D02*
Y16146D01*
X303901Y17045D01*
X302701D01*
X302101Y16146D02*
X300902D01*
Y16445D01*
X302101Y17645D01*
Y17945D01*
X304500Y20953D02*
X304800Y20653D01*
X305400D01*
X305700Y20953D01*
Y22153D01*
X305400Y22453D01*
X304800D01*
X304500Y22153D01*
X303001Y22453D02*
Y20653D01*
X303901Y21553D01*
X302701D01*
X300902Y20653D02*
X301501Y20953D01*
X302101Y21553D01*
Y22153D01*
X301801Y22453D01*
X301202D01*
X300902Y22153D01*
Y21853D01*
X301202Y21553D01*
X302101D01*
X37690Y42275D02*
X37390Y41975D01*
Y41375D01*
X37690Y41076D01*
X38889D01*
X39189Y41375D01*
Y41975D01*
X38889Y42275D01*
X39189Y44075D02*
Y42875D01*
X37989Y44075D01*
X37690D01*
X37390Y43775D01*
Y43175D01*
X37690Y42875D01*
Y44674D02*
X37390Y44974D01*
Y45574D01*
X37690Y45874D01*
X38889D01*
X39189Y45574D01*
Y44974D01*
X38889Y44674D01*
X37690D01*
X22729Y42275D02*
X22429Y41975D01*
Y41375D01*
X22729Y41076D01*
X23929D01*
X24228Y41375D01*
Y41975D01*
X23929Y42275D01*
X22729Y42875D02*
X22429Y43175D01*
Y43775D01*
X22729Y44075D01*
X23029D01*
X23329Y43775D01*
Y43475D01*
Y43775D01*
X23629Y44075D01*
X23929D01*
X24228Y43775D01*
Y43175D01*
X23929Y42875D01*
X22729Y44674D02*
X22429Y44974D01*
Y45574D01*
X22729Y45874D01*
X23029D01*
X23329Y45574D01*
X23629Y45874D01*
X23929D01*
X24228Y45574D01*
Y44974D01*
X23929Y44674D01*
X23629D01*
X23329Y44974D01*
X23029Y44674D01*
X22729D01*
X23329Y44974D02*
Y45574D01*
X345818Y35539D02*
X345519Y35839D01*
X344919D01*
X344619Y35539D01*
Y34339D01*
X344919Y34039D01*
X345519D01*
X345818Y34339D01*
X347618Y34039D02*
X346418D01*
X347618Y35239D01*
Y35539D01*
X347318Y35839D01*
X346718D01*
X346418Y35539D01*
X348218D02*
X348518Y35839D01*
X349117D01*
X349417Y35539D01*
Y35239D01*
X349117Y34939D01*
X348817D01*
X349117D01*
X349417Y34639D01*
Y34339D01*
X349117Y34039D01*
X348518D01*
X348218Y34339D01*
X346956Y45764D02*
X347256Y46064D01*
Y46663D01*
X346956Y46963D01*
X345757D01*
X345457Y46663D01*
Y46064D01*
X345757Y45764D01*
X345457Y43964D02*
Y45164D01*
X346656Y43964D01*
X346956D01*
X347256Y44264D01*
Y44864D01*
X346956Y45164D01*
X345457Y43365D02*
Y42765D01*
Y43065D01*
X347256D01*
X346956Y43365D01*
X285539Y18355D02*
X285839Y18655D01*
Y19254D01*
X285539Y19554D01*
X284339D01*
X284039Y19254D01*
Y18655D01*
X284339Y18355D01*
X285539Y17755D02*
X285839Y17455D01*
Y16855D01*
X285539Y16555D01*
X285239D01*
X284939Y16855D01*
Y17155D01*
Y16855D01*
X284639Y16555D01*
X284339D01*
X284039Y16855D01*
Y17455D01*
X284339Y17755D01*
X281208Y18355D02*
X281508Y18655D01*
Y19254D01*
X281208Y19554D01*
X280009D01*
X279709Y19254D01*
Y18655D01*
X280009Y18355D01*
X279709Y16555D02*
Y17755D01*
X280908Y16555D01*
X281208D01*
X281508Y16855D01*
Y17455D01*
X281208Y17755D01*
X242625Y10874D02*
X242925Y11174D01*
Y11774D01*
X242625Y12074D01*
X241426D01*
X241126Y11774D01*
Y11174D01*
X241426Y10874D01*
X241126Y9375D02*
X242925D01*
X242026Y10275D01*
Y9075D01*
X238295Y10874D02*
X238595Y11174D01*
Y11774D01*
X238295Y12074D01*
X237095D01*
X236795Y11774D01*
Y11174D01*
X237095Y10874D01*
X238595Y9075D02*
Y10275D01*
X237695D01*
X237995Y9675D01*
Y9375D01*
X237695Y9075D01*
X237095D01*
X236795Y9375D01*
Y9975D01*
X237095Y10275D01*
X235933Y19929D02*
X236232Y20229D01*
Y20829D01*
X235933Y21129D01*
X234733D01*
X234433Y20829D01*
Y20229D01*
X234733Y19929D01*
X236232Y19330D02*
Y18130D01*
X235933D01*
X234733Y19330D01*
X234433D01*
X240263Y19929D02*
X240563Y20229D01*
Y20829D01*
X240263Y21129D01*
X239064D01*
X238764Y20829D01*
Y20229D01*
X239064Y19929D01*
X240563Y18130D02*
X240263Y18730D01*
X239664Y19330D01*
X239064D01*
X238764Y19030D01*
Y18430D01*
X239064Y18130D01*
X239364D01*
X239664Y18430D01*
Y19330D01*
X264024Y42808D02*
X264324Y42508D01*
X264924D01*
X265224Y42808D01*
Y44007D01*
X264924Y44307D01*
X264324D01*
X264024Y44007D01*
X263424Y44307D02*
X262824D01*
X263124D01*
Y42508D01*
X263424Y42808D01*
X261925D02*
X261625Y42508D01*
X261025D01*
X260725Y42808D01*
Y43108D01*
X261025Y43407D01*
X261325D01*
X261025D01*
X260725Y43707D01*
Y44007D01*
X261025Y44307D01*
X261625D01*
X261925Y44007D01*
X264024Y47926D02*
X264324Y47626D01*
X264924D01*
X265224Y47926D01*
Y49125D01*
X264924Y49425D01*
X264324D01*
X264024Y49125D01*
X263424Y49425D02*
X262824D01*
X263124D01*
Y47626D01*
X263424Y47926D01*
X260725Y49425D02*
X261925D01*
X260725Y48226D01*
Y47926D01*
X261025Y47626D01*
X261625D01*
X261925Y47926D01*
X270031Y60736D02*
X269731Y61036D01*
X269131D01*
X268831Y60736D01*
Y59536D01*
X269131Y59236D01*
X269731D01*
X270031Y59536D01*
X271830Y61036D02*
X271231Y60736D01*
X270631Y60136D01*
Y59536D01*
X270931Y59236D01*
X271531D01*
X271830Y59536D01*
Y59836D01*
X271531Y60136D01*
X270631D01*
X272430Y60736D02*
X272730Y61036D01*
X273330D01*
X273630Y60736D01*
Y60436D01*
X273330Y60136D01*
X273030D01*
X273330D01*
X273630Y59836D01*
Y59536D01*
X273330Y59236D01*
X272730D01*
X272430Y59536D01*
X276125Y42653D02*
X276425Y42353D01*
X277025D01*
X277325Y42653D01*
Y43853D01*
X277025Y44153D01*
X276425D01*
X276125Y43853D01*
X274325Y42353D02*
X274925Y42653D01*
X275525Y43253D01*
Y43853D01*
X275225Y44153D01*
X274625D01*
X274325Y43853D01*
Y43553D01*
X274625Y43253D01*
X275525D01*
X272826Y44153D02*
Y42353D01*
X273726Y43253D01*
X272526D01*
X267200Y38969D02*
X266800Y39369D01*
X266001D01*
X265601Y38969D01*
Y37370D01*
X266001Y36970D01*
X266800D01*
X267200Y37370D01*
X269599Y39369D02*
X268799Y38969D01*
X268000Y38170D01*
Y37370D01*
X268400Y36970D01*
X269199D01*
X269599Y37370D01*
Y37770D01*
X269199Y38170D01*
X268000D01*
X271999Y39369D02*
X270399D01*
Y38170D01*
X271199Y38570D01*
X271599D01*
X271999Y38170D01*
Y37370D01*
X271599Y36970D01*
X270799D01*
X270399Y37370D01*
X63687Y78385D02*
X63387Y78685D01*
X62788D01*
X62488Y78385D01*
Y77185D01*
X62788Y76885D01*
X63387D01*
X63687Y77185D01*
X65187Y76885D02*
Y78685D01*
X64287Y77785D01*
X65487D01*
X66986Y76885D02*
Y78685D01*
X66087Y77785D01*
X67286D01*
X63687Y82485D02*
X63387Y82784D01*
X62788D01*
X62488Y82485D01*
Y81285D01*
X62788Y80985D01*
X63387D01*
X63687Y81285D01*
X65187Y80985D02*
Y82784D01*
X64287Y81885D01*
X65487D01*
X66087Y82485D02*
X66386Y82784D01*
X66986D01*
X67286Y82485D01*
Y82185D01*
X66986Y81885D01*
X66686D01*
X66986D01*
X67286Y81585D01*
Y81285D01*
X66986Y80985D01*
X66386D01*
X66087Y81285D01*
X72950Y71074D02*
X72650Y70775D01*
Y70175D01*
X72950Y69875D01*
X74150D01*
X74450Y70175D01*
Y70775D01*
X74150Y71074D01*
X74450Y72574D02*
X72650D01*
X73550Y71674D01*
Y72874D01*
X72650Y74673D02*
Y73474D01*
X73550D01*
X73250Y74073D01*
Y74373D01*
X73550Y74673D01*
X74150D01*
X74450Y74373D01*
Y73774D01*
X74150Y73474D01*
X19397Y41583D02*
X19697Y41883D01*
Y42483D01*
X19397Y42783D01*
X18198D01*
X17898Y42483D01*
Y41883D01*
X18198Y41583D01*
X17898Y40983D02*
Y40383D01*
Y40683D01*
X19697D01*
X19397Y40983D01*
X17898Y38584D02*
X19697D01*
X18797Y39484D01*
Y38284D01*
X15067Y41583D02*
X15366Y41883D01*
Y42483D01*
X15067Y42783D01*
X13867D01*
X13567Y42483D01*
Y41883D01*
X13867Y41583D01*
X13567Y40983D02*
Y40383D01*
Y40683D01*
X15366D01*
X15067Y40983D01*
X15366Y38284D02*
Y39484D01*
X14467D01*
X14766Y38884D01*
Y38584D01*
X14467Y38284D01*
X13867D01*
X13567Y38584D01*
Y39184D01*
X13867Y39484D01*
X10736Y41583D02*
X11036Y41883D01*
Y42483D01*
X10736Y42783D01*
X9536D01*
X9236Y42483D01*
Y41883D01*
X9536Y41583D01*
X9236Y40983D02*
Y40383D01*
Y40683D01*
X11036D01*
X10736Y40983D01*
X11036Y38284D02*
X10736Y38884D01*
X10136Y39484D01*
X9536D01*
X9236Y39184D01*
Y38584D01*
X9536Y38284D01*
X9836D01*
X10136Y38584D01*
Y39484D01*
X5641Y42397D02*
X6041Y42796D01*
Y43596D01*
X5641Y43996D01*
X4042D01*
X3642Y43596D01*
Y42796D01*
X4042Y42397D01*
X3642Y41597D02*
Y40797D01*
Y41197D01*
X6041D01*
X5641Y41597D01*
X6041Y39597D02*
Y37998D01*
X5641D01*
X4042Y39597D01*
X3642D01*
X37240Y52913D02*
X36940Y53213D01*
X36340D01*
X36040Y52913D01*
Y51713D01*
X36340Y51413D01*
X36940D01*
X37240Y51713D01*
X38739Y51413D02*
Y53213D01*
X37840Y52313D01*
X39039D01*
X39639Y51413D02*
X40239D01*
X39939D01*
Y53213D01*
X39639Y52913D01*
X37293Y57085D02*
X36993Y57385D01*
X36394D01*
X36094Y57085D01*
Y55886D01*
X36394Y55586D01*
X36993D01*
X37293Y55886D01*
X38793Y55586D02*
Y57385D01*
X37893Y56485D01*
X39093D01*
X39693Y57085D02*
X39992Y57385D01*
X40592D01*
X40892Y57085D01*
Y55886D01*
X40592Y55586D01*
X39992D01*
X39693Y55886D01*
Y57085D01*
X37255Y61285D02*
X36956Y61585D01*
X36356D01*
X36056Y61285D01*
Y60086D01*
X36356Y59786D01*
X36956D01*
X37255Y60086D01*
X38755Y59786D02*
Y61585D01*
X37855Y60685D01*
X39055D01*
X40854Y59786D02*
X39655D01*
X40854Y60985D01*
Y61285D01*
X40554Y61585D01*
X39955D01*
X39655Y61285D01*
X139822Y38135D02*
X140221Y38535D01*
Y39334D01*
X139822Y39734D01*
X138222D01*
X137822Y39334D01*
Y38535D01*
X138222Y38135D01*
X137822Y35736D02*
Y37335D01*
X139422Y35736D01*
X139822D01*
X140221Y36136D01*
Y36935D01*
X139822Y37335D01*
X140221Y33336D02*
Y34936D01*
X139022D01*
X139422Y34136D01*
Y33736D01*
X139022Y33336D01*
X138222D01*
X137822Y33736D01*
Y34536D01*
X138222Y34936D01*
X218653Y13885D02*
X218353Y14185D01*
X217753D01*
X217454Y13885D01*
Y12686D01*
X217753Y12386D01*
X218353D01*
X218653Y12686D01*
X220453Y14185D02*
X219853Y13885D01*
X219253Y13285D01*
Y12686D01*
X219553Y12386D01*
X220153D01*
X220453Y12686D01*
Y12986D01*
X220153Y13285D01*
X219253D01*
X221052Y13885D02*
X221352Y14185D01*
X221952D01*
X222252Y13885D01*
Y12686D01*
X221952Y12386D01*
X221352D01*
X221052Y12686D01*
Y13885D01*
X222940Y23866D02*
X223240Y24166D01*
Y24766D01*
X222940Y25066D01*
X221741D01*
X221441Y24766D01*
Y24166D01*
X221741Y23866D01*
X222940Y23267D02*
X223240Y22967D01*
Y22367D01*
X222940Y22067D01*
X222640D01*
X222341Y22367D01*
Y22667D01*
Y22367D01*
X222041Y22067D01*
X221741D01*
X221441Y22367D01*
Y22967D01*
X221741Y23267D01*
X223240Y20268D02*
Y21467D01*
X222341D01*
X222640Y20867D01*
Y20568D01*
X222341Y20268D01*
X221741D01*
X221441Y20568D01*
Y21167D01*
X221741Y21467D01*
X209948Y10874D02*
X210248Y11174D01*
Y11774D01*
X209948Y12074D01*
X208749D01*
X208449Y11774D01*
Y11174D01*
X208749Y10874D01*
X208449Y9075D02*
Y10275D01*
X209648Y9075D01*
X209948D01*
X210248Y9375D01*
Y9975D01*
X209948Y10275D01*
Y8475D02*
X210248Y8175D01*
Y7576D01*
X209948Y7276D01*
X209648D01*
X209349Y7576D01*
X209049Y7276D01*
X208749D01*
X208449Y7576D01*
Y8175D01*
X208749Y8475D01*
X209049D01*
X209349Y8175D01*
X209648Y8475D01*
X209948D01*
X209349Y8175D02*
Y7576D01*
X235817Y48242D02*
X236217Y48642D01*
Y49442D01*
X235817Y49842D01*
X234218D01*
X233818Y49442D01*
Y48642D01*
X234218Y48242D01*
X235817Y47443D02*
X236217Y47043D01*
Y46243D01*
X235817Y45843D01*
X235417D01*
X235017Y46243D01*
Y46643D01*
Y46243D01*
X234617Y45843D01*
X234218D01*
X233818Y46243D01*
Y47043D01*
X234218Y47443D01*
X236217Y43444D02*
X235817Y44244D01*
X235017Y45043D01*
X234218D01*
X233818Y44644D01*
Y43844D01*
X234218Y43444D01*
X234617D01*
X235017Y43844D01*
Y45043D01*
X216662Y42514D02*
X217062Y42914D01*
Y43714D01*
X216662Y44113D01*
X215063D01*
X214663Y43714D01*
Y42914D01*
X215063Y42514D01*
X216662Y41714D02*
X217062Y41314D01*
Y40515D01*
X216662Y40115D01*
X216263D01*
X215863Y40515D01*
Y40914D01*
Y40515D01*
X215463Y40115D01*
X215063D01*
X214663Y40515D01*
Y41314D01*
X215063Y41714D01*
X217062Y39315D02*
Y37716D01*
X216662D01*
X215063Y39315D01*
X214663D01*
X171213Y35510D02*
X171513Y35810D01*
Y36410D01*
X171213Y36710D01*
X170013D01*
X169713Y36410D01*
Y35810D01*
X170013Y35510D01*
Y34910D02*
X169713Y34611D01*
Y34011D01*
X170013Y33711D01*
X171213D01*
X171513Y34011D01*
Y34611D01*
X171213Y34910D01*
X170913D01*
X170613Y34611D01*
Y33711D01*
X169713Y31911D02*
Y33111D01*
X170913Y31911D01*
X171213D01*
X171513Y32211D01*
Y32811D01*
X171213Y33111D01*
X175313Y35456D02*
X175613Y35756D01*
Y36356D01*
X175313Y36656D01*
X174113D01*
X173813Y36356D01*
Y35756D01*
X174113Y35456D01*
Y34856D02*
X173813Y34556D01*
Y33956D01*
X174113Y33656D01*
X175313D01*
X175613Y33956D01*
Y34556D01*
X175313Y34856D01*
X175013D01*
X174713Y34556D01*
Y33656D01*
X173813Y33057D02*
Y32457D01*
Y32757D01*
X175613D01*
X175313Y33057D01*
X196700Y29678D02*
X196300Y30078D01*
X195500D01*
X195100Y29678D01*
Y28079D01*
X195500Y27679D01*
X196300D01*
X196700Y28079D01*
X197499Y29678D02*
X197899Y30078D01*
X198699D01*
X199099Y29678D01*
Y29279D01*
X198699Y28879D01*
X198299D01*
X198699D01*
X199099Y28479D01*
Y28079D01*
X198699Y27679D01*
X197899D01*
X197499Y28079D01*
X201498Y27679D02*
X199898D01*
X201498Y29279D01*
Y29678D01*
X201098Y30078D01*
X200298D01*
X199898Y29678D01*
X196700Y24378D02*
X196300Y24778D01*
X195500D01*
X195100Y24378D01*
Y22779D01*
X195500Y22379D01*
X196300D01*
X196700Y22779D01*
X197499Y24378D02*
X197899Y24778D01*
X198699D01*
X199099Y24378D01*
Y23979D01*
X198699Y23579D01*
X198299D01*
X198699D01*
X199099Y23179D01*
Y22779D01*
X198699Y22379D01*
X197899D01*
X197499Y22779D01*
X199898Y22379D02*
X200698D01*
X200298D01*
Y24778D01*
X199898Y24378D01*
X180214Y39156D02*
X180514Y38856D01*
X181114D01*
X181413Y39156D01*
Y40356D01*
X181114Y40655D01*
X180514D01*
X180214Y40356D01*
X179614Y39156D02*
X179314Y38856D01*
X178714D01*
X178414Y39156D01*
Y39456D01*
X178714Y39756D01*
X178414Y40056D01*
Y40356D01*
X178714Y40655D01*
X179314D01*
X179614Y40356D01*
Y40056D01*
X179314Y39756D01*
X179614Y39456D01*
Y39156D01*
X179314Y39756D02*
X178714D01*
X177815Y40356D02*
X177515Y40655D01*
X176915D01*
X176615Y40356D01*
Y39156D01*
X176915Y38856D01*
X177515D01*
X177815Y39156D01*
Y39456D01*
X177515Y39756D01*
X176615D01*
X187027Y43942D02*
X187427Y43542D01*
X188227D01*
X188627Y43942D01*
Y45541D01*
X188227Y45941D01*
X187427D01*
X187027Y45541D01*
X186228Y43942D02*
X185828Y43542D01*
X185028D01*
X184628Y43942D01*
Y44342D01*
X185028Y44741D01*
X185428D01*
X185028D01*
X184628Y45141D01*
Y45541D01*
X185028Y45941D01*
X185828D01*
X186228Y45541D01*
X183828Y43942D02*
X183429Y43542D01*
X182629D01*
X182229Y43942D01*
Y45541D01*
X182629Y45941D01*
X183429D01*
X183828Y45541D01*
Y43942D01*
X187027Y49242D02*
X187427Y48842D01*
X188227D01*
X188627Y49242D01*
Y50841D01*
X188227Y51241D01*
X187427D01*
X187027Y50841D01*
X184628Y51241D02*
X186228D01*
X184628Y49642D01*
Y49242D01*
X185028Y48842D01*
X185828D01*
X186228Y49242D01*
X183828Y50841D02*
X183429Y51241D01*
X182629D01*
X182229Y50841D01*
Y49242D01*
X182629Y48842D01*
X183429D01*
X183828Y49242D01*
Y49642D01*
X183429Y50041D01*
X182229D01*
X197213Y34444D02*
X196913Y34744D01*
X196313D01*
X196013Y34444D01*
Y33244D01*
X196313Y32945D01*
X196913D01*
X197213Y33244D01*
X197813D02*
X198113Y32945D01*
X198713D01*
X199012Y33244D01*
Y34444D01*
X198713Y34744D01*
X198113D01*
X197813Y34444D01*
Y34144D01*
X198113Y33844D01*
X199012D01*
X199612Y34444D02*
X199912Y34744D01*
X200512D01*
X200812Y34444D01*
Y33244D01*
X200512Y32945D01*
X199912D01*
X199612Y33244D01*
Y34444D01*
X159620Y24546D02*
X159221Y24147D01*
Y23347D01*
X159620Y22947D01*
X161220D01*
X161620Y23347D01*
Y24147D01*
X161220Y24546D01*
X161620Y26946D02*
Y25346D01*
X160020Y26946D01*
X159620D01*
X159221Y26546D01*
Y25746D01*
X159620Y25346D01*
X159221Y27745D02*
Y29345D01*
X159620D01*
X161220Y27745D01*
X161620D01*
X164920Y24546D02*
X164521Y24147D01*
Y23347D01*
X164920Y22947D01*
X166520D01*
X166920Y23347D01*
Y24147D01*
X166520Y24546D01*
X166920Y26946D02*
Y25346D01*
X165320Y26946D01*
X164920D01*
X164521Y26546D01*
Y25746D01*
X164920Y25346D01*
X164521Y29345D02*
X164920Y28545D01*
X165720Y27745D01*
X166520D01*
X166920Y28145D01*
Y28945D01*
X166520Y29345D01*
X166120D01*
X165720Y28945D01*
Y27745D01*
X145180Y38142D02*
X145580Y38541D01*
Y39341D01*
X145180Y39741D01*
X143581D01*
X143181Y39341D01*
Y38541D01*
X143581Y38142D01*
X143181Y35742D02*
Y37342D01*
X144780Y35742D01*
X145180D01*
X145580Y36142D01*
Y36942D01*
X145180Y37342D01*
X143181Y33743D02*
X145580D01*
X144380Y34943D01*
Y33343D01*
X31225Y87531D02*
X30826Y87931D01*
X30026D01*
X29626Y87531D01*
Y85931D01*
X30026Y85532D01*
X30826D01*
X31225Y85931D01*
X32025Y87531D02*
X32425Y87931D01*
X33225D01*
X33625Y87531D01*
Y87131D01*
X33225Y86731D01*
X32825D01*
X33225D01*
X33625Y86331D01*
Y85931D01*
X33225Y85532D01*
X32425D01*
X32025Y85931D01*
X35624Y85532D02*
Y87931D01*
X34424Y86731D01*
X36024D01*
D178*
X292476Y31676D02*
Y30276D01*
X291777D01*
X291543Y30509D01*
Y30976D01*
X291777Y31209D01*
X292476D01*
X292010D02*
X291543Y31676D01*
X291077D02*
X290610D01*
X290844D01*
Y30276D01*
X291077Y30509D01*
X289911D02*
X289677Y30276D01*
X289211D01*
X288978Y30509D01*
Y31442D01*
X289211Y31676D01*
X289677D01*
X289911Y31442D01*
Y30509D01*
X342815Y30709D02*
X344215D01*
Y30009D01*
X343981Y29776D01*
X343515D01*
X343282Y30009D01*
Y30709D01*
Y30242D02*
X342815Y29776D01*
Y29309D02*
Y28843D01*
Y29076D01*
X344215D01*
X343981Y29309D01*
X336221Y6498D02*
Y7498D01*
X335554D01*
X335221Y7331D02*
X335054Y7498D01*
X334721D01*
X334554Y7331D01*
Y6665D01*
X334721Y6498D01*
X335054D01*
X335221Y6665D01*
Y6831D01*
X335054Y6998D01*
X334554D01*
X351855Y27380D02*
X352854D01*
Y28046D01*
Y28379D02*
Y28712D01*
Y28546D01*
X351855D01*
X352021Y28379D01*
Y29212D02*
X351855Y29379D01*
Y29712D01*
X352021Y29879D01*
X352688D01*
X352854Y29712D01*
Y29379D01*
X352688Y29212D01*
X352021D01*
X287508Y34000D02*
X286108D01*
Y34700D01*
X286342Y34933D01*
X286808D01*
X287041Y34700D01*
Y34000D01*
Y34466D02*
X287508Y34933D01*
X286342Y35399D02*
X286108Y35633D01*
Y36099D01*
X286342Y36333D01*
X286575D01*
X286808Y36099D01*
X287041Y36333D01*
X287275D01*
X287508Y36099D01*
Y35633D01*
X287275Y35399D01*
X287041D01*
X286808Y35633D01*
X286575Y35399D01*
X286342D01*
X286808Y35633D02*
Y36099D01*
X339484Y47677D02*
X338484D01*
Y47011D01*
X339317Y46678D02*
X339484Y46511D01*
Y46178D01*
X339317Y46011D01*
X339151D01*
X338984Y46178D01*
X338818Y46011D01*
X338651D01*
X338484Y46178D01*
Y46511D01*
X338651Y46678D01*
X338818D01*
X338984Y46511D01*
X339151Y46678D01*
X339317D01*
X338984Y46511D02*
Y46178D01*
X284717Y42481D02*
Y43881D01*
X285416D01*
X285650Y43648D01*
Y43181D01*
X285416Y42948D01*
X284717D01*
X285183D02*
X285650Y42481D01*
X286116D02*
X286583D01*
X286349D01*
Y43881D01*
X286116Y43648D01*
X288215Y42481D02*
X287282D01*
X288215Y43414D01*
Y43648D01*
X287982Y43881D01*
X287516D01*
X287282Y43648D01*
X192843Y49156D02*
Y50556D01*
X193543D01*
X193776Y50323D01*
Y49856D01*
X193543Y49623D01*
X192843D01*
X193309D02*
X193776Y49156D01*
X195176Y50556D02*
X194243D01*
Y49856D01*
X194709Y50089D01*
X194942D01*
X195176Y49856D01*
Y49390D01*
X194942Y49156D01*
X194476D01*
X194243Y49390D01*
X195642Y50323D02*
X195875Y50556D01*
X196342D01*
X196575Y50323D01*
Y50089D01*
X196342Y49856D01*
X196575Y49623D01*
Y49390D01*
X196342Y49156D01*
X195875D01*
X195642Y49390D01*
Y49623D01*
X195875Y49856D01*
X195642Y50089D01*
Y50323D01*
X195875Y49856D02*
X196342D01*
X16018Y62713D02*
X17418D01*
Y62014D01*
X17184Y61780D01*
X16718D01*
X16485Y62014D01*
Y62713D01*
Y62247D02*
X16018Y61780D01*
X17184Y61314D02*
X17418Y61081D01*
Y60614D01*
X17184Y60381D01*
X16951D01*
X16718Y60614D01*
Y60847D01*
Y60614D01*
X16485Y60381D01*
X16251D01*
X16018Y60614D01*
Y61081D01*
X16251Y61314D01*
X16018Y59914D02*
Y59448D01*
Y59681D01*
X17418D01*
X17184Y59914D01*
X12354Y62729D02*
X13754D01*
Y62029D01*
X13521Y61796D01*
X13054D01*
X12821Y62029D01*
Y62729D01*
Y62262D02*
X12354Y61796D01*
X13521Y61330D02*
X13754Y61096D01*
Y60630D01*
X13521Y60396D01*
X13287D01*
X13054Y60630D01*
Y60863D01*
Y60630D01*
X12821Y60396D01*
X12588D01*
X12354Y60630D01*
Y61096D01*
X12588Y61330D01*
X13521Y59930D02*
X13754Y59697D01*
Y59230D01*
X13521Y58997D01*
X12588D01*
X12354Y59230D01*
Y59697D01*
X12588Y59930D01*
X13521D01*
X260743Y20505D02*
Y19672D01*
X260910Y19505D01*
X261243D01*
X261410Y19672D01*
Y20505D01*
X261743Y19505D02*
X262076D01*
X261910D01*
Y20505D01*
X261743Y20339D01*
X243264Y34752D02*
Y33352D01*
X242564D01*
X242331Y33586D01*
Y34052D01*
X242564Y34285D01*
X243264D01*
X242797D02*
X242331Y34752D01*
X241864Y33586D02*
X241631Y33352D01*
X241164D01*
X240931Y33586D01*
Y33819D01*
X241164Y34052D01*
X241398D01*
X241164D01*
X240931Y34285D01*
Y34519D01*
X241164Y34752D01*
X241631D01*
X241864Y34519D01*
X293956Y17029D02*
Y16362D01*
X294456D01*
Y16695D01*
Y16362D01*
X294956D01*
X293956Y17362D02*
X294956D01*
Y17862D01*
X294789Y18028D01*
X294623D01*
X294456Y17862D01*
Y17362D01*
Y17862D01*
X294290Y18028D01*
X294123D01*
X293956Y17862D01*
Y17362D01*
Y18361D02*
Y19028D01*
X294123D01*
X294789Y18361D01*
X294956D01*
X231678Y8147D02*
Y7480D01*
X232177D01*
Y7813D01*
Y7480D01*
X232677D01*
X231678Y8480D02*
X232677D01*
Y8980D01*
X232511Y9146D01*
X232344D01*
X232177Y8980D01*
Y8480D01*
Y8980D01*
X232011Y9146D01*
X231844D01*
X231678Y8980D01*
Y8480D01*
X232677Y9480D02*
Y9813D01*
Y9646D01*
X231678D01*
X231844Y9480D01*
X230496Y18777D02*
Y18110D01*
X230996D01*
Y18443D01*
Y18110D01*
X231496D01*
X230496Y19110D02*
X231496D01*
Y19610D01*
X231329Y19776D01*
X231163D01*
X230996Y19610D01*
Y19110D01*
Y19610D01*
X230830Y19776D01*
X230663D01*
X230496Y19610D01*
Y19110D01*
X231496Y20776D02*
Y20110D01*
X230830Y20776D01*
X230663D01*
X230496Y20609D01*
Y20276D01*
X230663Y20110D01*
X264386Y52877D02*
Y53543D01*
X263886D01*
Y53210D01*
Y53543D01*
X263386D01*
X264386Y52544D02*
X263386D01*
Y52044D01*
X263552Y51877D01*
X263719D01*
X263886Y52044D01*
Y52544D01*
Y52044D01*
X264052Y51877D01*
X264219D01*
X264386Y52044D01*
Y52544D01*
X264219Y51544D02*
X264386Y51377D01*
Y51044D01*
X264219Y50877D01*
X264052D01*
X263886Y51044D01*
X263719Y50877D01*
X263552D01*
X263386Y51044D01*
Y51377D01*
X263552Y51544D01*
X263719D01*
X263886Y51377D01*
X264052Y51544D01*
X264219D01*
X263886Y51377D02*
Y51044D01*
X254925Y37153D02*
Y38552D01*
X255624D01*
X255858Y38319D01*
Y37852D01*
X255624Y37619D01*
X254925D01*
X255391D02*
X255858Y37153D01*
X256324Y37386D02*
X256557Y37153D01*
X257024D01*
X257257Y37386D01*
Y38319D01*
X257024Y38552D01*
X256557D01*
X256324Y38319D01*
Y38086D01*
X256557Y37852D01*
X257257D01*
X274124Y51253D02*
X273125Y50586D01*
X274124D02*
X273125Y51253D01*
Y49587D02*
Y50253D01*
X273791Y49587D01*
X273958D01*
X274124Y49753D01*
Y50086D01*
X273958Y50253D01*
X250061Y54787D02*
Y54121D01*
X250227Y53954D01*
X250560D01*
X250727Y54121D01*
Y54787D01*
X250560Y54954D01*
X250227D01*
X250394Y54621D02*
X250061Y54954D01*
X250227D02*
X250061Y54787D01*
X249228Y54954D02*
Y53954D01*
X249727Y54454D01*
X249061D01*
X246027Y57954D02*
X247427D01*
Y57254D01*
X247193Y57021D01*
X246727D01*
X246494Y57254D01*
Y57954D01*
Y57487D02*
X246027Y57021D01*
X247193Y56554D02*
X247427Y56321D01*
Y55855D01*
X247193Y55621D01*
X246960D01*
X246727Y55855D01*
Y56088D01*
Y55855D01*
X246494Y55621D01*
X246260D01*
X246027Y55855D01*
Y56321D01*
X246260Y56554D01*
X246027Y54222D02*
Y55155D01*
X246960Y54222D01*
X247193D01*
X247427Y54455D01*
Y54922D01*
X247193Y55155D01*
X69398Y58705D02*
X67998D01*
Y59404D01*
X68231Y59638D01*
X68698D01*
X68931Y59404D01*
Y58705D01*
Y59171D02*
X69398Y59638D01*
X68231Y60104D02*
X67998Y60338D01*
Y60804D01*
X68231Y61037D01*
X68465D01*
X68698Y60804D01*
Y60571D01*
Y60804D01*
X68931Y61037D01*
X69164D01*
X69398Y60804D01*
Y60338D01*
X69164Y60104D01*
X67998Y61504D02*
Y62437D01*
X68231D01*
X69164Y61504D01*
X69398D01*
X65461Y58705D02*
X64061D01*
Y59404D01*
X64294Y59638D01*
X64761D01*
X64994Y59404D01*
Y58705D01*
Y59171D02*
X65461Y59638D01*
X64294Y60104D02*
X64061Y60338D01*
Y60804D01*
X64294Y61037D01*
X64528D01*
X64761Y60804D01*
Y60571D01*
Y60804D01*
X64994Y61037D01*
X65227D01*
X65461Y60804D01*
Y60338D01*
X65227Y60104D01*
X64061Y62437D02*
X64294Y61970D01*
X64761Y61504D01*
X65227D01*
X65461Y61737D01*
Y62204D01*
X65227Y62437D01*
X64994D01*
X64761Y62204D01*
Y61504D01*
X65538Y70866D02*
X66371D01*
X66537Y71033D01*
Y71366D01*
X66371Y71533D01*
X65538D01*
X66537Y71866D02*
Y72199D01*
Y72032D01*
X65538D01*
X65704Y71866D01*
Y72699D02*
X65538Y72865D01*
Y73199D01*
X65704Y73365D01*
X65871D01*
X66037Y73199D01*
Y73032D01*
Y73199D01*
X66204Y73365D01*
X66371D01*
X66537Y73199D01*
Y72865D01*
X66371Y72699D01*
X51300Y80255D02*
Y79588D01*
X51466Y79422D01*
X51799D01*
X51966Y79588D01*
Y80255D01*
X51799Y80421D01*
X51466D01*
X51633Y80088D02*
X51300Y80421D01*
X51466D02*
X51300Y80255D01*
X50967Y79588D02*
X50800Y79422D01*
X50467D01*
X50300Y79588D01*
Y79755D01*
X50467Y79921D01*
X50633D01*
X50467D01*
X50300Y80088D01*
Y80255D01*
X50467Y80421D01*
X50800D01*
X50967Y80255D01*
X57437Y74354D02*
Y72954D01*
X56737D01*
X56504Y73188D01*
Y73654D01*
X56737Y73888D01*
X57437D01*
X56971D02*
X56504Y74354D01*
X56037Y73188D02*
X55804Y72954D01*
X55338D01*
X55104Y73188D01*
Y73421D01*
X55338Y73654D01*
X55571D01*
X55338D01*
X55104Y73888D01*
Y74121D01*
X55338Y74354D01*
X55804D01*
X56037Y74121D01*
X54638Y73188D02*
X54405Y72954D01*
X53938D01*
X53705Y73188D01*
Y73421D01*
X53938Y73654D01*
X54171D01*
X53938D01*
X53705Y73888D01*
Y74121D01*
X53938Y74354D01*
X54405D01*
X54638Y74121D01*
X50437Y31390D02*
Y32789D01*
X51137D01*
X51370Y32556D01*
Y32089D01*
X51137Y31856D01*
X50437D01*
X50903D02*
X51370Y31390D01*
X52770Y32789D02*
X51837D01*
Y32089D01*
X52303Y32323D01*
X52536D01*
X52770Y32089D01*
Y31623D01*
X52536Y31390D01*
X52070D01*
X51837Y31623D01*
X54169Y31390D02*
X53236D01*
X54169Y32323D01*
Y32556D01*
X53936Y32789D01*
X53469D01*
X53236Y32556D01*
X60280Y26272D02*
Y27671D01*
X60979D01*
X61213Y27438D01*
Y26971D01*
X60979Y26738D01*
X60280D01*
X60746D02*
X61213Y26272D01*
X62612Y27671D02*
X61679D01*
Y26971D01*
X62146Y27205D01*
X62379D01*
X62612Y26971D01*
Y26505D01*
X62379Y26272D01*
X61912D01*
X61679Y26505D01*
X63079Y27438D02*
X63312Y27671D01*
X63778D01*
X64012Y27438D01*
Y27205D01*
X63778Y26971D01*
X63545D01*
X63778D01*
X64012Y26738D01*
Y26505D01*
X63778Y26272D01*
X63312D01*
X63079Y26505D01*
X22332Y32677D02*
Y31277D01*
X21632D01*
X21398Y31510D01*
Y31977D01*
X21632Y32210D01*
X22332D01*
X21865D02*
X21398Y32677D01*
X20232D02*
Y31277D01*
X20932Y31977D01*
X19999D01*
X19532Y31277D02*
X18599D01*
Y31510D01*
X19532Y32443D01*
Y32677D01*
X22332Y28977D02*
Y27577D01*
X21632D01*
X21398Y27810D01*
Y28277D01*
X21632Y28510D01*
X22332D01*
X21865D02*
X21398Y28977D01*
X20232D02*
Y27577D01*
X20932Y28277D01*
X19999D01*
X19532Y28743D02*
X19299Y28977D01*
X18833D01*
X18599Y28743D01*
Y27810D01*
X18833Y27577D01*
X19299D01*
X19532Y27810D01*
Y28044D01*
X19299Y28277D01*
X18599D01*
X15331Y18577D02*
Y19976D01*
X16031D01*
X16264Y19743D01*
Y19276D01*
X16031Y19043D01*
X15331D01*
X15798D02*
X16264Y18577D01*
X17664Y19976D02*
X16731D01*
Y19276D01*
X17198Y19510D01*
X17431D01*
X17664Y19276D01*
Y18810D01*
X17431Y18577D01*
X16964D01*
X16731Y18810D01*
X18131Y18577D02*
X18597D01*
X18364D01*
Y19976D01*
X18131Y19743D01*
X15331Y11977D02*
Y13376D01*
X16031D01*
X16264Y13143D01*
Y12676D01*
X16031Y12443D01*
X15331D01*
X15798D02*
X16264Y11977D01*
X17664Y13376D02*
X16731D01*
Y12676D01*
X17198Y12910D01*
X17431D01*
X17664Y12676D01*
Y12210D01*
X17431Y11977D01*
X16964D01*
X16731Y12210D01*
X18131Y13143D02*
X18364Y13376D01*
X18830D01*
X19064Y13143D01*
Y12210D01*
X18830Y11977D01*
X18364D01*
X18131Y12210D01*
Y13143D01*
X51181Y93489D02*
Y94488D01*
X50681D01*
X50515Y94322D01*
Y93655D01*
X50681Y93489D01*
X51181D01*
X49515D02*
X50181D01*
Y93988D01*
X49848Y93822D01*
X49682D01*
X49515Y93988D01*
Y94322D01*
X49682Y94488D01*
X50015D01*
X50181Y94322D01*
X214280Y4768D02*
X212880D01*
Y5468D01*
X213113Y5701D01*
X213580D01*
X213813Y5468D01*
Y4768D01*
Y5234D02*
X214280Y5701D01*
Y6867D02*
X212880D01*
X213580Y6167D01*
Y7100D01*
X214280Y8267D02*
X212880D01*
X213580Y7567D01*
Y8500D01*
X224760Y9555D02*
Y8156D01*
X224060D01*
X223827Y8389D01*
Y8855D01*
X224060Y9089D01*
X224760D01*
X224293D02*
X223827Y9555D01*
X222660D02*
Y8156D01*
X223360Y8855D01*
X222427D01*
X221028Y8156D02*
X221961D01*
Y8855D01*
X221494Y8622D01*
X221261D01*
X221028Y8855D01*
Y9322D01*
X221261Y9555D01*
X221727D01*
X221961Y9322D01*
X218634Y18123D02*
X217234D01*
Y18823D01*
X217468Y19056D01*
X217934D01*
X218167Y18823D01*
Y18123D01*
Y18589D02*
X218634Y19056D01*
Y20222D02*
X217234D01*
X217934Y19522D01*
Y20455D01*
X217468Y20922D02*
X217234Y21155D01*
Y21622D01*
X217468Y21855D01*
X217701D01*
X217934Y21622D01*
Y21388D01*
Y21622D01*
X218167Y21855D01*
X218401D01*
X218634Y21622D01*
Y21155D01*
X218401Y20922D01*
X213434Y18113D02*
X212034D01*
Y18812D01*
X212268Y19046D01*
X212734D01*
X212967Y18812D01*
Y18113D01*
Y18579D02*
X213434Y19046D01*
Y19512D02*
Y19979D01*
Y19745D01*
X212034D01*
X212268Y19512D01*
X213201Y20678D02*
X213434Y20912D01*
Y21378D01*
X213201Y21611D01*
X212268D01*
X212034Y21378D01*
Y20912D01*
X212268Y20678D01*
X212501D01*
X212734Y20912D01*
Y21611D01*
X211834Y15119D02*
X212667D01*
X212834Y15285D01*
Y15619D01*
X212667Y15785D01*
X211834D01*
Y16785D02*
X212001Y16452D01*
X212334Y16118D01*
X212667D01*
X212834Y16285D01*
Y16618D01*
X212667Y16785D01*
X212501D01*
X212334Y16618D01*
Y16118D01*
X208161Y25153D02*
X209561D01*
Y24454D01*
X209328Y24220D01*
X208861D01*
X208628Y24454D01*
Y25153D01*
Y24687D02*
X208161Y24220D01*
Y23054D02*
X209561D01*
X208861Y23754D01*
Y22821D01*
X209561Y21421D02*
X209328Y21888D01*
X208861Y22354D01*
X208395D01*
X208161Y22121D01*
Y21655D01*
X208395Y21421D01*
X208628D01*
X208861Y21655D01*
Y22354D01*
X224429Y42281D02*
Y41448D01*
X224596Y41281D01*
X224929D01*
X225096Y41448D01*
Y42281D01*
X225429Y42114D02*
X225595Y42281D01*
X225929D01*
X226095Y42114D01*
Y41948D01*
X225929Y41781D01*
X226095Y41614D01*
Y41448D01*
X225929Y41281D01*
X225595D01*
X225429Y41448D01*
Y41614D01*
X225595Y41781D01*
X225429Y41948D01*
Y42114D01*
X225595Y41781D02*
X225929D01*
X235563Y37229D02*
Y35829D01*
X234863D01*
X234630Y36062D01*
Y36529D01*
X234863Y36762D01*
X235563D01*
X235096D02*
X234630Y37229D01*
X233230D02*
X234163D01*
X233230Y36295D01*
Y36062D01*
X233463Y35829D01*
X233930D01*
X234163Y36062D01*
X231831Y35829D02*
X232297Y36062D01*
X232764Y36529D01*
Y36995D01*
X232530Y37229D01*
X232064D01*
X231831Y36995D01*
Y36762D01*
X232064Y36529D01*
X232764D01*
X169313Y25709D02*
Y27108D01*
X170013D01*
X170246Y26875D01*
Y26408D01*
X170013Y26175D01*
X169313D01*
X169780D02*
X170246Y25709D01*
X171646Y27108D02*
X171179Y26875D01*
X170713Y26408D01*
Y25942D01*
X170946Y25709D01*
X171413D01*
X171646Y25942D01*
Y26175D01*
X171413Y26408D01*
X170713D01*
X173046Y27108D02*
X172579Y26875D01*
X172113Y26408D01*
Y25942D01*
X172346Y25709D01*
X172812D01*
X173046Y25942D01*
Y26175D01*
X172812Y26408D01*
X172113D01*
X179713Y12655D02*
X178314D01*
Y13355D01*
X178547Y13589D01*
X179014D01*
X179247Y13355D01*
Y12655D01*
Y13122D02*
X179713Y13589D01*
Y14988D02*
Y14055D01*
X178780Y14988D01*
X178547D01*
X178314Y14755D01*
Y14288D01*
X178547Y14055D01*
X178314Y16388D02*
Y15455D01*
X179014D01*
X178780Y15921D01*
Y16154D01*
X179014Y16388D01*
X179480D01*
X179713Y16154D01*
Y15688D01*
X179480Y15455D01*
X207713Y42500D02*
Y41100D01*
X207014D01*
X206780Y41334D01*
Y41800D01*
X207014Y42033D01*
X207713D01*
X207247D02*
X206780Y42500D01*
X205381D02*
X206314D01*
X205381Y41567D01*
Y41334D01*
X205614Y41100D01*
X206081D01*
X206314Y41334D01*
X204914D02*
X204681Y41100D01*
X204215D01*
X203981Y41334D01*
Y42267D01*
X204215Y42500D01*
X204681D01*
X204914Y42267D01*
Y41334D01*
X181813Y39156D02*
Y40555D01*
X182513D01*
X182746Y40322D01*
Y39855D01*
X182513Y39622D01*
X181813D01*
X182280D02*
X182746Y39156D01*
X184146D02*
X183213D01*
X184146Y40088D01*
Y40322D01*
X183913Y40555D01*
X183446D01*
X183213Y40322D01*
X185312Y39156D02*
Y40555D01*
X184613Y39855D01*
X185546D01*
X203713Y38665D02*
Y37265D01*
X203014D01*
X202780Y37498D01*
Y37965D01*
X203014Y38198D01*
X203713D01*
X203247D02*
X202780Y38665D01*
X201381D02*
X202314D01*
X201381Y37732D01*
Y37498D01*
X201614Y37265D01*
X202081D01*
X202314Y37498D01*
X199981Y38665D02*
X200914D01*
X199981Y37732D01*
Y37498D01*
X200215Y37265D01*
X200681D01*
X200914Y37498D01*
X150600Y20900D02*
Y22299D01*
X151300D01*
X151533Y22066D01*
Y21600D01*
X151300Y21366D01*
X150600D01*
X151067D02*
X151533Y20900D01*
X151999D02*
X152466D01*
X152233D01*
Y22299D01*
X151999Y22066D01*
X154099Y22299D02*
X153166D01*
Y21600D01*
X153632Y21833D01*
X153866D01*
X154099Y21600D01*
Y21133D01*
X153866Y20900D01*
X153399D01*
X153166Y21133D01*
X157600Y18000D02*
Y16601D01*
X156900D01*
X156667Y16834D01*
Y17300D01*
X156900Y17534D01*
X157600D01*
X157133D02*
X156667Y18000D01*
X156201D02*
X155734D01*
X155967D01*
Y16601D01*
X156201Y16834D01*
X154101Y16601D02*
X154568Y16834D01*
X155034Y17300D01*
Y17767D01*
X154801Y18000D01*
X154334D01*
X154101Y17767D01*
Y17534D01*
X154334Y17300D01*
X155034D01*
X199845Y53865D02*
Y52465D01*
X199145D01*
X198912Y52698D01*
Y53165D01*
X199145Y53398D01*
X199845D01*
X199378D02*
X198912Y53865D01*
X197512Y52465D02*
X198445D01*
Y53165D01*
X197979Y52932D01*
X197746D01*
X197512Y53165D01*
Y53631D01*
X197746Y53865D01*
X198212D01*
X198445Y53631D01*
X196113Y52465D02*
X196579Y52698D01*
X197046Y53165D01*
Y53631D01*
X196812Y53865D01*
X196346D01*
X196113Y53631D01*
Y53398D01*
X196346Y53165D01*
X197046D01*
X204247Y54116D02*
X203580D01*
X203414Y53950D01*
Y53617D01*
X203580Y53450D01*
X204247D01*
X204413Y53617D01*
Y53950D01*
X204080Y53783D02*
X204413Y54116D01*
Y53950D02*
X204247Y54116D01*
X203414Y55116D02*
X203580Y54783D01*
X203914Y54450D01*
X204247D01*
X204413Y54616D01*
Y54950D01*
X204247Y55116D01*
X204080D01*
X203914Y54950D01*
Y54450D01*
X210280Y51331D02*
Y51998D01*
X210113Y52164D01*
X209780D01*
X209613Y51998D01*
Y51331D01*
X209780Y51165D01*
X210113D01*
X209947Y51498D02*
X210280Y51165D01*
X210113D02*
X210280Y51331D01*
X211280Y52164D02*
X210613D01*
Y51665D01*
X210946Y51831D01*
X211113D01*
X211280Y51665D01*
Y51331D01*
X211113Y51165D01*
X210780D01*
X210613Y51331D01*
X213736Y57980D02*
Y56581D01*
X213036D01*
X212803Y56814D01*
Y57280D01*
X213036Y57514D01*
X213736D01*
X213270D02*
X212803Y57980D01*
X211404D02*
X212337D01*
X211404Y57047D01*
Y56814D01*
X211637Y56581D01*
X212103D01*
X212337Y56814D01*
X210937Y57980D02*
X210471D01*
X210704D01*
Y56581D01*
X210937Y56814D01*
X200413Y49156D02*
Y50556D01*
X201113D01*
X201346Y50323D01*
Y49856D01*
X201113Y49623D01*
X200413D01*
X200880D02*
X201346Y49156D01*
X202746Y50556D02*
X201813D01*
Y49856D01*
X202279Y50089D01*
X202513D01*
X202746Y49856D01*
Y49390D01*
X202513Y49156D01*
X202046D01*
X201813Y49390D01*
X203912Y49156D02*
Y50556D01*
X203212Y49856D01*
X204146D01*
X35965Y91620D02*
Y93020D01*
X35265D01*
X35032Y92786D01*
Y91853D01*
X35265Y91620D01*
X35965D01*
X34565D02*
X33632D01*
Y91853D01*
X34565Y92786D01*
Y93020D01*
X12811Y108268D02*
X11978D01*
X11811Y108101D01*
Y107768D01*
X11978Y107601D01*
X12811D01*
Y107268D02*
Y106602D01*
X12644D01*
X11978Y107268D01*
X11811D01*
X29588Y96578D02*
X30254D01*
X30421Y96744D01*
Y97078D01*
X30254Y97244D01*
X29588D01*
X29421Y97078D01*
Y96744D01*
X29754Y96911D02*
X29421Y96578D01*
Y96744D02*
X29588Y96578D01*
X29421Y95578D02*
Y96244D01*
X30088Y95578D01*
X30254D01*
X30421Y95745D01*
Y96078D01*
X30254Y96244D01*
X142933Y80866D02*
X142267D01*
X142100Y80700D01*
Y80367D01*
X142267Y80200D01*
X142933D01*
X143100Y80367D01*
Y80700D01*
X142767Y80533D02*
X143100Y80866D01*
Y80700D02*
X142933Y80866D01*
X143100Y81200D02*
Y81533D01*
Y81366D01*
X142100D01*
X142267Y81200D01*
X138300Y80700D02*
Y79300D01*
X137600D01*
X137367Y79534D01*
Y80000D01*
X137600Y80234D01*
X138300D01*
X137833D02*
X137367Y80700D01*
X135967D02*
X136900D01*
X135967Y79767D01*
Y79534D01*
X136201Y79300D01*
X136667D01*
X136900Y79534D01*
X135501D02*
X135268Y79300D01*
X134801D01*
X134568Y79534D01*
Y79767D01*
X134801Y80000D01*
X135034D01*
X134801D01*
X134568Y80234D01*
Y80467D01*
X134801Y80700D01*
X135268D01*
X135501Y80467D01*
D179*
X162960Y11728D02*
X164209D01*
X164459Y11977D01*
Y12477D01*
X164209Y12727D01*
X162960D01*
X164459Y13227D02*
Y13727D01*
Y13477D01*
X162960D01*
X163209Y13227D01*
X162960Y15476D02*
Y14477D01*
X163709D01*
X163459Y14976D01*
Y15226D01*
X163709Y15476D01*
X164209D01*
X164459Y15226D01*
Y14727D01*
X164209Y14477D01*
D180*
X153946Y31312D02*
X152963D01*
X152766Y31115D01*
Y30721D01*
X152963Y30525D01*
X153946D01*
X152766Y29541D02*
X153946D01*
X153356Y30131D01*
Y29344D01*
M02*
