M48
;Layer_Color=9474304
;FILE_FORMAT=2:5
INCH,LZ
;TYPE=PLATED
T1F00S00C0.00787
T2F00S00C0.00800
T3F00S00C0.01200
T4F00S00C0.01600
T5F00S00C0.03543
T6F00S00C0.03902
T7F00S00C0.07000
%
T01
X0164459Y0011728
X0152766Y0029343
Y003328
T02
X0278124Y0012221
X0293624Y00111
X0299213Y0011811
X030315
X0307087
X0311014Y0011802
X0312992Y0015767
X0322835Y0015813
Y0009843
X0326772Y0007924
X0330315Y0003937
X0322822Y000387
X0314961Y0003966
X0301181Y0002997
X0297244
X0293307
X028937
X0330709Y0011811
X0340945Y0002662
X0363779
Y0011631
X0268618
X026468
X0260743
X0256806
X0252869
Y0015568
X0256806
X0260743
X026468
X0268618
X0269125Y00025
X0272024
X0263625
X0246061Y0001967
X0241942Y0002394
X0238583Y0002362
X0235039Y0009449
X0229921Y0009843
X0226378Y001063
X0226772Y0006299
X0222441
X0219291Y0016142
X0229134Y0016535
X024252Y0015354
X0208661Y0016535
X0206693Y0010236
X0206537Y0006299
X0201969
X0192132Y0006727
Y0010417
X0179213Y00071
X0172113Y0006841
X0171191Y0011143
X01749
X0163626Y00028
X0156069Y0003346
X01569Y0006954
X0156069Y0014187
X0159055Y0016535
X01438Y001134
X0140945Y001378
X01438Y0002398
X0075984Y0002756
Y0011811
X0067546Y0002
X0065099
X0061193
X00578Y0001971
X0049707Y000405
Y0006924
X0049891Y0010331
X00372Y00168
X0020095Y0015791
X0014173Y0012598
X0016863Y0005793
X00208
X0002709Y000315
X0004581Y0018428
X0001969Y002126
Y0031102
X0009055Y003189
X0017184Y002498
X0020824Y0025433
X00208Y00228
X0014961Y0022441
X0014173Y0019291
X0031522Y0017204
X0033858Y002126
X0034074Y0025188
X0037008Y0025591
X0041339
X00382Y0021
X0041732Y0017717
X0050787
X0052362Y0035433
X0055905Y0035827
X0059055Y0035071
X005845Y0039005
X0061417Y0038583
X0065748Y0029921
X0068504Y00301
X0066535Y0048819
X0070866
X0074803Y0052362
X0072835Y0056299
X0072047Y0067716
X0061417
X005702Y007001
X0055905Y0077953
X0055445Y0088583
X0048726Y008189
X004252Y0087008
X0037995Y009252
X0030315Y0100394
X0025197
X0027953Y0104724
X002874Y0111417
X0023228Y0112205
X0018863Y0116142
X003665Y0111376
X0046443
X0056235
X0062992Y0114915
X0066114Y0094882
X00741Y0102756
X0072835Y0081896
X0038976Y0077165
X002874
X0029528Y0072441
X0025403Y0072813
X0028356Y0063286
X0027165Y0055421
X0024409Y0055512
X0031309Y0055421
X0034646Y0052362
X0035433Y0048425
X0029851Y0048031
X002603Y0048425
X0013811Y0045276
X0001969Y004685
Y0051968
X0005512
X0019672Y0061232
Y006427
X0015748Y008189
X0023262Y0084646
X0025197Y0087402
X000748Y0085355
X0002362Y0098819
X0002756Y0108661
X0013386Y0098819
X0047244Y0062552
X0046063Y0046457
X0041339Y0049053
X0034252Y0038189
X005Y0037008
X0030709Y0024409
X0132749Y0030383
X0132677Y003622
X0135827Y0018898
X01489Y00214
X01614Y00215
X0170845Y0022609
X0170079Y0018898
X0173622
X0182Y0026025
Y0029962
X0185937
Y0026025
X0189874
Y0029962
X0191013Y0036817
Y0039565
X0193913
Y0036817
X0198541Y0044062
X0208339Y004461
X0212205Y0041732
X0212139Y0031573
X0213468Y0027954
X0208681
X0206112Y0033991
X0217717Y0030406
X0225984Y0029134
X0227559Y0026378
X0225591Y0024409
X0227559Y0022047
X0234646Y0031102
X0238041Y0037002
X022441Y0037008
X0224016Y005315
X0226772
X022997
X0243701Y0052362
X0243274Y00567
X025748Y0055118
X0263386Y0059842
X0266655Y0051691
X0266929Y0046457
X0256693Y0040551
X025366Y00413
X0248425Y0040462
X0252869Y002738
Y0023442
Y0019505
X0256806
X0260743
X026468
X0268618
Y0023442
X026468
X0260743
X0256806
Y002738
X0260743
X026468
X0268618
X0243701Y001811
X020315Y0056299
X0198399Y0056487
X0191732Y0054331
X0190945Y0051575
X0175197Y0044882
Y004252
X0178013Y0036465
X01794Y00683
X0171667
X0163933
X01562
X0136614Y0071653
X0134252Y0074016
X0132749Y0076549
X013359Y0065748
X0133858Y0056299
X0142583Y0082284
X0143701Y0106299
Y0110236
Y0114173
X0138779
X0133858
Y0110236
Y0106299
X0138877Y0106167
X0285556Y0062992
X0287795Y0059055
Y0055118
X0285433Y005315
X0281496Y0053
X0283465Y0057087
X0284252Y0048031
X0287795
Y0050787
X0280709Y0043667
X02815Y0040551
X0281496Y0037402
Y0034449
Y0030512
X0277824Y00291
Y00322
X0278124Y00224
X0281496Y0022047
X0287402
X0296035Y0025591
Y0029559
X0298031Y0031459
X0300004Y0029528
Y0025591
X0307087
X0311014
X0312992Y0023634
Y0019701
X0308268Y0020866
X0307874Y0029559
Y0033465
X0309842Y0031573
X0311811Y0033465
Y0029528
X0315748Y0034252
X0320488Y0027974
X0323275Y0027159
X0322835Y0021654
X0326772Y0024485
X0329921Y0019685
Y0029528
X0327393Y003183
X0329921Y0035433
X0330709Y0039376
X0331496Y0043701
X0330797Y004685
X0329921Y0049213
X0322441
X0319291Y0051575
X0318322Y0043782
X0324803Y0061024
Y0066929
X032874
Y0062992
X0332677Y0061024
X0336614Y0062992
X0340551Y0061024
Y0066929
X0344488Y0062992
X0348425Y0061024
X0352362Y0060039
X0357087Y0055709
Y0050475
Y004252
X0351575
Y0037795
X0354331Y0033071
X0357087Y0029577
X0364173Y0029348
Y0037795
Y0047638
Y0060039
Y0066929
X0360236Y0070866
X0356424Y0074803
X035627Y007874
X0352362
Y0082677
X0356344
X0360236
Y007874
X0364173
Y0074803
Y0082677
X0363176Y0105291
X0352349
X0352362Y0070866
X0348425Y0066929
X0356299
X0351575Y0047638
X0340551Y0033465
Y0029528
X0336614Y0029528
X0336612Y0033465
X0300004
X0296035
X0297244Y0062992
Y0066929
X0301181
X0305112Y0062992
X0309449Y0061417
X0309055Y0066929
X0312992
T03
X02996Y00427
Y0045456
X0302356
Y00427
X0305112
Y0045456
X0307868
Y00427
X0310624
Y0045456
Y0048212
X0307868
Y0050967
Y0053723
X0310624
Y0050967
X0305112
Y0053723
X0302356
X02996
Y0050967
X0302356
Y0048212
X02996
X0305112
T04
X0307087Y0004331
X0308268Y0016945
X025106Y00377
X024586
X0230094Y0041281
X0221654Y0033858
X0240158Y0052756
X032696Y0039021
T05
X0046181Y0094488
X0056181
T06
X00541Y0004022
Y0012022
X00741Y0008022
T07
X0360236Y0019685
X0423228Y0019685
X0435039Y0066929
M30
